<?xml version="1.0" encoding="UTF-8"?>
<svg viewBox="0 0 1059.7812 748" xmlns="http://www.w3.org/2000/svg">
 <defs>
  <linearGradient id="e" x1="464" x2="597" y1="138.36" y2="180.36" gradientUnits="userSpaceOnUse">
   <stop stop-color="#2e3436" offset="0"/>
   <stop stop-color="#babdb6" offset="1"/>
  </linearGradient>
  <linearGradient id="d" x1="472" x2="552" y1="340.36" y2="229.03" gradientUnits="userSpaceOnUse">
   <stop stop-color="#005a40" offset="0"/>
   <stop stop-color="#096" offset="1"/>
  </linearGradient>
  <linearGradient id="a" x1="425.3" x2="443.69" y1="146.61" y2="222.27" gradientUnits="userSpaceOnUse">
   <stop stop-color="#fff" offset="0"/>
   <stop stop-color="#fff" offset="1"/>
  </linearGradient>
  <linearGradient id="c" x1="298.78" x2="451.68" y1="347.72" y2="643.85" gradientUnits="userSpaceOnUse">
   <stop stop-color="#eeeeec" offset="0"/>
   <stop stop-color="#d3d7cf" offset="1"/>
  </linearGradient>
  <linearGradient id="h" x2="0" y1="308.36" y2="634.36" gradientUnits="userSpaceOnUse">
   <stop stop-color="#00c4cc" offset="0"/>
   <stop stop-color="#00c4cc" stop-opacity="0" offset="1"/>
  </linearGradient>
  <linearGradient id="g" x1="64" x2="870" y1="909.36" y2="966.36" gradientUnits="userSpaceOnUse">
   <stop stop-color="#555753" offset="0"/>
   <stop stop-color="#616057" offset="1"/>
  </linearGradient>
  <linearGradient id="b" x1="583.84" x2="685.22" y1="251.58" y2="198.75" gradientUnits="userSpaceOnUse">
   <stop stop-color="#555753" offset="0"/>
   <stop stop-color="#555753" stop-opacity="0" offset="1"/>
  </linearGradient>
  <linearGradient id="i" x1="334.11" x2="320.14" y1="937.5" y2="949" gradientUnits="userSpaceOnUse">
   <stop stop-color="#00a7b3" offset="0"/>
   <stop stop-color="#a8dde0" offset="1"/>
  </linearGradient>
  <radialGradient id="f" cx="908" cy="681.09" r="94" gradientTransform="matrix(1 0 0 .52128 0 326.06)" gradientUnits="userSpaceOnUse">
   <stop stop-color="#eeeeec" offset="0"/>
   <stop stop-color="#eeeeec" stop-opacity="0" offset="1"/>
  </radialGradient>
 </defs>
 <g transform="translate(3.7716 -308.36)">
  <path d="m0 308.36h1056v378h-1056z" fill="url(#h)" opacity=".7"/>
  <path d="m833 674.36 37-26s-3-73 3-77 8 2 8 2l8 2 30-4 18 5-1 64 37 29-140 5z" fill="#e8d1ac"/>
  <path transform="translate(-3.7716 308.36)" d="m3.7812 356.34 0.84375 391.66h1055.2v-391.66h-1056z" fill="#debc85"/>
  <path d="m0 756.36-0.75 179.53 112.26 22.111 128.67 19.973 91.682 10.076 145.67 28.226 11.593-10.321 13.937 14.077 85.019 13.046 161.86 21.031 306.06 2.25v-138c-70.426-10.5-124.74-20.385-194.55-28.856-71.68-8.6982-148.84-16.059-220.47-32.999-37.316-8.8251-70.29-5.2952-108.36-10.871-15.808-2.3151-37.287-10.301-53.127-12.648-116.88-17.316-234.71-35.577-354.79-56.1-23.647-4.0413-38.896 0.315-62.729-3.9117l-61.976-16.614z" fill="url(#g)"/>
  <path transform="translate(0 308.27)" d="m-2 528.09 1048 176" fill="#e3ad00" stroke="#e3ad00" stroke-dasharray="21.25984252, 21.25984252" stroke-width="3.5433"/>
  <path d="m55.473 699.63c-0.90512-8.4107 1.5507-89.243 0-90.793-4.212-4.212-11.843 1.6204-11.843 5.9213 0 6.5826 5.6345 36.801 4.9344 37.502-0.59597 0.59597-4.9854 0-5.9213 0s-5.3253 0.59597-5.9213 0c-4.9539-4.9539 1.2222-30.358-1.9738-33.554-1.7281-1.7281-13.816-4.9406-13.816 1.9738 0 7.7163 0.52364 36.515 3.9475 36.515h10.856c21.21 0-13.196 66.144 19.738 42.436z" fill="#006e29"/>
  <path d="m696.99 599.31c0.93152 0.14942 2.5968 3.508 5.5132 11.936v50.926l-1.9354 6.0626c2.4765 0.63346 12.848 0.13117 12.848-2.4251 0-35.224 10.452 5.6868 2.425 9.7002-3.2332 1.6166-8.4802 1.2923-13.338 1.2315v4.8312c0 7.3315 1.8686 41.882-9.7002 30.313-4.7423-4.7422 4.4979-52.843 0-61.839-1.6113-3.2226-5.7256-3.3006-7.2752-4.8501-0.70697-0.70699-0.70697-16.268 0-16.975 2.4361-2.4361 0.60996 10.608 7.2752 7.2752 5.8815-2.9408 1.1439-36.675 4.187-36.186z" fill="#006e29"/>
  <path d="m86.744 602.02c0.60153 0.0965 1.6769 2.2653 3.5602 7.7076v32.886l-1.2498 3.915c1.5992 0.40906 8.2968 0.0847 8.2968-1.566 0-22.746 6.7493 3.6723 1.566 6.264-2.0879 1.0439-5.4761 0.83448-8.613 0.79523v3.1198c0 4.7344 1.2066 27.046-6.264 19.575-3.0624-3.0623 2.9046-34.124 0-39.933-1.0405-2.081-3.6974-2.1314-4.698-3.132-0.45653-0.45654-0.45653-10.505 0-10.962 1.5731-1.5731 0.39389 6.85 4.698 4.698 3.798-1.899 0.73868-23.683 2.7038-23.368z" fill="#006e29"/>
  <path transform="matrix(.96428 .07654 -.07402 .99707 189.61 874.92)" d="m884-124.91c0 20.435-109.24 37-244 37s-244-16.565-244-37 109.24-37 244-37 244 16.565 244 37z" fill="#b3925d" opacity=".31679"/>
  <path transform="matrix(.75598 .05803 -.05803 .75598 -55.907 760.65)" d="m884-124.91c0 20.435-109.24 37-244 37s-244-16.565-244-37 109.24-37 244-37 244 16.565 244 37z" fill="#b3925d" opacity=".20611"/>
  <path d="m967.58 728.46c1.1116-10.329-1.9044-109.6 0-111.51 5.1729-5.1729 14.544 1.99 14.544 7.2721 0 8.0843-6.9199 45.197-6.0601 46.057 0.73192 0.73193 6.1227 0 7.2721 0s6.5402 0.73193 7.2721 0c6.0841-6.0841-1.501-37.284 2.424-41.209 2.1224-2.1224 16.968-6.0676 16.968 2.424 0 9.4767-0.6431 44.845-4.8481 44.845h-13.332c-26.049 0 16.207 81.233-24.24 52.117z" fill="#006e29"/>
  <path transform="matrix(.39436 .03027 -.03027 .39436 492.76 730.25)" d="m884-124.91c0 20.435-109.24 37-244 37s-244-16.565-244-37 109.24-37 244-37 244 16.565 244 37z" fill="#b3925d" opacity=".20611"/>
  <path transform="matrix(.39436 .03027 -.03027 .39436 -151.24 734.25)" d="m884-124.91c0 20.435-109.24 37-244 37s-244-16.565-244-37 109.24-37 244-37 244 16.565 244 37z" fill="#b3925d" opacity=".20611"/>
  <path transform="matrix(.42554 0 0 .42554 520.56 840.04)" d="m506.29-111.5c-7.0334 2.46-12.728 0.0477-12.728 8.4853 0 4.8239 11.409 4.9974 15.556 7.0711 6.1899 3.0949 5.553 5.5529 9.8995 9.8995 15.705 15.705 40.636-47.367-12.728-25.456z" fill="#75511a"/>
  <path transform="matrix(.42554 0 0 .42554 520.56 840.04)" d="m569.93-124.23c5.088 1.6947 9.7617-4.2426 12.728-4.2426 3.7698 0 12.258-1.6493 15.556 0 1.1078 0.5539 3.7104 4.7749 5.6568 2.8284 16.703-16.703-46.596-11.387-46.669-11.314-3.1578 3.1578 6.4041 11.616 12.728 12.728z" fill="#75511a"/>
  <path transform="matrix(.42554 0 0 .42554 520.56 840.04)" d="m602.45-111.5c7.722 2.7997 22.352-0.27498 28.284 5.6568 6.4465 6.4465 19.544 9.6444 24.042 14.142 4.1712 4.1712-16.194 16.971-19.799 16.971-3.4766 0-10.473 3.0196-14.142 4.2426-15.288 5.0958-27.67-7.4712-38.184-12.728-3.5388-1.7694-9.4995-2.4285-12.728-5.6568-14.312-14.312 16.832-24.352 32.527-22.627z" fill="#75511a"/>
  <g fill="#75511a" opacity=".7">
   <path transform="matrix(.36373 0 0 .36373 36.209 725.52)" d="m506.29-111.5c-7.0334 2.46-12.728 0.0477-12.728 8.4853 0 4.8239 11.409 4.9974 15.556 7.0711 6.1899 3.0949 5.553 5.5529 9.8995 9.8995 15.705 15.705 40.636-47.367-12.728-25.456z"/>
   <path transform="matrix(.36373 0 0 .36373 36.209 725.52)" d="m569.93-124.23c5.088 1.6947 9.7617-4.2426 12.728-4.2426 3.7698 0 12.258-1.6493 15.556 0 1.1078 0.5539 3.7104 4.7749 5.6568 2.8284 16.703-16.703-46.596-11.387-46.669-11.314-3.1578 3.1578 6.4041 11.616 12.728 12.728z"/>
   <path transform="matrix(.36373 0 0 .36373 36.209 725.52)" d="m602.45-111.5c7.722 2.7997 22.352-0.27498 28.284 5.6568 6.4465 6.4465 19.544 9.6444 24.042 14.142 4.1712 4.1712-16.194 16.971-19.799 16.971-3.4766 0-10.473 3.0196-14.142 4.2426-15.288 5.0958-27.67-7.4712-38.184-12.728-3.5388-1.7694-9.4995-2.4285-12.728-5.6568-14.312-14.312 16.832-24.352 32.527-22.627z"/>
  </g>
  <path transform="matrix(.42554 0 0 .42554 520.56 840.04)" d="m506.29-111.5c-7.0334 2.46-12.728 0.0477-12.728 8.4853 0 4.8239 11.409 4.9974 15.556 7.0711 6.1899 3.0949 5.553 5.5529 9.8995 9.8995 15.705 15.705 40.636-47.367-12.728-25.456z" fill="#75511a"/>
  <path transform="matrix(.42554 0 0 .42554 520.56 840.04)" d="m569.93-124.23c5.088 1.6947 9.7617-4.2426 12.728-4.2426 3.7698 0 12.258-1.6493 15.556 0 1.1078 0.5539 3.7104 4.7749 5.6568 2.8284 16.703-16.703-46.596-11.387-46.669-11.314-3.1578 3.1578 6.4041 11.616 12.728 12.728z" fill="#75511a"/>
  <path transform="matrix(.42554 0 0 .42554 520.56 840.04)" d="m602.45-111.5c7.722 2.7997 22.352-0.27498 28.284 5.6568 6.4465 6.4465 19.544 9.6444 24.042 14.142 4.1712 4.1712-16.194 16.971-19.799 16.971-3.4766 0-10.473 3.0196-14.142 4.2426-15.288 5.0958-27.67-7.4712-38.184-12.728-3.5388-1.7694-9.4995-2.4285-12.728-5.6568-14.312-14.312 16.832-24.352 32.527-22.627z" fill="#75511a"/>
  <g fill="#75511a" opacity=".7">
   <path transform="matrix(.58625 0 0 .58625 -119.62 822.18)" d="m506.29-111.5c-7.0334 2.46-12.728 0.0477-12.728 8.4853 0 4.8239 11.409 4.9974 15.556 7.0711 6.1899 3.0949 5.553 5.5529 9.8995 9.8995 15.705 15.705 40.636-47.367-12.728-25.456z"/>
   <path transform="matrix(.58625 0 0 .58625 -119.62 822.18)" d="m602.45-111.5c7.722 2.7997 22.352-0.27498 28.284 5.6568 6.4465 6.4465 19.544 9.6444 24.042 14.142 4.1712 4.1712-16.194 16.971-19.799 16.971-3.4766 0-10.473 3.0196-14.142 4.2426-15.288 5.0958-27.67-7.4712-38.184-12.728-3.5388-1.7694-9.4995-2.4285-12.728-5.6568-14.312-14.312 16.832-24.352 32.527-22.627z"/>
  </g>
  <path transform="matrix(-.52444 0 0 .52444 568.28 1061.7)" d="m506.29-111.5c-7.0334 2.46-12.728 0.0477-12.728 8.4853 0 4.8239 11.409 4.9974 15.556 7.0711 6.1899 3.0949 5.553 5.5529 9.8995 9.8995 15.705 15.705 40.636-47.367-12.728-25.456z" fill="#75511a"/>
  <path transform="matrix(-.52444 0 0 .52444 568.28 1061.7)" d="m569.93-124.23c5.088 1.6947 9.7617-4.2426 12.728-4.2426 3.7698 0 12.258-1.6493 15.556 0 1.1078 0.5539 3.7104 4.7749 5.6568 2.8284 16.703-16.703-46.596-11.387-46.669-11.314-3.1578 3.1578 6.4041 11.616 12.728 12.728z" fill="#75511a"/>
  <path transform="matrix(-.52444 0 0 .52444 568.28 1061.7)" d="m602.45-111.5c7.722 2.7997 22.352-0.27498 28.284 5.6568 6.4465 6.4465 19.544 9.6444 24.042 14.142 4.1712 4.1712-16.194 16.971-19.799 16.971-3.4766 0-10.473 3.0196-14.142 4.2426-15.288 5.0958-27.67-7.4712-38.184-12.728-3.5388-1.7694-9.4995-2.4285-12.728-5.6568-14.312-14.312 16.832-24.352 32.527-22.627z" fill="#75511a"/>
  <path transform="matrix(-.35137 0 0 -.45026 274.86 938.18)" d="m506.29-111.5c-7.0334 2.46-12.728 0.0477-12.728 8.4853 0 4.8239 11.409 4.9974 15.556 7.0711 6.1899 3.0949 5.553 5.5529 9.8995 9.8995 15.705 15.705 40.636-47.367-12.728-25.456z" fill="#75511a"/>
  <path transform="matrix(-.35137 0 0 -.45026 274.86 938.18)" d="m569.93-124.23c5.088 1.6947 9.7617-4.2426 12.728-4.2426 3.7698 0 12.258-1.6493 15.556 0 1.1078 0.5539 3.7104 4.7749 5.6568 2.8284 16.703-16.703-46.596-11.387-46.669-11.314-3.1578 3.1578 6.4041 11.616 12.728 12.728z" fill="#75511a"/>
  <path transform="matrix(-.35137 0 0 -.45026 274.86 938.18)" d="m602.45-111.5c7.722 2.7997 22.352-0.27498 28.284 5.6568 6.4465 6.4465 19.544 9.6444 24.042 14.142 4.1712 4.1712-16.194 16.971-19.799 16.971-3.4766 0-10.473 3.0196-14.142 4.2426-15.288 5.0958-27.67-7.4712-38.184-12.728-3.5388-1.7694-9.4995-2.4285-12.728-5.6568-14.312-14.312 16.832-24.352 32.527-22.627z" fill="#75511a"/>
  <path transform="matrix(1.4787 0 0 1.1633 -449.68 189.07)" d="m1002 681.09c0 27.062-42.085 49-94 49s-94-21.938-94-49 42.085-49 94-49 94 21.938 94 49z" fill="url(#f)" opacity=".14504"/>
  <g transform="matrix(.8434 0 0 .8434 406.09 209.17)">
   <path d="m621.18 930.14c4.5247-9.4736-0.18827-23.023 4.7195-32.156 1.3054-5.1781-2.6679-10.665-3.3133-15.693-0.67053-2.9016-4.533-21.797-7.3179-15.06-2.9609 7.6727-4.738 16.235-7.9717 23.802-3.7239 3.6444-9.3558 5.0828-12.959 8.868-4.4736-0.47153-6.3864 5.8322-10.834 5.0747 0.60364-3.1342 3.6591-5.5506 5.0247-8.5363 3.4476-7.1688 9.8557-12.453 11.005-20.608 1.2031-9.9833 2.9197-19.909 4.4484-29.853 2.4467-4.0024 6.9721 0.46058 10.033 1.3274 5.9847 2.622 11.908 5.4259 17.499 8.82-0.0908 14.258 5.554 28.919 7.7379 43.11-6.3096 10.023-7.8401 24.56-18.072 30.904z" fill="#00438a"/>
   <path d="m604.09 845.04c6.364-15.91-0.12967-38.626-0.12967-38.626l-10.671-43.611 10.541 4.985 1.8471 18.586c2.3771 9.6387 6.9703 17.204 7.1822 18.107l11.474 8.3357c1.8994 1.0208 3.3696 2.9119 4.9979 1.5088 0.24061-0.69552 6.8544-9.4037 8.2155-18.92s-2.7159-16.835-2.5782-16.697c0.0987 0.0987 11.819-3.9584 12.324 3.8763 0.19921 3.096-3.4755 15.397-3.259 19.038l-10.278 20.896c-2.4085 7.5807-4.2819 13.855-1.417 34.676-1.9988-1.1959-5.504-2.3919-8.3385-3.5878-1.4142 2.1213-10.993-4.4586-19.911-8.567z" fill="#cf4913"/>
   <path transform="matrix(1.2051 0 0 .84524 -128.82 123.46)" d="m630.42 802.21c1.5284 8.3846-0.39266 13.362-3.1 15.241-0.87069 0.60449-2.1161 2.5618-3.0608 2.5358-2.6946-0.074-4.8823-7.5595-4.6353-13.125 0.10663-2.402-3.1392-3.093-3.1392-5.4892 0-8.201 4.2602-12.758 8.0678-12.758s5.8675 5.3934 5.8675 13.594z" fill="#f29b68"/>
   <path d="m594.57 768.02-6.2523-11.413 5.6568 3.3743-0.0992-8.6342 3.8705 8.3364 3.3743-13.299-0.19848 14.093 4.3667-5.3591-2.0841 11.611-3.3743 2.0841-4.6644-0.89319-0.59545 0.0992z" fill="#f29b68"/>
   <path d="m645.7 779.33 6.2523-11.413-5.6568 3.3743 0.0992-8.6342-3.8705 8.3364-3.3743-13.299 0.19848 14.093-4.3667-5.3591 2.0841 11.611 3.3743 2.0841 4.6644-0.89319 0.59545 0.0992z" fill="#f29b68"/>
   <path transform="matrix(1 0 0 .62541 .625 298.99)" d="m623.67 800.87c0 1.1058-0.55402 2.0022-1.2374 2.0022s-1.2374-0.89642-1.2374-2.0022 0.55402-2.0022 1.2374-2.0022 1.2374 0.89643 1.2374 2.0022z" fill="#2e3436"/>
   <path transform="matrix(1 0 0 .62541 6.375 298.87)" d="m623.67 800.87c0 1.1058-0.55402 2.0022-1.2374 2.0022s-1.2374-0.89642-1.2374-2.0022 0.55402-2.0022 1.2374-2.0022 1.2374 0.89643 1.2374 2.0022z" fill="#2e3436"/>
   <path transform="matrix(1.5989 0 0 1 -368.8 7.5)" d="m623.67 800.87c0 1.1058-0.55402 2.0022-1.2374 2.0022s-1.2374-0.89642-1.2374-2.0022 0.55402-2.0022 1.2374-2.0022 1.2374 0.89643 1.2374 2.0022z" fill="#2e3436"/>
   <path d="m619.88 798.61s1.4464-2.7661 4.5-1.7288" fill="none" stroke="#000" stroke-width=".70866"/>
   <path d="m627 796.99s2.5714-1.8911 3.375 1.0212" fill="none" stroke="#000" stroke-width=".70866"/>
   <path d="m621.02 792.15-4.5962 2.4749-0.70711 2.8284 1.0607 2.1213-1.0607 2.4749 1.7678 1.7678v1.4142l-4.4194-3.3588-0.88388-0.53034-0.70711-5.3033 2.4749-5.6568 7.6014-2.8284 5.1265 0.35356 3.182 2.8284-0.17678 2.8284-3.182-0.53033-5.4801-0.88388z" fill="#1d0a55"/>
   <path transform="translate(0 308.27)" d="m607.23 508.63 5.1265 10.96 19.092 0.35355-19.445 1.7678c-0.83483 5.6863-3.2338 10.702-1.0607 17.678l-6.0104-3.5355 2.2981-27.224z" fill="#ac4311"/>
   <path transform="translate(0 308.27)" d="m619.5 562.34 10 28.25 5.75 4.25-9.25 20.25-0.75-18.25 2.25-7.5-8-27z" fill="#00316e"/>
   <path transform="translate(0 308.27)" d="m598.25 577.09 6.25 5.25-14.25 10-3.5 2.75 2.75-7.5 5.75-0.5-4.5-1.5 5-4.25 2.5-4.25z" fill="#00316e"/>
   <path d="m582.99 901.55c1.9942 3.1063-5.1137 3.1876-7.6705 4.7814l9.1406 11.18 4.4955 2.3584 1.5265-3.0636-3.2386-2.3977-1.8695-6.3641 0.95897-3.5307-3.343-2.964z" fill="#2e3436"/>
   <path d="m621.17 924.55c2.9208 2.2572-3.7478 4.7185-5.6217 7.0778l12.362 7.4654 5.0262 0.71345 0.41014-3.3981-3.8553-1.1722-3.8963-5.368-0.28121-3.6478-4.1437-1.6706z" fill="#2e3436"/>
  </g>
  <path d="m655 652.36h-41c-7.4476 0-19.429 10.285-10 15 2.5446 1.2723 67.958-0.95816 68-1 6.733-6.733-6.6563-15.586-17-13" fill="#e8d1ac"/>
  <path d="m642.5 603.36h-20.3c-3.6875 0-9.62 37.015-4.9513 53.982 1.2599 4.5787 33.648-3.4482 33.669-3.5988 3.3337-24.231-3.2957-56.091-8.4172-46.784" fill="#e8d1ac"/>
  <path d="m646.86 604.78h-10.806c-1.9629 0-5.1209 36.07-2.6357 52.604 0.67066 4.4618 17.912-3.3602 17.923-3.5069 1.7746-23.612-1.7544-54.659-4.4806-45.59" fill="#d5b37c"/>
  <path d="m918.89 577.2c-1.9629 0-6.5351 50.212-4.0499 66.746 0.32925 2.1904 26.573 11.32 30.89 9.9507 4.4768-1.4197-12.973-13.383-12.967-13.458 1.7746-23.612 3.1954-69.508 0.4691-60.439" fill="#d5b37c"/>
  <path transform="translate(0 308.27)" d="m876.81 273.16v56.569l3.5355-38.184-3.5355-18.385z" fill="#d5b37c"/>
  <path transform="translate(0 308.27)" d="m886.71 275.99 1.4142 47.376 0.7071-41.719-2.1213-5.6569z" fill="#d5b37c"/>
  <path transform="translate(0 308.27)" d="m883.18 327.61 2.8284 16.971h-3.5355l0.70711-16.971z" fill="#d5b37c"/>
  <path transform="translate(0 308.27)" d="m896.61 281.65 2.8284 54.447 2.8284-6.364-5.6568-48.083z" fill="#d5b37c"/>
  <path transform="matrix(.30011 .01917 -.02304 .24971 756.98 707.28)" d="m884-124.91c0 20.435-109.24 37-244 37s-244-16.565-244-37 109.24-37 244-37 244 16.565 244 37z" fill="#b3925d" opacity=".20611"/>
  <path d="m815.09 604.67c-1.5365 0.24647-4.2832 5.7862-9.0937 19.688v84l3.1924 10c-4.0849 1.0449-21.192 0.21637-21.192-4 0-58.1-17.24 9.3802-4 16 5.333 2.6665 13.988 2.1315 22 2.0312v7.9688c0 12.093-3.0821 69.082 16 50 7.8221-7.8221-7.4191-87.162 0-102 2.6577-5.3154 9.4441-5.4441 12-8 1.1661-1.1661 1.1661-26.834 0-28-4.0182-4.0182-1.0061 17.497-12 12-9.7012-4.8506-1.8868-60.493-6.9063-59.688z" fill="#006e29"/>
  <path d="m179.38 786.52c-71.295 0.26386-138.09 15.095-170.53 40.906-3.4319 2.7305-6.357 5.5001-8.8438 8.3125v48.281c16.768 19.674 53.52 37.143 105.69 47.469 100.68 19.928 220.56 5.6375 267.75-31.906s3.8362-84.135-96.844-104.06c-31.462-6.2274-64.812-9.1199-97.219-9z" fill="#2e3436" opacity=".3"/>
  <g transform="matrix(.89844 0 0 .89844 51.407 159.17)">
   <path d="m631.34 397.88c-70.019 69.562-144.76 131.42-210.47 148.78-32.857 8.6798-62.779 6.9742-91.594-9s-57.146-47.213-82.969-100.19l-25.469 12.406c27.473 56.36 59.105 92.837 94.688 112.56s74.477 21.694 112.59 11.625c76.233-20.139 152.1-85.469 223.19-156.09l-19.969-20.094z"/>
   <path transform="matrix(.20547 -.00822 .01722 .25241 199.43 577.56)" d="m614.29 496.65c0 141.23-85.705 255.71-191.43 255.71s-191.43-114.49-191.43-255.71 85.706-255.71 191.43-255.71 191.43 114.49 191.43 255.71z" fill="#382509"/>
   <path transform="matrix(.98136 .19218 -.19218 .98136 -62.387 -86.292)" d="m614.29 496.65c0 141.23-85.705 255.71-191.43 255.71s-191.43-114.49-191.43-255.71 85.706-255.71 191.43-255.71 191.43 114.49 191.43 255.71z" fill="url(#c)"/>
   <path d="m160 709.51s-92.857 47.143-82.857 77.143-17.143-52.857-17.143-52.857 74.286-54.286 74.286-65.714 40 40 25.714 41.429z" fill="#eeeeec"/>
   <path transform="matrix(.20547 -.00822 .01722 .25241 -41.999 643.27)" d="m614.29 496.65c0 141.23-85.705 255.71-191.43 255.71s-191.43-114.49-191.43-255.71 85.706-255.71 191.43-255.71 191.43 114.49 191.43 255.71z" fill="#382509"/>
   <path transform="matrix(.20547 -.00822 .01722 .25241 275.14 671.84)" d="m614.29 496.65c0 141.23-85.705 255.71-191.43 255.71s-191.43-114.49-191.43-255.71 85.706-255.71 191.43-255.71 191.43 114.49 191.43 255.71z" fill="#382509"/>
   <path transform="matrix(.0794 -.00318 .00666 .09754 7.9864 718.05)" d="m614.29 496.65c0 141.23-85.705 255.71-191.43 255.71s-191.43-114.49-191.43-255.71 85.706-255.71 191.43-255.71 191.43 114.49 191.43 255.71z" fill="#eeeeec"/>
   <path d="m314.29 677.36s-15.714 27.857-8.5714 35 58.571 96.429 58.571 96.429c6 3 15.714 6.6988 15.714-8.5714l-52.643-95.929 21.786 31.071 14.429-7.1428s-35-58.714-49.286-50.857z" fill="#eeeeec"/>
   <path d="m138.03 493.31c34.301 240.83 221.69 181.26 399.03 91.169" fill="none" stroke="#000" stroke-width="28.346"/>
   <g transform="translate(-196.01 321)">
    <path d="m504.9 279.21c-18.386-3.9932-36.439-20.228-46.654-41.954-19.897-42.321-17.235-102.18 6.6521-149.6 8.2982-16.475 14.417-25.385 25.181-36.668 15.33-16.069 31.372-24.991 49.195-27.362 7.5649-1.0064 10.094-0.94026 16.897 0.44194 32.825 6.6697 55.385 38.846 61.447 87.64 6.697 53.9-16.403 119.05-53.051 149.61-19.102 15.932-39.932 22.178-59.668 17.892z" fill="url(#e)"/>
    <path d="m512.44 127.53c-7.4102 0.0404-14.881 1.0699-22.25 3.125-19.797 5.5213-36.149 17.805-47.938 34.312-1.3847 26.674 2.8733 52.742 13 74.281 10.215 21.727 28.27 37.976 46.656 41.969 19.736 4.2864 40.554-1.974 59.656-17.906 19.75-16.473 35.569-42.99 44.906-72.375-19.831-38.894-56.417-63.611-94.031-63.406z" fill="url(#d)"/>
    <path d="m530.52 45.758c-11.57 0-22.205 5.6245-30.67 15.05-2.8612-0.72726-5.7967-1.113-8.8044-1.113-27.572 0-49.924 31.892-49.924 71.232 0 19.736 5.643 37.596 14.73 50.496-3.1607 8.1443-3.8789 16.613-1.5722 24.728 7.5409 26.53 44.314 39.31 82.142 28.551s62.399-41.001 54.858-67.53c-2.4081-8.472-7.8091-15.532-15.263-20.881 2.8331-8.9406 4.4264-18.851 4.4264-29.301 0-39.34-22.352-71.232-49.924-71.232z" fill="#096"/>
    <g transform="matrix(.77402 0 0 .77426 155.51 -13.376)">
     <path transform="translate(-12,-5)" d="m468 187.86c0 29.547-14.327 53.5-32 53.5s-32-23.953-32-53.5 14.327-53.5 32-53.5 32 23.953 32 53.5z" fill="url(#a)" opacity=".89286"/>
     <path transform="matrix(.21053 0 0 .40909 352.6 99.123)" d="m450 208.36c0 12.15-8.5066 22-19 22s-19-9.8497-19-22 8.5066-22 19-22 19 9.8497 19 22z" fill="#e4f4ef"/>
     <path d="m443.61 173.56c-12.785 5.1364-21.806 17.624-21.806 32.246 0 9.1313 3.535 17.417 9.2926 23.62 10.411-4.8235 17.919-18.256 17.919-34.098 0-8.1872-2.0346-15.719-5.4053-21.769z" fill="#1d0a55"/>
     <path d="m443.93 177.81c-5.0176 2.0158-8.5581 6.9169-8.5581 12.655 0 3.5837 1.3873 6.8354 3.647 9.27 4.0858-1.893 7.0324-7.1646 7.0324-13.382 0-3.2132-0.7985-6.1692-2.1214-8.5436z" fill="#fff"/>
    </g>
    <path d="m500.86 60.406s11.767 2.4637 17.788 11.223l-12.315-16.698-5.4731 5.4749z" fill="#00583f"/>
    <path d="m480.06 191.53s100.16 7.1173 99.611-23.542 1.0946 15.877 1.0946 15.877-26.271 48.726-100.71 7.6648z" fill="#382509" stroke="#000"/>
    <g transform="matrix(.68721 0 0 .68743 254.94 -20.338)">
     <path transform="translate(-12,-5)" d="m468 187.86c0 29.547-14.327 53.5-32 53.5s-32-23.953-32-53.5 14.327-53.5 32-53.5 32 23.953 32 53.5z" fill="url(#a)" opacity=".89286"/>
     <path transform="matrix(.21053 0 0 .40909 352.6 99.123)" d="m450 208.36c0 12.15-8.5066 22-19 22s-19-9.8497-19-22 8.5066-22 19-22 19 9.8497 19 22z" fill="#e4f4ef"/>
     <path d="m443.61 173.56c-12.785 5.1364-21.806 17.624-21.806 32.246 0 9.1313 3.535 17.417 9.2926 23.62 10.411-4.8235 17.919-18.256 17.919-34.098 0-8.1872-2.0346-15.719-5.4053-21.769z" fill="#1d0a55"/>
     <path d="m443.93 177.81c-5.0176 2.0158-8.5581 6.9169-8.5581 12.655 0 3.5837 1.3873 6.8354 3.647 9.27 4.0858-1.893 7.0324-7.1646 7.0324-13.382 0-3.2132-0.7985-6.1692-2.1214-8.5436z" fill="#fff"/>
    </g>
    <path transform="matrix(.77402 0 0 .77426 155.51 -13.376)" d="m429.21 107.31c0 3.3195-2.691 6.0104-6.0104 6.0104s-6.0104-2.691-6.0104-6.0104 2.691-6.0104 6.0104-6.0104 6.0104 2.691 6.0104 6.0104z" fill="#00583f"/>
    <path transform="matrix(.77402 0 0 .77426 155.51 -13.376)" d="m451.13 125.35c0 1.1716-0.94975 2.1213-2.1213 2.1213s-2.1213-0.94975-2.1213-2.1213 0.94974-2.1213 2.1213-2.1213 2.1213 0.94975 2.1213 2.1213z" fill="#00583f"/>
    <path transform="matrix(.77402 0 0 .77426 155.51 -13.376)" d="m442.65 109.79c0 2.3432-1.8995 4.2426-4.2426 4.2426s-4.2426-1.8995-4.2426-4.2426 1.8995-4.2426 4.2426-4.2426 4.2426 1.8995 4.2426 4.2426z" fill="#00583f" opacity=".8"/>
    <path d="m535.05 199.34-5.8823-4.8539-1.0847 1.6036c-0.5966 0.882-1.9185 2.9345-2.9375 4.5611s-1.926 3.0396-2.0154 3.14-1.3187 0.03-2.7316-0.15657c-2.4744-0.3267-2.6215-0.44233-3.9942-3.14-0.78391-1.5405-1.6656-3.3391-1.9594-3.997-0.52858-1.1837-0.56821-1.1664-3.8114 1.6592l-3.2772 2.8553-3.6652-1.0739c-3.3598-0.98436-3.7181-1.2254-4.2994-2.8914-0.34882-0.99966-0.74209-2.1153-0.87394-2.4793-0.1814-0.50078-0.83903-0.35255-2.7033 0.60936l-2.4636 1.2711-5.232-2.1807c-2.8776-1.1994-5.5229-2.3608-5.8784-2.581s8.2101-0.40337 19.035-0.40715c26.31-9e-3 42.881-1.4433 56.631-4.9011 9.9085-2.4917 18.023-6.9127 20.85-11.359 0.34129-0.53693 0.80127-0.81708 1.0222-0.62257s0.145 0.63629-0.16874 0.98171c-0.32793 0.36105-0.37858 1.0471-0.11913 1.6138 0.24822 0.54221 0.46901 2.1548 0.49066 3.5836l0.0394 2.5978-2.2936-1.0302c-1.2615-0.56662-2.3964-0.93973-2.522-0.82915s0.0247 1.3763 0.33418 2.8126c0.72339 3.3584 0.71303 3.5861-0.21363 4.7019-0.73221 0.88164-0.9415 0.7753-3.6952-1.8774-1.6054-1.5466-3.0827-2.8106-3.2827-2.809s-1.3714 3.0172-2.6031 6.7014c-2.1551 6.4463-2.3149 6.7326-4.2467 7.6057l-2.0073 0.9073-4.6703-4.1334c-2.5686-2.2733-4.8295-4.0467-5.0241-3.9408s-1.704 2.9594-3.3542 6.3412c-2.4019 4.9223-3.2505 6.1908-4.2547 6.3598-0.9747 0.16405-2.5659-0.87112-7.1367-4.6427z" fill="#fff"/>
    <path d="m532.36 161.54c0 8.643-2.313 9.2726-5.1662 9.2726s-5.1663-0.62959-5.1663-9.2726 3.7047-14.899 6.5579-14.899 3.7746 6.2563 3.7746 14.899z" fill="#382509"/>
    <path d="m535.34 158.51c1.4106 7.4024 3.5301 7.557 6.018 7.0826s4.4019-1.3982 2.9913-8.8005-5.6619-12.145-8.1497-11.67-2.2702 5.9858-0.85955 13.388z" fill="#382509"/>
    <path transform="matrix(.77402 0 0 .77426 181.05 93.472)" d="m429.21 107.31c0 3.3195-2.691 6.0104-6.0104 6.0104s-6.0104-2.691-6.0104-6.0104 2.691-6.0104 6.0104-6.0104 6.0104 2.691 6.0104 6.0104z" fill="#00583f"/>
    <path transform="matrix(.77402 0 0 .77426 167.89 86.504)" d="m451.13 125.35c0 1.1716-0.94975 2.1213-2.1213 2.1213s-2.1213-0.94975-2.1213-2.1213 0.94974-2.1213 2.1213-2.1213 2.1213 0.94975 2.1213 2.1213z" fill="#00583f"/>
    <path transform="matrix(.77402 0 0 .77426 181.05 93.472)" d="m442.65 109.79c0 2.3432-1.8995 4.2426-4.2426 4.2426s-4.2426-1.8995-4.2426-4.2426 1.8995-4.2426 4.2426-4.2426 4.2426 1.8995 4.2426 4.2426z" fill="#00583f" opacity=".8"/>
    <path transform="matrix(.47007 .35928 -.35916 .47022 399.18 -50.79)" d="m429.21 107.31c0 3.3195-2.691 6.0104-6.0104 6.0104s-6.0104-2.691-6.0104-6.0104 2.691-6.0104 6.0104-6.0104 6.0104 2.691 6.0104 6.0104z" fill="#00583f"/>
    <path transform="matrix(.47007 .35928 -.35916 .47022 394.42 -61.13)" d="m451.13 125.35c0 1.1716-0.94975 2.1213-2.1213 2.1213s-2.1213-0.94975-2.1213-2.1213 0.94974-2.1213 2.1213-2.1213 2.1213 0.94975 2.1213 2.1213z" fill="#00583f"/>
    <path transform="matrix(.47007 .35928 -.35916 .47022 399.18 -50.79)" d="m442.65 109.79c0 2.3432-1.8995 4.2426-4.2426 4.2426s-4.2426-1.8995-4.2426-4.2426 1.8995-4.2426 4.2426-4.2426 4.2426 1.8995 4.2426 4.2426z" fill="#00583f" opacity=".8"/>
    <path transform="matrix(.47007 .35928 -.35916 .47022 373.25 -147.19)" d="m429.21 107.31c0 3.3195-2.691 6.0104-6.0104 6.0104s-6.0104-2.691-6.0104-6.0104 2.691-6.0104 6.0104-6.0104 6.0104 2.691 6.0104 6.0104z" fill="#00583f"/>
    <path transform="matrix(.47007 .35928 -.35916 .47022 368.49 -157.53)" d="m451.13 125.35c0 1.1716-0.94975 2.1213-2.1213 2.1213s-2.1213-0.94975-2.1213-2.1213 0.94974-2.1213 2.1213-2.1213 2.1213 0.94975 2.1213 2.1213z" fill="#00583f"/>
    <path transform="matrix(.47007 .35928 -.35916 .47022 373.25 -147.19)" d="m442.65 109.79c0 2.3432-1.8995 4.2426-4.2426 4.2426s-4.2426-1.8995-4.2426-4.2426 1.8995-4.2426 4.2426-4.2426 4.2426 1.8995 4.2426 4.2426z" fill="#00583f" opacity=".8"/>
    <path d="m540.34 9.6562c-46.656-0.03835-92.942 52.002-106.91 123.31-15.148 77.354 13.475 148.09 63.906 157.97s103.57-44.834 118.72-122.19-13.444-148.06-63.875-157.94c-3.94-0.77156-7.8899-1.153-11.844-1.1562zm5.6875 13.844c3.6222 3e-3 7.2343 0.35567 10.844 1.0625 46.201 9.0475 72.409 73.823 58.531 144.69s-62.58 120.98-108.78 111.94-72.409-73.854-58.531-144.72c12.793-65.328 55.196-113 97.938-112.97z" fill="#2e3436"/>
    <path d="m640.54 190.25c-16.779 70.865-67.073 101.98-122.93 92.93s-87.542-73.829-70.763-144.69 75.664-120.98 131.52-111.93 78.951 92.829 62.172 163.69z" fill="#a8dde0" opacity=".27857"/>
    <path d="m591.17 61.477 22.732-10.828c15.028 25.073 6.9772 33.365 6.9772 33.365l-22.732 10.828s5.5343-21.494-6.9773-33.365z" fill="#fff" opacity=".82857"/>
    <path d="m562.17 71.477 22.732-10.828c15.028 25.073 6.9772 33.365 6.9772 33.365l-22.732 10.828s5.5343-21.494-6.9773-33.365z" fill="#fff" opacity=".82857"/>
   </g>
   <path d="m595.5 431.36s-4.5 23 21 21" fill="none" stroke="#fff"/>
   <path d="m595.5 431.36s-4.5 23 21 21" fill="none" stroke="#fff" stroke-width="1.1339"/>
   <path d="m573.5 451.36s-4.5 23 21 21" fill="none" stroke="#fff" stroke-width="1.1339"/>
   <path d="m552 470.36s-4.5 23 21 21" fill="none" stroke="#fff" stroke-width="1.1339"/>
   <path d="m525 490.86s-4.5 23 21 21" fill="none" stroke="#fff" stroke-width="1.1339"/>
   <path d="m498.5 509.36s-4.5 23 21 21" fill="none" stroke="#fff" stroke-width="1.1339"/>
   <path d="m472.5 525.36s-4.5 23 21 21" fill="none" stroke="#fff" stroke-width="1.1339"/>
   <path d="m441 540.36s-4.5 23 21 21" fill="none" stroke="#fff" stroke-width="1.1339"/>
   <path d="m444.42 541.48 24.042-10.96" fill="none" stroke="#fff" stroke-linecap="round" stroke-width="1.7716"/>
   <path d="m475.53 527.69 20.506-12.021" fill="none" stroke="#fff" stroke-linecap="round" stroke-width="1.7716"/>
   <path d="m501.69 513.55 19.799-14.849" fill="none" stroke="#fff" stroke-linecap="round" stroke-width="1.7716"/>
   <path d="m528.21 493.75 19.799-14.849" fill="none" stroke="#fff" stroke-linecap="round" stroke-width="1.7716"/>
   <path d="m554.73 472.89 15.556-13.435" fill="none" stroke="#fff" stroke-linecap="round" stroke-width="1.7716"/>
   <path d="m577 453.8 15.556-13.435" fill="none" stroke="#fff" stroke-linecap="round" stroke-width="1.7716"/>
   <path d="m619 409.86s-4.5 23 21 21" fill="none" stroke="#fff" stroke-width="1.1339"/>
   <path d="m622.88 407.3s23.435-0.17086 16.756 24.52" fill="none" stroke="#fff" stroke-width="1.1339"/>
   <path d="m624 410.74s4.7578-43.53 31.945-31.968-2.039 8.8421-2.039 8.8421l-23.789 29.247-6.1172-6.1214z" fill="#768887"/>
   <path d="m633.59 421.73s42.87 8.9271 40.275-20.503-9.0394-0.7932-9.0394-0.7932l-35.167 13.586 3.9315 7.7094z" fill="#888a85"/>
   <g transform="matrix(.96637 -.25716 .25716 .96637 -90.642 168.4)">
    <path d="m651.14 275.66c-27.357 2.575-51.273-23.525-78.736-24.407-10.121-0.32528-19.685 4.765-29.535 7.1135-11.464 2.7331-23.005 11.088-34.41 8.1198-18.629-4.8486-42.624-18.536-42.608-38.981 24.528 3.2719 34.643 18.933 52.418 15.101 20.469-28.971 24.122-26.196 58.845-35.019 28.424-10.726 54.932-37.477 82.725-25.209 10.803 4.7684 13.533 19.773 17.08 31.036 3.1046 9.8579 5.0689 20.643 3.3142 30.828-1.3466 7.8162-4.8181 15.723-10.313 21.443-4.9109 5.1113-11.722 9.3115-18.779 9.9757z" fill="#619d9e" stroke="#000" stroke-width="1.113"/>
    <path d="m650.75 181.38c-16.43 0-29.75 21.54-29.75 48.125 0 23.419 10.338 42.905 24.031 47.219l0.96875 47.156v65.5l-1 58h12l-2-94 1.9688-76.812c13.444-4.6254 23.531-23.929 23.531-47.062 0-26.585-13.32-48.125-29.75-48.125zm0 8.5c13.529 0 24.5 17.734 24.5 39.625s-10.971 39.625-24.5 39.625-24.5-17.734-24.5-39.625 10.971-39.625 24.5-39.625z" fill="#96602c"/>
    <path d="m645.16 267.82c-5.3346-2.3026-9.5003-6.4444-12.659-12.586-7.2021-14.005-7.9424-32.575-1.8954-47.546 2.8447-7.0428 7.816-13.162 12.829-15.791 2.4298-1.2744 3.2606-1.4399 7.2446-1.444 4.1769-4e-3 4.7258 0.11787 7.646 1.7013 7.7233 4.1878 13.248 13.554 15.64 26.516 3.7381 20.252-3.6999 42.426-16.286 48.552-3.2914 1.6018-9.5069 1.899-12.52 0.5986z" fill="url(#b)"/>
    <path d="m597.86 203.83c-4.7216 4.7849-10.656 24.49-12.021 36.77" fill="none" stroke="#000"/>
    <path d="m591.49 208.43c-1.2902 3.6026-3.5193 7.1911-4.5962 10.96" fill="none" stroke="#000"/>
    <path d="m557.55 228.58c-1.1368 4.5854-2.1213 9.2616-2.1213 14.142" fill="none" stroke="#000"/>
    <path d="m553.66 236.01v10.96" fill="none" stroke="#000"/>
    <path d="m529.98 245.2c-1.2448 4.9436-1.4142 10.228-1.4142 15.556" fill="none" stroke="#000"/>
    <path d="m606.63 241.44c-1.0499 6.6635-1.859 13.433-1.1653 20.343" fill="none" stroke="#000"/>
   </g>
   <path transform="matrix(1 0 0 1.1062 2.7071 -59.345)" d="m164.76 483.49c0 22.065-13.138 39.952-29.345 39.952s-29.345-17.887-29.345-39.952 13.138-39.952 29.345-39.952 29.345 17.887 29.345 39.952z" fill="#2e3436" opacity=".1"/>
   <path d="m151.38 492.16c-6.0706-8.625-14.093-15.999-24.379-9.7929-2.8173 3.7976-2.8288 9.1223-3.1464 13.707l7.1464 5.7929 20.379-9.7071z" stroke="#000"/>
   <path d="m623.06 409.91s4.7578-43.53 31.945-31.968-2.039 8.8421-2.039 8.8421l-23.789 29.247-6.1172-6.1214z" fill="#768887"/>
   <path d="m527.34 576.87s4.7578-43.53 31.945-31.968-2.039 8.8421-2.039 8.8421l-23.789 29.247-6.1172-6.1214z" fill="#768887"/>
   <path d="m535.65 593.13s42.87 8.9271 40.275-20.503-9.0394-0.7932-9.0394-0.7932l-35.167 13.586 3.9315 7.7094z" fill="#888a85"/>
   <path d="m599.82 433.21 15.556-13.435" fill="none" stroke="#fff" stroke-linecap="round" stroke-width="1.7716"/>
   <path d="m521.23 575.66s-11.196 20.589 13.728 26.335" fill="none" stroke="#fff" stroke-width="1.1339"/>
   <path d="m490.63 591.8s-11.196 20.589 13.728 26.335" fill="none" stroke="#fff" stroke-width="1.1339"/>
   <path d="m457.23 605.72s-11.196 20.589 13.728 26.335" fill="none" stroke="#fff" stroke-width="1.1339"/>
   <path d="m425.51 620.19s-11.196 20.589 13.728 26.335" fill="none" stroke="#fff" stroke-width="1.1339"/>
  </g>
  <g transform="matrix(.89844 0 0 .89844 51.407 159.17)">
   <path d="m631.34 397.88c-70.019 69.562-144.76 131.42-210.47 148.78-32.857 8.6798-62.779 6.9742-91.594-9s-57.146-47.213-82.969-100.19l-25.469 12.406c27.473 56.36 59.105 92.837 94.688 112.56s74.477 21.694 112.59 11.625c76.233-20.139 152.1-85.469 223.19-156.09l-19.969-20.094z"/>
   <path transform="matrix(.20547 -.00822 .01722 .25241 199.43 577.56)" d="m614.29 496.65c0 141.23-85.705 255.71-191.43 255.71s-191.43-114.49-191.43-255.71 85.706-255.71 191.43-255.71 191.43 114.49 191.43 255.71z" fill="#382509"/>
   <path transform="matrix(.98136 .19218 -.19218 .98136 -62.387 -86.292)" d="m614.29 496.65c0 141.23-85.705 255.71-191.43 255.71s-191.43-114.49-191.43-255.71 85.706-255.71 191.43-255.71 191.43 114.49 191.43 255.71z" fill="url(#c)"/>
   <path d="m160 709.51s-92.857 47.143-82.857 77.143-17.143-52.857-17.143-52.857 74.286-54.286 74.286-65.714 40 40 25.714 41.429z" fill="#eeeeec"/>
   <path transform="matrix(.20547 -.00822 .01722 .25241 -41.999 643.27)" d="m614.29 496.65c0 141.23-85.705 255.71-191.43 255.71s-191.43-114.49-191.43-255.71 85.706-255.71 191.43-255.71 191.43 114.49 191.43 255.71z" fill="#382509"/>
   <path transform="matrix(.20547 -.00822 .01722 .25241 275.14 671.84)" d="m614.29 496.65c0 141.23-85.705 255.71-191.43 255.71s-191.43-114.49-191.43-255.71 85.706-255.71 191.43-255.71 191.43 114.49 191.43 255.71z" fill="#382509"/>
   <path transform="matrix(.0794 -.00318 .00666 .09754 7.9864 718.05)" d="m614.29 496.65c0 141.23-85.705 255.71-191.43 255.71s-191.43-114.49-191.43-255.71 85.706-255.71 191.43-255.71 191.43 114.49 191.43 255.71z" fill="#eeeeec"/>
   <path d="m314.29 677.36s-15.714 27.857-8.5714 35 58.571 96.429 58.571 96.429c6 3 15.714 6.6988 15.714-8.5714l-52.643-95.929 21.786 31.071 14.429-7.1428s-35-58.714-49.286-50.857z" fill="#eeeeec"/>
   <path d="m138.03 493.31c34.301 240.83 221.69 181.26 399.03 91.169" fill="none" stroke="#000" stroke-width="28.346"/>
   <g transform="translate(-196.01 321)">
    <path d="m504.9 279.21c-18.386-3.9932-36.439-20.228-46.654-41.954-19.897-42.321-17.235-102.18 6.6521-149.6 8.2982-16.475 14.417-25.385 25.181-36.668 15.33-16.069 31.372-24.991 49.195-27.362 7.5649-1.0064 10.094-0.94026 16.897 0.44194 32.825 6.6697 55.385 38.846 61.447 87.64 6.697 53.9-16.403 119.05-53.051 149.61-19.102 15.932-39.932 22.178-59.668 17.892z" fill="url(#e)"/>
    <path d="m512.44 127.53c-7.4102 0.0404-14.881 1.0699-22.25 3.125-19.797 5.5213-36.149 17.805-47.938 34.312-1.3847 26.674 2.8733 52.742 13 74.281 10.215 21.727 28.27 37.976 46.656 41.969 19.736 4.2864 40.554-1.974 59.656-17.906 19.75-16.473 35.569-42.99 44.906-72.375-19.831-38.894-56.417-63.611-94.031-63.406z" fill="url(#d)"/>
    <path d="m530.52 45.758c-11.57 0-22.205 5.6245-30.67 15.05-2.8612-0.72726-5.7967-1.113-8.8044-1.113-27.572 0-49.924 31.892-49.924 71.232 0 19.736 5.643 37.596 14.73 50.496-3.1607 8.1443-3.8789 16.613-1.5722 24.728 7.5409 26.53 44.314 39.31 82.142 28.551s62.399-41.001 54.858-67.53c-2.4081-8.472-7.8091-15.532-15.263-20.881 2.8331-8.9406 4.4264-18.851 4.4264-29.301 0-39.34-22.352-71.232-49.924-71.232z" fill="#096"/>
    <g transform="matrix(.77402 0 0 .77426 155.51 -13.376)">
     <path transform="translate(-12,-5)" d="m468 187.86c0 29.547-14.327 53.5-32 53.5s-32-23.953-32-53.5 14.327-53.5 32-53.5 32 23.953 32 53.5z" fill="url(#a)" opacity=".89286"/>
     <path transform="matrix(.21053 0 0 .40909 352.6 99.123)" d="m450 208.36c0 12.15-8.5066 22-19 22s-19-9.8497-19-22 8.5066-22 19-22 19 9.8497 19 22z" fill="#e4f4ef"/>
     <path d="m443.61 173.56c-12.785 5.1364-21.806 17.624-21.806 32.246 0 9.1313 3.535 17.417 9.2926 23.62 10.411-4.8235 17.919-18.256 17.919-34.098 0-8.1872-2.0346-15.719-5.4053-21.769z" fill="#1d0a55"/>
     <path d="m443.93 177.81c-5.0176 2.0158-8.5581 6.9169-8.5581 12.655 0 3.5837 1.3873 6.8354 3.647 9.27 4.0858-1.893 7.0324-7.1646 7.0324-13.382 0-3.2132-0.7985-6.1692-2.1214-8.5436z" fill="#fff"/>
    </g>
    <path d="m500.86 60.406s11.767 2.4637 17.788 11.223l-12.315-16.698-5.4731 5.4749z" fill="#00583f"/>
    <path d="m480.06 191.53s100.16 7.1173 99.611-23.542 1.0946 15.877 1.0946 15.877-26.271 48.726-100.71 7.6648z" fill="#382509" stroke="#000"/>
    <g transform="matrix(.68721 0 0 .68743 254.94 -20.338)">
     <path transform="translate(-12,-5)" d="m468 187.86c0 29.547-14.327 53.5-32 53.5s-32-23.953-32-53.5 14.327-53.5 32-53.5 32 23.953 32 53.5z" fill="url(#a)" opacity=".89286"/>
     <path transform="matrix(.21053 0 0 .40909 352.6 99.123)" d="m450 208.36c0 12.15-8.5066 22-19 22s-19-9.8497-19-22 8.5066-22 19-22 19 9.8497 19 22z" fill="#e4f4ef"/>
     <path d="m443.61 173.56c-12.785 5.1364-21.806 17.624-21.806 32.246 0 9.1313 3.535 17.417 9.2926 23.62 10.411-4.8235 17.919-18.256 17.919-34.098 0-8.1872-2.0346-15.719-5.4053-21.769z" fill="#1d0a55"/>
     <path d="m443.93 177.81c-5.0176 2.0158-8.5581 6.9169-8.5581 12.655 0 3.5837 1.3873 6.8354 3.647 9.27 4.0858-1.893 7.0324-7.1646 7.0324-13.382 0-3.2132-0.7985-6.1692-2.1214-8.5436z" fill="#fff"/>
    </g>
    <path transform="matrix(.77402 0 0 .77426 155.51 -13.376)" d="m429.21 107.31c0 3.3195-2.691 6.0104-6.0104 6.0104s-6.0104-2.691-6.0104-6.0104 2.691-6.0104 6.0104-6.0104 6.0104 2.691 6.0104 6.0104z" fill="#00583f"/>
    <path transform="matrix(.77402 0 0 .77426 155.51 -13.376)" d="m451.13 125.35c0 1.1716-0.94975 2.1213-2.1213 2.1213s-2.1213-0.94975-2.1213-2.1213 0.94974-2.1213 2.1213-2.1213 2.1213 0.94975 2.1213 2.1213z" fill="#00583f"/>
    <path transform="matrix(.77402 0 0 .77426 155.51 -13.376)" d="m442.65 109.79c0 2.3432-1.8995 4.2426-4.2426 4.2426s-4.2426-1.8995-4.2426-4.2426 1.8995-4.2426 4.2426-4.2426 4.2426 1.8995 4.2426 4.2426z" fill="#00583f" opacity=".8"/>
    <path d="m535.05 199.34-5.8823-4.8539-1.0847 1.6036c-0.5966 0.882-1.9185 2.9345-2.9375 4.5611s-1.926 3.0396-2.0154 3.14-1.3187 0.03-2.7316-0.15657c-2.4744-0.3267-2.6215-0.44233-3.9942-3.14-0.78391-1.5405-1.6656-3.3391-1.9594-3.997-0.52858-1.1837-0.56821-1.1664-3.8114 1.6592l-3.2772 2.8553-3.6652-1.0739c-3.3598-0.98436-3.7181-1.2254-4.2994-2.8914-0.34882-0.99966-0.74209-2.1153-0.87394-2.4793-0.1814-0.50078-0.83903-0.35255-2.7033 0.60936l-2.4636 1.2711-5.232-2.1807c-2.8776-1.1994-5.5229-2.3608-5.8784-2.581s8.2101-0.40337 19.035-0.40715c26.31-9e-3 42.881-1.4433 56.631-4.9011 9.9085-2.4917 18.023-6.9127 20.85-11.359 0.34129-0.53693 0.80127-0.81708 1.0222-0.62257s0.145 0.63629-0.16874 0.98171c-0.32793 0.36105-0.37858 1.0471-0.11913 1.6138 0.24822 0.54221 0.46901 2.1548 0.49066 3.5836l0.0394 2.5978-2.2936-1.0302c-1.2615-0.56662-2.3964-0.93973-2.522-0.82915s0.0247 1.3763 0.33418 2.8126c0.72339 3.3584 0.71303 3.5861-0.21363 4.7019-0.73221 0.88164-0.9415 0.7753-3.6952-1.8774-1.6054-1.5466-3.0827-2.8106-3.2827-2.809s-1.3714 3.0172-2.6031 6.7014c-2.1551 6.4463-2.3149 6.7326-4.2467 7.6057l-2.0073 0.9073-4.6703-4.1334c-2.5686-2.2733-4.8295-4.0467-5.0241-3.9408s-1.704 2.9594-3.3542 6.3412c-2.4019 4.9223-3.2505 6.1908-4.2547 6.3598-0.9747 0.16405-2.5659-0.87112-7.1367-4.6427z" fill="#fff"/>
    <path d="m532.36 161.54c0 8.643-2.313 9.2726-5.1662 9.2726s-5.1663-0.62959-5.1663-9.2726 3.7047-14.899 6.5579-14.899 3.7746 6.2563 3.7746 14.899z" fill="#382509"/>
    <path d="m535.34 158.51c1.4106 7.4024 3.5301 7.557 6.018 7.0826s4.4019-1.3982 2.9913-8.8005-5.6619-12.145-8.1497-11.67-2.2702 5.9858-0.85955 13.388z" fill="#382509"/>
    <path transform="matrix(.77402 0 0 .77426 181.05 93.472)" d="m429.21 107.31c0 3.3195-2.691 6.0104-6.0104 6.0104s-6.0104-2.691-6.0104-6.0104 2.691-6.0104 6.0104-6.0104 6.0104 2.691 6.0104 6.0104z" fill="#00583f"/>
    <path transform="matrix(.77402 0 0 .77426 167.89 86.504)" d="m451.13 125.35c0 1.1716-0.94975 2.1213-2.1213 2.1213s-2.1213-0.94975-2.1213-2.1213 0.94974-2.1213 2.1213-2.1213 2.1213 0.94975 2.1213 2.1213z" fill="#00583f"/>
    <path transform="matrix(.77402 0 0 .77426 181.05 93.472)" d="m442.65 109.79c0 2.3432-1.8995 4.2426-4.2426 4.2426s-4.2426-1.8995-4.2426-4.2426 1.8995-4.2426 4.2426-4.2426 4.2426 1.8995 4.2426 4.2426z" fill="#00583f" opacity=".8"/>
    <path transform="matrix(.47007 .35928 -.35916 .47022 399.18 -50.79)" d="m429.21 107.31c0 3.3195-2.691 6.0104-6.0104 6.0104s-6.0104-2.691-6.0104-6.0104 2.691-6.0104 6.0104-6.0104 6.0104 2.691 6.0104 6.0104z" fill="#00583f"/>
    <path transform="matrix(.47007 .35928 -.35916 .47022 394.42 -61.13)" d="m451.13 125.35c0 1.1716-0.94975 2.1213-2.1213 2.1213s-2.1213-0.94975-2.1213-2.1213 0.94974-2.1213 2.1213-2.1213 2.1213 0.94975 2.1213 2.1213z" fill="#00583f"/>
    <path transform="matrix(.47007 .35928 -.35916 .47022 399.18 -50.79)" d="m442.65 109.79c0 2.3432-1.8995 4.2426-4.2426 4.2426s-4.2426-1.8995-4.2426-4.2426 1.8995-4.2426 4.2426-4.2426 4.2426 1.8995 4.2426 4.2426z" fill="#00583f" opacity=".8"/>
    <path transform="matrix(.47007 .35928 -.35916 .47022 373.25 -147.19)" d="m429.21 107.31c0 3.3195-2.691 6.0104-6.0104 6.0104s-6.0104-2.691-6.0104-6.0104 2.691-6.0104 6.0104-6.0104 6.0104 2.691 6.0104 6.0104z" fill="#00583f"/>
    <path transform="matrix(.47007 .35928 -.35916 .47022 368.49 -157.53)" d="m451.13 125.35c0 1.1716-0.94975 2.1213-2.1213 2.1213s-2.1213-0.94975-2.1213-2.1213 0.94974-2.1213 2.1213-2.1213 2.1213 0.94975 2.1213 2.1213z" fill="#00583f"/>
    <path transform="matrix(.47007 .35928 -.35916 .47022 373.25 -147.19)" d="m442.65 109.79c0 2.3432-1.8995 4.2426-4.2426 4.2426s-4.2426-1.8995-4.2426-4.2426 1.8995-4.2426 4.2426-4.2426 4.2426 1.8995 4.2426 4.2426z" fill="#00583f" opacity=".8"/>
    <path d="m540.34 9.6562c-46.656-0.03835-92.942 52.002-106.91 123.31-15.148 77.354 13.475 148.09 63.906 157.97s103.57-44.834 118.72-122.19-13.444-148.06-63.875-157.94c-3.94-0.77156-7.8899-1.153-11.844-1.1562zm5.6875 13.844c3.6222 3e-3 7.2343 0.35567 10.844 1.0625 46.201 9.0475 72.409 73.823 58.531 144.69s-62.58 120.98-108.78 111.94-72.409-73.854-58.531-144.72c12.793-65.328 55.196-113 97.938-112.97z" fill="#2e3436"/>
    <path d="m640.54 190.25c-16.779 70.865-67.073 101.98-122.93 92.93s-87.542-73.829-70.763-144.69 75.664-120.98 131.52-111.93 78.951 92.829 62.172 163.69z" fill="#a8dde0" opacity=".27857"/>
    <path d="m591.17 61.477 22.732-10.828c15.028 25.073 6.9772 33.365 6.9772 33.365l-22.732 10.828s5.5343-21.494-6.9773-33.365z" fill="#fff" opacity=".82857"/>
    <path d="m562.17 71.477 22.732-10.828c15.028 25.073 6.9772 33.365 6.9772 33.365l-22.732 10.828s5.5343-21.494-6.9773-33.365z" fill="#fff" opacity=".82857"/>
   </g>
   <path d="m595.5 431.36s-4.5 23 21 21" fill="none" stroke="#fff"/>
   <path d="m595.5 431.36s-4.5 23 21 21" fill="none" stroke="#fff" stroke-width="1.1339"/>
   <path d="m573.5 451.36s-4.5 23 21 21" fill="none" stroke="#fff" stroke-width="1.1339"/>
   <path d="m552 470.36s-4.5 23 21 21" fill="none" stroke="#fff" stroke-width="1.1339"/>
   <path d="m525 490.86s-4.5 23 21 21" fill="none" stroke="#fff" stroke-width="1.1339"/>
   <path d="m498.5 509.36s-4.5 23 21 21" fill="none" stroke="#fff" stroke-width="1.1339"/>
   <path d="m472.5 525.36s-4.5 23 21 21" fill="none" stroke="#fff" stroke-width="1.1339"/>
   <path d="m441 540.36s-4.5 23 21 21" fill="none" stroke="#fff" stroke-width="1.1339"/>
   <path d="m444.42 541.48 24.042-10.96" fill="none" stroke="#fff" stroke-linecap="round" stroke-width="1.7716"/>
   <path d="m475.53 527.69 20.506-12.021" fill="none" stroke="#fff" stroke-linecap="round" stroke-width="1.7716"/>
   <path d="m501.69 513.55 19.799-14.849" fill="none" stroke="#fff" stroke-linecap="round" stroke-width="1.7716"/>
   <path d="m528.21 493.75 19.799-14.849" fill="none" stroke="#fff" stroke-linecap="round" stroke-width="1.7716"/>
   <path d="m554.73 472.89 15.556-13.435" fill="none" stroke="#fff" stroke-linecap="round" stroke-width="1.7716"/>
   <path d="m577 453.8 15.556-13.435" fill="none" stroke="#fff" stroke-linecap="round" stroke-width="1.7716"/>
   <path d="m619 409.86s-4.5 23 21 21" fill="none" stroke="#fff" stroke-width="1.1339"/>
   <path d="m622.88 407.3s23.435-0.17086 16.756 24.52" fill="none" stroke="#fff" stroke-width="1.1339"/>
   <path d="m624 410.74s4.7578-43.53 31.945-31.968-2.039 8.8421-2.039 8.8421l-23.789 29.247-6.1172-6.1214z" fill="#768887"/>
   <path d="m633.59 421.73s42.87 8.9271 40.275-20.503-9.0394-0.7932-9.0394-0.7932l-35.167 13.586 3.9315 7.7094z" fill="#888a85"/>
   <g transform="matrix(.96637 -.25716 .25716 .96637 -90.642 168.4)">
    <path d="m651.14 275.66c-27.357 2.575-51.273-23.525-78.736-24.407-10.121-0.32528-19.685 4.765-29.535 7.1135-11.464 2.7331-23.005 11.088-34.41 8.1198-18.629-4.8486-42.624-18.536-42.608-38.981 24.528 3.2719 34.643 18.933 52.418 15.101 20.469-28.971 24.122-26.196 58.845-35.019 28.424-10.726 54.932-37.477 82.725-25.209 10.803 4.7684 13.533 19.773 17.08 31.036 3.1046 9.8579 5.0689 20.643 3.3142 30.828-1.3466 7.8162-4.8181 15.723-10.313 21.443-4.9109 5.1113-11.722 9.3115-18.779 9.9757z" fill="#619d9e" stroke="#000" stroke-width="1.113"/>
    <path d="m650.75 181.38c-16.43 0-29.75 21.54-29.75 48.125 0 23.419 10.338 42.905 24.031 47.219l0.96875 47.156v65.5l-1 58h12l-2-94 1.9688-76.812c13.444-4.6254 23.531-23.929 23.531-47.062 0-26.585-13.32-48.125-29.75-48.125zm0 8.5c13.529 0 24.5 17.734 24.5 39.625s-10.971 39.625-24.5 39.625-24.5-17.734-24.5-39.625 10.971-39.625 24.5-39.625z" fill="#96602c"/>
    <path d="m645.16 267.82c-5.3346-2.3026-9.5003-6.4444-12.659-12.586-7.2021-14.005-7.9424-32.575-1.8954-47.546 2.8447-7.0428 7.816-13.162 12.829-15.791 2.4298-1.2744 3.2606-1.4399 7.2446-1.444 4.1769-4e-3 4.7258 0.11787 7.646 1.7013 7.7233 4.1878 13.248 13.554 15.64 26.516 3.7381 20.252-3.6999 42.426-16.286 48.552-3.2914 1.6018-9.5069 1.899-12.52 0.5986z" fill="url(#b)"/>
    <path d="m597.86 203.83c-4.7216 4.7849-10.656 24.49-12.021 36.77" fill="none" stroke="#000"/>
    <path d="m591.49 208.43c-1.2902 3.6026-3.5193 7.1911-4.5962 10.96" fill="none" stroke="#000"/>
    <path d="m557.55 228.58c-1.1368 4.5854-2.1213 9.2616-2.1213 14.142" fill="none" stroke="#000"/>
    <path d="m553.66 236.01v10.96" fill="none" stroke="#000"/>
    <path d="m529.98 245.2c-1.2448 4.9436-1.4142 10.228-1.4142 15.556" fill="none" stroke="#000"/>
    <path d="m606.63 241.44c-1.0499 6.6635-1.859 13.433-1.1653 20.343" fill="none" stroke="#000"/>
   </g>
   <path transform="matrix(1 0 0 1.1062 2.7071 -59.345)" d="m164.76 483.49c0 22.065-13.138 39.952-29.345 39.952s-29.345-17.887-29.345-39.952 13.138-39.952 29.345-39.952 29.345 17.887 29.345 39.952z" fill="#2e3436" opacity=".1"/>
   <path d="m151.38 492.16c-6.0706-8.625-14.093-15.999-24.379-9.7929-2.8173 3.7976-2.8288 9.1223-3.1464 13.707l7.1464 5.7929 20.379-9.7071z" stroke="#000"/>
   <path d="m623.06 409.91s4.7578-43.53 31.945-31.968-2.039 8.8421-2.039 8.8421l-23.789 29.247-6.1172-6.1214z" fill="#768887"/>
   <path d="m527.34 576.87s4.7578-43.53 31.945-31.968-2.039 8.8421-2.039 8.8421l-23.789 29.247-6.1172-6.1214z" fill="#768887"/>
   <path d="m535.65 593.13s42.87 8.9271 40.275-20.503-9.0394-0.7932-9.0394-0.7932l-35.167 13.586 3.9315 7.7094z" fill="#888a85"/>
   <path d="m599.82 433.21 15.556-13.435" fill="none" stroke="#fff" stroke-linecap="round" stroke-width="1.7716"/>
   <path d="m521.23 575.66s-11.196 20.589 13.728 26.335" fill="none" stroke="#fff" stroke-width="1.1339"/>
   <path d="m490.63 591.8s-11.196 20.589 13.728 26.335" fill="none" stroke="#fff" stroke-width="1.1339"/>
   <path d="m457.23 605.72s-11.196 20.589 13.728 26.335" fill="none" stroke="#fff" stroke-width="1.1339"/>
   <path d="m425.51 620.19s-11.196 20.589 13.728 26.335" fill="none" stroke="#fff" stroke-width="1.1339"/>
   <path d="m386.95 632.78s-11.196 20.589 13.728 26.335" fill="none" stroke="#fff" stroke-width="1.1339"/>
   <path d="m340.51 644.58s-11.196 20.589 13.728 26.335" fill="none" stroke="#fff" stroke-width="1.1339"/>
   <path d="m297.11 649.06s-16.401 16.741 6.0006 29.086" fill="none" stroke="#fff" stroke-width="1.1339"/>
   <path d="m264.34 644.52s-21.403 9.5486-5.0989 29.257" fill="none" stroke="#fff" stroke-width="1.1339"/>
   <path d="m225.3 628.99s-22.959 4.7031-11.295 27.467" fill="none" stroke="#fff" stroke-width="1.1339"/>
   <path d="m192.24 604.59s-22.959 4.7031-11.295 27.467" fill="none" stroke="#fff" stroke-width="1.1339"/>
   <path d="m171.81 567.8s-22.824-5.3212-21.739 20.234" fill="none" stroke="#fff" stroke-width="1.1339"/>
   <path d="m156.86 525.3s-22.824-5.3212-21.739 20.234" fill="none" stroke="#fff" stroke-width="1.1339"/>
   <path transform="matrix(1.113 0 0 1.113 -57.218 165.96)" d="m185.5 241.38-0.9375 1.7188s-11.438 3.5625-19.438 40.312l24.719 22.625 4.5938-0.3125c4.5941-7.1461 7.4375-16.893 7.4375-27.625 0-16.592-6.7785-30.782-16.375-36.719z" fill="#2e3436" opacity=".1"/>
   <path transform="matrix(1.113 0 0 1.113 -57.218 165.96)" d="m196.91 254.94c3.1173 6.5212 4.9688 14.507 4.9688 23.156 0 21.929-11.814 39.719-26.375 39.719-7.1482 0-13.626-4.2934-18.375-11.25 4.7887 9.9827 12.573 16.5 21.375 16.5 14.561 0 26.375-17.79 26.375-39.719 0-11.145-3.0585-21.195-7.9688-28.406z" fill="#2e3436" opacity=".03817"/>
  </g>
  <path d="m112.3 663.58s41.201 30.979 76.139 27.929" fill="none" stroke="#d3d7cf"/>
  <path transform="matrix(.5149 .20143 -.32062 .8196 23.107 511.67)" d="m187 187.09c0 6.6274-4.701 12-10.5 12s-10.5-5.3726-10.5-12 4.701-12 10.5-12 10.5 5.3726 10.5 12z" fill="none" opacity=".3" stroke="#888a85"/>
  <path transform="matrix(.2488 .09865 -.15493 .40142 179.81 428.17)" d="m187 187.09c0 6.6274-4.701 12-10.5 12s-10.5-5.3726-10.5-12 4.701-12 10.5-12 10.5 5.3726 10.5 12z" fill="none" opacity=".3" stroke="#888a85" stroke-width="2.7148"/>
  <path d="m142 502.36s61 43 132 35" fill="none" stroke="#d3d7cf"/>
  <path d="m203.51 531.89s-7 26-7 32" fill="none" stroke="#babdb6"/>
  <path d="m358 456.36s12-84-59-92" fill="none" stroke="#d3d7cf" stroke-width=".99921"/>
  <path d="m353.55 411.12s-26.617 4.065-32.109 6.4816" fill="none" stroke="#d3d7cf" stroke-width=".92126"/>
  <path transform="matrix(.22137 .09865 -.13784 .40142 131.1 404.17)" d="m187 187.09c0 6.6274-4.701 12-10.5 12s-10.5-5.3726-10.5-12 4.701-12 10.5-12 10.5 5.3726 10.5 12z" fill="none" opacity=".3" stroke="#888a85" stroke-width="2.8781"/>
  <path d="m199.92 652.9s37.503 13.645 72.44 10.594" fill="none" stroke="#eeeeec"/>
  <path transform="translate(0 308.27)" d="m222 504.59s31-10.131 31-27.5c0-9 51.5 8.5 51.5 8.5s-6 23-13.5 24" fill="none" stroke="#babdb6"/>
  <path d="m125.92 701.9s41.503 13.645 76.44 10.594" fill="none" stroke="#eeeeec"/>
  <path transform="translate(-3.7716 308.36)" d="m610 449-72 20 34 19 24-9 30 22 54-18-70-34z" fill="#888a85" opacity=".34643"/>
  <g transform="translate(269,-357)" fill="#888a85">
   <path d="m303.49 1137.5 2.4412 1.1844 6.0269-3.2909-2.4412-1.1844-6.0269 3.2909zm8.0794-2.9731 2.5575 1.2409 4.2828-1.8741-2.5575-1.2408-4.2828 1.874zm-11.473 6.8638 1.9762 0.9588 4.6024-2.513-1.9762-0.9588-4.6024 2.513z" opacity=".34643"/>
   <path d="m309.49 1139.5 2.4412 1.1844 6.0269-3.2909-2.4412-1.1844-6.0269 3.2909zm8.0794-2.9731 2.5575 1.2409 4.2828-1.8741-2.5575-1.2408-4.2828 1.874zm-11.473 6.8638 1.9762 0.9588 4.6024-2.513-1.9762-0.9588-4.6024 2.513z" opacity=".34643"/>
   <path d="m314.45 1142.4 2.4412 1.1844 6.0269-3.2909-2.4412-1.1844-6.0269 3.2909zm8.0794-2.9731 2.5575 1.2409 4.2828-1.8741-2.5575-1.2408-4.2828 1.874zm-11.473 6.8638 1.9762 0.9588 4.6024-2.513-1.9762-0.9588-4.6024 2.513z" opacity=".34643"/>
   <path d="m320.45 1144.4 2.4412 1.1844 6.0269-3.2909-2.4412-1.1844-6.0269 3.2909zm8.0794-2.9731 2.5575 1.2409 4.2828-1.8741-2.5575-1.2408-4.2828 1.874zm-11.473 6.8638 1.9762 0.9588 4.6024-2.513-1.9762-0.9588-4.6024 2.513z" opacity=".34643"/>
   <path d="m325.06 1147.4 2.4412 1.1844 6.0269-3.2909-2.4412-1.1844-6.0269 3.2909zm8.0794-2.9731 2.5575 1.2409 4.2828-1.8741-2.5575-1.2408-4.2828 1.874zm-11.473 6.8638 1.9762 0.9588 4.6024-2.513-1.9762-0.9588-4.6024 2.513z" opacity=".34643"/>
   <path d="m331.06 1149.4 2.4412 1.1844 6.0269-3.2909-2.4412-1.1844-6.0269 3.2909zm8.0794-2.9731 2.5575 1.2409 4.2828-1.8741-2.5575-1.2408-4.2828 1.874zm-11.473 6.8638 1.9762 0.9588 4.6024-2.513-1.9762-0.9588-4.6024 2.513z" opacity=".34643"/>
   <path d="m336.37 1152.7 2.4412 1.1844 6.0269-3.2909-2.4412-1.1844-6.0269 3.2909zm8.0794-2.9731 2.5575 1.2409 4.2828-1.8741-2.5575-1.2408-4.2828 1.874zm-11.473 6.8638 1.9762 0.9588 4.6024-2.513-1.9762-0.9588-4.6024 2.513z" opacity=".34643"/>
   <path d="m342.37 1154.7 2.4412 1.1844 6.0269-3.2909-2.4412-1.1844-6.0269 3.2909zm8.0794-2.9731 2.5575 1.2409 4.2828-1.8741-2.5575-1.2408-4.2828 1.874zm-11.473 6.8638 1.9762 0.9588 4.6024-2.513-1.9762-0.9588-4.6024 2.513z" opacity=".34643"/>
   <path d="m347.33 1157.6 2.4412 1.1844 6.0269-3.2909-2.4412-1.1844-6.0269 3.2909zm8.0794-2.9731 2.5575 1.2409 4.2828-1.8741-2.5575-1.2408-4.2828 1.874zm-11.473 6.8638 1.9762 0.9588 4.6024-2.513-1.9762-0.9588-4.6024 2.513z" opacity=".34643"/>
   <path d="m353.33 1159.6 2.4412 1.1844 6.0269-3.2909-2.4412-1.1844-6.0269 3.2909zm8.0794-2.9731 2.5575 1.2409 4.2828-1.8741-2.5575-1.2408-4.2828 1.874zm-11.473 6.8638 1.9762 0.9588 4.6024-2.513-1.9762-0.9588-4.6024 2.513z" opacity=".34643"/>
   <path d="m357.94 1162.6 2.4412 1.1844 6.0269-3.2909-2.4412-1.1844-6.0269 3.2909zm8.0794-2.9731 2.5575 1.2409 4.2828-1.8741-2.5575-1.2408-4.2828 1.874zm-11.473 6.8638 1.9762 0.9588 4.6024-2.513-1.9762-0.9588-4.6024 2.513z" opacity=".34643"/>
   <path d="m363.94 1164.6 2.4412 1.1844 6.0269-3.2909-2.4412-1.1844-6.0269 3.2909zm8.0794-2.9731 2.5575 1.2409 4.2828-1.8741-2.5575-1.2408-4.2828 1.874zm-11.473 6.8638 1.9762 0.9588 4.6024-2.513-1.9762-0.9588-4.6024 2.513z" opacity=".34643"/>
   <path d="m368.55 1167.2 2.4412 1.1844 6.0269-3.2909-2.4412-1.1844-6.0269 3.2909zm8.0794-2.9731 2.5575 1.2409 4.2828-1.8741-2.5575-1.2408-4.2828 1.874zm-11.473 6.8638 1.9762 0.9588 4.6024-2.513-1.9762-0.9588-4.6024 2.513z" opacity=".34643"/>
   <path d="m374.55 1169.2 2.4412 1.1844 6.0269-3.2909-2.4412-1.1844-6.0269 3.2909zm8.0794-2.9731 2.5575 1.2409 4.2828-1.8741-2.5575-1.2408-4.2828 1.874zm-11.473 6.8638 1.9762 0.9588 4.6024-2.513-1.9762-0.9588-4.6024 2.513z" opacity=".34643"/>
   <path d="m379.51 1172.1 2.4412 1.1844 6.0269-3.2909-2.4412-1.1844-6.0269 3.2909zm8.0794-2.9731 2.5575 1.2409 4.2828-1.8741-2.5575-1.2408-4.2828 1.874zm-11.473 6.8638 1.9762 0.9588 4.6024-2.513-1.9762-0.9588-4.6024 2.513z" opacity=".34643"/>
   <path d="m385.51 1174.1 2.4412 1.1844 6.0269-3.2909-2.4412-1.1844-6.0269 3.2909zm8.0794-2.9731 2.5575 1.2409 4.2828-1.8741-2.5575-1.2408-4.2828 1.874zm-11.473 6.8638 1.9762 0.9588 4.6024-2.513-1.9762-0.9588-4.6024 2.513z" opacity=".34643"/>
   <path d="m390.11 1177.1 2.4412 1.1844 6.0269-3.2909-2.4412-1.1844-6.0269 3.2909zm8.0794-2.9731 2.5575 1.2409 4.2828-1.8741-2.5575-1.2408-4.2828 1.874zm-11.473 6.8638 1.9762 0.9588 4.6024-2.513-1.9762-0.9588-4.6024 2.513z" opacity=".34643"/>
   <path d="m396.11 1179.1 2.4412 1.1844 6.0269-3.2909-2.4412-1.1844-6.0269 3.2909zm8.0794-2.9731 2.5575 1.2409 4.2828-1.8741-2.5575-1.2408-4.2828 1.874zm-11.473 6.8638 1.9762 0.9588 4.6024-2.513-1.9762-0.9588-4.6024 2.513z" opacity=".34643"/>
  </g>
  <g transform="matrix(.99262 .12126 -.12126 .99262 508.08 -341.57)" fill="#888a85">
   <path d="m303.49 1137.5 2.4412 1.1844 6.0269-3.2909-2.4412-1.1844-6.0269 3.2909zm8.0794-2.9731 2.5575 1.2409 4.2828-1.8741-2.5575-1.2408-4.2828 1.874zm-11.473 6.8638 1.9762 0.9588 4.6024-2.513-1.9762-0.9588-4.6024 2.513z" opacity=".34643"/>
   <path d="m309.49 1139.5 2.4412 1.1844 6.0269-3.2909-2.4412-1.1844-6.0269 3.2909zm8.0794-2.9731 2.5575 1.2409 4.2828-1.8741-2.5575-1.2408-4.2828 1.874zm-11.473 6.8638 1.9762 0.9588 4.6024-2.513-1.9762-0.9588-4.6024 2.513z" opacity=".34643"/>
   <path d="m314.45 1142.4 2.4412 1.1844 6.0269-3.2909-2.4412-1.1844-6.0269 3.2909zm8.0794-2.9731 2.5575 1.2409 4.2828-1.8741-2.5575-1.2408-4.2828 1.874zm-11.473 6.8638 1.9762 0.9588 4.6024-2.513-1.9762-0.9588-4.6024 2.513z" opacity=".34643"/>
   <path d="m320.45 1144.4 2.4412 1.1844 6.0269-3.2909-2.4412-1.1844-6.0269 3.2909zm8.0794-2.9731 2.5575 1.2409 4.2828-1.8741-2.5575-1.2408-4.2828 1.874zm-11.473 6.8638 1.9762 0.9588 4.6024-2.513-1.9762-0.9588-4.6024 2.513z" opacity=".34643"/>
   <path d="m325.06 1147.4 2.4412 1.1844 6.0269-3.2909-2.4412-1.1844-6.0269 3.2909zm8.0794-2.9731 2.5575 1.2409 4.2828-1.8741-2.5575-1.2408-4.2828 1.874zm-11.473 6.8638 1.9762 0.9588 4.6024-2.513-1.9762-0.9588-4.6024 2.513z" opacity=".34643"/>
   <path d="m331.06 1149.4 2.4412 1.1844 6.0269-3.2909-2.4412-1.1844-6.0269 3.2909zm8.0794-2.9731 2.5575 1.2409 4.2828-1.8741-2.5575-1.2408-4.2828 1.874zm-11.473 6.8638 1.9762 0.9588 4.6024-2.513-1.9762-0.9588-4.6024 2.513z" opacity=".34643"/>
   <path d="m336.37 1152.7 2.4412 1.1844 6.0269-3.2909-2.4412-1.1844-6.0269 3.2909zm8.0794-2.9731 2.5575 1.2409 4.2828-1.8741-2.5575-1.2408-4.2828 1.874zm-11.473 6.8638 1.9762 0.9588 4.6024-2.513-1.9762-0.9588-4.6024 2.513z" opacity=".34643"/>
   <path d="m342.37 1154.7 2.4412 1.1844 6.0269-3.2909-2.4412-1.1844-6.0269 3.2909zm8.0794-2.9731 2.5575 1.2409 4.2828-1.8741-2.5575-1.2408-4.2828 1.874zm-11.473 6.8638 1.9762 0.9588 4.6024-2.513-1.9762-0.9588-4.6024 2.513z" opacity=".34643"/>
   <path d="m347.33 1157.6 2.4412 1.1844 6.0269-3.2909-2.4412-1.1844-6.0269 3.2909zm8.0794-2.9731 2.5575 1.2409 4.2828-1.8741-2.5575-1.2408-4.2828 1.874zm-11.473 6.8638 1.9762 0.9588 4.6024-2.513-1.9762-0.9588-4.6024 2.513z" opacity=".34643"/>
   <path d="m353.33 1159.6 2.4412 1.1844 6.0269-3.2909-2.4412-1.1844-6.0269 3.2909zm8.0794-2.9731 2.5575 1.2409 4.2828-1.8741-2.5575-1.2408-4.2828 1.874zm-11.473 6.8638 1.9762 0.9588 4.6024-2.513-1.9762-0.9588-4.6024 2.513z" opacity=".34643"/>
   <path d="m357.94 1162.6 2.4412 1.1844 6.0269-3.2909-2.4412-1.1844-6.0269 3.2909zm8.0794-2.9731 2.5575 1.2409 4.2828-1.8741-2.5575-1.2408-4.2828 1.874zm-11.473 6.8638 1.9762 0.9588 4.6024-2.513-1.9762-0.9588-4.6024 2.513z" opacity=".34643"/>
   <path d="m363.94 1164.6 2.4412 1.1844 6.0269-3.2909-2.4412-1.1844-6.0269 3.2909zm8.0794-2.9731 2.5575 1.2409 4.2828-1.8741-2.5575-1.2408-4.2828 1.874zm-11.473 6.8638 1.9762 0.9588 4.6024-2.513-1.9762-0.9588-4.6024 2.513z" opacity=".34643"/>
   <path d="m368.55 1167.2 2.4412 1.1844 6.0269-3.2909-2.4412-1.1844-6.0269 3.2909zm8.0794-2.9731 2.5575 1.2409 4.2828-1.8741-2.5575-1.2408-4.2828 1.874zm-11.473 6.8638 1.9762 0.9588 4.6024-2.513-1.9762-0.9588-4.6024 2.513z" opacity=".34643"/>
   <path d="m374.55 1169.2 2.4412 1.1844 6.0269-3.2909-2.4412-1.1844-6.0269 3.2909zm8.0794-2.9731 2.5575 1.2409 4.2828-1.8741-2.5575-1.2408-4.2828 1.874zm-11.473 6.8638 1.9762 0.9588 4.6024-2.513-1.9762-0.9588-4.6024 2.513z" opacity=".34643"/>
   <path d="m379.51 1172.1 2.4412 1.1844 6.0269-3.2909-2.4412-1.1844-6.0269 3.2909zm8.0794-2.9731 2.5575 1.2409 4.2828-1.8741-2.5575-1.2408-4.2828 1.874zm-11.473 6.8638 1.9762 0.9588 4.6024-2.513-1.9762-0.9588-4.6024 2.513z" opacity=".34643"/>
   <path d="m385.51 1174.1 2.4412 1.1844 6.0269-3.2909-2.4412-1.1844-6.0269 3.2909zm8.0794-2.9731 2.5575 1.2409 4.2828-1.8741-2.5575-1.2408-4.2828 1.874zm-11.473 6.8638 1.9762 0.9588 4.6024-2.513-1.9762-0.9588-4.6024 2.513z" opacity=".34643"/>
   <path d="m390.11 1177.1 2.4412 1.1844 6.0269-3.2909-2.4412-1.1844-6.0269 3.2909zm8.0794-2.9731 2.5575 1.2409 4.2828-1.8741-2.5575-1.2408-4.2828 1.874zm-11.473 6.8638 1.9762 0.9588 4.6024-2.513-1.9762-0.9588-4.6024 2.513z" opacity=".34643"/>
   <path d="m396.11 1179.1 2.4412 1.1844 6.0269-3.2909-2.4412-1.1844-6.0269 3.2909zm8.0794-2.9731 2.5575 1.2409 4.2828-1.8741-2.5575-1.2408-4.2828 1.874zm-11.473 6.8638 1.9762 0.9588 4.6024-2.513-1.9762-0.9588-4.6024 2.513z" opacity=".34643"/>
  </g>
  <g transform="matrix(.99262 .12126 -.12126 .99262 583.08 -335.57)" fill="#888a85">
   <path d="m303.49 1137.5 2.4412 1.1844 6.0269-3.2909-2.4412-1.1844-6.0269 3.2909zm8.0794-2.9731 2.5575 1.2409 4.2828-1.8741-2.5575-1.2408-4.2828 1.874zm-11.473 6.8638 1.9762 0.9588 4.6024-2.513-1.9762-0.9588-4.6024 2.513z" opacity=".34643"/>
   <path d="m309.49 1139.5 2.4412 1.1844 6.0269-3.2909-2.4412-1.1844-6.0269 3.2909zm8.0794-2.9731 2.5575 1.2409 4.2828-1.8741-2.5575-1.2408-4.2828 1.874zm-11.473 6.8638 1.9762 0.9588 4.6024-2.513-1.9762-0.9588-4.6024 2.513z" opacity=".34643"/>
   <path d="m314.45 1142.4 2.4412 1.1844 6.0269-3.2909-2.4412-1.1844-6.0269 3.2909zm8.0794-2.9731 2.5575 1.2409 4.2828-1.8741-2.5575-1.2408-4.2828 1.874zm-11.473 6.8638 1.9762 0.9588 4.6024-2.513-1.9762-0.9588-4.6024 2.513z" opacity=".34643"/>
   <path d="m320.45 1144.4 2.4412 1.1844 6.0269-3.2909-2.4412-1.1844-6.0269 3.2909zm8.0794-2.9731 2.5575 1.2409 4.2828-1.8741-2.5575-1.2408-4.2828 1.874zm-11.473 6.8638 1.9762 0.9588 4.6024-2.513-1.9762-0.9588-4.6024 2.513z" opacity=".34643"/>
   <path d="m325.06 1147.4 2.4412 1.1844 6.0269-3.2909-2.4412-1.1844-6.0269 3.2909zm8.0794-2.9731 2.5575 1.2409 4.2828-1.8741-2.5575-1.2408-4.2828 1.874zm-11.473 6.8638 1.9762 0.9588 4.6024-2.513-1.9762-0.9588-4.6024 2.513z" opacity=".34643"/>
   <path d="m331.06 1149.4 2.4412 1.1844 6.0269-3.2909-2.4412-1.1844-6.0269 3.2909zm8.0794-2.9731 2.5575 1.2409 4.2828-1.8741-2.5575-1.2408-4.2828 1.874zm-11.473 6.8638 1.9762 0.9588 4.6024-2.513-1.9762-0.9588-4.6024 2.513z" opacity=".34643"/>
   <path d="m336.37 1152.7 2.4412 1.1844 6.0269-3.2909-2.4412-1.1844-6.0269 3.2909zm8.0794-2.9731 2.5575 1.2409 4.2828-1.8741-2.5575-1.2408-4.2828 1.874zm-11.473 6.8638 1.9762 0.9588 4.6024-2.513-1.9762-0.9588-4.6024 2.513z" opacity=".34643"/>
   <path d="m342.37 1154.7 2.4412 1.1844 6.0269-3.2909-2.4412-1.1844-6.0269 3.2909zm8.0794-2.9731 2.5575 1.2409 4.2828-1.8741-2.5575-1.2408-4.2828 1.874zm-11.473 6.8638 1.9762 0.9588 4.6024-2.513-1.9762-0.9588-4.6024 2.513z" opacity=".34643"/>
   <path d="m347.33 1157.6 2.4412 1.1844 6.0269-3.2909-2.4412-1.1844-6.0269 3.2909zm8.0794-2.9731 2.5575 1.2409 4.2828-1.8741-2.5575-1.2408-4.2828 1.874zm-11.473 6.8638 1.9762 0.9588 4.6024-2.513-1.9762-0.9588-4.6024 2.513z" opacity=".34643"/>
   <path d="m353.33 1159.6 2.4412 1.1844 6.0269-3.2909-2.4412-1.1844-6.0269 3.2909zm8.0794-2.9731 2.5575 1.2409 4.2828-1.8741-2.5575-1.2408-4.2828 1.874zm-11.473 6.8638 1.9762 0.9588 4.6024-2.513-1.9762-0.9588-4.6024 2.513z" opacity=".34643"/>
   <path d="m357.94 1162.6 2.4412 1.1844 6.0269-3.2909-2.4412-1.1844-6.0269 3.2909zm8.0794-2.9731 2.5575 1.2409 4.2828-1.8741-2.5575-1.2408-4.2828 1.874zm-11.473 6.8638 1.9762 0.9588 4.6024-2.513-1.9762-0.9588-4.6024 2.513z" opacity=".34643"/>
   <path d="m363.94 1164.6 2.4412 1.1844 6.0269-3.2909-2.4412-1.1844-6.0269 3.2909zm8.0794-2.9731 2.5575 1.2409 4.2828-1.8741-2.5575-1.2408-4.2828 1.874zm-11.473 6.8638 1.9762 0.9588 4.6024-2.513-1.9762-0.9588-4.6024 2.513z" opacity=".34643"/>
   <path d="m368.55 1167.2 2.4412 1.1844 6.0269-3.2909-2.4412-1.1844-6.0269 3.2909zm8.0794-2.9731 2.5575 1.2409 4.2828-1.8741-2.5575-1.2408-4.2828 1.874zm-11.473 6.8638 1.9762 0.9588 4.6024-2.513-1.9762-0.9588-4.6024 2.513z" opacity=".34643"/>
   <path d="m374.55 1169.2 2.4412 1.1844 6.0269-3.2909-2.4412-1.1844-6.0269 3.2909zm8.0794-2.9731 2.5575 1.2409 4.2828-1.8741-2.5575-1.2408-4.2828 1.874zm-11.473 6.8638 1.9762 0.9588 4.6024-2.513-1.9762-0.9588-4.6024 2.513z" opacity=".34643"/>
   <path d="m379.51 1172.1 2.4412 1.1844 6.0269-3.2909-2.4412-1.1844-6.0269 3.2909zm8.0794-2.9731 2.5575 1.2409 4.2828-1.8741-2.5575-1.2408-4.2828 1.874zm-11.473 6.8638 1.9762 0.9588 4.6024-2.513-1.9762-0.9588-4.6024 2.513z" opacity=".34643"/>
   <path d="m385.51 1174.1 2.4412 1.1844 6.0269-3.2909-2.4412-1.1844-6.0269 3.2909zm8.0794-2.9731 2.5575 1.2409 4.2828-1.8741-2.5575-1.2408-4.2828 1.874zm-11.473 6.8638 1.9762 0.9588 4.6024-2.513-1.9762-0.9588-4.6024 2.513z" opacity=".34643"/>
   <path d="m390.11 1177.1 2.4412 1.1844 6.0269-3.2909-2.4412-1.1844-6.0269 3.2909zm8.0794-2.9731 2.5575 1.2409 4.2828-1.8741-2.5575-1.2408-4.2828 1.874zm-11.473 6.8638 1.9762 0.9588 4.6024-2.513-1.9762-0.9588-4.6024 2.513z" opacity=".34643"/>
   <path d="m396.11 1179.1 2.4412 1.1844 6.0269-3.2909-2.4412-1.1844-6.0269 3.2909zm8.0794-2.9731 2.5575 1.2409 4.2828-1.8741-2.5575-1.2408-4.2828 1.874zm-11.473 6.8638 1.9762 0.9588 4.6024-2.513-1.9762-0.9588-4.6024 2.513z" opacity=".34643"/>
  </g>
  <g transform="matrix(.99753 .0702 -.0702 .99753 427.19 -376.1)" fill="#888a85">
   <path d="m303.49 1137.5 2.4412 1.1844 6.0269-3.2909-2.4412-1.1844-6.0269 3.2909zm8.0794-2.9731 2.5575 1.2409 4.2828-1.8741-2.5575-1.2408-4.2828 1.874zm-11.473 6.8638 1.9762 0.9588 4.6024-2.513-1.9762-0.9588-4.6024 2.513z" opacity=".34643"/>
   <path d="m309.49 1139.5 2.4412 1.1844 6.0269-3.2909-2.4412-1.1844-6.0269 3.2909zm8.0794-2.9731 2.5575 1.2409 4.2828-1.8741-2.5575-1.2408-4.2828 1.874zm-11.473 6.8638 1.9762 0.9588 4.6024-2.513-1.9762-0.9588-4.6024 2.513z" opacity=".34643"/>
   <path d="m314.45 1142.4 2.4412 1.1844 6.0269-3.2909-2.4412-1.1844-6.0269 3.2909zm8.0794-2.9731 2.5575 1.2409 4.2828-1.8741-2.5575-1.2408-4.2828 1.874zm-11.473 6.8638 1.9762 0.9588 4.6024-2.513-1.9762-0.9588-4.6024 2.513z" opacity=".34643"/>
   <path d="m320.45 1144.4 2.4412 1.1844 6.0269-3.2909-2.4412-1.1844-6.0269 3.2909zm8.0794-2.9731 2.5575 1.2409 4.2828-1.8741-2.5575-1.2408-4.2828 1.874zm-11.473 6.8638 1.9762 0.9588 4.6024-2.513-1.9762-0.9588-4.6024 2.513z" opacity=".34643"/>
   <path d="m325.06 1147.4 2.4412 1.1844 6.0269-3.2909-2.4412-1.1844-6.0269 3.2909zm8.0794-2.9731 2.5575 1.2409 4.2828-1.8741-2.5575-1.2408-4.2828 1.874zm-11.473 6.8638 1.9762 0.9588 4.6024-2.513-1.9762-0.9588-4.6024 2.513z" opacity=".34643"/>
   <path d="m331.06 1149.4 2.4412 1.1844 6.0269-3.2909-2.4412-1.1844-6.0269 3.2909zm8.0794-2.9731 2.5575 1.2409 4.2828-1.8741-2.5575-1.2408-4.2828 1.874zm-11.473 6.8638 1.9762 0.9588 4.6024-2.513-1.9762-0.9588-4.6024 2.513z" opacity=".34643"/>
   <path d="m336.37 1152.7 2.4412 1.1844 6.0269-3.2909-2.4412-1.1844-6.0269 3.2909zm8.0794-2.9731 2.5575 1.2409 4.2828-1.8741-2.5575-1.2408-4.2828 1.874zm-11.473 6.8638 1.9762 0.9588 4.6024-2.513-1.9762-0.9588-4.6024 2.513z" opacity=".34643"/>
   <path d="m342.37 1154.7 2.4412 1.1844 6.0269-3.2909-2.4412-1.1844-6.0269 3.2909zm8.0794-2.9731 2.5575 1.2409 4.2828-1.8741-2.5575-1.2408-4.2828 1.874zm-11.473 6.8638 1.9762 0.9588 4.6024-2.513-1.9762-0.9588-4.6024 2.513z" opacity=".34643"/>
   <path d="m347.33 1157.6 2.4412 1.1844 6.0269-3.2909-2.4412-1.1844-6.0269 3.2909zm8.0794-2.9731 2.5575 1.2409 4.2828-1.8741-2.5575-1.2408-4.2828 1.874zm-11.473 6.8638 1.9762 0.9588 4.6024-2.513-1.9762-0.9588-4.6024 2.513z" opacity=".34643"/>
   <path d="m353.33 1159.6 2.4412 1.1844 6.0269-3.2909-2.4412-1.1844-6.0269 3.2909zm8.0794-2.9731 2.5575 1.2409 4.2828-1.8741-2.5575-1.2408-4.2828 1.874zm-11.473 6.8638 1.9762 0.9588 4.6024-2.513-1.9762-0.9588-4.6024 2.513z" opacity=".34643"/>
   <path d="m357.94 1162.6 2.4412 1.1844 6.0269-3.2909-2.4412-1.1844-6.0269 3.2909zm8.0794-2.9731 2.5575 1.2409 4.2828-1.8741-2.5575-1.2408-4.2828 1.874zm-11.473 6.8638 1.9762 0.9588 4.6024-2.513-1.9762-0.9588-4.6024 2.513z" opacity=".34643"/>
   <path d="m363.94 1164.6 2.4412 1.1844 6.0269-3.2909-2.4412-1.1844-6.0269 3.2909zm8.0794-2.9731 2.5575 1.2409 4.2828-1.8741-2.5575-1.2408-4.2828 1.874zm-11.473 6.8638 1.9762 0.9588 4.6024-2.513-1.9762-0.9588-4.6024 2.513z" opacity=".34643"/>
   <path d="m368.55 1167.2 2.4412 1.1844 6.0269-3.2909-2.4412-1.1844-6.0269 3.2909zm8.0794-2.9731 2.5575 1.2409 4.2828-1.8741-2.5575-1.2408-4.2828 1.874zm-11.473 6.8638 1.9762 0.9588 4.6024-2.513-1.9762-0.9588-4.6024 2.513z" opacity=".34643"/>
   <path d="m374.55 1169.2 2.4412 1.1844 6.0269-3.2909-2.4412-1.1844-6.0269 3.2909zm8.0794-2.9731 2.5575 1.2409 4.2828-1.8741-2.5575-1.2408-4.2828 1.874zm-11.473 6.8638 1.9762 0.9588 4.6024-2.513-1.9762-0.9588-4.6024 2.513z" opacity=".34643"/>
   <path d="m379.51 1172.1 2.4412 1.1844 6.0269-3.2909-2.4412-1.1844-6.0269 3.2909zm8.0794-2.9731 2.5575 1.2409 4.2828-1.8741-2.5575-1.2408-4.2828 1.874zm-11.473 6.8638 1.9762 0.9588 4.6024-2.513-1.9762-0.9588-4.6024 2.513z" opacity=".34643"/>
   <path d="m385.51 1174.1 2.4412 1.1844 6.0269-3.2909-2.4412-1.1844-6.0269 3.2909zm8.0794-2.9731 2.5575 1.2409 4.2828-1.8741-2.5575-1.2408-4.2828 1.874zm-11.473 6.8638 1.9762 0.9588 4.6024-2.513-1.9762-0.9588-4.6024 2.513z" opacity=".34643"/>
   <path d="m390.11 1177.1 2.4412 1.1844 6.0269-3.2909-2.4412-1.1844-6.0269 3.2909zm8.0794-2.9731 2.5575 1.2409 4.2828-1.8741-2.5575-1.2408-4.2828 1.874zm-11.473 6.8638 1.9762 0.9588 4.6024-2.513-1.9762-0.9588-4.6024 2.513z" opacity=".34643"/>
   <path d="m396.11 1179.1 2.4412 1.1844 6.0269-3.2909-2.4412-1.1844-6.0269 3.2909zm8.0794-2.9731 2.5575 1.2409 4.2828-1.8741-2.5575-1.2408-4.2828 1.874zm-11.473 6.8638 1.9762 0.9588 4.6024-2.513-1.9762-0.9588-4.6024 2.513z" opacity=".34643"/>
  </g>
  <g transform="matrix(.77541 0 0 .77541 352.65 -256.2)">
   <path d="m267.05 1265 48.083-17.678 24.042 2.8284-44.548 21.213-27.577-6.3639z" fill="#d75454"/>
   <path transform="translate(-3.7716 308.36)" d="m336 935.5 48-15.5-5 75.5-53 22 10-82z" fill="#8c0000"/>
   <path transform="translate(-3.7716 308.36)" d="m271 956-6.1027 17.187 2.1027 22.813 129 58 2-55-65.5-22 4.3536-41.843-20.354-1.6568-18 28.5-27.5-6z" fill="#bf0000"/>
   <path transform="translate(-3.7716 308.36)" d="m368.5 995.5 13-8 32.5 9.5-20.5 11.5-25-13z" fill="#513e29"/>
   <path transform="translate(-3.7716 308.36)" d="m328.5 1017.5 67.5 28.5v-47l-63.197-22.268-4.3033 40.768z" fill="#bf5e00"/>
   <path d="m376.37 1267.9-0.64645 30.5 58.5 18 5-34-62.854-14.5z" fill="#bf5e00"/>
   <path transform="translate(-3.7716 308.36)" d="m396 1001 47-27-3.2929 44.515-44.121 28.061 0.41421-45.575z" fill="#803f00"/>
   <path transform="translate(-3.7716 308.36)" d="m395.98 1045.3v8.1317l44.901-29.345-0.70711-6.364-44.194 27.577z" fill="#8c0000"/>
   <path d="m376.23 1267.9 10 2.5 5.3536 33.5c-4.8333-1.5-17.543-6.9452-16.091-4.8536l0.73744-31.146z" fill="#2e3436" opacity=".76071"/>
   <path transform="translate(-3.7716 308.36)" d="m346.48 943.16-1.4142 16.971 29.698-10.607-0.7071-16.263-27.577 9.8995z" fill="#a8dde0"/>
   <path transform="translate(-3.7716 308.36)" d="m316.08 933.97 43.841-16.263 24.042 2.8284-46.669 16.263-21.213-2.8284z" fill="#d85858"/>
   <path transform="matrix(.89474 0 0 1 23.731 427.51)" d="m308.3 885c0 13.18-7.5188 23.865-16.794 23.865s-16.794-10.685-16.794-23.865 7.5188-23.865 16.794-23.865 16.794 10.685 16.794 23.865z" fill="#382509"/>
   <path transform="matrix(.95789 0 0 1.0706 76.738 397.48)" d="m308.3 885c0 13.18-7.5188 23.865-16.794 23.865s-16.794-10.685-16.794-23.865 7.5188-23.865 16.794-23.865 16.794 10.685 16.794 23.865z" fill="#382509"/>
   <path transform="translate(-3.7716 308.36)" d="m318.2 938.21-14.849 26.163-1.4142 22.627 6.0104 21.213 17.678 6.0104 7.7782-74.953-15.203-1.0607z" fill="#2e3436"/>
   <path transform="translate(-3.7716 308.36)" d="m306.18 960.49 26.516-9.8995 1.4142-11.314-16.617-1.7678-11.314 22.981z" fill="url(#i)"/>
   <path transform="matrix(.41053 0 0 .45882 162.41 906.99)" d="m308.3 885c0 13.18-7.5188 23.865-16.794 23.865s-16.794-10.685-16.794-23.865 7.5188-23.865 16.794-23.865 16.794 10.685 16.794 23.865z" fill="#babdb6"/>
   <path d="m284.35 1244.8-15.188 1.0625 7.7812 74.938 17.656-6 6.0312-21.219-1.4062-22.625-14.875-26.156zm-1.125 2.5313 13 23.75-21.5 4.25-3.25-27.5 11.75-0.5z" fill="#8c0000"/>
   <path transform="matrix(.41053 0 0 .45882 234.18 938.11)" d="m308.3 885c0 13.18-7.5188 23.865-16.794 23.865s-16.794-10.685-16.794-23.865 7.5188-23.865 16.794-23.865 16.794 10.685 16.794 23.865z" fill="#babdb6"/>
   <path transform="translate(-3.7716 308.36)" d="m313.25 986.29v8.4853l14.142 2.8284 4.2426-36.062 0.35355-3.182-6.7175 27.931h-12.021z" fill="#803f00"/>
   <path transform="translate(-3.7716 308.36)" d="m313.75 986.25 10.75 2.75 1.5-6.25-12.25 3.5z" fill="#bf5e00"/>
  </g>
 </g>
</svg>
