<?xml version='1.0' encoding='utf-8'?>
<svg xmlns="http://www.w3.org/2000/svg" width="100%" height="100%" viewBox="0 0 20834 16667" version="1.1" style="fill-rule:evenodd;clip-rule:evenodd;stroke-linecap:round;stroke-linejoin:round;stroke-miterlimit:1.5;"> <g transform="matrix(4.16667,0,0,4.16667,0,0)"> <path d="M0,0L0,3440.69L5000,3330.78L5000,0L0,0" style="fill:url(#_Radial1);"/> <circle cx="4391.19" cy="2681.63" r="524.145" style="fill:rgb(216,211,202);"/> <g transform="matrix(-0.298849,-0.425747,0.497998,-0.255491,1145.65,3927.69)"> <path d="M1541.46,2513.66C1550.39,2499.74 1555.08,2483.95 1555.08,2467.88C1555.08,2417.35 1509.54,2376.32 1453.44,2376.32C1397.34,2376.32 1351.79,2417.35 1351.79,2467.88C1351.79,2483.95 1356.49,2499.74 1365.41,2513.66L1541.46,2513.66Z" style="fill:rgb(84,84,84);"/> </g> <g transform="matrix(0.580786,0,0,0.496524,1047.88,1449.16)"> <rect x="1473.98" y="2525.26" width="81.102" height="163.297" style="fill:rgb(111,111,111);"/> </g> <g transform="matrix(0.580786,0,0,0.496524,1245.35,1414.33)"> <ellipse cx="1174.53" cy="2758.71" rx="71.383" ry="69.956" style="fill:rgb(84,84,84);"/> </g> <g transform="matrix(0.580786,0,0,0.496524,1071.43,1449.07)"> <rect x="1433.43" y="2746.32" width="81.102" height="255.191" style="fill:rgb(111,111,111);"/> </g> <g transform="matrix(0.580786,0,0,0.496524,1463.98,1664.99)"> <path d="M904.475,2739.73C915.256,2718.01 920.931,2693.38 920.931,2668.3C920.931,2589.47 865.891,2525.46 798.096,2525.46C730.301,2525.46 675.26,2589.47 675.26,2668.3C675.26,2693.38 680.935,2718.01 691.716,2739.73L904.475,2739.73Z" style="fill:rgb(78,78,78);"/> </g> <g transform="matrix(0.298849,-0.425747,-0.497998,-0.255491,3002.96,3927.69)"> <path d="M1541.46,2513.66C1550.39,2499.74 1555.08,2483.95 1555.08,2467.88C1555.08,2417.35 1509.54,2376.32 1453.44,2376.32C1397.34,2376.32 1351.79,2417.35 1351.79,2467.88C1351.79,2483.95 1356.49,2499.74 1365.41,2513.66L1541.46,2513.66Z" style="fill:rgb(125,125,125);"/> </g> <g transform="matrix(-0.580786,0,0,0.496524,3100.73,1449.16)"> <rect x="1473.98" y="2525.26" width="81.102" height="163.297" style="fill:rgb(111,111,111);"/> </g> <g transform="matrix(-0.580786,0,0,0.496524,2903.27,1414.33)"> <ellipse cx="1174.53" cy="2758.71" rx="71.383" ry="69.956" style="fill:rgb(109,109,109);"/> </g> <g transform="matrix(-0.580786,0,0,0.496524,3077.18,1449.07)"> <rect x="1433.43" y="2746.32" width="81.102" height="255.191" style="fill:rgb(132,132,132);"/> </g> <g transform="matrix(-0.580786,0,0,0.496524,2684.64,1664.99)"> <path d="M904.475,2739.73C915.256,2718.01 920.931,2693.38 920.931,2668.3C920.931,2589.47 865.891,2525.46 798.096,2525.46C730.301,2525.46 675.26,2589.47 675.26,2668.3C675.26,2693.38 680.935,2718.01 691.716,2739.73L904.475,2739.73Z" style="fill:rgb(78,78,78);"/> </g> <g transform="matrix(-0.580786,0,0,0.496524,2684.64,1664.99)"> <path d="M798.096,2525.46C730.301,2525.46 675.26,2589.47 675.26,2668.3C675.26,2693.38 680.935,2718.01 691.716,2739.73C706.976,2660.28 740.231,2587.98 798.096,2525.46Z" style="fill:rgb(156,157,135);"/> </g> <g transform="matrix(-0.580786,0,0,0.496524,2684.64,1664.99)"> <path d="M691.716,2739.73L904.475,2739.73C915.256,2718.01 920.931,2693.38 920.931,2668.3C920.931,2589.47 865.891,2525.46 798.096,2525.46L691.716,2739.73Z" style="fill:rgb(78,78,78);"/> </g> <g transform="matrix(0.580786,0,0,-0.496524,1479.24,3828.02)"> <path d="M1247.86,2566.79C1270.25,2528 1282.04,2484.01 1282.04,2439.23C1282.04,2298.43 1167.73,2184.11 1026.92,2184.11C886.121,2184.11 771.806,2298.43 771.806,2439.23C771.806,2484.01 783.594,2528 805.986,2566.79L1247.86,2566.79Z" style="fill:rgb(111,111,111);"/> </g> <g transform="matrix(0.330989,0,0,0.282968,1648.67,1910.64)"> <circle cx="1290.06" cy="1647.73" r="960.02" style="fill:rgb(149,149,149);"/> </g> <g transform="matrix(0.330989,0,0,0.282968,1648.67,1910.64)"> <path d="M1290.06,687.708C1819.91,687.708 2250.08,1117.88 2250.08,1647.73C2250.08,2049.29 2002.99,2393.6 1652.69,2536.79C2049.59,1808.4 1812.06,1217.28 1290.06,687.708Z" style="fill:rgb(230,231,202);"/> </g> <g transform="matrix(0.318864,-0.0758892,0.0887679,0.272602,1311.14,1783.91)"> <path d="M1724.27,1197.08L1774.74,1008.7L1825.21,1197.08C1790.19,1190.44 1756.65,1190.97 1724.27,1197.08Z" style="fill:rgb(97,97,97);"/> </g> <g transform="matrix(-0.318864,-0.0758892,-0.0887679,0.272602,2840.19,1783.91)"> <path d="M1724.27,1197.08L1774.74,1008.7L1825.21,1197.08C1790.19,1190.44 1756.65,1190.97 1724.27,1197.08Z" style="fill:rgb(160,160,160);"/> </g> <g transform="matrix(0.330989,0,0,0.282968,1488.25,1626.93)"> <path d="M2481.98,2033.98C2493.95,1981.26 2500,1927.36 2500,1873.3C2500,1473.01 2175.02,1148.04 1774.74,1148.04C1374.45,1148.04 1049.47,1473.01 1049.47,1873.3C1049.47,1927.36 1055.52,1981.26 1067.5,2033.98L2481.98,2033.98Z" style="fill:rgb(169,169,169);"/> </g> <g transform="matrix(0.330989,0,0,0.282968,1488.25,1626.93)"> <path d="M1905.32,2033.98L2481.98,2033.98C2493.95,1981.26 2500,1927.36 2500,1873.3C2500,1473.01 2175.02,1148.04 1774.74,1148.04C1966.08,1425.38 2036.51,1717.42 1905.32,2033.98Z" style="fill:rgb(230,231,202);"/> </g> <g transform="matrix(0.330989,0,0,0.282968,1488.25,1626.93)"> <path d="M1049.47,1873.3C1049.47,1927.36 1055.52,1981.26 1067.5,2033.98L2481.98,2033.98C2493.95,1981.26 2500,1927.36 2500,1873.3L1049.47,1873.3Z" style="fill:rgb(113,113,113);"/> </g> <g transform="matrix(0.330989,0,0,0.282968,1488.25,1626.93)"> <path d="M1958.07,1873.3L1049.47,1873.3C1049.47,1927.36 1055.52,1981.26 1067.5,2033.98L2066.39,2033.98L1958.07,1873.3Z" style="fill:rgb(113,113,113);"/> </g> <g transform="matrix(0.330989,0,0,0.282968,1488.25,1626.93)"> <path d="M2066.39,2033.98L2481.98,2033.98C2493.95,1981.26 2500,1927.36 2500,1873.3L1958.07,1873.3L2066.39,2033.98Z" style="fill:rgb(191,192,162);"/> </g> <g transform="matrix(0.293618,0,0,0.282968,1542.61,1626.43)"> <path d="M1167.84,1840.19L1335.77,1534.52L1774.74,1704.11L1774.74,1849.67L1167.84,1840.19Z" style="fill:rgb(255,0,0);"/> </g> <g transform="matrix(-0.293618,0,0,0.282968,2608.73,1626.43)"> <path d="M1167.84,1840.19L1335.77,1534.52L1774.74,1704.11L1774.74,1849.67L1167.84,1840.19Z" style="fill:rgb(255,0,0);"/> </g> <g transform="matrix(0.330989,0,0,0.282968,1488.25,1607.26)"> <rect x="1738.58" y="1510.82" width="72.311" height="179.504" style="fill:rgb(121,121,121);"/> </g> <g transform="matrix(0.330989,0,0,0.282968,1492.69,1626.93)"> <path d="M1132.25,1908.79L1132.25,2000L1099.27,2000L1099.27,1908.79L1132.25,1908.79ZM1200.2,1908.79L1200.2,2000L1167.22,2000L1167.22,1908.79L1200.2,1908.79ZM1268.16,1908.79L1268.16,2000L1235.17,2000L1235.17,1908.79L1268.16,1908.79ZM1336.11,1908.79L1336.11,2000L1303.13,2000L1303.13,1908.79L1336.11,1908.79ZM1404.07,1908.79L1404.07,2000L1371.08,2000L1371.08,1908.79L1404.07,1908.79ZM1472.02,1908.79L1472.02,2000L1439.04,2000L1439.04,1908.79L1472.02,1908.79ZM1539.97,1908.79L1539.97,2000L1506.99,2000L1506.99,1908.79L1539.97,1908.79ZM1607.93,1908.79L1607.93,2000L1574.94,2000L1574.94,1908.79L1607.93,1908.79ZM1675.88,1908.79L1675.88,2000L1642.9,2000L1642.9,1908.79L1675.88,1908.79ZM1743.84,1908.79L1743.84,2000L1710.85,2000L1710.85,1908.79L1743.84,1908.79ZM1811.79,1908.79L1811.79,2000L1778.81,2000L1778.81,1908.79L1811.79,1908.79ZM1879.74,1908.79L1879.74,2000L1846.76,2000L1846.76,1908.79L1879.74,1908.79ZM1947.7,1908.79L1947.7,2000L1914.71,2000L1914.71,1908.79L1947.7,1908.79ZM2015.65,1908.79L2015.65,2000L1982.67,2000L1982.67,1908.79L2015.65,1908.79ZM2083.61,1908.79L2083.61,2000L2050.62,2000L2050.62,1908.79L2083.61,1908.79ZM2151.56,1908.79L2151.56,2000L2118.57,2000L2118.57,1908.79L2151.56,1908.79ZM2219.51,1908.79L2219.51,2000L2186.53,2000L2186.53,1908.79L2219.51,1908.79ZM2287.47,1908.79L2287.47,2000L2254.48,2000L2254.48,1908.79L2287.47,1908.79ZM2355.42,1908.79L2355.42,2000L2322.43,2000L2322.43,1908.79L2355.42,1908.79ZM2423.37,1908.79L2423.37,2000L2390.39,2000L2390.39,1908.79L2423.37,1908.79Z" style="fill:rgb(63,63,63);"/> </g> <g transform="matrix(0.330989,0,0,0.282968,1488.25,1618.19)"> <path d="M1724.27,1197.08L1774.74,1008.7L1825.21,1197.08L1774.74,1194.75L1724.27,1197.08Z" style="fill:rgb(137,129,129);"/> </g> <g transform="matrix(0.580786,0,0,0.496524,1071.43,1449.07)"> <path d="M1988.76,1693.48C1780.36,1733.41 1568.05,1724.34 1351.79,1665.62L1351.79,1868.65C1585.78,2071.28 1816.95,2091.41 2045.16,1919.47L1988.76,1693.48Z" style="fill:rgb(111,111,111);"/> </g> <g transform="matrix(0.580786,0,0,0.496524,1071.43,1449.07)"> <path d="M2045.16,1919.47C2065.6,1904.08 2086.01,1887.14 2106.4,1868.65L2106.4,1665.62C2067.33,1676.65 2028.11,1685.93 1988.76,1693.48L2045.16,1919.47Z" style="fill:rgb(178,178,167);"/> </g> <g transform="matrix(0.580786,0,0,0.496524,1088.1,1449.07)"> <path d="M1244.46,1614.69C1212.88,1693.74 1189.98,1772.48 1182.27,1850.7C932.323,1734.38 1075.54,1533.64 1244.46,1614.69Z" style="fill:rgb(116,116,116);"/> </g> <g transform="matrix(0.580786,0,0,0.496524,1070.34,1463.39)"> <ellipse cx="1176.52" cy="1694.47" rx="30.573" ry="28.848" style="fill:rgb(76,76,76);"/> </g> <g transform="matrix(0.580786,0,0,0.496524,1088.1,1449.07)"> <path d="M1115.37,1723.31L1047.43,2000L1115.37,2000L1176.52,1723.31L1115.37,1723.31Z" style="fill:rgb(74,74,74);"/> </g> <g transform="matrix(0.291347,0,0,0.284327,1555.84,1828.79)"> <path d="M642.056,2183.96C642.056,2169.15 630.032,2157.12 615.221,2157.12L469.205,2157.12C454.394,2157.12 442.369,2169.15 442.369,2183.96C442.369,2198.77 454.394,2210.79 469.205,2210.79L615.221,2210.79C630.032,2210.79 642.056,2198.77 642.056,2183.96Z" style="fill:rgb(74,74,74);"/> </g> <g transform="matrix(0.291347,0,0,0.284327,1555.84,1844.05)"> <path d="M642.056,2183.96C642.056,2169.15 630.032,2157.12 615.221,2157.12L469.205,2157.12C454.394,2157.12 442.369,2169.15 442.369,2183.96C442.369,2198.77 454.394,2210.79 469.205,2210.79L615.221,2210.79C630.032,2210.79 642.056,2198.77 642.056,2183.96Z" style="fill:rgb(74,74,74);"/> </g> <g transform="matrix(0.580786,0,0,0.496524,1086.6,1449.07)"> <path d="M1066.88,2061.47L1061.27,2343.57L1098.6,2339.91L1098.59,2061.47L1066.88,2061.47Z" style="fill:rgb(65,65,65);"/> </g> <g transform="matrix(0.580786,0,0,0.496524,1088.1,1449.07)"> <path d="M1111.98,2332.16L1047.43,2343.57L1047.43,2370.6L1115.37,2370.6L1111.98,2332.16Z" style="fill:rgb(65,65,65);"/> </g> <g transform="matrix(0.580786,0,0,0.496524,1088.1,1449.07)"> <path d="M1047.43,2370.6L976.758,2432.47L1058.7,2582.33L1027.28,2437.64L1081.4,2387.01L1127.45,2437.93L1081.4,2582.51L1176.52,2438.25L1115.37,2370.6L1047.43,2370.6Z" style="fill:rgb(106,106,106);"/> </g> <g transform="matrix(-0.580786,0,0,0.496524,3067.29,1449.07)"> <path d="M1244.46,1614.69C1212.88,1693.74 1189.98,1772.48 1182.27,1850.7C932.323,1734.38 1075.54,1533.64 1244.46,1614.69Z" style="fill:rgb(185,185,162);"/> </g> <g transform="matrix(-0.580786,0,0,0.496524,3085.04,1463.39)"> <ellipse cx="1176.52" cy="1694.47" rx="30.573" ry="28.848" style="fill:rgb(113,113,113);"/> </g> <g transform="matrix(-0.580786,0,0,0.496524,3067.29,1449.07)"> <path d="M1115.37,1723.31L1047.43,2000L1115.37,2000L1176.52,1723.31L1115.37,1723.31Z" style="fill:rgb(117,117,117);"/> </g> <g transform="matrix(-0.291347,0,0,0.284327,2599.54,1828.79)"> <path d="M642.056,2183.96C642.056,2169.15 630.032,2157.12 615.221,2157.12L542.213,2157.12L469.205,2157.12C454.394,2157.12 442.369,2169.15 442.369,2183.96C442.369,2198.77 454.394,2210.79 469.205,2210.79L615.221,2210.79C630.032,2210.79 642.056,2198.77 642.056,2183.96Z" style="fill:rgb(109,109,109);"/> </g> <g transform="matrix(-0.291347,0,0,0.284327,2599.54,1844.05)"> <path d="M642.056,2183.96C642.056,2169.15 630.032,2157.12 615.221,2157.12L469.205,2157.12C454.394,2157.12 442.369,2169.15 442.369,2183.96C442.369,2198.77 454.394,2210.79 469.205,2210.79L615.221,2210.79C630.032,2210.79 642.056,2198.77 642.056,2183.96Z" style="fill:rgb(119,119,119);"/> </g> <g transform="matrix(-0.580786,0,0,0.496524,3068.78,1449.07)"> <path d="M1066.88,2061.47L1061.27,2343.57L1098.6,2339.91L1098.59,2061.47L1066.88,2061.47Z" style="fill:rgb(107,107,107);"/> </g> <g transform="matrix(-0.580786,0,0,0.496524,3067.29,1449.07)"> <path d="M1111.98,2332.16L1047.43,2343.57L1047.43,2370.6L1115.37,2370.6L1111.98,2332.16Z" style="fill:rgb(102,99,99);"/> </g> <g transform="matrix(-0.580786,0,0,0.496524,3067.29,1449.07)"> <path d="M1047.43,2370.6L976.758,2432.47L1058.7,2582.33L1027.28,2437.64L1081.4,2387.01L1127.45,2437.93L1081.4,2582.51L1176.52,2438.25L1115.37,2370.6L1047.43,2370.6Z" style="fill:rgb(133,133,133);"/> </g> <g transform="matrix(0.580786,0,0,0.496524,1071.43,1449.07)"> <path d="M1429.79,2227.19L2013.09,2227.19" style="fill:none;stroke:rgb(98,98,98);stroke-width:9.5px;"/> </g> <g transform="matrix(-0.231724,-0.330119,0.386142,-0.198105,-282.772,3725.01)"> <path d="M1541.46,2513.66C1550.39,2499.74 1555.08,2483.95 1555.08,2467.88C1555.08,2417.35 1509.54,2376.32 1453.44,2376.32C1397.34,2376.32 1351.79,2417.35 1351.79,2467.88C1351.79,2483.95 1356.49,2499.74 1365.41,2513.66L1541.46,2513.66Z" style="fill:rgb(84,84,84);"/> </g> <g transform="matrix(0.450335,0,0,0.384999,-358.579,1803.19)"> <rect x="1473.98" y="2525.26" width="81.102" height="163.297" style="fill:rgb(111,111,111);"/> </g> <g transform="matrix(0.450335,0,0,0.384999,-205.466,1776.18)"> <ellipse cx="1174.53" cy="2758.71" rx="71.383" ry="69.956" style="fill:rgb(84,84,84);"/> </g> <g transform="matrix(0.450335,0,0,0.384999,-340.318,1803.11)"> <rect x="1433.43" y="2746.32" width="81.102" height="255.191" style="fill:rgb(111,111,111);"/> </g> <g transform="matrix(0.450335,0,0,0.384999,-35.9433,1970.54)"> <path d="M904.475,2739.73C915.256,2718.01 920.931,2693.38 920.931,2668.3C920.931,2589.47 865.891,2525.46 798.096,2525.46C730.301,2525.46 675.26,2589.47 675.26,2668.3C675.26,2693.38 680.935,2718.01 691.716,2739.73L904.475,2739.73Z" style="fill:rgb(78,78,78);"/> </g> <g transform="matrix(0.231724,-0.330119,-0.386142,-0.198105,1157.37,3725.01)"> <path d="M1541.46,2513.66C1550.39,2499.74 1555.08,2483.95 1555.08,2467.88C1555.08,2417.35 1509.54,2376.32 1453.44,2376.32C1397.34,2376.32 1351.79,2417.35 1351.79,2467.88C1351.79,2483.95 1356.49,2499.74 1365.41,2513.66L1541.46,2513.66Z" style="fill:rgb(125,125,125);"/> </g> <g transform="matrix(-0.450335,0,0,0.384999,1233.18,1803.19)"> <rect x="1473.98" y="2525.26" width="81.102" height="163.297" style="fill:rgb(111,111,111);"/> </g> <g transform="matrix(-0.450335,0,0,0.384999,1080.07,1776.18)"> <ellipse cx="1174.53" cy="2758.71" rx="71.383" ry="69.956" style="fill:rgb(109,109,109);"/> </g> <g transform="matrix(-0.450335,0,0,0.384999,1214.92,1803.11)"> <rect x="1433.43" y="2746.32" width="81.102" height="255.191" style="fill:rgb(132,132,132);"/> </g> <g transform="matrix(-0.450335,0,0,0.384999,910.543,1970.54)"> <path d="M904.475,2739.73C915.256,2718.01 920.931,2693.38 920.931,2668.3C920.931,2589.47 865.891,2525.46 798.096,2525.46C730.301,2525.46 675.26,2589.47 675.26,2668.3C675.26,2693.38 680.935,2718.01 691.716,2739.73L904.475,2739.73Z" style="fill:rgb(78,78,78);"/> </g> <g transform="matrix(-0.450335,0,0,0.384999,910.543,1970.54)"> <path d="M798.096,2525.46C730.301,2525.46 675.26,2589.47 675.26,2668.3C675.26,2693.38 680.935,2718.01 691.716,2739.73C706.976,2660.28 740.231,2587.98 798.096,2525.46Z" style="fill:rgb(156,157,135);"/> </g> <g transform="matrix(-0.450335,0,0,0.384999,910.543,1970.54)"> <path d="M691.716,2739.73L904.475,2739.73C915.256,2718.01 920.931,2693.38 920.931,2668.3C920.931,2589.47 865.891,2525.46 798.096,2525.46L691.716,2739.73Z" style="fill:rgb(78,78,78);"/> </g> <g transform="matrix(0.450335,0,0,-0.384999,-24.1045,3647.73)"> <path d="M1247.86,2566.79C1270.25,2528 1282.04,2484.01 1282.04,2439.23C1282.04,2298.43 1167.73,2184.11 1026.92,2184.11C886.121,2184.11 771.806,2298.43 771.806,2439.23C771.806,2484.01 783.594,2528 805.986,2566.79L1247.86,2566.79Z" style="fill:rgb(111,111,111);"/> </g> <g transform="matrix(0.256645,0,0,0.21941,107.267,2161.01)"> <circle cx="1290.06" cy="1647.73" r="960.02" style="fill:rgb(149,149,149);"/> </g> <g transform="matrix(0.256645,0,0,0.21941,107.267,2161.01)"> <path d="M1290.06,687.708C1819.91,687.708 2250.08,1117.88 2250.08,1647.73C2250.08,2049.29 2002.99,2393.6 1652.69,2536.79C2049.59,1808.4 1812.06,1217.28 1290.06,687.708Z" style="fill:rgb(230,231,202);"/> </g> <g transform="matrix(0.247243,-0.0588436,0.0688296,0.211372,-154.447,2062.75)"> <path d="M1724.27,1197.08L1774.74,1008.7L1825.21,1197.08C1790.19,1190.44 1756.65,1190.97 1724.27,1197.08Z" style="fill:rgb(97,97,97);"/> </g> <g transform="matrix(-0.247243,-0.0588436,-0.0688296,0.211372,1031.16,2062.75)"> <path d="M1724.27,1197.08L1774.74,1008.7L1825.21,1197.08C1790.19,1190.44 1756.65,1190.97 1724.27,1197.08Z" style="fill:rgb(160,160,160);"/> </g> <g transform="matrix(0.256645,0,0,0.21941,-17.1225,1941.03)"> <path d="M2481.98,2033.98C2493.95,1981.26 2500,1927.36 2500,1873.3C2500,1473.01 2175.02,1148.04 1774.74,1148.04C1374.45,1148.04 1049.47,1473.01 1049.47,1873.3C1049.47,1927.36 1055.52,1981.26 1067.5,2033.98L2481.98,2033.98Z" style="fill:rgb(169,169,169);"/> </g> <g transform="matrix(0.256645,0,0,0.21941,-17.1225,1941.03)"> <path d="M1905.32,2033.98L2481.98,2033.98C2493.95,1981.26 2500,1927.36 2500,1873.3C2500,1473.01 2175.02,1148.04 1774.74,1148.04C1966.08,1425.38 2036.51,1717.42 1905.32,2033.98Z" style="fill:rgb(230,231,202);"/> </g> <g transform="matrix(0.256645,0,0,0.21941,-17.1225,1941.03)"> <path d="M1049.47,1873.3C1049.47,1927.36 1055.52,1981.26 1067.5,2033.98L2481.98,2033.98C2493.95,1981.26 2500,1927.36 2500,1873.3L1049.47,1873.3Z" style="fill:rgb(113,113,113);"/> </g> <g transform="matrix(0.256645,0,0,0.21941,-17.1225,1941.03)"> <path d="M1958.07,1873.3L1049.47,1873.3C1049.47,1927.36 1055.52,1981.26 1067.5,2033.98L2066.39,2033.98L1958.07,1873.3Z" style="fill:rgb(113,113,113);"/> </g> <g transform="matrix(0.256645,0,0,0.21941,-17.1225,1941.03)"> <path d="M2066.39,2033.98L2481.98,2033.98C2493.95,1981.26 2500,1927.36 2500,1873.3L1958.07,1873.3L2066.39,2033.98Z" style="fill:rgb(191,192,162);"/> </g> <g transform="matrix(0.227668,0,0,0.21941,25.0251,1940.64)"> <path d="M1167.84,1840.19L1335.77,1534.52L1774.74,1704.11L1774.74,1849.67L1167.84,1840.19Z" style="fill:rgb(255,0,0);"/> </g> <g transform="matrix(-0.227668,0,0,0.21941,851.685,1940.64)"> <path d="M1167.84,1840.19L1335.77,1534.52L1774.74,1704.11L1774.74,1849.67L1167.84,1840.19Z" style="fill:rgb(255,0,0);"/> </g> <g transform="matrix(0.256645,0,0,0.21941,-17.1225,1925.77)"> <rect x="1738.58" y="1510.82" width="72.311" height="179.504" style="fill:rgb(121,121,121);"/> </g> <g transform="matrix(0.256645,0,0,0.21941,-13.6791,1941.03)"> <path d="M1132.25,1908.79L1132.25,2000L1099.27,2000L1099.27,1908.79L1132.25,1908.79ZM1200.2,1908.79L1200.2,2000L1167.22,2000L1167.22,1908.79L1200.2,1908.79ZM1268.16,1908.79L1268.16,2000L1235.17,2000L1235.17,1908.79L1268.16,1908.79ZM1336.11,1908.79L1336.11,2000L1303.13,2000L1303.13,1908.79L1336.11,1908.79ZM1404.07,1908.79L1404.07,2000L1371.08,2000L1371.08,1908.79L1404.07,1908.79ZM1472.02,1908.79L1472.02,2000L1439.04,2000L1439.04,1908.79L1472.02,1908.79ZM1539.97,1908.79L1539.97,2000L1506.99,2000L1506.99,1908.79L1539.97,1908.79ZM1607.93,1908.79L1607.93,2000L1574.94,2000L1574.94,1908.79L1607.93,1908.79ZM1675.88,1908.79L1675.88,2000L1642.9,2000L1642.9,1908.79L1675.88,1908.79ZM1743.84,1908.79L1743.84,2000L1710.85,2000L1710.85,1908.79L1743.84,1908.79ZM1811.79,1908.79L1811.79,2000L1778.81,2000L1778.81,1908.79L1811.79,1908.79ZM1879.74,1908.79L1879.74,2000L1846.76,2000L1846.76,1908.79L1879.74,1908.79ZM1947.7,1908.79L1947.7,2000L1914.71,2000L1914.71,1908.79L1947.7,1908.79ZM2015.65,1908.79L2015.65,2000L1982.67,2000L1982.67,1908.79L2015.65,1908.79ZM2083.61,1908.79L2083.61,2000L2050.62,2000L2050.62,1908.79L2083.61,1908.79ZM2151.56,1908.79L2151.56,2000L2118.57,2000L2118.57,1908.79L2151.56,1908.79ZM2219.51,1908.79L2219.51,2000L2186.53,2000L2186.53,1908.79L2219.51,1908.79ZM2287.47,1908.79L2287.47,2000L2254.48,2000L2254.48,1908.79L2287.47,1908.79ZM2355.42,1908.79L2355.42,2000L2322.43,2000L2322.43,1908.79L2355.42,1908.79ZM2423.37,1908.79L2423.37,2000L2390.39,2000L2390.39,1908.79L2423.37,1908.79Z" style="fill:rgb(63,63,63);"/> </g> <g transform="matrix(0.256645,0,0,0.21941,-17.1225,1934.25)"> <path d="M1724.27,1197.08L1774.74,1008.7L1825.21,1197.08L1774.74,1194.75L1724.27,1197.08Z" style="fill:rgb(137,129,129);"/> </g> <g transform="matrix(0.450335,0,0,0.384999,-340.318,1803.11)"> <path d="M1988.76,1693.48C1780.36,1733.41 1568.05,1724.34 1351.79,1665.62L1351.79,1868.65C1585.78,2071.28 1816.95,2091.41 2045.16,1919.47L1988.76,1693.48Z" style="fill:rgb(111,111,111);"/> </g> <g transform="matrix(0.450335,0,0,0.384999,-340.318,1803.11)"> <path d="M2045.16,1919.47C2065.6,1904.08 2086.01,1887.14 2106.4,1868.65L2106.4,1665.62C2067.33,1676.65 2028.11,1685.93 1988.76,1693.48L2045.16,1919.47Z" style="fill:rgb(178,178,167);"/> </g> <g transform="matrix(0.450335,0,0,0.384999,-327.397,1803.11)"> <path d="M1244.46,1614.69C1212.88,1693.74 1189.98,1772.48 1182.27,1850.7C932.323,1734.38 1075.54,1533.64 1244.46,1614.69Z" style="fill:rgb(116,116,116);"/> </g> <g transform="matrix(0.450335,0,0,0.384999,-341.165,1814.22)"> <ellipse cx="1176.52" cy="1694.47" rx="30.573" ry="28.848" style="fill:rgb(76,76,76);"/> </g> <g transform="matrix(0.450335,0,0,0.384999,-327.397,1803.11)"> <path d="M1115.37,1723.31L1047.43,2000L1115.37,2000L1176.52,1723.31L1115.37,1723.31Z" style="fill:rgb(74,74,74);"/> </g> <g transform="matrix(0.225908,0,0,0.220464,35.2866,2097.54)"> <path d="M642.056,2183.96C642.056,2169.15 630.032,2157.12 615.221,2157.12L469.205,2157.12C454.394,2157.12 442.369,2169.15 442.369,2183.96C442.369,2198.77 454.394,2210.79 469.205,2210.79L615.221,2210.79C630.032,2210.79 642.056,2198.77 642.056,2183.96Z" style="fill:rgb(74,74,74);"/> </g> <g transform="matrix(0.225908,0,0,0.220464,35.2866,2109.38)"> <path d="M642.056,2183.96C642.056,2169.15 630.032,2157.12 615.221,2157.12L469.205,2157.12C454.394,2157.12 442.369,2169.15 442.369,2183.96C442.369,2198.77 454.394,2210.79 469.205,2210.79L615.221,2210.79C630.032,2210.79 642.056,2198.77 642.056,2183.96Z" style="fill:rgb(74,74,74);"/> </g> <g transform="matrix(0.450335,0,0,0.384999,-328.555,1803.11)"> <path d="M1066.88,2061.47L1061.27,2343.57L1098.6,2339.91L1098.59,2061.47L1066.88,2061.47Z" style="fill:rgb(65,65,65);"/> </g> <g transform="matrix(0.450335,0,0,0.384999,-327.397,1803.11)"> <path d="M1111.98,2332.16L1047.43,2343.57L1047.43,2370.6L1115.37,2370.6L1111.98,2332.16Z" style="fill:rgb(65,65,65);"/> </g> <g transform="matrix(0.450335,0,0,0.384999,-327.397,1803.11)"> <path d="M1047.43,2370.6L976.758,2432.47L1058.7,2582.33L1027.28,2437.64L1081.4,2387.01L1127.45,2437.93L1081.4,2582.51L1176.52,2438.25L1115.37,2370.6L1047.43,2370.6Z" style="fill:rgb(106,106,106);"/> </g> <g transform="matrix(-0.450335,0,0,0.384999,1207.25,1803.11)"> <path d="M1244.46,1614.69C1212.88,1693.74 1189.98,1772.48 1182.27,1850.7C932.323,1734.38 1075.54,1533.64 1244.46,1614.69Z" style="fill:rgb(185,185,162);"/> </g> <g transform="matrix(-0.450335,0,0,0.384999,1221.01,1814.22)"> <ellipse cx="1176.52" cy="1694.47" rx="30.573" ry="28.848" style="fill:rgb(113,113,113);"/> </g> <g transform="matrix(-0.450335,0,0,0.384999,1207.25,1803.11)"> <path d="M1115.37,1723.31L1047.43,2000L1115.37,2000L1176.52,1723.31L1115.37,1723.31Z" style="fill:rgb(117,117,117);"/> </g> <g transform="matrix(-0.225908,0,0,0.220464,844.563,2097.54)"> <path d="M642.056,2183.96C642.056,2169.15 630.032,2157.12 615.221,2157.12L542.213,2157.12L469.205,2157.12C454.394,2157.12 442.369,2169.15 442.369,2183.96C442.369,2198.77 454.394,2210.79 469.205,2210.79L615.221,2210.79C630.032,2210.79 642.056,2198.77 642.056,2183.96Z" style="fill:rgb(109,109,109);"/> </g> <g transform="matrix(-0.225908,0,0,0.220464,844.563,2109.38)"> <path d="M642.056,2183.96C642.056,2169.15 630.032,2157.12 615.221,2157.12L469.205,2157.12C454.394,2157.12 442.369,2169.15 442.369,2183.96C442.369,2198.77 454.394,2210.79 469.205,2210.79L615.221,2210.79C630.032,2210.79 642.056,2198.77 642.056,2183.96Z" style="fill:rgb(119,119,119);"/> </g> <g transform="matrix(-0.450335,0,0,0.384999,1208.4,1803.11)"> <path d="M1066.88,2061.47L1061.27,2343.57L1098.6,2339.91L1098.59,2061.47L1066.88,2061.47Z" style="fill:rgb(107,107,107);"/> </g> <g transform="matrix(-0.450335,0,0,0.384999,1207.25,1803.11)"> <path d="M1111.98,2332.16L1047.43,2343.57L1047.43,2370.6L1115.37,2370.6L1111.98,2332.16Z" style="fill:rgb(102,99,99);"/> </g> <g transform="matrix(-0.450335,0,0,0.384999,1207.25,1803.11)"> <path d="M1047.43,2370.6L976.758,2432.47L1058.7,2582.33L1027.28,2437.64L1081.4,2387.01L1127.45,2437.93L1081.4,2582.51L1176.52,2438.25L1115.37,2370.6L1047.43,2370.6Z" style="fill:rgb(133,133,133);"/> </g> <g transform="matrix(0.450335,0,0,0.384999,-340.318,1803.11)"> <path d="M1429.79,2227.19L2013.09,2227.19" style="fill:none;stroke:rgb(98,98,98);stroke-width:9.5px;"/> </g> <path d="M0,2689.6L1574.4,2661.55L2936.51,3107.37L5000,2663.62L5000,4000L0,4000L0,2689.6Z" style="fill:rgb(78,51,0);"/> <path d="M1758.86,2721.92L112.472,2893.73C-51.411,2967.03 -4.307,3011.88 275.561,3025.33L2201.92,2866.94L1758.86,2721.92Z" style="fill:rgb(56,37,0);"/> <path d="M603.982,2678.43L0,2825.93L0,2689.6L603.982,2678.43Z" style="fill:rgb(56,37,0);"/> <path d="M2734.09,3041.12L5000,2661.55L5000,2663.62L2936.51,3107.37L2734.09,3041.12Z" style="fill:rgb(185,121,0);"/> <g transform="matrix(-0.51456,-0.857455,0.857455,-0.51456,-578.818,4946.91)"> <path d="M1541.46,2513.66C1550.39,2499.74 1555.08,2483.95 1555.08,2467.88C1555.08,2417.35 1509.54,2376.32 1453.44,2376.32C1397.34,2376.32 1351.79,2417.35 1351.79,2467.88C1351.79,2483.95 1356.49,2499.74 1365.41,2513.66L1541.46,2513.66Z" style="fill:rgb(84,84,84);"/> </g> <g transform="matrix(1,0,0,1,-747.153,-44.8386)"> <rect x="1473.98" y="2525.26" width="81.102" height="163.297" style="fill:rgb(111,111,111);"/> </g> <g transform="matrix(1,0,0,1,-407.155,-114.991)"> <ellipse cx="1174.53" cy="2758.71" rx="71.383" ry="69.956" style="fill:rgb(84,84,84);"/> </g> <g transform="matrix(1,0,0,1,-706.602,-45.0349)"> <rect x="1433.43" y="2746.32" width="81.102" height="255.191" style="fill:rgb(111,111,111);"/> </g> <g transform="matrix(1,0,0,1,-30.7173,389.84)"> <path d="M904.475,2739.73C915.256,2718.01 920.931,2693.38 920.931,2668.3C920.931,2589.47 865.891,2525.46 798.096,2525.46C730.301,2525.46 675.26,2589.47 675.26,2668.3C675.26,2693.38 680.935,2718.01 691.716,2739.73L904.475,2739.73Z" style="fill:rgb(78,78,78);"/> </g> <g transform="matrix(0.51456,-0.857455,-0.857455,-0.51456,2619.12,4946.91)"> <path d="M1541.46,2513.66C1550.39,2499.74 1555.08,2483.95 1555.08,2467.88C1555.08,2417.35 1509.54,2376.32 1453.44,2376.32C1397.34,2376.32 1351.79,2417.35 1351.79,2467.88C1351.79,2483.95 1356.49,2499.74 1365.41,2513.66L1541.46,2513.66Z" style="fill:rgb(125,125,125);"/> </g> <g transform="matrix(-1,0,0,1,2787.46,-44.8386)"> <rect x="1473.98" y="2525.26" width="81.102" height="163.297" style="fill:rgb(111,111,111);"/> </g> <g transform="matrix(-1,0,0,1,2447.46,-114.991)"> <ellipse cx="1174.53" cy="2758.71" rx="71.383" ry="69.956" style="fill:rgb(109,109,109);"/> </g> <g transform="matrix(-1,0,0,1,2746.9,-45.0349)"> <rect x="1433.43" y="2746.32" width="81.102" height="255.191" style="fill:rgb(132,132,132);"/> </g> <g transform="matrix(-1,0,0,1,2071.02,389.84)"> <path d="M904.475,2739.73C915.256,2718.01 920.931,2693.38 920.931,2668.3C920.931,2589.47 865.891,2525.46 798.096,2525.46C730.301,2525.46 675.26,2589.47 675.26,2668.3C675.26,2693.38 680.935,2718.01 691.716,2739.73L904.475,2739.73Z" style="fill:rgb(78,78,78);"/> </g> <g transform="matrix(-1,0,0,1,2071.02,389.84)"> <path d="M798.096,2525.46C730.301,2525.46 675.26,2589.47 675.26,2668.3C675.26,2693.38 680.935,2718.01 691.716,2739.73C706.976,2660.28 740.231,2587.98 798.096,2525.46Z" style="fill:rgb(156,157,135);"/> </g> <g transform="matrix(-1,0,0,1,2071.02,389.84)"> <path d="M691.716,2739.73L904.475,2739.73C915.256,2718.01 920.931,2693.38 920.931,2668.3C920.931,2589.47 865.891,2525.46 798.096,2525.46L691.716,2739.73Z" style="fill:rgb(78,78,78);"/> </g> <g transform="matrix(1,0,0,-1,-4.4282,4746.18)"> <path d="M1247.86,2566.79C1270.25,2528 1282.04,2484.01 1282.04,2439.23C1282.04,2298.43 1167.73,2184.11 1026.92,2184.11C886.121,2184.11 771.806,2298.43 771.806,2439.23C771.806,2484.01 783.594,2528 805.986,2566.79L1247.86,2566.79Z" style="fill:rgb(111,111,111);"/> </g> <g transform="matrix(0.569898,0,0,0.569898,287.292,884.583)"> <circle cx="1290.06" cy="1647.73" r="960.02" style="fill:rgb(149,149,149);"/> </g> <g transform="matrix(0.569898,0,0,0.569898,287.292,884.583)"> <path d="M1290.06,687.708C1819.91,687.708 2250.08,1117.88 2250.08,1647.73C2250.08,2049.29 2002.99,2393.6 1652.69,2536.79C2049.59,1808.4 1812.06,1217.28 1290.06,687.708Z" style="fill:rgb(230,231,202);"/> </g> <g transform="matrix(0.549021,-0.152841,0.152841,0.549021,-293.862,629.343)"> <path d="M1724.27,1197.08L1774.74,1008.7L1825.21,1197.08C1790.19,1190.44 1756.65,1190.97 1724.27,1197.08Z" style="fill:rgb(97,97,97);"/> </g> <g transform="matrix(-0.549021,-0.152841,-0.152841,0.549021,2338.85,629.343)"> <path d="M1724.27,1197.08L1774.74,1008.7L1825.21,1197.08C1790.19,1190.44 1756.65,1190.97 1724.27,1197.08Z" style="fill:rgb(160,160,160);"/> </g> <g transform="matrix(0.569898,0,0,0.569898,11.0756,313.194)"> <path d="M2481.98,2033.98C2493.95,1981.26 2500,1927.36 2500,1873.3C2500,1473.01 2175.02,1148.04 1774.74,1148.04C1374.45,1148.04 1049.47,1473.01 1049.47,1873.3C1049.47,1927.36 1055.52,1981.26 1067.5,2033.98L2481.98,2033.98Z" style="fill:rgb(169,169,169);"/> </g> <g transform="matrix(0.569898,0,0,0.569898,11.0756,313.194)"> <path d="M1905.32,2033.98L2481.98,2033.98C2493.95,1981.26 2500,1927.36 2500,1873.3C2500,1473.01 2175.02,1148.04 1774.74,1148.04C1966.08,1425.38 2036.51,1717.42 1905.32,2033.98Z" style="fill:rgb(230,231,202);"/> </g> <g transform="matrix(0.569898,0,0,0.569898,11.0756,313.194)"> <path d="M1049.47,1873.3C1049.47,1927.36 1055.52,1981.26 1067.5,2033.98L2481.98,2033.98C2493.95,1981.26 2500,1927.36 2500,1873.3L1049.47,1873.3Z" style="fill:rgb(113,113,113);"/> </g> <g transform="matrix(0.569898,0,0,0.569898,11.0756,313.194)"> <path d="M1958.07,1873.3L1049.47,1873.3C1049.47,1927.36 1055.52,1981.26 1067.5,2033.98L2066.39,2033.98L1958.07,1873.3Z" style="fill:rgb(113,113,113);"/> </g> <g transform="matrix(0.569898,0,0,0.569898,11.0756,313.194)"> <path d="M2066.39,2033.98L2481.98,2033.98C2493.95,1981.26 2500,1927.36 2500,1873.3L1958.07,1873.3L2066.39,2033.98Z" style="fill:rgb(191,192,162);"/> </g> <g transform="matrix(0.505553,0,0,0.569898,104.667,312.183)"> <path d="M1167.84,1840.19L1335.77,1534.52L1774.74,1704.11L1774.74,1849.67L1167.84,1840.19Z" style="fill:rgb(255,0,0);"/> </g> <g transform="matrix(-0.505553,0,0,0.569898,1940.32,312.183)"> <path d="M1167.84,1840.19L1335.77,1534.52L1774.74,1704.11L1774.74,1849.67L1167.84,1840.19Z" style="fill:rgb(255,0,0);"/> </g> <g transform="matrix(0.569898,0,0,0.569898,11.0756,273.564)"> <rect x="1738.58" y="1510.82" width="72.311" height="179.504" style="fill:rgb(121,121,121);"/> </g> <g transform="matrix(0.569898,0,0,0.569898,18.7219,313.194)"> <path d="M1132.25,1908.79L1132.25,2000L1099.27,2000L1099.27,1908.79L1132.25,1908.79ZM1200.2,1908.79L1200.2,2000L1167.22,2000L1167.22,1908.79L1200.2,1908.79ZM1268.16,1908.79L1268.16,2000L1235.17,2000L1235.17,1908.79L1268.16,1908.79ZM1336.11,1908.79L1336.11,2000L1303.13,2000L1303.13,1908.79L1336.11,1908.79ZM1404.07,1908.79L1404.07,2000L1371.08,2000L1371.08,1908.79L1404.07,1908.79ZM1472.02,1908.79L1472.02,2000L1439.04,2000L1439.04,1908.79L1472.02,1908.79ZM1539.97,1908.79L1539.97,2000L1506.99,2000L1506.99,1908.79L1539.97,1908.79ZM1607.93,1908.79L1607.93,2000L1574.94,2000L1574.94,1908.79L1607.93,1908.79ZM1675.88,1908.79L1675.88,2000L1642.9,2000L1642.9,1908.79L1675.88,1908.79ZM1743.84,1908.79L1743.84,2000L1710.85,2000L1710.85,1908.79L1743.84,1908.79ZM1811.79,1908.79L1811.79,2000L1778.81,2000L1778.81,1908.79L1811.79,1908.79ZM1879.74,1908.79L1879.74,2000L1846.76,2000L1846.76,1908.79L1879.74,1908.79ZM1947.7,1908.79L1947.7,2000L1914.71,2000L1914.71,1908.79L1947.7,1908.79ZM2015.65,1908.79L2015.65,2000L1982.67,2000L1982.67,1908.79L2015.65,1908.79ZM2083.61,1908.79L2083.61,2000L2050.62,2000L2050.62,1908.79L2083.61,1908.79ZM2151.56,1908.79L2151.56,2000L2118.57,2000L2118.57,1908.79L2151.56,1908.79ZM2219.51,1908.79L2219.51,2000L2186.53,2000L2186.53,1908.79L2219.51,1908.79ZM2287.47,1908.79L2287.47,2000L2254.48,2000L2254.48,1908.79L2287.47,1908.79ZM2355.42,1908.79L2355.42,2000L2322.43,2000L2322.43,1908.79L2355.42,1908.79ZM2423.37,1908.79L2423.37,2000L2390.39,2000L2390.39,1908.79L2423.37,1908.79Z" style="fill:rgb(63,63,63);"/> </g> <g transform="matrix(0.569898,0,0,0.569898,11.0756,295.576)"> <path d="M1724.27,1197.08L1774.74,1008.7L1825.21,1197.08L1774.74,1194.75L1724.27,1197.08Z" style="fill:rgb(137,129,129);"/> </g> <g transform="matrix(1,0,0,1,-706.602,-45.0349)"> <path d="M1988.76,1693.48C1780.36,1733.41 1568.05,1724.34 1351.79,1665.62L1351.79,1868.65C1585.78,2071.28 1816.95,2091.41 2045.16,1919.47L1988.76,1693.48Z" style="fill:rgb(111,111,111);"/> </g> <g transform="matrix(1,0,0,1,-706.602,-45.0349)"> <path d="M2045.16,1919.47C2065.6,1904.08 2086.01,1887.14 2106.4,1868.65L2106.4,1665.62C2067.33,1676.65 2028.11,1685.93 1988.76,1693.48L2045.16,1919.47Z" style="fill:rgb(178,178,167);"/> </g> <g transform="matrix(1,0,0,1,-677.91,-45.0349)"> <path d="M1244.46,1614.69C1212.88,1693.74 1189.98,1772.48 1182.27,1850.7C932.323,1734.38 1075.54,1533.64 1244.46,1614.69Z" style="fill:rgb(116,116,116);"/> </g> <g transform="matrix(1,0,0,1,-708.483,-16.187)"> <ellipse cx="1176.52" cy="1694.47" rx="30.573" ry="28.848" style="fill:rgb(76,76,76);"/> </g> <g transform="matrix(1,0,0,1,-677.91,-45.0349)"> <path d="M1115.37,1723.31L1047.43,2000L1115.37,2000L1176.52,1723.31L1115.37,1723.31Z" style="fill:rgb(74,74,74);"/> </g> <g transform="matrix(0.501643,0,0,0.572635,127.454,719.722)"> <path d="M642.056,2183.96C642.056,2169.15 630.032,2157.12 615.221,2157.12L469.205,2157.12C454.394,2157.12 442.369,2169.15 442.369,2183.96C442.369,2198.77 454.394,2210.79 469.205,2210.79L615.221,2210.79C630.032,2210.79 642.056,2198.77 642.056,2183.96Z" style="fill:rgb(74,74,74);"/> </g> <g transform="matrix(0.501643,0,0,0.572635,127.454,750.457)"> <path d="M642.056,2183.96C642.056,2169.15 630.032,2157.12 615.221,2157.12L469.205,2157.12C454.394,2157.12 442.369,2169.15 442.369,2183.96C442.369,2198.77 454.394,2210.79 469.205,2210.79L615.221,2210.79C630.032,2210.79 642.056,2198.77 642.056,2183.96Z" style="fill:rgb(74,74,74);"/> </g> <g transform="matrix(1,0,0,1,-680.482,-45.0349)"> <path d="M1066.88,2061.47L1061.27,2343.57L1098.6,2339.91L1098.59,2061.47L1066.88,2061.47Z" style="fill:rgb(65,65,65);"/> </g> <g transform="matrix(1,0,0,1,-677.91,-45.0349)"> <path d="M1111.98,2332.16L1047.43,2343.57L1047.43,2370.6L1115.37,2370.6L1111.98,2332.16Z" style="fill:rgb(65,65,65);"/> </g> <g transform="matrix(1,0,0,1,-677.91,-45.0349)"> <path d="M1047.43,2370.6L976.758,2432.47L1058.7,2582.33L1027.28,2437.64L1081.4,2387.01L1127.45,2437.93L1081.4,2582.51L1176.52,2438.25L1115.37,2370.6L1047.43,2370.6Z" style="fill:rgb(106,106,106);"/> </g> <g transform="matrix(-1,0,0,1,2729.87,-45.0349)"> <path d="M1244.46,1614.69C1212.88,1693.74 1189.98,1772.48 1182.27,1850.7C932.323,1734.38 1075.54,1533.64 1244.46,1614.69Z" style="fill:rgb(185,185,162);"/> </g> <g transform="matrix(-1,0,0,1,2760.45,-16.187)"> <ellipse cx="1176.52" cy="1694.47" rx="30.573" ry="28.848" style="fill:rgb(113,113,113);"/> </g> <g transform="matrix(-1,0,0,1,2729.87,-45.0349)"> <path d="M1115.37,1723.31L1047.43,2000L1115.37,2000L1176.52,1723.31L1115.37,1723.31Z" style="fill:rgb(117,117,117);"/> </g> <g transform="matrix(-0.501643,0,0,0.572635,1924.51,719.722)"> <path d="M642.056,2183.96C642.056,2169.15 630.032,2157.12 615.221,2157.12L542.213,2157.12L469.205,2157.12C454.394,2157.12 442.369,2169.15 442.369,2183.96C442.369,2198.77 454.394,2210.79 469.205,2210.79L615.221,2210.79C630.032,2210.79 642.056,2198.77 642.056,2183.96Z" style="fill:rgb(109,109,109);"/> </g> <g transform="matrix(-0.501643,0,0,0.572635,1924.51,750.457)"> <path d="M642.056,2183.96C642.056,2169.15 630.032,2157.12 615.221,2157.12L469.205,2157.12C454.394,2157.12 442.369,2169.15 442.369,2183.96C442.369,2198.77 454.394,2210.79 469.205,2210.79L615.221,2210.79C630.032,2210.79 642.056,2198.77 642.056,2183.96Z" style="fill:rgb(119,119,119);"/> </g> <g transform="matrix(-1,0,0,1,2732.44,-45.0349)"> <path d="M1066.88,2061.47L1061.27,2343.57L1098.6,2339.91L1098.59,2061.47L1066.88,2061.47Z" style="fill:rgb(107,107,107);"/> </g> <g transform="matrix(-1,0,0,1,2729.87,-45.0349)"> <path d="M1111.98,2332.16L1047.43,2343.57L1047.43,2370.6L1115.37,2370.6L1111.98,2332.16Z" style="fill:rgb(102,99,99);"/> </g> <g transform="matrix(-1,0,0,1,2729.87,-45.0349)"> <path d="M1047.43,2370.6L976.758,2432.47L1058.7,2582.33L1027.28,2437.64L1081.4,2387.01L1127.45,2437.93L1081.4,2582.51L1176.52,2438.25L1115.37,2370.6L1047.43,2370.6Z" style="fill:rgb(133,133,133);"/> </g> <g transform="matrix(1,0,0,1,-706.602,-45.0349)"> <path d="M1429.79,2227.19L2013.09,2227.19" style="fill:none;stroke:rgb(98,98,98);stroke-width:9.5px;"/> </g> <path d="M660.999,3129.57L0,3129.57L0,3440.69L1395.72,3129.57L1182.07,3129.57L312.676,3268.48L175.619,3219.6L873.757,3129.57L660.999,3129.57Z" style="fill:rgb(56,37,0);"/> <g transform="matrix(1.91276,-0.230569,0.119676,0.992813,-2146.93,468.999)"> <ellipse cx="2104.58" cy="3755.43" rx="395.416" ry="88.861" style="fill:rgb(56,37,0);"/> </g> <g transform="matrix(0.678117,0.330543,-0.321335,0.659227,2135.49,335.547)"> <path d="M2500,3595.87C2354.58,3424.74 2372.02,3271.18 2500,3129.57C2668.02,3001.36 2827.88,3047.83 2986.08,3129.57C3054.09,3230.22 3038.74,3309.97 2966.61,3375.47C3063.61,3385.51 3132.01,3411.97 3030.74,3535.84L2857.33,3562.74L2805.38,3715.47L2738.64,3632.09L2706.88,3710.42L2635.95,3621.39L2594.36,3710.11L2562.05,3635.53L2500,3694.02L2500,3595.87Z" style="fill:rgb(149,148,147);"/> </g> <g transform="matrix(0.678117,0.330543,-0.321335,0.659227,2135.49,335.547)"> <path d="M2500,3129.57C2668.02,3001.36 2827.88,3047.83 2986.08,3129.57C3054.09,3230.22 3038.74,3309.97 2966.61,3375.47C3063.61,3385.51 3132.01,3411.97 3030.74,3535.84L2857.33,3562.74C3069.89,3272.23 2777.98,3029.08 2500,3129.57Z" style="fill:rgb(194,194,194);"/> </g> <g transform="matrix(0.678117,0.330543,-0.321335,0.659227,2135.49,335.547)"> <path d="M2680.45,3380.48C2595.91,3402.77 2537.51,3383.43 2500,3330.78C2469.79,3277.32 2499.34,3240.35 2550.54,3209.35C2621.26,3236.84 2672.24,3285.62 2680.45,3380.48Z" style="fill:rgb(40,29,8);"/> </g> <g transform="matrix(0.678117,0.330543,-0.321335,0.659227,2135.49,335.547)"> <path d="M2739.07,3380.48C2757.66,3293.28 2817.75,3242.06 2899.21,3209.35C2944.62,3240.29 2964.67,3278.01 2928.35,3330.78C2885.84,3409.31 2817.43,3409.86 2739.07,3380.48Z" style="fill:rgb(40,29,8);"/> </g> <g transform="matrix(0.646026,0.3149,-0.254252,0.521604,1992.71,842.095)"> <path d="M2622,3519.41C2619.66,3464.1 2642.29,3419.29 2684.42,3382.68C2731.36,3425.45 2757.19,3474.6 2739.07,3537.01C2696.66,3555.37 2657.49,3550.53 2622,3519.41Z" style="fill:rgb(40,29,8);"/> </g> </g> <defs> <radialGradient id="_Radial1" cx="0" cy="0" r="1" gradientUnits="userSpaceOnUse" gradientTransform="matrix(-1400.32,-4762.35,4167.8,-1225.5,4419.43,2621.26)"><stop offset="0" style="stop-color:rgb(255,194,54);stop-opacity:1"/><stop offset="0.5" style="stop-color:rgb(63,48,13);stop-opacity:1"/><stop offset="1" style="stop-color:black;stop-opacity:1"/></radialGradient> </defs> </svg>