<?xml version="1.0" encoding="UTF-8"?>
<svg width="288.33" height="288.33" enable-background="new 0 0 288.333 353.545" viewBox="0 0 288.333 353.545" xmlns="http://www.w3.org/2000/svg">
 <defs>
  <linearGradient id="i" x1="128.38" x2="206.38" y1="139.91" y2="221.41" gradientUnits="userSpaceOnUse">
   <stop stop-color="#9ea0a2" offset="0"/>
   <stop stop-color="#abacaf" offset=".0378"/>
   <stop stop-color="#c3c4c6" offset=".122"/>
   <stop stop-color="#d8d9da" offset=".2155"/>
   <stop stop-color="#e8e9e9" offset=".3204"/>
   <stop stop-color="#f3f3f4" offset=".4431"/>
   <stop stop-color="#fcfcfc" offset=".6001"/>
   <stop stop-color="#fff" offset=".9101"/>
  </linearGradient>
  <linearGradient id="h" x1="119.67" x2="194.34" gradientUnits="userSpaceOnUse">
   <stop stop-color="#8d8072" offset="0"/>
   <stop stop-color="#938678" offset=".0261"/>
   <stop stop-color="#b0a08e" offset=".1461"/>
   <stop stop-color="#c8b5a0" offset=".2725"/>
   <stop stop-color="#dac4ae" offset=".4053"/>
   <stop stop-color="#e7cfb7" offset=".5474"/>
   <stop stop-color="#f0d7bd" offset=".7052"/>
   <stop stop-color="#f5dbc0" offset=".9101"/>
  </linearGradient>
  <linearGradient id="g" x1="88.544" x2="212.17" gradientUnits="userSpaceOnUse">
   <stop stop-color="#8d8072" offset="0"/>
   <stop stop-color="#938678" offset=".0261"/>
   <stop stop-color="#b0a08e" offset=".1461"/>
   <stop stop-color="#c8b5a0" offset=".2725"/>
   <stop stop-color="#dac4ae" offset=".4053"/>
   <stop stop-color="#e7cfb7" offset=".5474"/>
   <stop stop-color="#f0d7bd" offset=".7052"/>
   <stop stop-color="#f5dbc0" offset=".9101"/>
  </linearGradient>
  <linearGradient id="b" x1="120.1" x2="126.1" gradientTransform="matrix(.9941 -.1088 .1088 .9941 -47.177 -.8229)" gradientUnits="userSpaceOnUse">
   <stop stop-color="#734f44" offset="0"/>
   <stop stop-color="#e5a782" offset=".5562"/>
   <stop stop-color="#dea37f" offset=".6397"/>
   <stop stop-color="#d29c79" offset=".7511"/>
   <stop stop-color="#bd8f6e" offset=".8778"/>
   <stop stop-color="#a58060" offset="1"/>
  </linearGradient>
  <linearGradient id="a" x1="72.492" x2="77.992" y1="164.99" y2="165.99" gradientUnits="userSpaceOnUse">
   <stop stop-color="#734f44" offset="0"/>
   <stop stop-color="#e5a782" offset=".5562"/>
   <stop stop-color="#dea37f" offset=".6397"/>
   <stop stop-color="#d29c79" offset=".7511"/>
   <stop stop-color="#bd8f6e" offset=".8778"/>
   <stop stop-color="#a58060" offset="1"/>
  </linearGradient>
  <linearGradient id="n" x1="83.617" x2="108.12" y1="305.21" y2="298.71" gradientUnits="userSpaceOnUse">
   <stop stop-color="#a3877f" offset="0"/>
   <stop stop-color="#ecc3b4" offset="1"/>
  </linearGradient>
  <linearGradient id="m" x1="120.32" x2="122.42" y1="259.99" y2="259.43" gradientUnits="userSpaceOnUse">
   <stop stop-color="#a89888" offset="0"/>
   <stop stop-color="#f5dbc0" offset="1"/>
  </linearGradient>
  <linearGradient id="l" x1="103.92" x2="112.86" y1="274.25" y2="271.88" gradientUnits="userSpaceOnUse">
   <stop stop-color="#a89888" offset="0"/>
   <stop stop-color="#f5dbc0" offset="1"/>
  </linearGradient>
  <linearGradient id="k" x1="112.66" x2="120.3" y1="287.42" y2="285.4" gradientUnits="userSpaceOnUse">
   <stop stop-color="#a89888" offset="0"/>
   <stop stop-color="#ecc3b4" offset="1"/>
  </linearGradient>
  <linearGradient id="j" x1="117.35" x2="123.8" y1="301.12" y2="299.4" gradientUnits="userSpaceOnUse">
   <stop stop-color="#a3877f" offset="0"/>
   <stop stop-color="#ecc3b4" offset="1"/>
  </linearGradient>
  <radialGradient id="f" cx="148" cy="52.899" r="56.734" fx="146.34" fy="23.484" gradientUnits="userSpaceOnUse">
   <stop stop-color="#7e2823" offset="0"/>
   <stop stop-color="#9d5528" offset=".2538"/>
   <stop stop-color="#af6b2b" offset=".3989"/>
   <stop stop-color="#a36129" offset=".4916"/>
   <stop stop-color="#894923" offset=".6547"/>
   <stop stop-color="#652519" offset=".8677"/>
   <stop stop-color="#5e1d15" offset=".9101"/>
  </radialGradient>
  <radialGradient id="e" cx="125.84" cy="101.26" r="6.2894" fx="126.34" fy="100.7" gradientUnits="userSpaceOnUse">
   <stop stop-color="#272525" offset="0"/>
   <stop stop-color="#2c2a2c" offset=".0369"/>
   <stop stop-color="#393a3f" offset=".0869"/>
   <stop stop-color="#484a55" offset=".1443"/>
   <stop stop-color="#51586c" offset=".2073"/>
   <stop stop-color="#536083" offset=".2749"/>
   <stop stop-color="#48649b" offset=".3451"/>
   <stop stop-color="#2c64ad" offset=".3989"/>
   <stop stop-color="#3e6cb2" offset=".4289"/>
   <stop stop-color="#718ac4" offset=".5316"/>
   <stop stop-color="#9babd6" offset=".629"/>
   <stop stop-color="#c2cae6" offset=".7183"/>
   <stop stop-color="#e1e4f3" offset=".7977"/>
   <stop stop-color="#f5f6fb" offset=".8643"/>
   <stop stop-color="#fff" offset=".9101"/>
  </radialGradient>
  <radialGradient id="d" cx="171" cy="100.37" r="6.0496" gradientUnits="userSpaceOnUse">
   <stop stop-color="#272525" offset="0"/>
   <stop stop-color="#2c2a2c" offset=".0369"/>
   <stop stop-color="#393a3f" offset=".0869"/>
   <stop stop-color="#484a55" offset=".1443"/>
   <stop stop-color="#51586c" offset=".2073"/>
   <stop stop-color="#536083" offset=".2749"/>
   <stop stop-color="#48649b" offset=".3451"/>
   <stop stop-color="#2c64ad" offset=".3989"/>
   <stop stop-color="#3e6cb2" offset=".4289"/>
   <stop stop-color="#718ac4" offset=".5316"/>
   <stop stop-color="#9babd6" offset=".629"/>
   <stop stop-color="#c2cae6" offset=".7183"/>
   <stop stop-color="#e1e4f3" offset=".7977"/>
   <stop stop-color="#f5f6fb" offset=".8643"/>
   <stop stop-color="#fff" offset=".9101"/>
  </radialGradient>
  <radialGradient id="c" cx="113.43" cy="106.01" r="56.9" gradientUnits="userSpaceOnUse">
   <stop stop-color="#3c1813" offset="0"/>
   <stop stop-color="#3f1d19" offset=".0794"/>
   <stop stop-color="#472622" offset=".1676"/>
   <stop stop-color="#553530" offset=".2599"/>
   <stop stop-color="#6b4c44" offset=".3551"/>
   <stop stop-color="#8d6f64" offset=".4527"/>
   <stop stop-color="#bfa697" offset=".5507"/>
   <stop stop-color="#cbb2a3" offset=".5674"/>
   <stop stop-color="#d6bdab" offset=".6442"/>
   <stop stop-color="#ead1b9" offset=".8016"/>
   <stop stop-color="#f5dbc0" offset=".9101"/>
  </radialGradient>
 </defs>
 <path d="m135.03 179.53-18.5 8 8.5 22 2.5 24.5 7.5 11.5 2 12s1.5 8.5 1.5 11 0.5 23 1 24.5 2 21 2 21 2.5 13 2.5 16-1 9-1 11.5 0 8.5 0 8.5l1.5 3 60-0.5 0.5-51.5 3.5-17.5s0.5-30 0.5-31.5 0.5-22.5 0.5-22.5l-0.5-15-2-12s0.5-16.5-0.5-18.5-16.5-7.5-16.5-7.5l-55 3z" fill="#949698"/>
 <path d="m131.42 179.68s-0.988 20.764 17.682 40.335l0.318 0.331c19 19.667 20.668 11.668 20.334 13.334 0 0 10.666-2 25.666-27.667l7.334-33.667-71.334 7.334z" fill="#f5dbc0"/>
 <path d="m177.87 187.53s2.832 3.834-1.334 5.667l-2.5-0.167-2.332-3 6.166-2.5z" fill="#bd242a"/>
 <path d="m170.37 190.03-2 3.5 4.334 2 0.332-0.5 3.5-1.833-3.5-2.167-1.666-3.666-1 2.666z" fill="#d29432"/>
 <path d="m157.868,210.196-1.666,1.333v3l2.833.5 1.167,1.667 .5.833 2-2.333 2.5-2-.668-2.5-6.666-.5z" fill="#d29432"/>
 <path d="m158.2 202.03-1.667 2-0.333 7.5s7.832-0.666 9 1.667 0 0.5 0 0.5 0.334-6.5 1.166-6.5l0.166-9.167-8.332 4z" fill="#bd242a"/>
 <path d="m155.04 194.86-1 2.5s2 2.332 2.5 6.666c0 0 9.501-1 9.833 3.167l3-6.167-0.166-6-5-2.833-7.834 1.5-1.333 1.167z" fill="#d29432"/>
 <path d="m153.202,194.196 4.666-4 11.166-.5 .834,3.5 3.166,1.833-.5,1.667-2.666,2.833-.334,1.834-1.166-3.167-4.166-2.667-6,.167-2.5-.167-1.667,1.834-1.833-1.167 1-2z" fill="#bd242a"/>
 <path d="m146.37 189.03 1.834 1.167 5.833 3.667-0.167 4.833-5-3.5-2.5-6.167z" fill="#d29432"/>
 <path d="m134.868,189.863 5.834-.167 1.5,1.833 3.5,1.667 3.166,2-.666-2.333-.5-2.167v-1.167l-1.5-1.833-3.167-2.833-1-1-2.333-4.334-4.5,4.167-2,5.333 1.666.834z" fill="#bd242a"/>
 <path d="m156.2 214.53s-2.834-0.166-3.334 2.667l-1.666 5.167 3.5 3.333 3.5-4.667 0.333-4.333 1-1.667 0.667-1.333-4 0.833z" fill="#d29432"/>
 <path d="m168.37 217.86s3.834 0.166 8.834 12.166l-6.834 3.5-4.834-1.333-0.166-4.667 3-9.666z" fill="#bd242a"/>
 <path d="m154.659,225.779c.516,1.623 2.076,2.607 3.494,3.369 .738.396 1.494.672 2.261.971 .389.152.811.053 1.16.379 .286.268.08.682.438.928 .068.796 1.21,1.029 1.902,1.132 .42.062.17.364.71.193 .929-.3 1.651-1.481 2.243-2.222l1.834-3 .332-3.166v-4.667-1.5l-1.5-2.167-2.166-1.833-3.666,1.5-2.334,2.667-.166,4.666-.167,5.167 .333,1 .226.337" fill="#d29432"/>
 <path d="m159.368,214.529-1.666,1.334-.667,4-2.167,3.833-.166,2 4.666,3.5 1.5-2.667 .334-4.333-.5-4.667 .333-2.833-1.667-.167z" fill="#bd242a"/>
 <path d="m161.04 214.7 4.167-1.5-0.5 1.167-2.167 1.833-1.333 2.167-1.334 0.666 1.167-4.333z" fill="#bd242a"/>
 <path d="m170.534,233.154c-.469.992-1.889.634-2.743.507-1.185-.177-2.536-.162-3.507-1.007" fill="#d29432"/>
 <path d="m160.284,229.654c.094.229-.049.422.454.504-.038.041-.229-.066-.192.088 .625.955 2.154,1.994 3.229,2.562 .257.136 7.581,2.976 6.396.341-.432-.961-3.804-.968-4.762-1.153-1.626-.315-3.938-.846-5-1.966" fill="#d29432"/>
 <path d="m133.3 212.03s32.667 26.667 34.333 27.667c0 0 22.667-13.334 29.667-30.667l1.667 8-1 4.334s-2.333 3.666-4 4.333-6 7.333-6 7.333l-5.667 4-4.333 4.667-4.667 3.667-7 5-16.667-15.667-10.333-11-3.333-3.333-5.667-3.334-0.333-6.666 3.333 1.666z" fill="#893234"/>
 <path d="m130.03 212.53 8 6.5 28.5 25s17.206-10.898 32.218-26.769l0.22-0.234" fill="none" stroke="#d29432"/>
 <path d="m124.53 218.03 41.5 39s44-41 45.5-42.5" fill="none" stroke="#272525"/>
 <path d="m189.2 230.86v-24.5l0.5-8-4.5-16.5-6.5-23-0.5-18.5 13-4.5 8.5 10.5 8.5 3.5 5.5 3 5.5 3 8 4.5 2.5 4.5 5.5 2.5 6 3.5 5 5.5 11 5.5 2 3s0 6-2 8-68 38-68 38z" fill="#556475"/>
 <path d="m143.53 264.53 6-10.5-18-55.5-5-22.5 2.5-14-5-16.5-7 3-12 4-4 1.5-1 6-3 6-6.5 3-9 4-2.5 9s-2 3.5-3.5 9.5-2 14-2 14l5 2 65 57z" fill="#556475"/>
 <path d="m120.53 147.03-7.5 0.5-2.5 3-3-0.5-3.5 1.5-3 2-2 2-4.5 4.5-2 6.5-4-1.5-2.5 1-2 4.5-3.5 2v1.5s-0.5 2-1.5 3.5-3 4-3 4c-2.5 2.5-5 3.5-5 3.5-3 2.5-6 4-6 4l-3 2-2.5 2s-1 1-2.5 2-2 0.5-3 2-1 1.5-1 1.5 1 0.5-1 2.5-7 4-7 4l-2.5 2.5-3 5s0-0.5-1.5 1.5-3 4.5-3 4.5l-2 4-1 2s-1 1-1.5 2.5-6 6.5-6 6.5l-1.5 2.5-1 2s-0.5 2-1 3.5-2 4.5-2 4.5-2 3.5-2.5 5 0.5-2.5-0.5 1.5-1.5 4-2 6 0 2.5-1 4.5-1 0-2 4-1 4-1 4 0-1-0.5 2.5 0 2-1 5.5-1 3.5-1 3.5 0 0.5-1.5 3.5-1.5 3-2.5 4.5-1 1.5-1 1.5l-2.018 61.016 151.52-0.016 0.5-5 0.5-4s-0.5-3.5-1-5-2-5-2-5v-2.5l0.5-4 0.5-4 0.5-6.5 0.5-5 0.5-2v-1.5l1-5-1.5-7v-17l-1-6.5-1-5v-8l-3.5-7.5-4-9v-2l-4.5-4-3-5-3-2-2-3.5-1-2-1-3-0.5-1.5-4.5-6-2.5-2-4.5-7-2.5-3.5-3-3.5v-4l-2.5-3.5-6-1 7.5-3.5 0.5-5.5-2.5 0.5-3.5 4-5 5.5-8.5-2.5-6-0.5-5.5-0.5 3-5 2-7 3.5-2 4-4 8.5-6.5 1.5-2 1.5-0.5 5.5-3.5 2.5-1.5 4-3.5 5.5-5z" fill="#3d4855" stroke="#272525"/>
 <path d="m178.83,134.529 6.5-2 4,.5 4.5,5 5.5,5.5 4,3.5 8,2 3,3.5 2.5,1 4,1.5 5,1 2,5.5 3,3.5 4-1.5 3.5,2.5 10.5,10 11.5,7 9.5,10 7.5,7.5 10,11.5 .5,141-88.5-.5-6.5-66-2-12-.5-22.5-1-17 2.5-7.5 7-11 9-9 6-8.5 8-3 12-4.5 13-4.5 10-1.5-5-3.5-6.5-5.5-8-6-1.5-3-6.5-.5-4-5.5-4-3-8.5-4-8.5-5-8-6.5-6-3.5-11,1.5-.5-6.5z" fill="#3d4855" stroke="#272525"/>
 <path d="m90.208,148.99-4.5-15-3.75-.5 1.5,8.5 .25,6 6.5,1z" fill="#fff"/>
 <path d="m128.209,149.452-7.25,7.25-1.25,5-.5,7 .25,5.5 1.25,2 1.75,6c0,0 1.75,3 1.75,4.75s1,5.25 1,5.25l.25,3 1.5,6.75 3,5 2.5,5 1,2.75 2.25,1.25 .75-1.5c0,0-.25-1-1.25-1.5s-2.5-3-2.5-3l-.25-1.75-.5-1.5v-3l-1-2.25v-3.75l-1.25-2.75v-2.75l.25-1.25 2.25-2.25 2.5-3.25 3-2.5 3,1.75 .75,1.75c0,0 .5,1.25 1.25,1.5s4,3.75 4,3.75l2.25.75 2,.75 6.75,1 2-3h2l2,.5c0,0 .75,0 1.5.25s2.25.75 2.25.75l7.75-4 2.25-3.25 3.25-2.25 4.25,6 2.25,5.5 3.25,7.75 3.25,6.25 4.5,3 1.75-.25 1.5-6.5 .25-3 1.75-4.75 1.5-4.75 .75-5.25 1.25-3.5 .75-2.75-.25-4.25-1-4.75 .5-5.5-.5-5.5-1.25-3.25-1.75-3.5-2-2.5-2-3.25-2.75-4-1-3.25-1.5-2-5-.75-8,2.25c0,0-6.5,4.5-7.75,5.25s-20.75,1.5-23.75,2.25-18.25,1.5-18.25,1.5l-3.25-.25z" fill="url(#i)" stroke="#272525"/>
 <path d="m127 142.91-7.334 12.667 8 8.666 4.667 5.334 4 2 4 2.666 6.667 6 5.333 4 5.333 3.334 5.334-0.668 8-6 6-6 6.667-4 3.333-8.666 4-4.666 3.333-8v-2.667l-1.333-3.333-1.333-4.667 2-8-7.334-2-24.666 4.667-16.667 4.666-18 4.667z" fill="url(#h)" stroke="#272525"/>
 <path d="m97.457,73.172-4.949,9.519c-1.193,2.294-2.465,4.564-3.585,6.895-.795,1.653-.363,1.977.445,3.642 .838,1.725 1.458,3.547 2.211,5.31 1.135,2.655 3.269,4.845 3.487,7.808 .124,1.682-.424,3.699-.016,5.332l.803,3.209v2.407c0,0-1.605-1.604 0,2.406l1.604,4.011 3.209,3.209 6.418,1.604 1.604,2.406 2.406,8.824 5.616,6.418 4.011,4.813 .803,5.615 4.813,5.615 6.418,4.813 8.021,3.209 12.032,2.406 8.022-1.604 8.021-4.813 6.417-4.813 7.22-7.219 4.012-7.22 4.011-5.616 4.011-12.032 1.604-8.823c0,0 8.021,4.813 15.241-10.429l.802-12.033-4.011-14.441-28.878-40.911-42.516-10.429-39.307,40.912z" fill="url(#g)" stroke="#272525"/>
 <path d="m107.95,16.281c-.185.183-.361.37-.528.562-6.2,7.106-10.806,17.079-14.892,25.461-5.439,11.156-11.206,24.573-9.512,37.284l-.802,11.23h6.417l4.813.802 5.615,1.605 4.813-3.209 4.012-1.604 4.813,1.604 4.011-3.209 4.011-2.406 5.615-6.417 .803-4.813 3.209-6.417 2.406-4.011 3.209-6.417 .802,9.626c0,0-2.407,1.604-2.407,5.615s3.209,9.626 3.209,9.626l-.802,5.615 6.417,1.604c0,0 3.209,2.407 6.418,1.604l8.824-.802 8.021-1.604h6.417l1.604-4.011 6.418.802 3.209,2.406 5.615-.802 3.208-.802 1.604,7.22 2.407,2.406 1.604,4.012 3.209-3.209 7.22-4.011c0,0 4.813-4.011 4.813-.802s-.803,6.417-.803,6.417l-.802-15.241-.803-10.428-3.208-5.615-1.604-5.616-1.604-4.011-.803-2.407v-5.615-2.406l-7.219-10.428-2.407-2.407-3.209-4.011-5.615-3.209-5.615-4.011c-2.438-1.742-1.79-5.523-4.066-7.506-3.855-3.359-10.012-4.712-14.761-6.249-6.989-2.262-15.517-1.013-22.243.867-4.642,1.297-9.771,1.693-14.519,2.39-3.135.46-6.097.674-8.98,1.506-.899.259-1.9.527-2.775.732-1.808.425-3.498,1.439-4.787,2.71z" fill="url(#f)" stroke="#272525"/>
 <path d="m107.08 128.52s-7.318-17.974-12.033-22.462" fill="none" stroke="#272525"/>
 <path d="m98.336 112.24s-2.667 6.666 4 8" fill="none" stroke="#272525"/>
 <path d="m117.59 101.94s6.75-7.5 16.5-2c0 0-5 9-16.5 2z" fill="url(#e)" stroke="#272525"/>
 <path d="m115 95.239s10.668-8 19.334-0.667c0 0-10.667-13.333-19.334 0.667z" fill="#5e391d" stroke="#272525"/>
 <path d="m179.62 93.134s-11.53-6.697-19.28 1.598c0-1e-3 9.036-14.489 19.28-1.598z" fill="#5e391d" stroke="#272525"/>
 <path d="m163 101.57s8.667 5.334 16-1.332c0 0-8-7.334-16 1.332z" fill="url(#d)" stroke="#272525"/>
 <path d="m149.48 96.822s-8.166 2.041-9.188 14.291c0 0 1.021 18.374-5.104 19.396 0 0-4.083 7.146 13.271 6.125 0 0 12.25-3.063 16.334-6.125 0 0 7.146 2.042-1.021-8.166l-14.292-25.521z" fill="url(#c)"/>
 <path d="m146.458,134.491-4.667-.168-.083-2.916 2.75-.084 .25.918 1.917.25-.167,2z" fill="#272525"/>
 <path d="m152.824,131.255 .969-.031v.938l2-.063-.031-.75 2.219-.125-.188-1.938-2.625.156-.719.813-.563.031-1.062.969z" fill="#272525" stroke="#272525"/>
 <path d="m138.101,148.183 3.168.416 .416.5 1,.084h1.5l1,.166h1.25l1-.084 .25-.082 .334-.168h.582 .418 .416 1 .25l1.166-.082 .584-.084 .5-.084c0,0 .25-.082.666-.25s.834-.25.834-.25h.25 .916c.334,0 .584-.082.584-.082s-.334,0 .25-.084 .666-.084 1.25-.166 1.166-.25 1.166-.25h.5c0,0-.166.082.584-.168s1-.25 1-.25l.5-.416s.583-.166.833-.166 .25-.084.5-.084 .5,0 .5,0 .501-.166.834-.25 .666-.084.666-.084-.082.25.334-.082 .666-.5.666-.5l.25-.418c.167-.666.167-.832.167-.832l.333-.25c0,0 .166,0 .5-.25s.834-.334.834-.334l.333-.084 .167-.25c0,0 .25.084.583-.332l.333-.418s.083-.082.25-.332 .167-.25.167-.25l.667-.584 .166-.334 .084-.25 .5-.5 .083-.25 .083-.332 .084-.25-.417-.25-.417-.75-.5-.168-.25.084h-.5-1.25c-.416,0-1.333-.166-1.333-.166s.001-.25-.333-.334-.584-.166-.584-.166 .083-.084-.25-.084-.416,0-.666,0-.25,0-.25,0l-1.334-.166h-.583c0,0-.333,0-.583.082s-.25.168-.5.168-.166.082-.5.082-1.167-.166-1.667.084-.834.25-.834.25-.582,0-.832.084-.084.084-.584.166-.334-.416-1.084.166-1.082.668-1.082.668-.167.166-.5.25-.584.25-.918.25 .5-.5-.916,0-1.334.332-1.584.582-.416.25-.666.5-.416.334-.666.418-.501.25-.918.5-1.332.416-1.332.416l-1,.416-.5.334c0,0 .082.084-.168.25s-.582.084-1.332.334-1.5.332-1.5.332-.251.084-.418.334-.582.666-.582.666-.668.25-.834.5-.416.334-.416.334-.25.25-.5.5-.5.416-.5.416l-.418.334-.582.416-.25.418-.418.5z" fill="#d35f81"/>
 <path d="m138.49,147.917c.527-.125 1.181-.17 1.671-.393 1.398-.633 1.657-1.363 3.329-1.357l1.875-.75h1.125l1.75-.125h2.875l1-.875c0,0-.375-.125.75-.125s.125.125 1.125,0 3-.25 3-.25l1.75-.75 1.125-.5c0,0 .375-.25.875-.375s.5-.125.5-.125 1.125-.125 1.5-.125 1.625-.875 1.625-.875 .875,0 1.375,0 .25.125 1.125-.125c.836-.239 1.33-.364 1.372-.375 1.111-.279 1.767-.982 2.724-1.469" fill="none" stroke="#272525" stroke-width=".75"/>
 <path d="m103.482,268.102 10.077-2.162-3.046-13.61-16.225-113.107-.883-3.531-2.914-2.6-1.583,2.449 2.481.583 .45,1.516-1.532.949-1.949-1.565 1.215,8.545 1.498,15.06 2.047,13.575 10.364,93.898z" fill="url(#b)" stroke="#272525"/>
 <path d="m81.173 133-15 65.5s1 2 3 1l17-61.5 2-2.5-2.5-3.5-2 2.5-2.5-1.5z" fill="url(#a)" stroke="#272525"/>
 <path d="m80.173 325-0.5 7.5 0.5 4 0.5 4.5 2 4 4.5 1.5 3.5 0.5 4.5-0.5 6-1.5 5-3.5 1-3.5 2-2.5 4-2.5 5.5-5 4.5-4.5 2-4.5 1.5-4 9-6s6.5-7.5-2-11.5c0 0 4-12.5-2-13.5 0 0 2-12-5.5-13.5 0 0 3-4.5 0.5-5.5 0 0 12-8 2-16l-11 5s-11.5-3-22 6.5l-10 9.5 0.5 33.5-6 21.5z" fill="url(#n)" stroke="#272525"/>
 <path d="m117.67 254s9.5 5.5 9 11" fill="url(#m)" stroke="#272525"/>
 <path d="m125.67 270.5h-4.5l-5 0.5-5.5 2-8.5 0.5h-3" fill="url(#l)" stroke="#272525"/>
 <path d="m131.17 284h-6l-3.5 0.5-5 1-4.5 1.5h-3.5" fill="url(#k)" stroke="#272525"/>
 <path d="m130.67 298 2-1-4 1-2.5 0.5-3 1-2 1-3.5 1h-3.5" fill="url(#j)" stroke="#272525"/>
 <path d="m79.673 336 3 7.5s15.5 7 24.5-4.5l0.5 2.5-2.5 4-4 6-0.5 1.5h-22l1-17z" fill="#f4d9c0" stroke="#272525"/>
 <path d="m272.1 232.67h-53.75v-4.5h53.75v4.5z" fill="#3d4855"/>
 <path d="m274.35 296.17h-43.5v-6h43.5v6z" fill="#3d4855"/>
 <path d="m79.286,325.883-1.333,1.333-3.46.541-3.667,1c-.333,1.333 1,0-.333,1.333s-3.333,3-3.333,3l-1.333,1.333-1.667.334-3.333,1.667-3,1.333c0,0 0,.666.667,1.333s0,1-1.333,2.333-1.5.833-2.667,2-3.667,1.667-3.667,1.667-1.167.167-2,1-2,2-2,2l-.667.667v1.667l-1.667,2.618" fill="none" stroke="#272525"/>
</svg>
