<?xml version="1.0" encoding="UTF-8"?>
<svg viewBox="0 0 542.55798 516.34723" xmlns="http://www.w3.org/2000/svg">
 <g transform="translate(670.09 -1531.3)">
  <path d="m-188.9675,1603.0075c-.8412-1.361 1.6018-3.7056 10.0152-9.6123 4.4773-3.1434 9.1094-6.7896 10.2935-8.1027 2.311-2.5628 3.7605-8.0101 2.7985-10.517-1.065-2.7753-2.4074-1.6093-2.4074,2.0909 0,5.1663-1.2685,6.9603-8.3914,11.8683-14.7912,10.1917-18.7035,11.7098-20.6227,8.0023-.5525-1.0672-3.4258-5.5319-6.3851-9.9214-4.0697-6.0366-4.9994-8.0611-3.8159-8.31 1.8699-.3932 2.0654-1.8784.3237-2.459-.9219-.3073-.9873-1.4166-.2544-4.314 .905-3.5779 1.4493-4.0499 6.5833-5.7091 3.5776-1.1562 6.5567-2.953 8.2579-4.9808 1.8678-2.2262 4.5984-3.7596 9.1582-5.1429 6.2352-1.8916 15.1309-2.3168 15.1413-.7239 0,.4198.9209.7632 2.0402.7632 1.5739,0 2.0352.6784 2.0352,2.9927 0,3.6145-1.5848,4.9451-2.3598,1.9814-.3197-1.2225-1.0352-1.83-1.6834-1.4293-1.1229.694-.4402,4.6241.975,5.6134 1.5826,1.1063 1.6366,3.6308.1048,4.8966-1.3773,1.138-1.0773,1.2485 2.0323.7486l3.6481-.5865 2.207,8.246c2.1944,8.1988 2.1661,10.0945-.1506,10.1053-3.6607.017-9.7034,2.7385-17.6811,7.9626-11.7618,7.7023-11.3,7.4477-11.8624,6.5376zm-7.2253-14.9315c2.3297-1.7035 1.1198-3.5477-1.3186-2.0096-1.9054,1.2019-2.9244,3.4528-1.563,3.4528 .4994,0 1.7961-.6494 2.8816-1.4432zm-2.0608-4.1015c4.5396-1.8968 4.5235-3.0236-.033-2.2842-2.3211.3766-3.5615.1749-3.5615-.5792 0-.8618-.2942-.863-1.1527,0-1.0851,1.0851-.6015,4.3422.6446,4.3422 .3154,0 2.1614-.6635 4.1023-1.4744zm-.5415-9.2102c0-.8395-.6598-1.5263-1.4663-1.5263-1.7,0-2.8476,1.4523-1.898,2.402 1.2162,1.2161 3.3643.657 3.3643-.8757z" fill="#fca"/>
  <path d="m-212.4 1559.8c-0.3452-2.9525-0.9034-7.021-1.2403-9.041-0.5279-3.1648-0.1421-4.2086 2.7891-7.5472 1.871-2.1309 5.241-4.688 7.4889-5.6823 6.0993-2.6981 16.366-4.0607 22.861-3.034 5.0061 0.7913 6.1265 1.4703 10.914 6.6143 9.1125 9.79 9.119 9.7604-2.1377 9.7604-5.2961 0-13.211 0.4954-17.589 1.1008-8.2116 1.1355-8.7057 1.3951-18.262 9.5959l-4.1966 3.6013-0.6278-5.3682z" fill="#fca"/>
  <path d="m-279.1838,1715.0966c-4.9078-2.1225-10.1758-7.4454-10.1758-10.2818 0-2.4995.692-2.8419 2.907-1.4384 .9782.6198 1.0475,1.0807.2378,1.5811-1.6261,1.005-.337,2.631 1.5207,1.9181 .8744-.3355 1.4135-1.5335 1.2394-2.7539-.237-1.6612-1.766-2.6308-6.6202-4.1983-7.8563-2.5368-9.4916-3.9432-6.4672-5.5618 1.5814-.8463 3.1041-.8772 5.4516-.1106 1.7915.585 7.1393,1.7953 11.884,2.6896s9.0034,1.8586 9.4636,2.143-.3309,2.0481-1.7581,3.9193c-1.9924,2.6122-2.5949,4.5992-2.5949,8.5579 0,2.8356-.3434,5.1378-.7632,5.1159s-2.3659-.7329-4.3247-1.5801z" fill="#fca"/>
  <path d="m-150.3279,1738.988c-.6495-1.9682-2.4793-4.9683-4.0661-6.667s-2.625-3.0885-2.3072-3.0885 .3373-.2406.043-.5347-2.7989.6402-5.5664,2.076c-4.5899,2.3813-6.7249,2.7027-24.3112,3.6592-14.1137.7676-22.2431,1.7425-30.34,3.6385-12.0323,2.8176-12.8049,2.6454-12.837-2.8607-.042-7.159.9041-8.567 9.0727-13.5051 5.3515-3.2351 11.2682-5.7062 18.4721-7.7149 13.7465-3.8329 21.0302-7.1146 25.1983-11.3531 3.6216-3.6829 9.574-13.647 11.521-19.2862 1.2408-3.5935 12.3034-23.9684 17.9685-33.0939 1.7756-2.8602 3.2284-5.5493 3.2284-5.9757 0-2.9842-9.4232,10.2369-14.5568,20.4237-1.435,2.8474-4.2416,7.316-6.2371,9.9302-3.7404,4.9002-4.4585,6.3863-2.5014,5.1768 1.7104-1.0571.2034,3.1375-3.863,10.7519-3.9335,7.3656-7.1097,11.4183-10.2777,13.1138-2.9907,1.6006-3.4914,1.4174-2.2854-.836 2.1491-4.0155.9539-4.4802-2.0742-.8065-1.7203,2.0869-5.0401,4.8845-7.3775,6.217-4.1835,2.3847-9.8465,4.2219-9.8465,3.1944 0-.2889 1.6669-2.3703 3.7043-4.6254 5.0749-5.6173 3.5713-6.2669-2.3801-1.0282-5.1809,4.5604-18.6748,13.2276-27.7671,17.8351-4.4566,2.2583-6.3892,2.6821-10.1823,2.2328-7.2896-.8633-9.9525-2.597-13.8539-9.0194-5.0644-8.3369-5.9747-7.6838-2.0231,1.4514 1.2954,2.9948 1.3627,3.8159.3125,3.8159-.7359,0-2.3884-2.404-3.6721-5.3422-2.4196-5.5381-4.1897-5.1876-2.2276.441 1.3106,3.7594.9519,4.4179-1.6482,3.0264-1.1127-.5955-2.4627-3.1787-3.234-6.188-1.5377-5.9998-3.5816-7.053-2.6194-1.3498 .354,2.0988.8635,4.6173 1.1322,5.5967 .6206,2.2623-2.2383,2.4201-3.1013.1712-.3397-.8853-.6176-3.8362-.6176-6.5575 0-3.7864.5827-5.6182 2.4823-7.803 2.0444-2.3515 2.8072-2.6564 4.3247-1.7287 1.0133.6195 2.102,2.4511 2.4193,4.0703l.5769,2.9439 1.6018-3.6749c1.1411-2.6179 3.355-4.7399 7.6968-7.3775 6.5582-3.9838 9.5947-4.8746 7.3348-2.1515-.7079.853-.9884,1.8497-.6233,2.2149 1.104,1.1039 15.9238-9.6804 23.8992-17.3913 7.5464-7.2962 8.5344-7.1332 4.524.7459-.8099,1.5911-1.1785,3.1869-.8191,3.5463 1.0331,1.0331 4.3864-4.0463 5.0673-7.6758 .4828-2.5738 2.4148-4.7414 8.7997-9.8731 8.985-7.2215 14.593-13.7483 15.7218-18.2975 1.0169-4.0982-.998-2.6713-3.904,2.7648l-2.275,4.2556-.3076-5.3423c-.425-7.3816-1.9296-6.6941-2.7827,1.2714-.6188,5.7784-1.1788,7.0956-4.4343,10.4302-3.9961,4.0931-10.8112,8.2066-11.8596,7.1583-.7739-.7739 6.5068-23.5641 10.0146-31.3476 1.3817-3.0658 5.9844-11.7307 10.2283-19.2551 7.5366-13.3624 7.9007-13.8082 15.6397-19.1519 7.9758-5.5072 13.5451-8.3792 16.2484-8.3792 .8042,0 1.2042.4173.889.9274s1.3749,1.2511 3.7558,1.6467c8.1167,1.3486 11.1552,3.5913 17.1184,12.6344 3.5043,5.3143 3.7376,8.8332.948,14.3013-2.2899,4.4886-2.4216,5.0879-1.1181,5.0879 .5044,0 1.963-1.7172 3.2414-3.816l2.3244-3.8159 .7085,3.0527c1.3243,5.7061.9768,26.643-.5769,34.7626-1.8589,9.7143-1.8599,10.5366-.01,8.0927 .7987-1.0549 1.7614-3.9793 2.1391-6.4985 1.3381-8.923 2.5607-1.5871 2.7189,16.3149 .1197,13.5325-.24,19.116-1.574,24.4316-1.9152,7.6308-5.2987,14.9876-6.8934,14.9876-1.1611,0-4.8666,8.1022-5.7734,12.6236-.4192,2.0904-.2483,2.7435.5835,2.2295 .7964-.4922 1.1765.3228 1.1765,2.5229v3.2501l-1.9419-2.4687c-2.6134-3.3224-11.3565-7.97-15.5342-8.2575-4.5961-.3163-5.2852,1.6204-.8404,2.3617 4.8098.8022 9.9755,3.4372 14.1173,7.2013l3.4328,3.1196-1.9683,2.6363c-2.8767,3.853-4.0537,3.8093-5.3768-.1996zm-95.3031-22.6324c-.6394-2.5476-.5104-2.6646 2.2701-2.0596 1.6215.3527 4.0397.9508 5.3739,1.329 4.6099,1.3067 1.7554-1.8182-3.4743-3.8034-2.7725-1.0524-5.8815-2.9459-6.9088-4.2078l-1.8678-2.2944 .4962,4.3635c.4429,3.8942 2.9471,9.3738 4.2839,9.3738 .2776,0 .1996-1.2155-.1732-2.7011zm101.2312-13.5802c2.5375-12.5132 3.0945-18.7979 1.6746-18.8941-.8281-.056-5.4075,24.7025-5.5557,30.0366-.1189,4.2782 1.9704-1.72 3.8811-11.1425zm-84.8625-7.4668c4.6026-7.8539 2.8527-9.5458-1.9793-1.9136-3.9899,6.3021-3.9986,6.3277-2.1758,6.3277 .8625,0 2.7323-1.9863 4.1551-4.4141z" fill="#2d1650"/>
  <path d="m-228.61 1747c0-2.679 0.4836-3.0249 6.8686-4.9124 10.276-3.0378 15.581-4.1148 20.097-4.0802 3.5806 0.027 3.152 0.271-3.5615 2.0252-4.1975 1.0967-11.181 3.7615-15.518 5.9217l-7.8862 3.9275v-2.8818z" fill="#1c0b00"/>
  <path d="m-156.715,1739.0952c-2.0123-.6458-5.7875-1.5435-8.3893-1.9949s-4.8016-.8917-4.8883-.9784 1.8085-.5224 4.2116-.9681c3.9814-.7386 4.5787-.7394 6.73-.01 2.524.8569 5.9356,2.8331 6.5182,3.7758 .7645,1.237-.6832,1.2974-4.1822.1746z" fill="#1c0b00"/>
  <path d="m-182.82 2046.7c-2.9014-0.461-8.6494-2.4852-8.6494-3.046 0-0.1759 0.8924-2.2405 1.9832-4.5879 3.787-8.1498 5.7202-15.422 6.8825-25.891 0.7261-6.54 1.2251-17.288 0.8651-18.634l-0.3894-1.4561-0.3421 1.2682c-0.1882 0.6974-0.694 5.0459-1.1241 9.6631-1.0027 10.765-2.0978 17.929-3.5312 23.1-1.1426 4.1223-5.1233 14.398-5.9135 15.265-0.4991 0.5478-5.2939-2.9633-8.7335-6.3953-1.873-1.8689-2.4168-2.7762-2.4168-4.0327 0-4.0818-3.5936-21.993-6.1956-30.88-1.6606-5.6719-1.6923-7.247-0.2733-13.592 1.4476-6.4735 2.5085-31.56 1.4082-33.299-0.7384-1.1671-0.9549 0.7717-1.2469 11.167-0.2605 9.2737-1.3982 20.667-2.295 22.983-0.4405 1.1374-0.4928 1.1053-1.3112-0.8046-1.9954-4.6569-5.7243-20.836-7.5866-32.916-2.9934-19.418-3.7669-38.09-2.1161-51.08 1.2604-9.9174 0.8858-35.386-0.6659-45.282-0.5704-3.6378-1.6262-11.308-2.3463-17.044s-1.9864-14.9-2.8142-20.363-1.6542-12.561-1.8364-15.772c-0.4694-8.2767 0.5374-18.69 2.5075-25.936 1.5472-5.6903 1.5905-6.142 1.5705-16.38l-0.021-10.528 4.6707-2.5875c5.3355-2.9558 12.482-5.9447 18.042-7.5454 14.009-4.0334 35.909-4.6889 46.771-1.4001 2.358 0.714 4.7878 1.2982 5.3997 1.2982 1.1596 0 1.5117 1.3711 2.5806 10.049l0.329 2.6711h-5.6622c-4.4762 0-5.6623 0.1471-5.6623 0.7024 0 0.5289 1.2981 0.7909 5.2546 1.0606 2.8901 0.197 5.5002 0.5105 5.8002 0.6967 0.9994 0.6203 4.2577 10.957 4.9985 15.857 1.9954 13.198 0.446 22.297-11.52 67.651-4.424 16.768-6.8008 24.222-8.3902 26.314-1.4794 1.9465-1.5171 3.0733-0.4855 14.526 3.0599 33.972 3.2007 48.26 0.558 56.611-1.591 5.0271-1.5978 5.2874-0.1024 3.8825l1.2011-1.1283 0.5753 1.4212c0.3164 0.7817 1.245 4.3977 2.0637 8.0356 3.2127 14.276 4.6528 23.891 5.6393 37.65 1.1609 16.192 2.768 25.465 6.6423 38.328 2.2499 7.4693 4.1042 16.486 3.5102 17.068-0.3853 0.3775-16.7 2.7951-22.614 3.3509-6.4496 0.6063-11.034 0.5951-15.009-0.037zm15.548-180.95c-1.0127-8.6817-5.0949-30.229-9.9522-52.532-1.9198-8.8148-3.7651-17.515-4.1009-19.334-0.7258-3.9327-2.006-5.874-2.0012-3.0346 0.01 3.388 1.5486 11.968 4.2912 23.862 3.0483 13.221 5.9802 27.865 8.4612 42.262 1.7405 10.1 2.1599 11.702 3.0631 11.702 0.4065 0 0.4779-0.8753 0.2388-2.9255z" fill="#a57c62"/>
  <path d="m-233.0953,1696.6091c1.4311-1.5125 3.2786-4.325 4.1055-6.25 .9179-2.1369 1.5352-2.7929 1.585-1.6843 .1467,3.2645-4.9089,10.6843-7.2798,10.6843-.557,0 .1581-1.2375 1.5893-2.75zm85.1937,14.75c.1719-2.475 1.0813-7.875 2.0209-12s1.7869-9.634 1.8829-12.2422 .5121-4.7457.9246-4.75c1.8551-.019.3415,10.5245-4.3056,29.9922-.7957,3.3335-.8206,3.286-.5228-1zm-99.8923,4.685c-.8343-1.2732-1.7294-4.5357-1.9892-7.25-.3074-3.2113-.2213-3.8872.2465-1.935 .6201,2.5877 1.5429,3.2723 6.7161,4.9819 6.9735,2.3046 7.0205,2.3282 6.2247,3.124-.3332.3332-2.6683-.1818-5.1889-1.1444-5.2381-2.0004-6.3437-1.5242-4.7224,2.0342 1.4317,3.1421.7168,3.2473-1.2868.1893zm100.8978,16.1784c-3.5737-3.8038-9.8071-6.812-14.1771-6.8415-1.7875-.012-3.25-.5119-3.25-1.1108 0-1.5777 7.1759-.3754 11.7255,1.9644 3.9348,2.0238 9.996,7.7363 9.1287,8.6036-.275.275-1.8172-.9021-3.4271-2.6157zm-21.8389,135.0297c-.2524-.7662-.98-4.7681-1.617-8.8931-1.9158-12.4075-7.0207-38.0204-9.1096-45.7057-2.4779-9.1162-4.7612-23.2943-3.7514-23.2943 .422,0 1.0535,2.1375 1.4034,4.75s1.936,10.15 3.5246,16.75c4.6335,19.2496 11.4313,56.3637 10.4952,57.2999-.2675.2675-.6928-.1406-.9452-.9068zm-22.0922,169.8569c4.0339-8.6084 6.1225-18.3477 7.0768-33 .3851-5.9125.9769-10.75 1.3153-10.75 1.1183,0-.671,23.368-2.3354,30.5-1.7091,7.3238-7.2698,20.5-8.6514,20.5-.4415,0 .7261-3.2625 2.5947-7.25zm-7.2286-474.3769c3.7893-2.2888 4.2947-2.9966 3.9273-5.5-.2319-1.5803-.9455-2.8732-1.5857-2.8732-1.4458,0-5.232,2.4985-8.8776,5.8583l-2.7685,2.5515 2.2685,1.2597c1.2477.6928 2.3628,1.2756 2.4778,1.2951 .1151.019 2.1663-1.1467 4.5582-2.5914zm-12.3891,10.3768c.4559-1.2375 1.1267-3.481 1.4907-4.9856 .6344-2.6218.5573-2.6879-1.8536-1.5894-1.9179.8738-2.5154,1.8998-2.5154,4.3189 0,2.8213.6324,4.5061 1.6914,4.5061 .197,0 .7311-1.0125 1.1869-2.25zm-4.248,1c-.3317-1.2375-.6091-2.8228-.6166-3.523-.01-.9351-.6773-.8382-2.5137.365-3.0828,2.0199-3.1293,2.7989-.25,4.1875 3.3925,1.6362 4.0417,1.4385 3.3803-1.0295zm46.1249-12.25c-.5264-2.754.6749-3.4275 1.6378-.9182 .8522,2.2209.7554,3.4182-.2764,3.4182-.4859,0-1.0985-1.125-1.3614-2.5zm-33.7552,12.5c0-.55.675-1 1.5-1s1.5.45 1.5,1-.675,1-1.5,1-1.5-.45-1.5-1zm-1.375,9.2023c-.2712-.4387-.08-1.4512.4257-2.25 .7621-1.2047.9213-1.1539.934.2978 .017,1.9039 1.5243,2.3534 2.5153.75 .3399-.55 1.604-.9973 2.809-.9939 1.9566,0 1.8846.166-.6733,1.5-3.1826,1.6599-5.266,1.9011-6.0107.6961zm4.8161,3.266c2.5266-1.911 4.1545-1.8908 2.5589.032-.6847.825-1.9773,1.4857-2.8724,1.4682-1.3674-.027-1.3172-.2666.3135-1.5zm17.7561,12.4574c9.2753-6.7462 14.964-9.6773 20.3497-10.4849 2.4492-.3673 4.4531-.8891 4.4531-1.1597s-1.152-4.2686-2.56-8.8848-2.2815-8.8438-1.941-9.3946c.8551-1.3837-.1095-1.2545-3.4219.4585-1.5529.803-3.1131,1.1705-3.467.8166s.7175-1.2156 2.3809-1.915c3.6137-1.5195 5.3823-5.5207 4.5801-10.3618-.3189-1.925-.7052-4.9186-.8584-6.6526-.1805-2.0436-1.7964-4.8577-4.594-8l-6.2048-6.9756c-4.0503-4.5622-19.0121-5.0667-30.3129-1.0221-4.6684,1.6708-6.7432,3.1154-9.3046,6.4781-3.5885,4.7111-4.0467,7.4975-1.9101,11.6157 .8655,1.6683 1.2215,4.5522.9477,7.6774-.4014,4.5824-.2862,4.9221 1.3637,4.0192 .9913-.5424 3.8273-3.0819 6.3023-5.6433 2.475-2.5615 5.625-5.2493 7-5.973 4.8108-2.5321 33.565-4.2921 35.6736-2.1835 .3629.3629-.2028.6734-1.2569.6901-1.6972.027-1.729.1401-.2783.9873 2.7536,1.6081 3.0977,5.5992.8607,9.984-1.1218,2.1991-2.4654,3.9983-2.9857,3.9983s-.029-1.5538 1.0913-3.4528c2.6807-4.5435 2.2486-9.0773-.8547-8.9678-1.2375.044-2.25-.2938-2.25-.75s.525-.8294 1.1667-.8294 .8775-.2891.5241-.6425-1.2509-.1375-1.9945.4796c-.8653.7182-2.4038.8249-4.2741.2964-1.6072-.4541-3.3722-.7092-3.9222-.567-10.8479,2.8061-15.5,4.6728-15.5,6.2196 0,2.6449-8.609,7.4587-12.0051,6.7128-2.4141-.5302-2.8213-.26-3.3131,2.1983-.3083,1.5416-.8653,4.0403-1.2378,5.5528-.5282,2.1452-.3216,2.7501.9394,2.7501 .8891,0 1.6166.4658 1.6166,1.0352 0,.6876-.7001.6604-2.0857-.081-1.147-.614-2.2541-.9478-2.46-.7418s2.4623,4.7376 5.9295,10.0704 6.5992,9.4009 6.9601,9.04 .6561.3189.6561,1.5105c0,2.0587.9252,2.6095 3.7609,2.2388 1.9031-.2487 17.5798-10.2861 21.6587-13.8674 3.2264-2.8328 3.5804-3.6468 3.5804-8.2332 0-3.1384.3834-4.8526 1-4.4715 1.0873.6719 1.3161,5.7971.4018,9-.5802,2.0324-8.6374,8.4716-18.1518,14.5067-4.7801,3.0321-6.3571,5.5529-4.5833,7.3266 1.0296,1.0297 1.1165.9848 8.5305-4.4076zm-81.6972,77.9844c-19.3517-5.8776-43.5828-11.9769-44.74-11.2617-1.4738.9108.9719,2.0105 6.24,2.8057 5.4295.8195 20.4209,4.9579 28,7.7295 6.6582,2.4349 16.4089,4.6543 20.5,4.6662 1.65,0-2.85-1.7681-10-3.9397zm16.75,4.4277c-.6875-.2774-1.8125-.2774-2.5,0s-.125.5044 1.25.5044 1.9375-.227 1.25-.5044zm13.7347,5.4123c-.032-2.5764-1.6376-3.5252-6.9847-4.1264l-5.5-.6184 5,1.4533c2.75.7992 5.3856,1.473 5.857,1.4973s.598.7192.2814,1.5442c-.3166.825-.1398,1.5.393,1.5s.9617-.5625.9533-1.25zm-68.7972,9.5668c-.7219-.2888-1.5844-.2533-1.9167.079s.2584.5687 1.3125.5253c1.165-.048 1.4019-.285.6042-.6042zm47.4062-.2473c4.1605-2.7687 7.3197-4.0705 10.6882-4.4041 8.0968-.8018 10.536-4.845 3.9681-6.5775-2.0625-.5441-9.263-1.9056-16.0012-3.0257s-13.9382-2.7442-16-3.6092c-6.8868-2.8893-38.0551-10.9134-38.9851-10.0365-.13.1225.4325,3.7185 1.25,7.9911s1.4863,9.7648 1.4863,12.2051c0,3.81.3524,4.5708 2.4949,5.3853 1.993.7578 3.203.4681 6.0148-1.44 3.078-2.0889 3.9887-2.2602 7.2551-1.3653 2.0543.5629 4.4102,1.3705 5.2352,1.7948 .825.4242 4.3817,1.0708 7.9039,1.437s8.2471,1.4872 10.5,2.4912c4.4173,1.9686 6.7503,2.8804 7.6898,3.0053 .3266.043 3.2516-1.6898 6.5-3.8515zm101.4063,42.4772c0-.7992-2.0649-2.3666-4.5886-3.4829-4.192-1.8543-5.0781-1.9177-10.25-.7329l-5.6614,1.2969 5.8386.7691c3.2113.423 7.4863,1.375 9.5,2.1156 4.7758,1.7563 5.1614,1.7589 5.1614.034zm-72.1,9.0164c6.8147-4.302 15.7339-7.4973 26.2986-9.4215l10.3014-1.8763-10.5.2507c-5.775.1378-11.7752.7563-13.3337,1.3744s-6.0586,1.8437-10,2.7237-7.5094,1.9174-7.9288,2.3054c-.7301.6755.091,7.0805.9074,7.0805 .2171,0 2.1319-1.0966 4.2551-2.4369zm79.85,299.1051c-.4125-1.0075-.75-3.6756-.75-5.9291 0-3.7146-1.6101-10.1344-5.703-22.7391-1.9565-6.0256-3.9909-21.0282-4.6782-34.5-.5225-10.2421-2.3547-21.3248-6.2464-37.7829-1.4646-6.1934-1.7313-6.6279-3.0698-5-1.3833,1.6824-1.425,1.6702-.7402-.2171 3.266-9.0011 3.5483-12.514 2.512-31.2526-.5702-10.3111-1.5705-23.8178-2.2227-30.015-1.0451-9.9294-1.0014-11.4139.3685-12.5 2.1947-1.7401 4.2553-8.9423 17.3758-60.7324 4.2724-16.8641 4.6313-30.484 1.095-41.5508-1.2213-3.8221-2.5086-7.3992-2.8606-7.9492s-3.1576-1-6.2346-1-5.5948-.3375-5.5952-.75 2.619-.75 5.8206-.75h5.8213l-.8001-6.6455c-.6913-5.7427-1.8424-9.8642-1.8424-6.5969 0,.6715-2.2111.2851-5.75-1.0049-4.6395-1.6911-8.1642-2.1078-18.25-2.1577-19.5664-.097-34.2105,3.5054-48.6154,11.9588l-3.1155,1.8282 .2168,10.559c.1709,8.3224-.1957,11.7239-1.7307,16.059-2.7654,7.8102-3.47,25.8592-1.4444,37 .85,4.675 1.8158,10.975 2.1463,14 .9265,8.4818 3.4752,27.8117 4.5641,34.6153 1.367,8.5405 1.2121,33.6792-.2518,40.8847-2.4417,12.0177.2413,44.5902 5.5187,67 3.0421,12.9177 5.0102,18.7182 5.845,17.2266 1.3091-2.3392 3.0082-19.5795 2.7025-27.4209-.1543-3.9568.095-7.5568.5536-8 1.3176-1.2728.074,30.795-1.3259,34.1943-1.5752,3.8245-1.5728,8.1857.01,12 1.6453,3.9732 5.7093,23.3818 6.5435,31.25 .4659,4.3937.3247,6.25-.4754,6.25-.704,0-1.145-2.0026-1.1562-5.25-.023-6.6762-4.3324-25.7316-10.4594-46.25-5.4647-18.3004-5.847-20.1311-8.0398-38.5-2.2993-19.2605-3.0926-40.5602-1.5787-42.3844 2.0972-2.5269 2.5926-27.5911.7831-39.6156-.8691-5.775-2.2926-16.35-3.1633-23.5s-2.2273-17.275-3.0146-22.5c-2.697-17.8998-2.8618-24.2775-.9436-36.5086 .9912-6.3203 2.1695-11.4914 2.6183-11.4914 2.3596,0 .01-25.5784-2.4969-27.1738-.7207-.4588-.646-1.1707.2341-2.2312 .8548-1.03 1.0874-3.0031.6867-5.8262-.3333-2.3479-.6073-5.3313-.6089-6.6298 0-2.1546-.3077-2.3037-3.4903-1.7066-3.3281.6243-5.2554.3101-15.5086-2.5284-2.475-.6852-5.85-1.3984-7.5-1.5849-8.896-1.0055-11.5282-1.6929-13.0894-3.4179-.9463-1.0457-2.6633-1.9118-3.8156-1.9246-3.4732-.039-11.88-5.2511-14.3132-8.8745-2.3706-3.5296-3.0153-7.1021-1.2821-7.1021 .55,0 1,1.0643 1,2.3651 0,4.5934 6.5555,10.1661 14.0803,11.9694 2.5656.6149 2.5778.5881 2.1395-4.6974-.4005-4.8302-.1566-5.6395 2.6697-8.8585 1.7108-1.9485 3.1105-3.7859 3.1105-4.0831 0-.9499-6.3286-2.6084-11.7707-3.0847-2.899-.2537-7.2997-1.2361-9.7795-2.1832-3.5708-1.3637-5.0226-1.4877-6.9792-.5962-5.0828,2.3159-2.0137,5.5552 6.5294,6.8916 1.925.3011 4.2572,1.2039 5.1826,2.0062 1.9411,1.6828 1.3469,4.2708-.9807,4.2708-1.3056,0-1.2551-.2407.2872-1.3684 1.8122-1.3251 1.8045-1.4041-.2431-2.5-1.163-.6224-2.8233-1.1316-3.6896-1.1316s-5.5083-.949-10.3157-2.1088l-8.7407-2.1088-.2141-8.1412c-.1178-4.4777-.706-10.3912-1.3073-13.1412-2.0867-9.5442-2.0842-9.5-.5473-9.5 .8081,0 1.8585-.6955 2.3342-1.5455 .6864-1.2265 1.4192-1.3348 3.5497-.5248 2.6419,1.0045 2.6848.9554 2.6848-3.0711 0-3.7688.1776-4.0407 2.25-3.4437 1.2375.3565 6.3,1.3275 11.25,2.1577 11.2683,1.89 19.564,3.9502 26,6.457 2.75,1.0711 9.5,2.8353 15,3.9204s12.475,2.7778 15.5,3.7615c4.9821,1.6201 5.5471,2.1 6,5.0977l.5,3.3093 3.6069-3.8093c1.9838-2.0951 3.8822-4.5967 4.2186-5.5592s1.4236-1.75 2.4159-1.75c2.5495,0 14.3725-7.1707 13.9237-8.4448-.2045-.5804.5614-1.5741 1.7019-2.2083 1.7062-.9488 2.1163-2.2621 2.3143-7.411 .1323-3.4418.6702-6.6875 1.1953-7.2125 .6063-.6063.7505,1.3685.3952,5.4109l-.5596,6.3657 2.1063-1.8709c1.1584-1.029 2.608-3.3915 3.2214-5.25s1.5363-3.3791 2.0511-3.3791 .2316,1.6875-.6291,3.75c-2.0161,4.831-10.4126,13.354-17.5891,17.8541-5.0442,3.163-5.684,3.9513-6.1746,7.609-.301,2.2442-1.4993,5.0268-2.663,6.1836l-2.1157,2.1033 1.4724-3c2.0423-4.1612 3.0092-8.5 1.8941-8.5-.512,0-3.5148,2.925-6.673,6.5-5.5942,6.3325-8.5683,8.3184-7.1136,4.75 .3924-.9625.9215-3.1695 1.1757-4.9044 .522-3.5618 1.2892-3.2562-18.6255-7.4181-5.1978-1.0863-13.2978-3.2877-18-4.892-7.588-2.589-20.1738-5.4754-32.7996-7.5223-4.214-.6832-4.25-.6635-4.25,2.3315 0,2.0244.5771,3.1812 1.75,3.5077 .9625.268 5.125,1.2769 9.25,2.242s14.6114,3.9281 23.3031,6.5845 19.9364,5.4983 24.9881,6.3154c7.2848,1.1782 9.5333,1.9473 10.8687,3.7176 .926,1.2277 1.5148,2.5053 1.3085,2.8392s-3.2087,2.3218-6.6718,4.4175-6.8545,4.5024-7.5363,5.3479-1.499,1.2781-1.8161.961 .4382-1.5217 1.6783-2.677l2.2546-2.1005h-2.6441c-1.4605,0-5.1661,1.7666-8.2779,3.9464-3.0986,2.1705-6.0536,4.0864-6.5667,4.2574s-1.1752,1.6475-1.4714,3.281c-.7751,4.2744-1.417,4.4096-1.417.2985 0-2.7635-.4645-3.6716-2.0965-4.0983-4.7765-1.2491-8.2901,3.3213-8.125,10.5689 .1507,6.6136.983,8.7461 3.4139,8.7461 1.7174,0 1.9625-.4547 1.4826-2.75-1.6653-7.9644-1.8347-9.7378-.7884-8.25 .5803.825 1.3491,3.4449 1.7086,5.822 .5131,3.3938 1.1962,4.5284 3.1806,5.2828 3.8839,1.4767 4.3003.7568 2.2299-3.8548-1.0493-2.3375-1.5633-4.25-1.142-4.25 .9585,0 4.1363,6.5563 4.1363,8.5339 0,.8063.6382,1.4661 1.4182,1.4661s2.1169.2681 2.9709.5958c1.0521.4037.3824-1.6112-2.0774-6.25-1.9965-3.7652-2.9622-6.2936-2.146-5.6187s2.7274,3.6844 4.247,6.6878c2.5669,5.0735 3.1771,5.6006 8.6045,7.4335 8.5776,2.8967 10.9094,2.1354 30.6359-10.0016 6.1342-3.7742 12.5745-8.4809 14.3117-10.4595s3.378-3.3779 3.6462-3.1097-1.756,2.7913-4.4984,5.6067l-4.9861,5.1191 4.1868-.6424c6.058-.9294 10.9372-3.6852 15.1783-8.5729l3.7208-4.2881-2.1928,3.7581-2.1928,3.7582 2.6539-1.009c5.2-1.9771 6.5399-3.1355 10.162-8.7858 6.0875-9.4964 10.2426-19.5048 7.3573-17.7215-2.2097,1.3656-.8218-1.1587 1.6564-3.0127 1.4682-1.0984 4.3084-5.5759 6.3497-10.0102 3.4782-7.5552 13.7735-23.0308 14.7031-22.1012 .2346.2346-1.8668,3.6406-4.6698,7.5689s-6.8065,10.8352-8.8965,15.3487-4.5523,8.8241-5.4715,9.5789-1.6714,2.5657-1.6714,4.0242c0,3.2466-7.9265,17.4006-12.2328,21.8436-1.7299,1.7847-4.0726,3.5333-5.2062,3.8856s-4.311,1.7435-7.061,3.0914-8.9772,3.2859-13.8382,4.3067c-6.6928,1.4056-10.4554,2.8817-15.5,6.0809-3.664,2.3236-7.6743,4.8359-8.9118,5.583-2.0116,1.2143-2.25,2.1505-2.25,8.8352 0,4.1123.2076,7.477.4613,7.477 1.3895,0 17.5298-4.05 20.0589-5.0333 1.6896-.6568 10.19-1.2939 19.6314-1.4713 19.7247-.3705 27.1591-1.6486 30.4889-5.2415 1.2977-1.4003 2.3595-2.1782 2.3595-1.7287s-.7154,1.6078-1.5897,2.5739c-1.4744,1.6292-1.3612,1.8749 1.5603,3.3856l3.15,1.629-1.7596-2.8069-1.7595-2.8068 2.7666,2.4876c1.5217,1.3682 3.2835,4.42 3.9152,6.7817 1.305,4.8793 2.9254,5.1777 5.9678,1.0988 2.4075-3.2279 4.1932-11.8238 2.7549-13.2621-.6747-.6747-1.006-.6108-1.006.194 0,.66-.4293,1.2-.954,1.2s.1459-2.3625 1.4902-5.25 2.4487-6.0375 2.454-7 .6542-1.75 1.4417-1.75c3.9039,0 7.7354-10.4989 9.4884-26 1.0148-8.9733-.6151-38-2.1338-38-.4326,0-.7865,1.2698-.7865,2.8218 0,2.9859-2.9368,12.5747-3.6368,11.8747-.2266-.2266.2633-3.0042 1.0885-6.1725 2.3125-8.8781 3.0318-24.9875 1.5431-34.5572-1.2802-8.2299-1.2906-8.2498-2.7857-5.3637-1.8491,3.5693-5.2203,7.9848-5.1779,6.7817 .017-.4866 1.1399-2.6848 2.4949-4.8848 3.6234-5.8829 3.2316-9.2586-1.8732-16.14-2.391-3.223-5.2035-6.6031-6.25-7.5114-1.8984-1.6474-7.6663-3.5615-12.4029-4.1159l-2.5-.2926 2.6748-.567c1.4711-.3119 4.2836-.014 6.25.6621 4.0141,1.38 4.5571.6633 1.5555-2.0531-1.8086-1.6367-2.655-1.7097-8.0957-.6979-3.3418.6215-7.9454,2.0518-10.2303,3.1784-4.5637,2.2502-19.6465,13.0374-18.2291,13.0374 .4866,0 .2252.7875-.5809,1.75s-2.8986,4.5085-4.6498,7.8801-4.994,9.2215-7.2063,13c-4.8889,8.35-9.0939,19.0129-11.9766,30.3699-1.1866,4.675-2.5746,8.9275-3.0845,9.45-1.257,1.288-1.2932,1.4878 1.9841-10.95 2.9826-11.319 8.0602-23.5931 13.0312-31.5 5.5865-8.886 10.0238-18.4029 8.9034-19.0954-.6919-.4276-.4074-1.065.7842-1.7574 1.0285-.5975 1.3075-1.1001.62-1.1168s-1.25-.7054-1.25-1.5304c0-.9034-.9251-1.5-2.3257-1.5-2.9707,0-4.9851-2.2662-12.6669-14.25-4.8587-7.5798-6.7494-9.75-8.4938-9.75-2.2148,0-7.5136-3.4468-7.5136-4.8874 0-.4082 1.575-1.4933 3.5-2.4113 4.2897-2.0456 4.8434-5.9615 2.3868-16.8816-.9588-4.2624-.8214-5.0752 1.5391-9.1031 3.592-6.1293 5.2038-7.3597 13.386-10.2184 7.8242-2.7336 19.3441-3.3857 24.9975-1.4149 4.3006,1.4992 16.1943,15.1944 16.2687,18.733 .4247,20.1919 3.45,36.1837 6.8452,36.1837 .905,0 2.425,1.3196 3.3777,2.9325s3.8903,5.5503 6.5277,8.75c10.7476,13.0382 10.9828,13.9171 14.2982,53.4262 1.8906,22.5291 2.0493,27.8759 1.0848,36.536-1.6304,14.6385-2.8841,18.7015-7.3283,23.7504-2.1359,2.4265-3.8834,4.9275-3.8834,5.558s-.7077,2.5147-1.5727,4.1874c-1.4303,2.7659-1.4303,3.1987 0,4.7791 .865.9558 1.5727,2.4057 1.5727,3.2219 0,2.7621-4.8783,11.6176-7.5634,13.7297l-2.6686,2.0991 1.2472,6.7648c.6861,3.7207 2.0746,8.9801 3.0856,11.6876 2.2768,6.0969 3.7252,26.575 2.1123,29.8646-.5967,1.217-1.9691,6.0377-3.0499,10.7127-3.9651,17.1512-14.0217,54.6675-16.1959,60.4192-2.3992,6.3466-2.3952,8.2719.064,30.5808 .5759,5.225.9606,17.825.8548,28-.1646,15.8301.099,19.5823 1.8293,26 2.943,10.9187 5.0368,25.363 6.254,43.1446 .7643,11.1654 1.7557,17.8938 3.4628,23.5 5.2427,17.2175 6.6761,23.4057 6.3786,27.5379-.2214,3.0756-.5265,3.7906-1.0608,2.4857z"/>
  <g transform="translate(-2823.5 1835.5)">
   <path d="m2406.9052,195.2107c-5.3169-.8129-17.4515-3.2563-26.9658-5.4296s-19.016-4.2617-21.1148-4.6408c-4.46-.8056-4.9214-1.9998-1.1395-2.949 1.4721-.3695 8.6842-3.3608 16.0269-6.6474 15.9843-7.1545 17.8321-7.6821 20.3783-5.8182 1.8539,1.3571 1.7974,1.5044-1.272,3.3175-1.7666,1.0436-3.2119,2.2565-3.2119,2.6955 0,1.2669 2.3648.8689 4.5192-.7605 2.2416-1.6955 5.6565-1.9956 5.6565-.4971 0,.5483-1.8316,1.9313-4.0703,3.0734s-4.0703,2.5251-4.0703,3.0734c0,1.3339.1541,1.3076 6.1364-1.0504 3.7012-1.4589 5.6863-1.7603 6.9063-1.0485 .9417.5494 1.2273,1.0127.6347,1.0298s-1.9663.7462-3.0527,1.6204c-1.8611,1.4976-1.7646,1.5556 1.6685,1.0038 2.8979-.4658 5.5013.272 12.7197,3.6045 10.9291,5.0457 12.1603,6.3451 9.0033,9.5021-1.9203,1.9203-5.7843,1.9041-18.7525-.0787z" fill="#1c0b00"/>
   <path d="m2167.4977,182.682c-4.0964-.7941-8.5782-4.2935-9.9108-7.7385-1.0523-2.7201.5913-11.4998 2.56-13.6752 .8395-.9276 1.22-1.9928.8457-2.3671-1.0783-1.0783 3.5005-.794 13.3959.8319 5.037.8276 10.5407,1.5127 12.2305,1.5225 3.0672.0177 3.0726.0282 3.2686,6.3776 .1079,3.4979.3281,8.1664.4892,10.3745 .2574,3.5282-.015,4.1016-2.251,4.7321-3.3003.9307-15.7079.896-20.6281-.0577zm16.049-10.2154c.3982-.6444-2.2142-1.0176-7.1231-1.0176s-7.5213.3732-7.123,1.0176c.3459.5597 3.5513,1.0176 7.123,1.0176s6.7772-.4579 7.1231-1.0176zm-.5088-5.0879c0-1.229-9.8596-1.229-12.7197,0-1.3976.6006.276.8969 5.3423.9461 4.2875.0416 7.3774-.3547 7.3774-.9461zm-1.5772-4.2004c1.1461-1.0522-7.919-1.1829-11.6513-.1679l-2.544.6918 2.544.7034c2.9745.8224 10.2538.0556 11.6513-1.2273z" fill="#1c0b00"/>
   <path d="m2285.9-85.071c-15.38-9.7248-29.07-14.113-44.118-14.142-7.391-0.0144-9.195-1.5199-3.1746-2.6493 9.1764-1.7215 21.899 0.9512 40.062 8.416 11.12 4.5704 15.264 7.151 15.264 9.5065 0 3.242-1.4374 3.0397-8.0334-1.1309z" fill="#1c0b00"/>
   <path d="m2300.5682-77.6135-3.0527-1.7095 3.5615-.5698 3.5615-.5698-2.9103-1.583c-2.8152-1.5312-2.6073-1.5844 6.3598-1.6265 5.0987-.0239 9.2703.3367 9.2703.8014 0,1.5276-8.9642,7.0491-11.3767,7.0074-1.2984-.0224-3.7344-.81-5.4134-1.7503z" fill="#1c0b00"/>
   <path d="m2166.6 186.22c-5.0526-0.6579-7.4182-1.6849-7.4182-3.2203 0-1.3233 0.6464-1.3375 2.1019-0.0462 3.0847 2.7367 19.71 4.2355 26.5 2.389 3.7874-1.03 4.5243-0.8337 2.9141 0.7765-0.9895 0.9895-16.766 1.0556-24.098 0.101z"/>
   <path d="m2407.3 199.17c-9.2758-0.6663-15.186-1.8585-27.802-5.6079l-9.5808-2.8474-0.7881 1.7296c-0.4334 0.9513-1.1241 1.7296-1.5348 1.7296-1.0527 0-12.804-3.6149-14.248-4.3826-1.8277-0.9724-0.8577-3.776 1.1135-3.2184 0.8359 0.2365 6.2149 1.4149 11.953 2.6187s13.995 3.0126 18.348 4.0195 14.067 2.8987 21.586 4.2038c14.062 2.4408 14.206 2.7072 0.9522 1.7551z"/>
   <path d="m2289.5413-224.9188c-1.4907-2.9463-2.7104-6.3019-2.7104-7.457 0-1.6993-1.6506-2.727-8.6494-5.3856-4.7572-1.807-8.6494-3.6744-8.6494-4.1497s2.404-1.1817 5.3423-1.5698c8.4499-1.1161 17.0149-3.2821 18.786-4.7508 1.625-1.3476 4.3639-6.9636 4.3639-8.9479 0-2.1892-1.7223-.9159-3.3347,2.4653-.922,1.9335-2.953,4.1674-4.5132,4.9641-6.1137,3.122-22.266,4.9305-25.5325,2.8586-.7297-.4628-1.9942-3.3979-2.8102-6.5225-2.0181-7.7283-.4798-34.5818 2.3014-40.1719 4.0831-8.2071 11.4309-9.8099 25.3947-5.5395 9.5686,2.9263 16.455,8.8673 17.6069,15.1898 1.0704,5.8754.2272,9.3855-2.5596,10.6553-2.7327,1.2451-2.881,4.5332-.2356,5.2249 3.5545.9295 1.6883,4.9908-2.7557,5.9971-1.9562.4429-1.9609.4929-.1196,1.2877 1.1427.4932 2.6823.348 3.8159-.3599 1.0976-.6855 1.9004-.7684 1.9004-.1964 0,1.2751-3.4005,3.0967-5.7842,3.0986-1.7017.001-1.8474,1.187-1.8449,15.0093 0,14.8897-.019,15.0342-2.7983,18.3504-1.5406,1.8384-2.8011,3.7845-2.8011,4.3247 0,2.4458-1.9299.5325-4.4127-4.3747z" fill="#fca"/>
   <path d="m2370.7329-185.3825c-1.5955-1.1666-2.0338-2.9826-2.3383-9.6862-.4055-8.9307.1393-10.3134 5.0687-12.8625 6.0025-3.104 29.0088-4.4246 24.2133-1.3898-.8008.5068-2.4863.9284-3.7455.9369-1.3499.009-2.2896.6421-2.2896,1.5419 0,.936.9518,1.5264 2.4607,1.5264 3.5128,0 5.6799,1.0122 5.6799,2.6528 0,.9416-1.1956,1.4175-3.5615,1.4175-1.9588,0-3.5615.4579-3.5615,1.0176s1.6027,1.0176 3.5615,1.0176c2.8161,0 3.5615.4032 3.5615,1.9263 0,2.1119-1.8858,3.1616-5.6799,3.1616-1.5089,0-2.4607.5904-2.4607,1.5264 0,.9799.9837,1.5264 2.7475,1.5264 4.2128,0 1.7577,1.5827-6.9972,4.5107-8.7846,2.9379-13.7687,3.2899-16.6589,1.1766z" fill="#fca"/>
   <path d="m2294.9478-97.0929c-5.6664-.9977-13.6798-2.859-17.8076-4.1363l-7.5051-2.3223 5.5967-1.4486c6.6225-1.7141 9.4729-3.7817 4.0703-2.9526-1.9588.3006-6.6045.8255-10.3237,1.1664-6.1168.5606-6.9064.4139-8.2729-1.537l-1.5106-2.1567-6.1956,2.0871c-7.3906,2.4897-8.9065,2.5775-9.6804.5608-.8376-2.1828-5.0981-1.8844-7.2639.5088-2.4185,2.6724-3.5615,2.5731-3.5615-.3096 0-2.805 5.0293-11.0322 8.028-13.1326 2.6414-1.8501 1.777-2.9168-1.7883-2.2068-1.473.2934-3.9596.0451-5.5258-.5518-4.6617-1.7765-5.9274-6.5713-6.8767-26.0518-.4649-9.5407-1.3256-20.3071-1.9127-23.9255-1.1546-7.1167-1.4881-44.492-.4435-49.7148 .3515-1.7578 2.3285-5.0996 4.3932-7.4263 3.479-3.9203 4.1963-4.2592 9.791-4.6257 3.3203-.2175 9.5587.0005 13.8631.4845 7.4105.8333 7.8559.769 8.386-1.2093 1.2956-4.835 1.7878-4.8815 11.6846-1.1048 5.1807,1.977 10.067,3.5946 10.8585,3.5946 1.022,0 1.4391,1.2956 1.4391,4.4702 0,3.0312.4905,4.6585 1.5235,5.0549 .838.3216 2.5319,2.6601 3.7643,5.1968 2.6666,5.4886 4.3285,5.8292 5.8562,1.2002 .6193-1.8765 2.2789-4.495 3.6879-5.8187l2.562-2.4068-.6537,4.0876-.6536,4.0876 5.9484,3.694c3.2716,2.0317 8.4669,6.112 11.5451,9.0674l5.5967,5.3734-2.8522.3683c-1.5687.2026-5.0562-.1044-7.7501-.6821s-8.747-.7788-13.4514-.4468c-7.9505.5611-8.9463.4051-14.1278-2.2123-3.0659-1.5487-9.6418-6.2042-14.613-10.3454s-9.3213-7.2352-9.667-6.8756 2.979,3.9697 7.388,8.0222l8.0165,7.3683-3.4374.8112-3.4373.8112 3.5615.6319c3.1977.5673 3.3627.7476 1.615,1.7648-1.9169,1.1157-1.9169,1.1416 0,1.7039 1.0706.3141 14.7115,1.0987 30.3131,1.7437 28.1135,1.1623 28.3923,1.1537 31.2493-.9586 2.1165-1.5648 4.4491-2.1452 8.7751-2.1836 3.2408-.0287 8.957-.3932 12.7027-.81 7.77-.8645 7.2646-1.4326 8.4612,9.5116 .3672,3.358.9071,6.9612 1.1999,8.0071 .4923,1.7585.01,1.8623-6.4432,1.3795-3.8366-.2872-8.0059-.8529-9.2651-1.2571-3.5069-1.1258-2.759,1.0962.8757,2.6017l3.1653,1.3111-3.4197,1.8224c-4.7352,2.5235-6.3482,2.4959-4.7388-.0811 2.0122-3.222.288-3.4164-3.0721-.3463-7.9745,7.2859-9.5827,8.4407-11.755,8.4407-1.2793,0-7.328,1.4428-13.4415,3.2062-12.9707,3.7414-19.674,3.9625-28.3192.9343-3.3057-1.1579-6.9689-2.0784-8.1406-2.0455-2.0178.0567-2.0316.1238-.2613,1.272 5.1238,3.3232 5.4164,3.8805 1.6926,3.2249-8.4273-1.4839-14.1206-3.7197-19.2863-7.5738-3.0347-2.2642-5.7798-3.6924-6.1004-3.1738s-4.2412-2.0188-8.7128-5.6387c-11.6869-9.4611-16.6446-12.7957-17.8846-12.0293-.6147.3799 1.1278,2.1648 4.0046,4.1021 6.296,4.24 6.8891,5.1627 4.8013,7.4698-2.0281,2.241-3.7865,8.0001-2.656,8.6989 .4535.2803 1.3774-.8252 2.0532-2.4567s2.0641-3.7223 3.0852-4.6464c1.7502-1.5839 2.3047-1.3241 9.6708,4.5294 9.7334,7.7348 11.3344,8.5579 21.9386,11.2794 12.1646,3.1219 32.1264,2.4867 44.6266-1.4201 4.7159-1.4739 9.0138-2.6798 9.5509-2.6798 .5755,0 .7124,1.927.3335,4.6919-.563,4.1076-.2635,5.2544 2.4056,9.2092 4.4599,6.6083 3.9977,9.7353-1.5304,10.3533-7.23.8083-7.1061.8521-7.4419-2.6308-.648-6.7204-1.945-2.9714-3.0211,8.7324-1.0615,11.5449-1.2747,12.2921-5.1904,18.1872-2.2459,3.3812-4.7941,6.4204-5.6628,6.7537s-1.5793,1.0783-1.5793,1.6556c0,2.0009 2.6863,1.0345 5.6116-2.0188 3.7237-3.8867 4.5111-2.7617 5.2918,7.5609 .6498,8.5917-.089,9.6086-4.9742,6.8424-3.3376-1.89-17.9161-4.7752-18.9425-3.7489-.7302.7302 6.3233,3.5845 9.1647,3.7086 1.2772.0558 3.467.4681 4.8662.9162 2.4779.7936 2.4647.8152-.5088.8329-1.679.0102-7.6889-.7981-13.3553-1.7958zm-3.9017-5.2102c.3689-.5969.4171-1.339.1071-1.649-.8958-.8957-9.8159.7209-9.8159,1.779 0,1.3252 8.8829,1.2062 9.7088-.1301zm-15.1059-14.2164c8.6267-4.463 13.0891-7.9229 8.4498-6.5515-3.8071,1.1254-18.0667,8.4149-18.8083,9.6149-1.2994,2.1024 2.6058.9475 10.3585-3.0633zm31.9586-2.7604c6.4954-6.6948 10.7724-13.9572 9.8355-16.7011-.2562-.7502-1.6378.943-3.0787,3.7729-1.4377,2.8236-4.8035,7.6316-7.4797,10.6846-7.4218,8.4667-7.9099,9.1123-6.8895,9.1123 .5215,0 3.9471-3.0909 7.6124-6.8686zm-2.4318-6.2783c2.2199-3.2761 5.6888-11.6579 7.0202-16.9628 .4944-1.9696.3247-2.5989-.6161-2.2853-.714.238-2.5046,3.8503-3.9789,8.0274s-3.779,9.3717-5.1213,11.5437c-3.0148,4.878-.635,4.5929 2.6961-.323zm-38.8353-9.1527c6.3383-3.6356 15.4923-11.8144 14.4325-12.895-.43-.4384-2.4906.8102-4.5791,2.7748s-6.6552,5.3691-10.1482,7.5657c-5.739,3.609-7.7001,5.5369-5.6056,5.5107 .4197-.005 3.0749-1.3356 5.9004-2.9562zm64.3071-12.0273c.2591-.7773-.515-.905-2.4113-.3978-1.5361.4108-2.9647,1.2621-3.1746,1.8917-.259.7773.5151.905 2.4114.3978 1.5361-.4108 2.9646-1.2621 3.1745-1.8917zm12.0586-33.9997c1.0662-1.2013 3.7244-3.4908 5.9071-5.0879 3.563-2.607 3.7234-2.9038 1.5693-2.9038-1.365,0-3.9581,1.5221-6.015,3.5306-1.9886,1.9418-5.4423,4.1991-7.6748,5.0162l-4.059,1.4856 4.167.0717c3.0419.0523 4.6903-.518 6.1054-2.1124v1e-005z" fill="#2d1650"/>
   <path d="m2323.058-135.3067c0-3.2567.2542-3.5615 2.9695-3.5615 1.6332,0 3.5924-.239 4.3537-.5312 1.0619-.4075 1.2934.4219.9939,3.5615-.3825,4.0112-.4691,4.0927-4.3537,4.0927-3.8512,0-3.9634-.1008-3.9634-3.5615z" fill="#2d1650"/>
   <path d="m2322.4089-103.7203c-2.7735-10.3769-3.0008-12.3098-1.9047-16.198 .5845-2.073 1.1591-4.7405 1.2769-5.9278 .1932-1.9465.4903-2.1812 3.0238-2.3886 1.5452-.1265 3.5462-.0451 4.4466.1809 1.4437.3624 1.5631.6686 1.0109,2.594-.3444,1.2007-1.3351,3.3303-2.2017,4.7324-1.2168,1.9689-1.6576,4.0517-1.9361,9.1486-.3074,5.6269-1.5594,10.5568-2.681,10.5568-.1724,0-.638-1.2142-1.0347-2.6983z" fill="#2d1650"/>
   <path d="m2350.7 180.49c-1.5674-1.5675-0.5341-17.89 1.9225-30.369 2.8718-14.587 2.8057-16.42-1.1617-32.245-4.7312-18.872-5.6524-36.985-2.3498-46.203 2.751-7.6789 3.2667-24.822 0.8765-29.138-1.4312-2.5847-1.5363-1.811-1.5205 11.193 0.011 8.7205-0.422 14.713-1.1515 15.948-1.0325 1.7478-1.8389 0.6297-6.919-9.5936-7.3719-14.835-28.093-44.779-38.552-55.712l-4.1211-4.3077 2.866-5.9963c5.3718-11.239 2.1214-8.245-7.5635 6.9672-5.3168 8.3513-10.295 15.205-11.064 15.23-1.1362 0.0376-1.1566-0.243-0.1094-1.5048 0.7079-0.853 0.9899-1.8482 0.6265-2.2116s-4.8932 3.8787-10.066 9.4269-13.756 14.287-19.073 19.42-9.3347 9.6671-8.9286 10.076c1.1065 1.1156 10.608-7.4005 22.826-20.46 14.481-15.478 15.504-14.268 2.0418 2.4149-10.602 13.139-29.232 30.834-47.762 45.365-9.9213 7.7804-18.039 14.535-18.039 15.009 0 1.8976 2.2608 0.5111 12.358-7.5795 5.7954-4.6434 14.429-11.375 19.186-14.958s11.511-9.2442 15.009-12.579 6.3599-5.765 6.3599-5.4003c0 0.6181-13.011 22.865-19.476 33.3-1.5808 2.5518-8.9498 10.589-16.375 17.861-10.117 9.9072-15.626 14.438-21.975 18.074-8.3688 4.7925-32.788 16.19-33.392 15.586-0.1715-0.1715 3.1634-9.4435 7.4109-20.604s9.095-24.643 10.772-29.96c5.0991-16.165 10.84-27.241 18.378-35.454 5.8229-6.3451 6.8366-8.0445 7.8364-13.137 0.6316-3.217 2.0197-7.953 3.0847-10.524s2.4031-6.758 2.9736-9.3036c2.2992-10.26 5.3251-39.078 6.1181-58.269 0.7743-18.737 1.08-21.038 3.8522-29.001 1.6561-4.7572 4.0861-13.114 5.4-18.571l2.389-9.9214 7.6859 0.022c8.5026 0.0244 22.484 2.7939 29.587 5.8609 5.4967 2.3733 14.978 8.3358 19.566 12.304 6.5854 5.6964 15.848 6.8268 22.489 2.7449 3.8494-2.3658 3.9538-2.3743 5.851-0.477 1.0625 1.0624 3.3356 1.9317 5.0514 1.9317 4.3211 0 6.0689 1.1409 9.8819 6.4503 2.9379 4.091 3.1032 4.662 1.497 5.1717-2.8948 0.9188-19.882 18.531-19.354 20.066 0.3254 0.9461 1.4098 0.2989 3.4291-2.0465 1.6243-1.8866 3.5964-3.9472 4.3824-4.5791s4.1792-3.7819 7.5403-7 6.2707-5.8511 6.4659-5.8511 0.06 2.5086-0.3003 5.5747c-0.5919 5.0359-0.3861 5.9276 2.129 9.225 1.5313 2.0077 2.6235 3.8044 2.4271 3.9926-0.6829 0.6545-13.422 4.6119-14.846 4.6119-0.8161 0-1.2863 0.7666-1.0924 1.7808 0.3817 1.9953 5.9767 3.0653 16.827 3.218 6.085 0.0856 6.4001 0.219 8.0256 3.3963 2.3937 4.6787 6.4595 9.7429 18.698 23.289 11.378 12.594 16.94 20.76 18.413 27.036 1.7175 7.3189 3.2088 54.975 2.2366 71.472-0.7124 12.086-0.6274 16.551 0.3678 19.334 1.6561 4.6314 1.8344 37.633 0.2407 44.538-1.035 4.4835-1.5506 5.1192-5.4663 6.7387-5.6276 2.3276-8.2404 4.2543-6.896 5.0852 0.5771 0.3567 3.1893-0.4892 5.8047-1.8798 5.5503-2.9512 6.407-3.122 4.573-0.9122-3.4867 4.2012-35.988 17.949-37.904 16.033zm-144.11-105c6.1456-3.9225 14.87-12.002 13.961-12.93-0.4061-0.4145-3.1536 1.289-6.1055 3.7856s-7.5422 6.018-10.201 7.8255-4.8335 3.4933-4.8335 3.7462c0 1.225 3.0959 0.178 7.1782-2.4276zm25.284-38.862c7.9282-4.2256 15.657-10.723 23.505-19.76 3.6379-4.1892 9.2903-10.594 12.561-14.233 7.1191-7.9205 7.2889-11.264 0.1914-3.7676-6.6134 6.985-12.016 10.304-27.558 16.931-7.1734 3.0587-13.508 6.0267-14.077 6.5956-2.1665 2.1666 2.3402 0.9189 14.625-4.049 6.9137-2.7958 12.809-4.8445 13.101-4.5525 1.9086 1.9086-22.064 21.094-29.117 23.302-1.2593 0.3943-2.2896 1.144-2.2896 1.6659 0 1.7383 3.2164 0.9811 9.0579-2.1324zm-3.97-19.395c11.8-4.4784 30.819-15.222 29.421-16.62-0.5633-0.5633-36.544 17.458-36.544 18.303 0 0.8079 1.4787 0.4583 7.123-1.6838zm148.57-4.998c0-0.5597-0.3434-1.0203-0.7632-1.0236s-5.1133-0.6651-10.43-1.4707c-11.617-1.7602-29.205-6.2644-43.701-11.192-12.079-4.1054-11.248-3.9071-11.248-2.6846 0 2.1109 28.741 11.399 47.525 15.358 9.9529 2.0979 18.618 2.569 18.618 1.0123zm-98.573-12.598c11.22-9.8924 16.937-15.903 15.084-15.861-1.7659 0.0403-26.411 23.27-24.751 23.33 0.6321 0.0226 4.9823-3.3383 9.667-7.4686zm60.56-5.4067c1.1388-0.437-2.2176-1.3628-8.8206-2.4331-5.8623-0.9502-11.918-2.0562-13.457-2.4577-3.7018-0.9657-3.7585 1.2112-0.068 2.6142 1.5016 0.5709 5.9663 1.416 9.9214 1.878 10.081 1.1774 10.37 1.1867 12.424 0.3985zm-67.324-42.11c3.3498-3.5058 5.8453-7.2 6.5302-9.667 1.3331-4.8013 1.4841-17.385 0.2181-18.167-1.3607-0.8409-2.1215 3.1769-2.137 11.285-0.013 6.9347-0.207 7.5303-4.0182 12.352-2.2024 2.7862-5.8559 6.3761-8.1189 7.9776s-4.1244 3.5101-4.1363 4.2413c-0.036 2.1918 5.6214-1.6992 11.662-8.0213z" fill="#a57c62"/>
   <path d="m2180.1 158.13c-7.5555-1.2713-15.417-2.3335-17.47-2.3604-5.2633-0.069-6.9519-0.9391-6.9519-3.5821 0-5.1675 6.7106-9.7309 28.492-19.376 13.758-6.0919 21.934-11.418 33.343-21.719 11.899-10.744 11.766-10.969 4.0998 6.9774-8.8914 20.814-19.607 38.379-25.029 41.029-2.3499 1.1484-4.7295 1.0085-16.484-0.9694z" fill="#a57c62"/>
   <path d="m2306.3-87.027c-2.5185-0.7936-5.8219-1.4498-7.3408-1.4583-2.8011-0.0157-24.54-9.1774-23.72-9.9968 0.2452-0.2452 4.2507 0.5246 8.901 1.7108s13.337 2.7978 19.304 3.5814 11.34 1.7284 11.94 2.0995c1.9423 1.2004 1.1848 4.3625-1.1979 5.0011-2.8076 0.7524-2.35 0.8068-7.8862-0.9376z" fill="#a57c62"/>
   <path d="m2269.6834-99.4776c-2.5185-.9398-6.8686-2.3022-9.667-3.0275s-5.8683-1.5641-6.8222-1.8639l-1.7342-.545 1.2255-.6791c2.0921-1.1593 4.4096-.7994 10.5556,1.6393 3.2634,1.2949 7.7652,3.0028 10.0038,3.7953s3.5417,1.4502 2.8955,1.4615-1.0342.248-.8603.5294c.4945.8001-.6763.526-5.5967-1.31z" fill="#a57c62"/>
   <path d="m2334.1022-36.1043c-1.2279-.2589-2.3212-.5593-2.4295-.6676-.2513-.2514 9.1448-3.8578 11.0371-4.2363 1.2345-.2469 1.6366.007 3.0053,1.8962 .869,1.1997 1.4035,2.3558 1.1878,2.5691-.6283.6212-10.354.9545-12.8007.4386z" fill="#a57c62"/>
   <path d="m2337.8889-180.3451c2.3375-.5234 4.25-1.3406 4.25-1.816 0-1.8075 6.2503-7.0144 8.3269-6.9368 1.9372.072 1.8709.215-.6116,1.3142-1.5316.6782-4.1518,2.8917-5.8228,4.9188-2.5485,3.0918-3.6307,3.6685-6.7153,3.5787l-3.6772-.1071zm.6838,7.2731c.3763-.6089 1.2999-1.1071 2.0524-1.1071s2.7509-1.6776 4.441-3.7279 3.0728-3.1824 3.0728-2.5157c0,1.8612-5.2103,7.0036-7.8752,7.7725-1.6187.467-2.1573.3327-1.691-.4218zm-11.9338,26.4896c1.65-.7222 3.212-1.1274 3.471-.9005 .7949.6961-2.3517,2.2749-4.471,2.2433-1.5163-.023-1.2745-.3473 1-1.3428zm-66.4976,13.7109c0-.4442 3.2032-2.6076 7.1153-4.8076s8.4387-5.5098 10.0592-7.3551 3.1593-3.1421 3.4194-2.882c.8439.8439-10.2033,10.1582-15.4718,13.0447-2.8185,1.5443-5.1234,2.4443-5.1221,2zm41.0382,10.2568c-.022-.5145.8849-1.9207 2.016-3.1247 1.7334-1.8451 3.1396-5.2718 7.5229-18.3329 .2572-.7662.7387-1.122 1.07-.7907 1.1062,1.1062-4.9514,16.6222-7.779,19.9254-1.5341,1.7922-2.8075,2.8375-2.8299,2.3229zm-72.9954-1.7305c-3.2923-5.4138-4.3439-12.2476-3.8246-24.8556 .2788-6.7709.07-12.494-.4918-13.4985-2.5882-4.6248-3.8231-30.3565-2.8354-59.0793 .1361-3.9588 4.6829-10.7486 9.2975-13.8843 3.3969-2.3082 4.1474-2.4077 14.4461-1.9152 5.9746.2858 13.3817,1.5279 13.9317,2.1008 .6909.7195-2.6144.3066-6.0687-.1296-2.75-.3472-8.1712-.7137-12.0471-.8144-8.1213-.2109-11.6428,1.5935-15.6324,8.0101-2.0248,3.2564-2.3738,5.3252-2.7384,16.2321-.627,18.7559-.2024,29.4734 1.5844,40 .8869,5.225 1.6886,15.575 1.7814,23 .1826,14.6021.7733,18.4793 3.6945,24.25 2.3102,4.5638 1.5645,4.9607-1.0972.5839zm77.8727,4.2493c4.8329-4.9005 7.3542-8.3986 8.6493-12 1.0053-2.7958 2.169-5.0832 2.586-5.0832 .9783,0-1.6279,7.4034-3.6208,10.2855-2.1091,3.0503-12.7441,13.7145-13.6769,13.7145-.4174,0 2.3107-3.1126 6.0624-6.9168zm-40.8346,6.5195c1.4995-1.4298 21.7318-11.0849 20.7504-9.9024-1.3762,1.6583-18.1398,10.2997-19.9804,10.2997-.6526,0-.9991-.1788-.77-.3973zm16.9167,10.3973c3.6311-1.1629 9-1.1629 9,0 0,.5622-2.5169.9563-5.75.9003-4.3883-.076-5.158-.2893-3.25-.9003zm33,60.1899c0-1.8457 19.877-21.1979 20.5892-20.0457 .7209,1.1665-10.0664,11.8558-11.9646,11.8558-.6564,0-1.9315,1.2496-2.8337,2.7769-2.0155,3.4118-5.7909,6.9409-5.7909,5.413zm-56,2.8979c0-.5701 1.2517-1.6837 2.7815-2.4748 3.1524-1.6302 11.2753-10.0004 13.2709-13.675 .8702-1.6022 1.249-5.4378 1.1049-11.188-.1374-5.4837.1656-8.75.8117-8.75 .6231,0 1.031,3.2041 1.031,8.0988 0,9.0101-1.1864,12.4285-6.4369,18.5459-3.7724,4.3955-12.5631,11.0029-12.5631,9.4431zm60.25,32.2548c-3.4375-.8145-6.25-1.8998-6.25-2.4118 0-1.1776.258-1.1668 3.6849.1547 1.5483.597 7.3151,1.6714 12.8151,2.3875l10,1.302-7,.024c-3.85.013-9.8125-.6422-13.25-1.4566zm-50.7695,13.1914c1.0893-.8754 4.2393-3.7282 7-6.3394 14.9395-14.1308 17.5195-16.4111 17.5195-15.4842 0,1.1878-23.4723,22.6408-25.277,23.1024-.6727.172-.3318-.4034.7575-1.2788zm98.5195,6.7611c-12.0138-1.3206-41.7874-9.5874-53.1948-14.7698-6.9018-3.1355-4.4622-3.2438 2.9749-.1322 14.2827,5.9759 44.7138,13.6069 54.2619,13.6069 3.1294,0 4.839.3835 4.458,1-.6138.9931-1.7816,1.0337-8.5.2951zm-143,4.4871c14.4902-6.742 25.3455-12.2061 28.4946-14.3431 4.0915-2.7766 5.3062-3.109 3.527-.9651-1.6698,2.0119-15.985,9.7301-25.9869,14.0111-8.7952,3.7645-13.521,4.7802-6.0347,1.2971zm73.9909-242.7774c1.8918-1.0124 2.0691-1.7348 1.5524-6.3239-.3209-2.8495-.2223-9.3434.2191-14.4309s.4503-9.25.02-9.25-.7824-.45-.7824-1 1.2085-1 2.6855-1c5.8866,0 9.4902-7.7413 5.8463-12.5589-.8075-1.0676-1.4825-1.4686-1.5-.8911s.4431,1.5249 1.0236,2.1054c1.3507,1.3508.257,5.7663-1.8953,7.6516-1.0936.9579-2.3426,1.1776-3.6601.6439-1.7765-.7197-1.7047-.8181.643-.8805 2.7003-.0718 3.857-1.6519 3.857-5.2687 0-1.5614-.4787-1.9097-2.0572-1.4969-1.6311.4265-1.8272.2609-.9469-.7998 .8503-1.0245.688-1.4356-.6928-1.7555-1.2509-.2898-.7312-.7165 1.6969-1.3933 3.4498-.9616 3.5042-1.0611 3.7916-6.9316 .2561-5.2293-.08-6.5172-2.7553-10.5561-3.5151-5.3067-10.8453-9.1539-21.9187-11.5037-15.6486-3.3207-22.7234,3.5272-22.3522,21.6353 .085,4.125-.3106,9.975-.8782,13-.7425,3.9568-.7082,6.7626.1221,10 .6347,2.475 1.3981,5.7698 1.6965,7.3219 .9413,4.8979 6.0698,5.5758 21.0356,2.7803 7.626-1.4244 11.0849-3.8039 12.4743-8.5815 .9651-3.3185 1.2368-3.615 1.5559-1.698 .4184,2.5138-3.2904,8.7651-5.7716,9.7282-2.3946.9294-17.2101,3.7402-20.5,3.8892-5.8481.2648-3.2301,2.8086 6.1473,5.9731l9.1473,3.0868 .4969,4.401c.2801,2.4812 1.1646,4.7747 2.0277,5.2577 .8419.4712 2.0854,2.5371 2.7632,4.591l1.2324,3.7343 1.7702-4.1681c.9736-2.2924 2.7313-4.6824 3.9059-5.3111zm111.7591,24.3058c-.9625-.2515-2.5375-.2515-3.5,0s-.175.4574 1.75.4574 2.7125-.2058 1.75-.4574zm-21.75,15.4614c3.575-1.2841 7.0625-2.6846 7.75-3.1124 2.1958-1.3661 1.3447-2.6596-1.75-2.6596-3.8949,0-3.9207-1.4836-.029-1.6426 4.6543-.1903 6.0286-1.0878 6.0286-3.9373 0-2.4672-.2273-2.6001-3.422-2.0007-1.9847.3723-3.6896.209-4.059-.3887-.398-.644.9119-1.0307 3.4915-1.0307 3.7095,0 4.0962-.2284 3.8091-2.25-.2657-1.8704-1.0366-2.3019-4.5696-2.5575-5.2158-.3774-5.5988-1.9578-.5773-2.3822 2.02-.1707 3.8489-.847 4.0642-1.503 .5531-1.6849-5.8103-2.6833-12.0431-1.8896l-9.1147,1.1335c-2.1565.2597-5.419,1.6147-7.25,3.0113-3.2362,2.4684-3.3291,2.7429-3.3291,9.8391 0,9.581 1.3305,13.3833 4.8273,13.7954 5.0641.5969 9.6907-.097 16.1727-2.425zm-147.3333,80.7135c0-1.0687-.6134-1.33-2.0834-.8876-3.647,1.0974-4.163,2.4021-.95,2.4021 2.0426,0 3.0334-.4947 3.0334-1.5145zm85.3333-6.0373c0-4.0316.438-7.6009.9732-7.9317 1.5923-.9841 4.2595-7.331 3.5579-8.4663-.357-.5776-2.6476-1.0502-5.0901-1.0502-4.1674,0-4.4437.1694-4.4849,2.75-.024,1.5125-.6296,4.3895-1.3455,6.3934-1.1368,3.182-1.0363,4.6767.7938,11.8004 2.0629,8.0296 2.1229,8.1231 3.8456,5.9957 1.311-1.6189 1.75-4.0001 1.75-9.4913zm-10.0682,24.993c.5029-.5177.6833-2.1173.4008-3.5546-.4951-2.5196-.8336-2.6375-9.4397-3.2872-12.8184-.9676-29.9389-5.0167-40.6746-9.6198-10.0892-4.3259-11.2727-4.5561-14.5107-2.8231-1.9128,1.0236-1.245,1.352 5.8157,2.8589 7.9358,1.6936 22.1823,7.2045 32.5447,12.589 3.8443,1.9975 6.6011,2.743 9.432,2.5504 2.3212-.1579 4.82.334 5.9537,1.172 2.1167,1.5647 8.9963,1.6398 10.4781.1144zm-21.8855,3.9371c.6459-1.6989.6548-3.0336.025-3.7922-2.3458-2.8266-29.7525-14.0826-37.8633-15.5506-7.3674-1.3334-20.1614-1.2062-21.9581.2183-2.372,1.8806-1.273,2.968 2.5,2.4735 5.1195-.6711 22.5749,1.92 29.0212,4.3079 7.8649,2.9133 14.6215,6.535 20.4847,10.9803 2.8843,2.1867 5.5927,3.9778 6.0188,3.9802s1.2233-1.1755 1.7715-2.6174zm18.5945,4.2744c6.0746-4.1845 7.0936-7.0545 2.1943-6.1801-4.7756.8523-10.8938.8606-14.0851.019-3.5379-.9328-3.7483,1.1781-.25,2.5081 3.3616,1.2781 3.1479,1.8253-.6434,1.6475-4.6752-.2193-4.4667,1.6853.3842,3.5099 6.1415,2.31 7.0165,2.2038 12.4-1.5046zm-105.6408,112.8501c0-.4217.8592-2.1699 1.9093-3.8848 3.2037-5.2318 5.8423-16.4583 7.0789-30.118 .6473-7.15 1.6157-15.6215 2.152-18.8255s.9775-11.979.9803-19.5c.01-14.8087 1.2805-25.3884 3.4809-28.8833 .7649-1.2148 3.2474-9.7236 5.5166-18.9085 3.9835-16.1227 4.0679-16.7981 2.4434-19.5482-1.6342-2.7664-1.5939-3.0232 1.3995-8.9138l3.0822-6.0653-2.2716-1.9772-5.3295-3.4163 6.2512,2.9849c2.013.9744 3.4209,1.1775 3.8091.5495 .3386-.548 1.6017-.9608 2.8067-.9174 1.4751.053 1.7009.2613.691.6371-2.2915.8526-5.2575,4.2836-7.7487,8.9633-2.4401,4.5837-2.688,6.083-1.354,8.1887 .6996,1.1044 1.2748.9599 2.9847-.75 1.1649-1.1649 2.2172-2.4555 2.3384-2.868 .2141-.7283 1.9046-.6214 4.593.2904 .7223.245 1.0889.8086.8146,1.2525-1.0666,1.7257 6.5377,1.1632 10.3131-.7629 4.3337-2.2109 6.537-2.6126 5.5474-1.0114-.7122,1.1523 5.7244,4.2032 6.5064,3.084 .2778-.3975 2.5301-.7225 5.0051-.7221 2.475.0003 6.075-.3159 8-.7028l3.5-.7034-3.5,1.4367c-1.925.7903-5.3,1.4909-7.5,1.5571l-4,.1202 3.8492,2.0306c4.7343,2.4975 22.3829,6.5705 32.0147,7.3884 3.9249.3333 8.2611.8351 9.6361,1.1151 2.2559.4594 2.3503.3566.9676-1.0533-.8773-.8945-4.034-1.794-7.3837-2.104-3.2182-.2977-7.0286-1.2251-8.4676-2.0607l-2.6163-1.5194 2.5.6716c1.375.3693 5.2846.9656 8.6881,1.325 4.5761.4832 6.8589,1.2836 8.7632,3.0726 2.0042,1.8828 2.8415,2.1529 3.7762,1.2182 1.5746-1.5746 1.5062-8.1359-.1664-15.9435-1.3082-6.1071-1.3839-6.2117-2.8963-4-2.8875,4.2225-7.1648,7.2123-7.1648,5.0082 0-.4196 1.0021-1.2071 2.2269-1.75s3.4231-3.3925 4.885-6.3323c1.49-2.9963 2.8706-4.7541 3.1417-4 .6081,1.6909 1.5015-5.009 2.2105-16.577 .5524-9.0124 1.5359-13.0112 1.5359-6.2445 0,3.5789.091,3.6667 3.8,3.6667 2.09,0 4.34-.54 5-1.2 .8931-.8931 1.2-.9021 1.2-.035 0,1.9086-3.9054,3.4148-7.0587,2.7223-2.9209-.6416-2.9413-.6143-2.9413,3.9334 0,4.3004.1676,4.5867 2.75,4.6979 6.0874.2623 7.5352-.8557 6.9518-5.3684-.1955-1.5125-.067-2.75.2862-2.75 .8623,0 4.012-6.6931 4.012-8.5255 0-.8017-.9-2.0197-2-2.7066s-2-2.0549-2-3.0399-.7133-2.0645-1.5851-2.3991c-1.54-.5909-1.4694-3.8763.2058-9.5789 .773-2.6315-3.0361-2.2531-13.1097,1.3024-7.9315,2.7995-18.7207,4.1405-21.2259,2.6382-.4318-.259-3.0351-.1133-5.7851.3236-5.095.8096-9.6487.083-22-3.5123-4.7536-1.3835-7.8345-3.3081-14.8313-9.265-8.8044-7.4958-8.8374-7.5127-10.8132-5.5369-1.09,1.09-2.6086,3.7409-3.3748,5.8909-1.019,2.8598-1.4047,3.2918-1.4368,1.6094-.051-2.678 2.1534-7.2892 4.3604-9.1209 1.3313-1.1048.8461-1.7936-3.6357-5.1611-2.8445-2.1373-5.6436-4.0567-6.2202-4.2653s-.8009-.6508-.4984-.9828c.7656-.8402 7.8961,4.3823 19.0161,13.9279 11.1121,9.5386 16.5244,12.927 10.9339,6.8451l-3.5-3.8076 4.3187,3.4322c2.3753,1.8877 5.3267,3.978 6.5587,4.645 2.8129,1.5231 13.305,4.2872 16.2737,4.2872 3.8732,0 3.4493-1.6572-.8565-3.3486-2.2822-.8965-3.9137-1.8657-3.6256-2.1538s2.2805.2191 4.4275,1.1273c5.9042,2.4975 13.451,4.3499 17.7755,4.3632 2.1297.01 8.795-1.6103 14.8118-3.593s11.1673-3.3774 11.4454-3.0993c.9367.9367 7.8106-1.4495 17.2957-6.0039l9.4248-4.5255-3.0548-1.2845c-1.6801-.7064-3.3834-1.816-3.7849-2.4658-.433-.7006.5153-.5373 2.3303.4013 1.8867.9757 5.598,1.5826 9.6774,1.5826 6.3638,0 6.5903-.084 5.9184-2.2014-.3843-1.2108-.9869-5.9081-1.3392-10.4385s-.8557-8.4291-1.1187-8.6638-4.5282.1992-9.4782.9642-10.8746,1.1324-13.1657.8165c-3.4699-.4784-4.5158-.1985-6.2613,1.675-1.8554,1.9915-3.0402,2.2431-10.3343,2.195-4.5313-.03-10.9387-.3132-14.2387-.6297s-13.5104-.7198-22.6898-.8963c-9.5641-.184-16.3195-.6957-15.8225-1.1986 .4771-.4827 2.4514-.9327 4.3873-1 2.1223-.074 3.1581-.4851 2.6089-1.0359-.501-.5025-3.0649-.8423-5.6974-.7552-3.4371.1137-4.3636-.1178-3.2865-.8212 .825-.5387 2.625-.9889 4-1.0004 2.352-.02 2.2314-.2721-2.0382-4.2653-2.496-2.3344-6.546-5.9117-9-7.9495s-3.9836-3.7253-3.3992-3.75c.5844-.025 4.4439,3.0707 8.5766,6.8788 13.0883,12.0601 22.3816,15.8654 32.1135,13.1493 3.4727-.9692 5.3343-.9015 10.2074.3708 15.3667,4.0122 15.3601.2561-.021-11.8225-2.7165-2.1333-6.3676-4.4876-8.1136-5.2319-3.0531-1.3014-3.1363-1.4911-2.1771-4.965 .5485-1.9866.7536-3.8557.4556-4.1537-1.2312-1.2312-5.5106,2.9244-6.6356,6.4439-1.7347,5.4267-2.5052,5.8276-4.0188,2.091-1.804-4.4532-5.0741-8.8468-6.1087-8.2073-.4626.2858-.841-1.4433-.841-3.8425v-4.3622l-7.25-2.3205c-3.9875-1.2763-8.9196-3.1649-10.9602-4.1969s-3.9357-1.8762-4.2114-1.8762-1.0297,1.9125-1.6756,4.25-1.3744,3.6914-1.619,3.0087c-.5545-1.548 1.5218-8.0206 2.833-8.8309 .5339-.33 1.6261-.056 2.427.6085 2.1385,1.7749 1.7781.073-.3973-1.876-3.9738-3.5597-6.1866-16.9569-4.2383-25.6603 .3693-1.65.359-4.7833-.023-6.9629-.783-4.4678 1.9496-16.8293 4.6219-20.9076 1.8859-2.8783 8.159-5.6368 12.7631-5.6124 4.1662.0221 16.1455,3.1373 21.0937,5.4853 4.3025,2.0417 11.5381,10.5137 11.8179,13.8373 .2487,2.955.8257,16.5021.8539,20.049 .025,3.165-2.3545,6.3888-5.6451,7.6477-2.711,1.0372-3.3906,4.5525-3.3906,17.5388 0,8.3781.2985,10.4923 1.5827,11.211 1.3516.7564 1.415,1.5085.4343,5.1506-.6317,2.3457-1.0064,4.332-.8327,4.414 3.3739,1.5929 8.0846,4.6267 10.9669,7.0629 2.0081,1.6974 4.8476,3.9151 6.31,4.9281s3.3902,3.3756 4.284,5.25c1.5167,3.1805 1.9467,3.4081 6.44,3.4081 2.6482,0 4.8148-.4397 4.8148-.977s1.0643-1.6742 2.365-2.5265c1.753-1.1486 3.0165-1.302 4.8822-.5926 1.6222.6167 4.9593.5937 9.385-.065 3.7773-.5619 8.3254-1.2251 10.107-1.4738 1.8225-.2543 5.1321-2.0904 7.5673-4.198 4.0834-3.5341 4.9298-3.8196 14.9624-5.0457 5.8488-.7148 11.114-1.0032 11.7004-.6408 2.2059,1.3634 8.7217-5.2823 10.9998-11.2192 3.8847-10.1234 3.8851-10.1241 3.9632-7.4157 .1527,5.2931-2.9704,12.7852-6.949,16.6702-6.0968,5.9534-5.4333,11.4932 1.3737,11.469 6.8815-.024 8.7872-1.6467 12.3454-10.5091 2.8312-7.0516 3.2096-9.1353 3.2653-17.9762 .043-6.8409.3692-9.5261 1.0323-8.5 .5332.825.9763,5.4107.9847,10.1904 .017,9.5346-2.6244,18.7909-7.7923,27.3088-2.3119,3.8104-3.1871,4.4584-6.1924,4.5846-1.925.081-4.1675.2075-4.9834.2816s-2.0779,1.3721-2.8045,2.8846-1.7732,2.75-2.3257,2.75-.7716.3767-.4871.8371c1.0722,1.7348-2.6288,5.1447-6.6859,6.16-2.3174.5799-5.6912,1.7178-7.4973,2.5286s-5.9205,1.4743-9.143,1.4743c-3.8319,0-6.0287.442-6.3493,1.2775-.286.7452-2.4832,1.3641-5.2738,1.4856-3.5428.1542-7.9735,1.7683-17.0809,6.2225-6.7634,3.3079-12.7634,6.0144-13.3332,6.0144s-1.0359.8437-1.0359,1.875-.2641,3.1955-.5869,4.8095c-.4716,2.3578.1415,3.8888 3.1192,7.7898l3.7061,4.8553-2.3059,4.5852c-1.2683,2.5218-2.4286,5.7102-2.5786,7.0852-.4889,4.4823-1.4798,10.4669-1.9868,12-.2729.825-.3547,1.5652-.1817,1.645s-.5448,1.0946-1.5952,2.2552c-1.5432,1.7053-1.8674,3.4157-1.6891,8.9121 .2165,6.6775.1464,6.883-3.8403,11.2443-2.2334,2.4433-4.0608,5.0052-4.0608,5.6929s-.45,1.2505-1,1.2505-1,1.35-1,3 .3975,3 .8834,3c1.1537,0 2.1316,3.7973 1.4412,5.5964-.2962.772-1.1693,1.4036-1.9403,1.4036s-3.2509,1.3395-5.511,2.9768c-5.299,3.8385-9.3549,4.5687-14.1673,2.5506-2.0867-.8751-4.228-1.3228-4.7585-.995s-1.3036-.3209-1.7182-1.4416c-.6208-1.6782-9.1522-8.0908-10.764-8.0908-.2559,0-1.2934-.8281-2.3054-1.8402s-5.3624-3.3064-9.6674-5.0986c-8.7549-3.6447-26.2901-6.6152-33.0652-5.6013l-4.0727.6094-3.3206,13.7153c-1.8263,7.5435-4.0953,15.2904-5.0421,17.2154-2.612,5.3104-3.2241,10.2359-3.1069,25 .059,7.425-.3404,16.2-.8875,19.5s-1.6741,13.0555-2.5045,21.679c-1.5912,16.5241-4.3821,27.322-8.3735,32.3962-1.1657,1.4819-2.1195,2.3494-2.1195,1.9276zm16,4.4658c0-.5328.3907-.9686.8682-.9686 1.9358,0 14.5541-7.7069 19.5781-11.9577 4.568-3.865 14.4886-15.0423 13.351-15.0423-.205,0-4.1808,1.6175-8.835,3.5946-13.6514,5.7988-20.2727,8.4054-21.3519,8.4054-2.023,0 .9543-1.7773 6.3896-3.8143 12.5778-4.7137 22.3887-9.2522 25.6902-11.884 1.933-1.541 4.389-3.3035 5.4577-3.9167s3.3269-2.9964 5.0181-5.2961 3.2948-3.9614 3.5636-3.6927c.7892.7892-3.4745,6.2295-7.7513,9.8903-2.1764,1.8629-6.1499,6.2837-8.8299,9.8241-6.4091,8.4661-14.7667,16.007-22.9879,20.7412-7.7965,4.4897-10.1605,5.4475-10.1605,4.1168zm23.5,9.3862c6.9472-5.9792 22.1954-21.4083 28.2752-28.6105 3.6008-4.2656 6.7634-7.5391 7.0281-7.2744 1.3544,1.3544-34.5826,38.571-37.1747,38.4985-.6207-.017.2214-1.1935 1.8714-2.6136zm-43.0384,26.6904c2.7289-1.6063 7.8918-5.5361 11.4731-8.7329s5.8486-4.893 5.0384-3.7693c-3.7367,5.1826-17.0362,15.4727-19.9552,15.4399-.8349-.01.7148-1.3313 3.4437-2.9377zm-6.4737,84.461c4.5165-2.3356 14.6837-18.45 21.7714-34.5062 5.7841-13.1031 10.2407-24.3692 10.2407-25.8878 0-.3161-4.3875,3.7387-9.75,9.0106s-11.8287,10.946-14.3694,12.6092c-8.0628,5.2781-17.4054,10.212-22.9809,12.1363-2.9699,1.025-9.8658,4.1683-15.3243,6.9852-8.8934,4.5894-10.0601,5.5126-11.2282,8.884-2.0466,5.9074-1.1126,7.2625 5.0056,7.2625 2.87,0 10.1521.88 16.1826,1.9555s12.3146,2.1331 13.9646,2.3502 3.1348.462 3.2997.5444 1.5995-.5223 3.1882-1.3439zm-28.5892,4.3621c-2.1789-.4749-1.533-.6645 2.6013-.7637 3.025-.073 6.5125-.4033 7.75-.7349 1.257-.3369 2.25-.1528 2.25.4171 0,1.2302-8.5509,1.9641-12.6013,1.0815zm.1013,3.6163c2.2236-.7949 13.5-1.0353 13.5-.2878 0,.4417-3.2625.7676-7.25.7242s-6.8-.2398-6.25-.4364zm.5013,4.7654c.0007-.4125 3.1507-.7523 7-.7551s6.9987.3348 6.9987.75-3.15.7551-7,.7551-6.9994-.3375-6.9987-.75zm19.9987,10.8593c3.1575-.8731 3.7081-4.0974 1.4959-8.7593-1.2285-2.5889-1.4857-4.7885-.9854-8.4267l.6772-4.9233h-3.4838c-1.9161,0-7.8578-.9-13.2039-2s-10.7956-2-12.1101-2c-2.5263,0-3.2509,1.4859-1.1399,2.3377 .7793.3144.6222.5341-.4171.5833-1.172.055-1.9888,1.5786-2.75,5.1282-1.9761,9.214-1.5465,11.4155 2.9171,14.9508 2.2,1.7424 4,2.9197 4,2.6162s1.0125-.1448 2.25.3526c2.6186,1.0525 19.0841,1.1542 22.75.1405zm2.1031,2.758c1.5435-2.4364.9685-2.6581-3.1836-1.2276-6.9283,2.387-24.3959.901-27.0538-2.3015-1.4378-1.7325-2.8657-1.7129-2.8657.039 0,3.0891 3.2947,4.1221 14.9011,4.6718 14.5499.6892 17.1224.5222 18.202-1.182zm-27.421,2.1101c-5.0027-.8972-6.3902-2.4362-8.1271-9.0144-1.1591-4.3898-1.2253-6.8071-.3371-12.3044 .9753-6.0361.8945-7.1983-.6862-9.8742-1.6046-2.7164-1.6564-3.5961-.4965-8.431 1.0331-4.3067 1.7742-5.5185 3.6648-5.993 2.9417-.7383 4.4926-3.6977 9.8842-18.8604 2.3469-6.6 5.8611-15.825 7.8094-20.5 1.9483-4.675 4.4973-12.1 5.6644-16.5s4.669-13.175 7.782-19.5c5.1842-10.5332 6.1224-11.8135 11.16-15.2285 4.0508-2.7461 6.0767-4.9858 7.6886-8.5 1.2038-2.6244 2.7251-15.1551 2.7588-14.1653 .1467,4.3002-6.6137,22.8659-12.2115,24.9942-3.151,1.198-12.5948,20.9648-15.8787,33.2357-1.3228,4.9429-4.6135,14.2375-7.3127,20.6547s-5.9005,14.7819-7.1138,18.5884-2.8524,8.2001-3.6422,9.7637-1.2545,3.0244-1.0327,3.2462 2.8424-.9064 5.8237-2.507 9.0507-4.2998 13.4876-5.9983 11.0088-5.061 14.6041-7.4723 7.4347-4.6691 8.5317-5.0172c2.1546-.6839 23.4424-21.4496 28.7628-28.0574 1.7877-2.2203 4.9779-7.4119 7.0892-11.5369 2.1114-4.125 5.701-10.2 7.977-13.5s5.7538-8.9921 7.7287-12.6491l3.5905-6.649-8.1755,8.5284c-4.4966,4.6906-10.4991,10.1576-13.339,12.149-8.5902,6.0236-24.2996,18.1471-29.5037,22.769-2.6948,2.3934-5.4471,4.3374-6.1163,4.32s.1334-1.0256 1.7834-2.2403 4.8-3.8264 7-5.8036 6.7-5.5422 10-7.9221 8.1182-6.279 10.7072-8.6647 5.3185-4.3376 6.0657-4.3376c2.1338,0 28.3484-27.9841 35.5292-37.9275 1.8162-2.5149 3.9596-6.1041 4.7632-7.9761s1.6969-3.1676 1.9853-2.8792-.047,1.82-.7452,3.4035c-1.4804,3.3576-10.8047,16.3039-13.1361,18.2388-.8777.7284-3.9204,5.6705-6.7616,10.9824s-6.8344,12.1331-8.8738,15.1581-5.6521,9.1-8.0283,13.5-6.0211,10.2547-8.0998,13.0105-5.1154,8.6058-6.7482,13c-10.5656,28.435-24.2704,52.9365-32.0583,57.3135-2.25,1.2646-4.5428,2.0199-5.0951,1.6786-1.6595-1.0257-1.1578,10.7099.5547,12.9755 1.626,2.1511 1.0962,9.885-.8436,12.3154-1.1094,1.39-20.5956,1.5178-28.0332.1839zm181.0679-223.9638c2.7048-.016 2.8394-1.0731.5-3.9268l-1.75-2.1347-6,2.12c-3.3,1.1661-6.45,2.4144-7,2.774-1.1855.7752 7.114,2.051 10,1.5372 1.1-.1958 3.0125-.3622 4.25-.3697zm81,231.7297c.6875-.5435 1.25-2.003 1.25-3.2433 0-2.6581-1.1393-3.6196-6.4201-5.4177-2.156-.7341-6.1406-2.6441-8.8545-4.2443-3.1047-1.8305-5.3592-2.5829-6.0799-2.029-1.957,1.5043-4.6455,2.1753-4.6455,1.1596 0-.5328.5625-.9755 1.25-.984s1.9228-.4406 2.7451-.9605c1.2895-.8151 1.2354-1.1351-.3926-2.3256-1.6465-1.2039-2.5213-1.0747-6.8444,1.0108-2.7261,1.3151-5.4744,2.2117-6.1074,1.9924s1.2284-1.4295 4.1363-2.6893c5.2825-2.2886 5.9702-3.5014 3.0351-5.3528-1.1376-.7177-2.4089-.378-4.705,1.257-1.7305,1.2322-3.6375,2.0766-4.2378,1.8765s.5312-1.2378 2.5146-2.3059c3.9839-2.1455 4.2613-2.6986 2.2081-4.4026-2.9057-2.4115-5.7713-1.7762-17.2703,3.8286-6.5075,3.1718-14.9817,6.8155-18.8317,8.0971l-7,2.3301 3,1.2847c1.65.7065 4.2823,1.3049 5.8496,1.3298 1.5674.025 6.9674,1.1406 12,2.4797 10.1071,2.6891 21.9937,5.3131 28.1504,6.2143 2.2.322 7.375,1.1102 11.5,1.7515 7.7909,1.2113 11.6181,1.0284 13.75-.6571zm1.0482,2.2082c1.2475-1.9976 1.2168-2.0075-1.24-.3977-2.6981,1.7678-5.1558,1.7093-18.5582-.4422-10.7107-1.7193-17.1218-3.0274-28.5-5.8149-5.5-1.3474-12.8988-2.8957-16.4418-3.4407-3.5429-.545-7.2554-1.4264-8.25-1.9587-1.1365-.6082-1.8082-.6136-1.8082-.014 0,.5244-.2616,1.6353-.5814,2.4686-.4491,1.1702 1.0879,1.9982 6.75,3.6364 4.0323,1.1666 7.9355,2.3234 8.6739,2.5707s1.5764-.4445 1.8667-1.5546c.2882-1.1022.7462-2.0041 1.0176-2.0041s5.7315,1.6516 12.1334,3.6703c12.1465,3.83 19.5485,4.9373 34.6492,5.1831 8.0851.1316 9.1408-.063 10.2888-1.9018zm-11.8815,3.6519c-.2292-.2181-5.0997-.6746-10.8233-1.0145-9.8764-.5864-12.4502-1.154-26.5204-5.8481-5.6725-1.8924-5.9829-1.9007-7.2316-.193-1.2467,1.7048-1.6697,1.6866-9.5053-.4106-9.2749-2.4824-10.8361-3.4387-10.8361-6.6376 0-1.2405-.6536-3.8198-1.4525-5.7317s-1.5476-6.1295-1.6639-9.3722c-.209-5.8287 2.0996-20.8966 4.1517-27.0982 2.0569-6.2158 1.2806-16.1461-2.0949-26.7975-2.6923-8.4954-3.2963-12.3323-4.0142-25.5-.4648-8.525-.612-16.275-.3271-17.2221s-.6762-3.7597-2.1356-6.25-2.3551-4.5279-1.9904-4.5279-.1987-1.2375-1.2519-2.75-3.1077-5.3893-4.5654-8.615c-2.7963-6.1878-10.1212-17.1578-19.7879-29.635-12.8658-16.6064-18.1128-23-18.8754-23-.4404,0-3.4237,3.5701-6.6296,7.9336s-6.011,7.7516-6.2336,7.529 2.3097-4.1406 5.6272-8.7068 7.7078-11.3509 9.756-15.0773 3.9369-6.5624 4.197-6.3024-1.1582,3.3893-3.1516,6.9539-3.272,6.6361-2.8412,6.8255c4.2537,1.8705 36.8776,46.2724 40.2965,54.8445 .7678,1.925 2.3164,5.0658 3.4414,6.9795s2.4954,4.805 3.0454,6.4249c1.1417,3.3628 2.9783,4.3974 3.8364,2.1612 1.6189-4.2186 2.7832-18.7373 1.8268-22.7784-.5581-2.358-1.2786-5.4122-1.6012-6.7872-.3653-1.5573.1871-.9917 1.4648,1.5 2.861,5.5791 2.37,21.6084-.8864,28.9375-2.57,5.7841-2.5292,5.1992-1.5738,22.5625 .599,10.8852 1.3908,15.7102 4.0881,24.9117 3.4066,11.6209 3.9653,17.4475 2.3577,24.5883-3.505,15.5682-4.1926,19.9893-4.3126,27.7321-.076,4.8805.3214,9.189.9002,9.7678 2.4561,2.4562 38.6511-13.028 39.6836-16.9766 .6942-2.6547-.6973-3.4351-2.4203-1.3574-1.1795,1.4223-6.7767,4.3341-8.3312,4.3341-1.7499,0-.087-1.8949 2.1569-2.4581 1.479-.3712 3.8922-1.5317 5.3629-2.5789s3.0327-1.5798 3.4713-1.1835 .4616.1382.051-.5733-.1452-2.0174.5897-2.9017c.9398-1.1311 1.4404-5.9369 1.6877-16.2062 .4128-17.1327-.8447-39.5874-1.9094-34.0983-.67,3.4538-.6807,3.4402-.8106-1.0263-.072-2.4894.3224-8.1471.8773-12.5726 1.5257-12.1678-.3083-69.5085-2.4071-75.2613-3.0762-8.4312-9.0982-16.7472-20.0463-27.6824-6.9318-6.9237-12.4727-13.4918-14.8548-17.6089l-3.7993-6.5663-10.2007-.5468c-5.6104-.3006-10.9882-.8623-11.9507-1.248-2.1867-.8765-2.2887-2.4874-.1574-2.4874 .876,0 4.9225-1.1821 8.9922-2.6269l7.3996-2.6269-2.9778-3.3915c-3.546-4.0387-4.5735-7.427-3.0916-10.1959 1.8102-3.3825 1.2808-5.1095-3.6079-11.7675-4.6306-6.3066-4.7561-6.3913-9.4648-6.3913-3.9268,0-4.9843-.3985-5.9708-2.25-1.1152-2.0929-1.074-2.1469.5898-.7738 .9838.8119 3.0542,1.3434 4.6009,1.1812 4.0313-.4229 6.2361,1.0825 11.3845,7.7732 3.4196,4.4441 4.5533,6.7931 4.5533,9.4344 0,1.9343-.45,3.795-1,4.135-1.9861,1.2274-.9169,3.6553 3.5,7.9481 2.475,2.4054 4.5,4.8794 4.5,5.4978 0,2.2133 3.1576,5.9308 4.5755,5.3867 .7835-.3006 1.4245-.048 1.4245.5604s-.4805,1.107-1.0677,1.107 .4253,2.8125 2.25,6.25c2.2889,4.3119 6.7555,9.6609 14.4046,17.25 12.1561,12.0608 18.6139,21.2722 21.591,30.7975 1.6435,5.2585 2.0093,10.1594 2.4038,32.2025 .2558,14.3.3788,29.375.2732,33.5-.2794,10.9179-.2894,10.5876 1.0333,34.1074 1.2199,21.6906.5421,38.0004-1.8394,44.2642-.8032,2.1126-.7054,2.6284.4983,2.6284 .8237,0 3.4504,1.8 5.8371,4s4.579,4 4.8719,4 2.0425,1.4171 3.8881,3.1493c3.2043,3.007 16.0256,9.8507 18.4551,9.8507 1.8362,0 3.0791,2.1811 3.7485,6.5782 .8805,5.7834-1.6946,8.4218-8.2201,8.4218-2.6369,0-4.9819-.1785-5.211-.3966z"/>
  </g>
 </g>
</svg>
