<?xml version="1.0" encoding="UTF-8"?>
<svg viewBox="0 0 295.36435 293.39862" xmlns="http://www.w3.org/2000/svg">
 <defs>
  <linearGradient id="a" x1=".38793" x2=".40517" y1=".84375" y2=".09375" gradientUnits="userSpaceOnUse">
   <stop stop-color="#fff" stop-opacity="0" offset="0"/>
   <stop stop-color="#fff" offset="1"/>
  </linearGradient>
 </defs>
 <g transform="matrix(8.1034 0 0 8.1034 -936 -181.87)" fill-rule="evenodd">
  <path d="m128.29 23.269 0.13255 0.25088c-9.2202 3.0575-14.221 12.982-11.163 22.203s13.024 14.221 22.244 11.163c4.8752-1.6167 8.3981-4.7896 10.504-9.4742l0.0951 0.10035c-2.1948 4.8823-5.23 8.5129-10.311 10.198-9.6644 3.2048-20.151-2.0342-23.356-11.699s2.19-19.537 11.854-22.742z" fill="#c0bebd"/>
  <path d="m134.21 22.637c-9.6924 0-17.558 7.866-17.558 17.558 0 9.083 6.9401 16.483 15.786 17.388-4.011-0.81347-7.0277-4.3342-7.0277-8.587 0-0.16095 0.03418-0.3111 0.04272-0.46994v-0.06408c0.26499-4.3402 3.6623-7.7907 7.9675-8.1811l0.02137-0.02136 0.25631-0.02136c0.17294-0.01014 0.33722-0.04272 0.51266-0.04272 4.8603 0 8.8006-3.9617 8.8006-8.822s-3.9403-8.7365-8.8006-8.7365zm-8.8006 26.359 0.08544 0.08544v-0.17088l-0.08544 0.08544z" fill="#00d6d7" stroke="#000" stroke-width=".38559"/>
  <path d="m134.13 57.735c9.6924 0 17.558-7.866 17.558-17.558 0-9.083-6.9401-16.483-15.786-17.388 4.011 0.81347 7.0277 4.3342 7.0277 8.587 0 0.16095-0.03419 0.3111-0.04273 0.46993v0.06408c-0.26499 4.3402-3.6623 7.7907-7.9675 8.1811l-0.02135 0.02136-0.25634 0.02136c-0.17293 0.01014-0.33721 0.04272-0.51265 0.04272-4.8603 0-8.8006 3.9617-8.8006 8.822s3.9403 8.7365 8.8006 8.7365z" stroke="#000" stroke-width=".5419"/>
  <path transform="matrix(1.2111 0 0 1.2111 -76.206 -15.901)" d="m177.24 38.828a2.8374 2.8374 0 1 1 -5.6748 0 2.8374 2.8374 0 1 1 5.6748 0z" stroke="#000"/>
  <path transform="matrix(1.2111 0 0 1.2111 -76.206 1.7381)" d="m177.24 38.828a2.8374 2.8374 0 1 1 -5.6748 0 2.8374 2.8374 0 1 1 5.6748 0z" fill="#00d6d7" stroke="#000"/>
  <path transform="matrix(1.5602 .047643 -.019436 1.8826 -96.931 -62.11)" d="m157.04 45.966a8.1636 4.5115 0 1 1 -16.327 0 8.1636 4.5115 0 1 1 16.327 0z" fill="url(#a)"/>
 </g>
</svg>
