<?xml version="1.0" encoding="UTF-8"?>
<svg viewBox="0 0 745.91199 419.43399" xmlns="http://www.w3.org/2000/svg">
 <defs>
  <filter id="f">
   <feGaussianBlur stdDeviation="6.1815"/>
  </filter>
  <linearGradient id="e" x1="-642.44" x2="-414.39" y1="35.568" y2="271.69" gradientUnits="userSpaceOnUse">
   <stop offset="0"/>
   <stop stop-opacity="0" offset="1"/>
  </linearGradient>
  <linearGradient id="d" x1="105.84" x2="-71.471" y1="457.36" y2="257.49" gradientUnits="userSpaceOnUse">
   <stop stop-color="#b80000" offset="0"/>
   <stop stop-opacity=".24324" offset="1"/>
  </linearGradient>
  <radialGradient id="c" cx="-268.99" cy="244.58" r="372.96" gradientTransform="matrix(1 0 0 .56231 -.72407 107.05)" gradientUnits="userSpaceOnUse">
   <stop offset="0"/>
   <stop stop-color="#370000" offset="1"/>
  </radialGradient>
  <radialGradient id="a" cx="195.28" cy="334.86" r="42.541" gradientUnits="userSpaceOnUse">
   <stop stop-color="#b00" offset="0"/>
   <stop stop-color="#b00" stop-opacity="0" offset="1"/>
  </radialGradient>
  <radialGradient id="b" cx="195.28" cy="334.86" r="42.541" gradientUnits="userSpaceOnUse">
   <stop stop-color="#ff0707" offset="0"/>
   <stop stop-color="#b00" stop-opacity="0" offset="1"/>
  </radialGradient>
 </defs>
 <g transform="translate(642.67 -34.868)">
  <path d="m-642.67 34.868h745.91v419.43h-745.91z" fill="url(#c)"/>
  <path d="m-640.92 398.95s79.203-138.21 169.14-220.39c81.215-74.209 248.07-142.49 248.07-142.49h-418.23l1.0251 362.88z" fill="url(#e)"/>
  <path transform="matrix(1.5422 0 0 1.5422 -873.39 -387.07)" d="m237.82 334.86c0 23.495-19.046 42.541-42.541 42.541s-42.541-19.046-42.541-42.541 19.046-42.541 42.541-42.541 42.541 19.046 42.541 42.541z" fill="url(#a)"/>
  <path transform="matrix(2.3253 0 0 2.3253 -484.05 -437.12)" d="m237.82 334.86c0 23.495-19.046 42.541-42.541 42.541s-42.541-19.046-42.541-42.541 19.046-42.541 42.541-42.541 42.541 19.046 42.541 42.541z" fill="url(#b)"/>
  <path d="m104.32 154.46s-85.637 117.51-172.21 180.41c-84.929 61.709-245 121.99-245 121.99h418.23l-1.0251-302.4z" fill="url(#d)"/>
  <g transform="matrix(.62 0 0 .62 -467.34 -72.483)" fill="#de0000" fill-opacity=".99512" fill-rule="evenodd" filter="url(#f)" stroke="#db0000" stroke-width="5.5">
   <path d="m237.14 558.79 175.71-175.71"/>
   <path d="m407.14 558.79-175.71-175.71"/>
   <path d="m353.57 443.79c4.2857-3.5714 59.286-23.571 59.286-23.571"/>
   <path d="m349.64 447.01c3.5714-4.2857 23.571-59.286 23.571-59.286"/>
   <g transform="matrix(-1 0 0 1 642.68 -.71428)">
    <path d="m353.57 443.79c4.2857-3.5714 59.286-23.571 59.286-23.571"/>
    <path d="m349.64 447.01c3.5714-4.2857 23.571-59.286 23.571-59.286"/>
   </g>
   <g transform="matrix(1 0 0 -1 .08929 947.94)">
    <path d="m353.57 443.79c4.2857-3.5714 59.286-23.571 59.286-23.571"/>
    <path d="m349.64 447.01c3.5714-4.2857 23.571-59.286 23.571-59.286"/>
    <g transform="matrix(-1 0 0 1 642.68 -.71428)">
     <path d="m353.57 443.79c4.2857-3.5714 59.286-23.571 59.286-23.571"/>
     <path d="m349.64 447.01c3.5714-4.2857 23.571-59.286 23.571-59.286"/>
    </g>
   </g>
   <path d="m321.78 350.19c-17.227 0-31.094 0.033-31.094 0.0625v92.594h-115.88c-0.0295 0-0.0625 13.64-0.0625 30.594s0.033 30.594 0.0625 30.594h115.88v215.44c0 0.0295 13.867 0.0625 31.094 0.0625s31.094-0.033 31.094-0.0625v-215.44h117.31c0.0295 0 0.0625-13.64 0.0625-30.594s-0.033-30.594-0.0625-30.594h-117.31v-92.594c0-0.0295-13.867-0.0625-31.094-0.0625z"/>
  </g>
  <g transform="matrix(.62 0 0 .62 -467.5 -72.294)">
   <path d="m237.14 558.79 175.71-175.71" fill="none" stroke="#000"/>
   <path d="m407.14 558.79-175.71-175.71" fill="none" stroke="#000"/>
   <path d="m353.57 443.79c4.2857-3.5714 59.286-23.571 59.286-23.571" fill="none" stroke="#000"/>
   <path d="m349.64 447.01c3.5714-4.2857 23.571-59.286 23.571-59.286" fill="none" stroke="#000"/>
   <g transform="matrix(-1 0 0 1 642.68 -.71428)" fill="none" stroke="#000">
    <path d="m353.57 443.79c4.2857-3.5714 59.286-23.571 59.286-23.571"/>
    <path d="m349.64 447.01c3.5714-4.2857 23.571-59.286 23.571-59.286"/>
   </g>
   <g transform="matrix(1 0 0 -1 .08929 947.94)" fill="none" stroke="#000">
    <path d="m353.57 443.79c4.2857-3.5714 59.286-23.571 59.286-23.571"/>
    <path d="m349.64 447.01c3.5714-4.2857 23.571-59.286 23.571-59.286"/>
    <g transform="matrix(-1 0 0 1 642.68 -.71428)">
     <path d="m353.57 443.79c4.2857-3.5714 59.286-23.571 59.286-23.571"/>
     <path d="m349.64 447.01c3.5714-4.2857 23.571-59.286 23.571-59.286"/>
    </g>
   </g>
   <path d="m321.78 350.19c-17.227 0-31.094 0.033-31.094 0.0625v92.594h-115.88c-0.0295 0-0.0625 13.64-0.0625 30.594s0.033 30.594 0.0625 30.594h115.88v215.44c0 0.0295 13.867 0.0625 31.094 0.0625s31.094-0.033 31.094-0.0625v-215.44h117.31c0.0295 0 0.0625-13.64 0.0625-30.594s-0.033-30.594-0.0625-30.594h-117.31v-92.594c0-0.0295-13.867-0.0625-31.094-0.0625z" fill="#030303" fill-opacity=".99512" fill-rule="evenodd"/>
  </g>
  <path transform="matrix(1.1503 0 0 1.1503 -683.91 -290.41)" d="m237.82 334.86c0 23.495-19.046 42.541-42.541 42.541s-42.541-19.046-42.541-42.541 19.046-42.541 42.541-42.541 42.541 19.046 42.541 42.541z" fill="url(#a)"/>
  <path transform="matrix(.8521 0 0 .8521 -533.62 -204.33)" d="m237.82 334.86c0 23.495-19.046 42.541-42.541 42.541s-42.541-19.046-42.541-42.541 19.046-42.541 42.541-42.541 42.541 19.046 42.541 42.541z" fill="url(#a)"/>
  <path transform="matrix(.65616 0 0 .65616 -414.9 -139.44)" d="m237.82 334.86c0 23.495-19.046 42.541-42.541 42.541s-42.541-19.046-42.541-42.541 19.046-42.541 42.541-42.541 42.541 19.046 42.541 42.541z" fill="url(#a)"/>
 </g>
</svg>
