<?xml version="1.0" encoding="UTF-8"?>
<svg viewBox="0 0 744.09448819 1052.3622047" xmlns="http://www.w3.org/2000/svg">
 <defs>
  <linearGradient id="a" x1="485.66" x2="700.34" gradientUnits="userSpaceOnUse">
   <stop stop-color="#fff" offset="0"/>
   <stop stop-color="#fff" stop-opacity="0" offset="1"/>
  </linearGradient>
 </defs>
 <g transform="matrix(2.4354 -.31916 .31916 2.4354 -1231.9 -583.71)" stroke="#000">
  <path d="m540.56 455.69 173.16 31.867c2.2944 1.2486 2.2137 2.8721 1.2581 4.4957l-60.126 78.374c-2.0623 1.9124-2.8589 1.9808-6.152 1.3737l-66.953-22.031c-5.1736 5.0642-11.73 4.4842-18.008 2.6591-5.8007-1.6865-11.553-2.8559-13.513-10.846l-74.7-13.957c-2.5698-0.53599-3.0602-2.3107-2.1528-3.6838l62.351-66.258c1.2372-1.5394 2.8494-2.0788 4.8366-1.9932z" stroke-linecap="round" stroke-linejoin="round" stroke-width="1.482"/>
  <path d="m565.08 552.67c25.297-19.233 69.355 16.664 83.089 12.079l62.339-79.316c-1.7657 0.6472-5.6059 1.8202-7.5135 2.0259-23.104 2.4922-53.298-25.008-82.306-4.6037l-55.518 69.811c-4.9922-28.737-71.229-15.398-88.23-30.242 51.982-46.725 63.407-67.151 64.679-65.153 2.0364 3.1989 16.607 10.937 40.988 8.5264 36.151-3.5748 37.999 17.068 37.999 17.068" fill="#fff" fill-rule="evenodd" stroke-linejoin="round" stroke-width="1.6912"/>
  <path d="m571.14 529.41c28.554-22.288 54.234 24.475 70.336 0.59441 1.7933 4.9469 5.0234 4.3332 6.3377 2.4175l39.477-61.909c-21.856 11.738-46.745-23.089-71.794-3.3843l-44.284 62.278c-3.982-25.636-56.816-13.736-70.377-26.978 41.464-41.683 50.577-59.905 51.591-58.123 1.6244 2.8537 13.247 9.7571 32.694 7.6063 28.836-3.1891 30.31 15.226 30.31 15.226m9.2071 69.175c7.6631 4.3968 20.914 1.9771 23.708-5.1345" fill="#fff" fill-rule="evenodd" stroke-linejoin="round" stroke-width="2.8532"/>
  <path d="m566.79 542.08c32.643-22.247 62.73 15.948 78.217 11.197l54.566-69.988c-24.986 11.717-53.439-23.048-82.075-3.3782l-50.626 62.165c-4.5522-25.59-64.952-13.712-80.455-26.93 47.401-41.608 57.819-59.797 58.979-58.018 1.8569 2.8486 15.144 9.7395 37.376 7.5926 32.965-3.1833 34.65 15.199 34.65 15.199" fill="url(#a)" fill-rule="evenodd" stroke-linejoin="round" stroke-width="1.5239"/>
  <path d="m565 544.09c32.643-22.247 62.73 15.948 78.217 11.197l54.566-69.988c-24.986 11.717-53.439-23.048-82.075-3.3782l-50.626 62.165c-4.5522-25.59-64.952-13.712-80.455-26.93 47.401-41.608 57.819-59.797 58.979-58.018 1.8569 2.8486 15.144 9.7395 37.376 7.5926 32.965-3.1833 34.65 15.199 34.65 15.199" fill="none" stroke-linejoin="round" stroke-width="1.5239"/>
  <path d="m563.78 546.4c33.559-22.404 64.491 16.06 80.413 11.276l58.749-74.237c-25.687 11.799-57.591-19.453-87.031 0.35448l-52.047 62.603c-4.68-25.77-66.775-13.808-82.713-27.119 48.731-41.9 59.443-60.217 60.635-58.426 1.9091 2.8686 15.569 9.808 38.425 7.646 33.89-3.2057 35.623 15.306 35.623 15.306" fill="none" stroke-linejoin="round" stroke-width="1.5506"/>
  <path d="m566.66 540.21c31.887-22.251 61.279 15.951 76.407 11.199l53.303-70.001c-24.408 11.719-52.203-23.052-80.176-3.3788l-49.454 62.177c-4.4469-25.594-63.449-13.714-78.593-26.935 46.304-41.615 56.482-59.807 57.614-58.028 1.814 2.8491 14.793 9.7412 36.511 7.594 32.202-3.1839 33.849 15.202 33.849 15.202" fill="#fff" fill-rule="evenodd" stroke-linejoin="round" stroke-width="1.5063"/>
  <path d="m567 538.45c31.024-22.256 59.62 15.954 74.339 11.202l51.86-70.016c-23.747 11.721-50.789-23.057-78.006-3.3796l-48.115 62.19c-4.3265-25.6-61.731-13.717-76.465-26.94 45.051-41.624 54.953-59.82 56.055-58.041 1.7649 2.8497 14.393 9.7433 35.523 7.5956 31.331-3.1846 32.932 15.205 32.932 15.205" fill="#fff" fill-rule="evenodd" stroke-linejoin="round" stroke-width="1.486"/>
  <path d="m567.57 536.33c30.539-22.259 58.687 15.956 73.176 11.203l51.049-70.024c-23.375 11.723-49.995-23.06-76.785-3.38l-47.362 62.197c-4.2588-25.603-60.765-13.719-75.269-26.944 44.346-41.629 54.093-59.827 55.177-58.047 1.7372 2.85 14.167 9.7445 34.967 7.5965 30.84-3.1849 32.417 15.207 32.417 15.207" fill="#fff" fill-rule="evenodd" stroke-linejoin="round" stroke-width="1.4744"/>
  <path d="m568.22 534.34c29.945-22.262 57.547 15.959 71.754 11.205l50.057-70.034c-22.921 11.724-49.023-23.063-75.293-3.3805l-46.442 62.206c-4.1761-25.606-59.585-13.721-73.806-26.948 43.484-41.635 53.042-59.836 54.105-58.056 1.7035 2.8505 13.892 9.7459 34.287 7.5976 30.241-3.1854 31.787 15.209 31.787 15.209" fill="#fff" fill-rule="evenodd" stroke-linejoin="round" stroke-width="1.4601"/>
  <path d="m569.18 532.93c29.19-22.266 56.095 15.962 69.944 11.207l48.794-70.048c-22.343 11.726-47.787-23.067-73.394-3.3811l-45.271 62.218c-4.0707-25.611-58.082-13.723-71.945-26.953 42.387-41.643 51.704-59.847 52.741-58.067 1.6605 2.851 13.542 9.7478 33.423 7.5991 29.478-3.186 30.985 15.212 30.985 15.212" fill="none" stroke-linejoin="round" stroke-width="1.4417"/>
  <path d="m569.67 531.29c28.866-22.268 55.473 15.963 69.169 11.208l48.253-70.053c-22.095 11.727-47.257-23.069-72.58-3.3814l-44.769 62.223c-4.0256-25.613-57.438-13.724-71.147-26.955 41.917-41.646 51.131-59.852 52.156-58.072 1.6421 2.8513 13.392 9.7486 33.052 7.5997 29.152-3.1863 30.642 15.213 30.642 15.213" fill="#fff" fill-rule="evenodd" stroke-linejoin="round" stroke-width="1.4338"/>
  <path d="m571.14 529.06c28.554-22.288 54.234 24.475 70.336 0.59441 1.7933 4.9469 5.0234 4.3332 6.3377 2.4175l39.477-61.909c-21.856 11.738-46.745-23.089-71.794-3.3843l-44.284 62.278c-3.982-25.636-56.816-13.736-70.377-26.978 41.464-41.683 50.577-59.905 51.591-58.123 1.6244 2.8537 13.247 9.7571 32.694 7.6063 28.836-3.1891 30.31 15.226 30.31 15.226m9.2071 69.175c7.6631 4.3968 20.914 1.9771 23.708-5.1345" fill="#fff" fill-rule="evenodd" stroke-linejoin="round" stroke-width="2.8532"/>
  <path d="m574.34 543.69c23.938-7.6014 46.987 14.876 70.705 16.965l60.046-76.109c-1.3393 0.62064-3.1742 1.7331-4.5322 2.114" fill="none" stroke-linejoin="round" stroke-width="1.5751"/>
  <path d="m575.75 545.81c23.938-7.6014 46.987 14.876 70.705 16.965l60.046-76.109c-1.3393 0.62064-3.1742 1.7331-4.5322 2.114" fill="none" stroke-linejoin="round" stroke-width="1.5751"/>
  <path d="m577.67 547.47c-1.2671 5.2307-7.474 2.8213-12.705 1.5542s-11.307-2.675-9.9972-7.8951c0.91354-3.6397 7.4737-3.6343 12.704-2.3672s10.911 4.8916 9.9974 8.7081z" fill="#fff" stroke-dasharray="0.17, 0.17" stroke-dashoffset="17" stroke-linecap="square" stroke-linejoin="round" stroke-width="1.7"/>
  <path d="m557.36 538.47c-17.346-12.589-64.642-6.0662-77.96-17.189 48.731-41.9 58.693-62.717 59.885-60.926" fill="none" stroke-linejoin="round" stroke-width="1.5506"/>
  <path transform="matrix(.37282 0 0 .37282 343.77 337.07)" d="m572.4 546.38a1.7236 1.7236 0 1 1 -3.4472 0 1.7236 1.7236 0 1 1 3.4472 0z" fill="#fff" stroke-dasharray="0.06678774, 0.06678774" stroke-dashoffset="6.6788" stroke-linecap="round" stroke-linejoin="round" stroke-width=".66788"/>
  <path d="m564.27 549.79 3.0936 1.2374" fill="none"/>
  <path transform="matrix(.37282 0 0 .37282 344.75 336.18)" d="m572.4 546.38a1.7236 1.7236 0 1 1 -3.4472 0 1.7236 1.7236 0 1 1 3.4472 0z" fill="#fff" stroke-dasharray="0.06678774, 0.06678774" stroke-dashoffset="6.6788" stroke-linecap="round" stroke-linejoin="round" stroke-width=".66788"/>
  <path transform="matrix(.37282 0 0 .37282 345.98 335.74)" d="m572.4 546.38a1.7236 1.7236 0 1 1 -3.4472 0 1.7236 1.7236 0 1 1 3.4472 0z" fill="#fff" stroke-dasharray="0.06678774, 0.06678774" stroke-dashoffset="6.6788" stroke-linecap="round" stroke-linejoin="round" stroke-width=".66788"/>
  <path transform="matrix(.37282 0 0 .37282 347.27 335.56)" d="m572.4 546.38a1.7236 1.7236 0 1 1 -3.4472 0 1.7236 1.7236 0 1 1 3.4472 0z" fill="#fff" stroke-dasharray="0.06678774, 0.06678774" stroke-dashoffset="6.6788" stroke-linecap="round" stroke-linejoin="round" stroke-width=".66788"/>
  <path transform="matrix(.37282 0 0 .37282 348.55 335.43)" d="m572.4 546.38a1.7236 1.7236 0 1 1 -3.4472 0 1.7236 1.7236 0 1 1 3.4472 0z" fill="#fff" stroke-dasharray="0.06678774, 0.06678774" stroke-dashoffset="6.6788" stroke-linecap="round" stroke-linejoin="round" stroke-width=".66788"/>
  <path transform="matrix(.37282 0 0 .37282 349.87 335.52)" d="m572.4 546.38a1.7236 1.7236 0 1 1 -3.4472 0 1.7236 1.7236 0 1 1 3.4472 0z" fill="#fff" stroke-dasharray="0.06678774, 0.06678774" stroke-dashoffset="6.6788" stroke-linecap="round" stroke-linejoin="round" stroke-width=".66788"/>
  <path transform="matrix(.37282 0 0 .37282 351.24 335.74)" d="m572.4 546.38a1.7236 1.7236 0 1 1 -3.4472 0 1.7236 1.7236 0 1 1 3.4472 0z" fill="#fff" stroke-dasharray="0.06678774, 0.06678774" stroke-dashoffset="6.6788" stroke-linecap="round" stroke-linejoin="round" stroke-width=".66788"/>
  <path transform="matrix(.37282 0 0 .37282 352.57 335.96)" d="m572.4 546.38a1.7236 1.7236 0 1 1 -3.4472 0 1.7236 1.7236 0 1 1 3.4472 0z" fill="#fff" stroke-dasharray="0.06678774, 0.06678774" stroke-dashoffset="6.6788" stroke-linecap="round" stroke-linejoin="round" stroke-width=".66788"/>
  <path transform="matrix(.37282 0 0 .37282 353.81 336.23)" d="m572.4 546.38a1.7236 1.7236 0 1 1 -3.4472 0 1.7236 1.7236 0 1 1 3.4472 0z" fill="#fff" stroke-dasharray="0.06678774, 0.06678774" stroke-dashoffset="6.6788" stroke-linecap="round" stroke-linejoin="round" stroke-width=".66788"/>
  <path transform="matrix(.37282 0 0 .37282 355.04 336.54)" d="m572.4 546.38a1.7236 1.7236 0 1 1 -3.4472 0 1.7236 1.7236 0 1 1 3.4472 0z" fill="#fff" stroke-dasharray="0.06678774, 0.06678774" stroke-dashoffset="6.6788" stroke-linecap="round" stroke-linejoin="round" stroke-width=".66788"/>
  <path transform="matrix(.37282 0 0 .37282 356.33 336.93)" d="m572.4 546.38a1.7236 1.7236 0 1 1 -3.4472 0 1.7236 1.7236 0 1 1 3.4472 0z" fill="#fff" stroke-dasharray="0.06678774, 0.06678774" stroke-dashoffset="6.6788" stroke-linecap="round" stroke-linejoin="round" stroke-width=".66788"/>
  <path transform="matrix(.37282 0 0 .37282 357.52 337.38)" d="m572.4 546.38a1.7236 1.7236 0 1 1 -3.4472 0 1.7236 1.7236 0 1 1 3.4472 0z" fill="#fff" stroke-dasharray="0.06678774, 0.06678774" stroke-dashoffset="6.6788" stroke-linecap="round" stroke-linejoin="round" stroke-width=".66788"/>
  <path transform="matrix(.37282 0 0 .37282 358.71 337.91)" d="m572.4 546.38a1.7236 1.7236 0 1 1 -3.4472 0 1.7236 1.7236 0 1 1 3.4472 0z" fill="#fff" stroke-dasharray="0.06678774, 0.06678774" stroke-dashoffset="6.6788" stroke-linecap="round" stroke-linejoin="round" stroke-width=".66788"/>
  <path transform="matrix(.37282 0 0 .37282 359.86 338.52)" d="m572.4 546.38a1.7236 1.7236 0 1 1 -3.4472 0 1.7236 1.7236 0 1 1 3.4472 0z" fill="#fff" stroke-dasharray="0.06678774, 0.06678774" stroke-dashoffset="6.6788" stroke-linecap="round" stroke-linejoin="round" stroke-width=".66788"/>
  <path transform="matrix(.37282 0 0 .37282 360.92 339.23)" d="m572.4 546.38a1.7236 1.7236 0 1 1 -3.4472 0 1.7236 1.7236 0 1 1 3.4472 0z" fill="#fff" stroke-dasharray="0.06678774, 0.06678774" stroke-dashoffset="6.6788" stroke-linecap="round" stroke-linejoin="round" stroke-width=".66788"/>
  <path transform="matrix(.37282 0 0 .37282 361.89 340.12)" d="m572.4 546.38a1.7236 1.7236 0 1 1 -3.4472 0 1.7236 1.7236 0 1 1 3.4472 0z" fill="#fff" stroke-dasharray="0.06678774, 0.06678774" stroke-dashoffset="6.6788" stroke-linecap="round" stroke-linejoin="round" stroke-width=".66788"/>
  <path transform="matrix(.37282 0 0 .37282 362.78 341)" d="m572.4 546.38a1.7236 1.7236 0 1 1 -3.4472 0 1.7236 1.7236 0 1 1 3.4472 0z" fill="#fff" stroke-dasharray="0.06678774, 0.06678774" stroke-dashoffset="6.6788" stroke-linecap="round" stroke-linejoin="round" stroke-width=".66788"/>
  <path transform="matrix(.37282 0 0 .37282 363.44 342.06)" d="m572.4 546.38a1.7236 1.7236 0 1 1 -3.4472 0 1.7236 1.7236 0 1 1 3.4472 0z" fill="#fff" stroke-dasharray="0.06678774, 0.06678774" stroke-dashoffset="6.6788" stroke-linecap="round" stroke-linejoin="round" stroke-width=".66788"/>
  <path transform="matrix(.37282 0 0 .37282 363.66 343.34)" d="m572.4 546.38a1.7236 1.7236 0 1 1 -3.4472 0 1.7236 1.7236 0 1 1 3.4472 0z" fill="#fff" stroke-dasharray="0.06678774, 0.06678774" stroke-dashoffset="6.6788" stroke-linecap="round" stroke-linejoin="round" stroke-width=".66788"/>
  <path transform="matrix(.37282 0 0 .37282 363.22 344.58)" d="m572.4 546.38a1.7236 1.7236 0 1 1 -3.4472 0 1.7236 1.7236 0 1 1 3.4472 0z" fill="#fff" stroke-dasharray="0.06678774, 0.06678774" stroke-dashoffset="6.6788" stroke-linecap="round" stroke-linejoin="round" stroke-width=".66788"/>
  <path transform="matrix(.37282 0 0 .37282 362.2 345.64)" d="m572.4 546.38a1.7236 1.7236 0 1 1 -3.4472 0 1.7236 1.7236 0 1 1 3.4472 0z" fill="#fff" stroke-dasharray="0.06678774, 0.06678774" stroke-dashoffset="6.6788" stroke-linecap="round" stroke-linejoin="round" stroke-width=".66788"/>
  <path transform="matrix(.37282 0 0 .37282 360.92 345.95)" d="m572.4 546.38a1.7236 1.7236 0 1 1 -3.4472 0 1.7236 1.7236 0 1 1 3.4472 0z" fill="#fff" stroke-dasharray="0.06678774, 0.06678774" stroke-dashoffset="6.6788" stroke-linecap="round" stroke-linejoin="round" stroke-width=".66788"/>
  <path transform="matrix(.37282 0 0 .37282 359.46 345.86)" d="m572.4 546.38a1.7236 1.7236 0 1 1 -3.4472 0 1.7236 1.7236 0 1 1 3.4472 0z" fill="#fff" stroke-dasharray="0.06678774, 0.06678774" stroke-dashoffset="6.6788" stroke-linecap="round" stroke-linejoin="round" stroke-width=".66788"/>
  <path transform="matrix(.37282 0 0 .37282 358.14 345.55)" d="m572.4 546.38a1.7236 1.7236 0 1 1 -3.4472 0 1.7236 1.7236 0 1 1 3.4472 0z" fill="#fff" stroke-dasharray="0.06678774, 0.06678774" stroke-dashoffset="6.6788" stroke-linecap="round" stroke-linejoin="round" stroke-width=".66788"/>
  <path transform="matrix(.37282 0 0 .37282 356.72 345.2)" d="m572.4 546.38a1.7236 1.7236 0 1 1 -3.4472 0 1.7236 1.7236 0 1 1 3.4472 0z" fill="#fff" stroke-dasharray="0.06678774, 0.06678774" stroke-dashoffset="6.6788" stroke-linecap="round" stroke-linejoin="round" stroke-width=".66788"/>
  <path transform="matrix(.37282 0 0 .37282 355.35 344.84)" d="m572.4 546.38a1.7236 1.7236 0 1 1 -3.4472 0 1.7236 1.7236 0 1 1 3.4472 0z" fill="#fff" stroke-dasharray="0.06678774, 0.06678774" stroke-dashoffset="6.6788" stroke-linecap="round" stroke-linejoin="round" stroke-width=".66788"/>
  <path transform="matrix(.37282 0 0 .37282 353.9 344.54)" d="m572.4 546.38a1.7236 1.7236 0 1 1 -3.4472 0 1.7236 1.7236 0 1 1 3.4472 0z" fill="#fff" stroke-dasharray="0.06678774, 0.06678774" stroke-dashoffset="6.6788" stroke-linecap="round" stroke-linejoin="round" stroke-width=".66788"/>
  <path transform="matrix(.37282 0 0 .37282 352.57 344.09)" d="m572.4 546.38a1.7236 1.7236 0 1 1 -3.4472 0 1.7236 1.7236 0 1 1 3.4472 0z" fill="#fff" stroke-dasharray="0.06678774, 0.06678774" stroke-dashoffset="6.6788" stroke-linecap="round" stroke-linejoin="round" stroke-width=".66788"/>
  <path transform="matrix(.37282 0 0 .37282 351.24 343.74)" d="m572.4 546.38a1.7236 1.7236 0 1 1 -3.4472 0 1.7236 1.7236 0 1 1 3.4472 0z" fill="#fff" stroke-dasharray="0.06678774, 0.06678774" stroke-dashoffset="6.6788" stroke-linecap="round" stroke-linejoin="round" stroke-width=".66788"/>
  <path transform="matrix(.37282 0 0 .37282 349.92 343.43)" d="m572.4 546.38a1.7236 1.7236 0 1 1 -3.4472 0 1.7236 1.7236 0 1 1 3.4472 0z" fill="#fff" stroke-dasharray="0.06678774, 0.06678774" stroke-dashoffset="6.6788" stroke-linecap="round" stroke-linejoin="round" stroke-width=".66788"/>
  <path transform="matrix(.37282 0 0 .37282 348.59 342.99)" d="m572.4 546.38a1.7236 1.7236 0 1 1 -3.4472 0 1.7236 1.7236 0 1 1 3.4472 0z" fill="#fff" stroke-dasharray="0.06678774, 0.06678774" stroke-dashoffset="6.6788" stroke-linecap="round" stroke-linejoin="round" stroke-width=".66788"/>
  <path transform="matrix(.37282 0 0 .37282 347.35 342.55)" d="m572.4 546.38a1.7236 1.7236 0 1 1 -3.4472 0 1.7236 1.7236 0 1 1 3.4472 0z" fill="#fff" stroke-dasharray="0.06678774, 0.06678774" stroke-dashoffset="6.6788" stroke-linecap="round" stroke-linejoin="round" stroke-width=".66788"/>
  <path transform="matrix(.37282 0 0 .37282 345.98 342.06)" d="m572.4 546.38a1.7236 1.7236 0 1 1 -3.4472 0 1.7236 1.7236 0 1 1 3.4472 0z" fill="#fff" stroke-dasharray="0.06678774, 0.06678774" stroke-dashoffset="6.6788" stroke-linecap="round" stroke-linejoin="round" stroke-width=".66788"/>
  <path transform="matrix(.37282 0 0 .37282 344.84 341.35)" d="m572.4 546.38a1.7236 1.7236 0 1 1 -3.4472 0 1.7236 1.7236 0 1 1 3.4472 0z" fill="#fff" stroke-dasharray="0.06678774, 0.06678774" stroke-dashoffset="6.6788" stroke-linecap="round" stroke-linejoin="round" stroke-width=".66788"/>
  <path transform="matrix(.37282 0 0 .37282 343.69 340.51)" d="m572.4 546.38a1.7236 1.7236 0 1 1 -3.4472 0 1.7236 1.7236 0 1 1 3.4472 0z" fill="#fff" stroke-dasharray="0.06678774, 0.06678774" stroke-dashoffset="6.6788" stroke-linecap="round" stroke-linejoin="round" stroke-width=".66788"/>
  <path transform="matrix(.37282 0 0 .37282 342.94 339.41)" d="m572.4 546.38a1.7236 1.7236 0 1 1 -3.4472 0 1.7236 1.7236 0 1 1 3.4472 0z" fill="#fff" stroke-dasharray="0.06678774, 0.06678774" stroke-dashoffset="6.6788" stroke-linecap="round" stroke-linejoin="round" stroke-width=".66788"/>
  <path transform="matrix(.37282 0 0 .37282 342.98 338.13)" d="m572.4 546.38a1.7236 1.7236 0 1 1 -3.4472 0 1.7236 1.7236 0 1 1 3.4472 0z" fill="#fff" stroke-dasharray="0.06678774, 0.06678774" stroke-dashoffset="6.6788" stroke-linecap="round" stroke-linejoin="round" stroke-width=".66788"/>
 </g>
 <text transform="rotate(6.2086)" x="305.23544" y="347.07742" font-family="Cretino" font-size="55.078">
  <tspan x="305.23544" y="347.07742">Holy</tspan>
 </text>
 <text transform="rotate(6.2086)" x="463.66837" y="341.539" font-family="Cretino" font-size="55.078">
  <tspan x="463.66837" y="341.539">Bible</tspan>
 </text>
 <g transform="matrix(2.9408 0 0 2.7539 -723.29 -1853.6)" fill="none" stroke="#000">
  <path d="m323.57 818.64c0.25525-0.49844 0.25525-0.49844 0 0-1.1504 2.2465 3.1589-1.8692 4.7858-1.8692 1.2218 0 1.652 0.60929 2.2972 1.8692 0.30489 0.59541 3.3469-0.37383 4.0201-0.37383 1.0962 0 2.1156 0.53109 2.8715 1.1215 0.83261 0.65038 1.5888 1.0691 2.68 1.4953 0.80599 0.3148 2.2859-0.37383 3.2543-0.37383s0.14713 0.28729 0.38287 0.74767" stroke-width=".75664"/>
  <path d="m322.19 821.09c0.25525-0.49844 0.25525-0.49844 0 0-1.1504 2.2465 3.1589-1.8692 4.7858-1.8692 1.2218 0 1.652 0.60929 2.2972 1.8692 0.30489 0.59541 3.3469-0.37383 4.0201-0.37383 1.0962 0 2.1156 0.53109 2.8715 1.1215 0.83261 0.65038 1.5888 1.0691 2.68 1.4953 0.80599 0.3148 2.2859-0.37383 3.2543-0.37383s0.14713 0.28729 0.38287 0.74767" stroke-width=".757"/>
  <path d="m321.92431,823.11453 1.41286-.06167c.41834-.01826.95426-.57249 1.56636-.5992 .58623-.02559.84461-.08537 1.16337.30312 .37293.45451.41483.75489.93315,1.10941 .35295.2414 1.16775-.22113 1.40131-.32659 .42464-.19174.71352-.20809 1.22855-.23057 .3044-.01329.80188.73482 1.01374.92896 .34575.31681 1.0577.39619 1.52044.376 .52499-.02292.91906-.36232 1.3936-.50319 .56145-.16669.85939.00025 1.07892.39527 .29767.53557.78983.97806 1.30179,1.44721 .45496.4169.99377.35346 1.51273.19938 .57576-.17093.80346-.51425 1.30915-.41103 .17841.03642.78931.80806.92544.93281" stroke-width=".7"/>
  <path d="m317.95 826.64c0.25525-0.49844 0.25525-0.49844 0 0-1.1504 2.2465 3.1589-1.8692 4.7858-1.8692 1.2218 0 1.652 0.60929 2.2972 1.8692 0.30489 0.59541 3.3469-0.37383 4.0201-0.37383 1.0962 0 2.1156 0.53109 2.8715 1.1215 0.83261 0.65038 1.5888 1.0691 2.68 1.4953 0.80599 0.3148 2.2859-0.37383 3.2543-0.37383s0.14713 0.28729 0.38287 0.74767" stroke-width=".75664"/>
  <path d="m316.56 829.09c0.25525-0.49844 0.25525-0.49844 0 0-1.1504 2.2465 3.1589-1.8692 4.7858-1.8692 1.2218 0 1.652 0.60929 2.2972 1.8692 0.30489 0.59541 3.3469-0.37383 4.0201-0.37383 1.0962 0 2.1156 0.53109 2.8715 1.1215 0.83261 0.65038 1.5888 1.0691 2.68 1.4953 0.80599 0.3148 2.2859-0.37383 3.2543-0.37383s0.14713 0.28729 0.38287 0.74767" stroke-width=".757"/>
  <path d="m316.29931,831.11453 1.41286-.06167c.41834-.01826.95426-.57249 1.56636-.5992 .58623-.02559.84461-.08537 1.16337.30312 .37293.45451.41483.75489.93315,1.10941 .35295.2414 1.16775-.22113 1.40131-.32659 .42464-.19174.71352-.20809 1.22855-.23057 .3044-.01329.80188.73482 1.01374.92896 .34575.31681 1.0577.39619 1.52044.376 .52499-.02292.91906-.36232 1.3936-.50319 .56145-.16669.85939.00025 1.07892.39527 .29767.53557.78983.97806 1.30179,1.44721 .45496.4169.99377.35346 1.51273.19938 .57576-.17093.80346-.51425 1.30915-.41103 .17841.03642.78931.80806.92544.93281" stroke-width=".7"/>
  <path d="m311.95 834.64c0.25525-0.49844 0.25525-0.49844 0 0-1.1504 2.2465 3.1589-1.8692 4.7858-1.8692 1.2218 0 1.652 0.60929 2.2972 1.8692 0.30489 0.59541 3.3469-0.37383 4.0201-0.37383 1.0962 0 2.1156 0.53109 2.8715 1.1215 0.83261 0.65038 1.5888 1.0691 2.68 1.4953 0.80599 0.3148 2.2859-0.37383 3.2543-0.37383s0.14713 0.28729 0.38287 0.74767" stroke-width=".75664"/>
  <path d="m310.56 837.09c0.25525-0.49844 0.25525-0.49844 0 0-1.1504 2.2465 3.1589-1.8692 4.7858-1.8692 1.2218 0 1.652 0.60929 2.2972 1.8692 0.30489 0.59541 3.3469-0.37383 4.0201-0.37383 1.0962 0 2.1156 0.53109 2.8715 1.1215 0.83261 0.65038 1.5888 1.0691 2.68 1.4953 0.80599 0.3148 2.2859-0.37383 3.2543-0.37383s0.14713 0.28729 0.38287 0.74767" stroke-width=".757"/>
  <path d="m310.29931,839.11453 1.41286-.06167c.41834-.01826.95426-.57249 1.56636-.5992 .58623-.02559.84461-.08537 1.16337.30312 .37293.45451.41483.75489.93315,1.10941 .35295.2414 1.16775-.22113 1.40131-.32659 .42464-.19174.71352-.20809 1.22855-.23057 .3044-.01329.80188.73482 1.01374.92896 .34575.31681 1.0577.39619 1.52044.376 .52499-.02292.91906-.36232 1.3936-.50319 .56145-.16669.85939.00025 1.07892.39527 .29767.53557.78983.97806 1.30179,1.44721 .45496.4169.99377.35346 1.51273.19938 .57576-.17093.80346-.51425 1.30915-.41103 .17841.03642.78931.80806.92544.93281" stroke-width=".7"/>
  <path d="m305.82 842.64c0.25525-0.49844 0.25525-0.49844 0 0-1.1504 2.2465 3.1589-1.8692 4.7858-1.8692 1.2218 0 1.652 0.60929 2.2972 1.8692 0.30489 0.59541 3.3469-0.37383 4.0201-0.37383 1.0962 0 2.1156 0.53109 2.8715 1.1215 0.83261 0.65038 1.5888 1.0691 2.68 1.4953 0.80599 0.3148 2.2859-0.37383 3.2543-0.37383s0.14713 0.28729 0.38287 0.74767" stroke-width=".75664"/>
  <path d="m304.44 845.09c0.25525-0.49844 0.25525-0.49844 0 0-1.1504 2.2465 3.1589-1.8692 4.7858-1.8692 1.2218 0 1.652 0.60929 2.2972 1.8692 0.30489 0.59541 3.3469-0.37383 4.0201-0.37383 1.0962 0 2.1156 0.53109 2.8715 1.1215 0.83261 0.65038 1.5888 1.0691 2.68 1.4953 0.80599 0.3148 2.2859-0.37383 3.2543-0.37383s0.14713 0.28729 0.38287 0.74767" stroke-width=".757"/>
 </g>
 <g transform="matrix(2.9396 -.084331 .078973 2.7528 -708.06 -1819.5)" fill="none" stroke="#000">
  <path d="m323.57 818.64c0.25525-0.49844 0.25525-0.49844 0 0-1.1504 2.2465 3.1589-1.8692 4.7858-1.8692 1.2218 0 1.652 0.60929 2.2972 1.8692 0.30489 0.59541 3.3469-0.37383 4.0201-0.37383 1.0962 0 2.1156 0.53109 2.8715 1.1215 0.83261 0.65038 1.5888 1.0691 2.68 1.4953 0.80599 0.3148 2.2859-0.37383 3.2543-0.37383s0.14713 0.28729 0.38287 0.74767" stroke-width=".75664"/>
  <path d="m322.19 821.09c0.25525-0.49844 0.25525-0.49844 0 0-1.1504 2.2465 3.1589-1.8692 4.7858-1.8692 1.2218 0 1.652 0.60929 2.2972 1.8692 0.30489 0.59541 3.3469-0.37383 4.0201-0.37383 1.0962 0 2.1156 0.53109 2.8715 1.1215 0.83261 0.65038 1.5888 1.0691 2.68 1.4953 0.80599 0.3148 2.2859-0.37383 3.2543-0.37383s0.14713 0.28729 0.38287 0.74767" stroke-width=".757"/>
  <path d="m321.92431,823.11453 1.41286-.06167c.41834-.01826.95426-.57249 1.56636-.5992 .58623-.02559.84461-.08537 1.16337.30312 .37293.45451.41483.75489.93315,1.10941 .35295.2414 1.16775-.22113 1.40131-.32659 .42464-.19174.71352-.20809 1.22855-.23057 .3044-.01329.80188.73482 1.01374.92896 .34575.31681 1.0577.39619 1.52044.376 .52499-.02292.91906-.36232 1.3936-.50319 .56145-.16669.85939.00025 1.07892.39527 .29767.53557.78983.97806 1.30179,1.44721 .45496.4169.99377.35346 1.51273.19938 .57576-.17093.80346-.51425 1.30915-.41103 .17841.03642.78931.80806.92544.93281" stroke-width=".7"/>
  <path d="m317.95 826.64c0.25525-0.49844 0.25525-0.49844 0 0-1.1504 2.2465 3.1589-1.8692 4.7858-1.8692 1.2218 0 1.652 0.60929 2.2972 1.8692 0.30489 0.59541 3.3469-0.37383 4.0201-0.37383 1.0962 0 2.1156 0.53109 2.8715 1.1215 0.83261 0.65038 1.5888 1.0691 2.68 1.4953 0.80599 0.3148 2.2859-0.37383 3.2543-0.37383s0.14713 0.28729 0.38287 0.74767" stroke-width=".75664"/>
  <path d="m316.56 829.09c0.25525-0.49844 0.25525-0.49844 0 0-1.1504 2.2465 3.1589-1.8692 4.7858-1.8692 1.2218 0 1.652 0.60929 2.2972 1.8692 0.30489 0.59541 3.3469-0.37383 4.0201-0.37383 1.0962 0 2.1156 0.53109 2.8715 1.1215 0.83261 0.65038 1.5888 1.0691 2.68 1.4953 0.80599 0.3148 2.2859-0.37383 3.2543-0.37383s0.14713 0.28729 0.38287 0.74767" stroke-width=".757"/>
  <path d="m316.29931,831.11453 1.41286-.06167c.41834-.01826.95426-.57249 1.56636-.5992 .58623-.02559.84461-.08537 1.16337.30312 .37293.45451.41483.75489.93315,1.10941 .35295.2414 1.16775-.22113 1.40131-.32659 .42464-.19174.71352-.20809 1.22855-.23057 .3044-.01329.80188.73482 1.01374.92896 .34575.31681 1.0577.39619 1.52044.376 .52499-.02292.91906-.36232 1.3936-.50319 .56145-.16669.85939.00025 1.07892.39527 .29767.53557.78983.97806 1.30179,1.44721 .45496.4169.99377.35346 1.51273.19938 .57576-.17093.80346-.51425 1.30915-.41103 .17841.03642.78931.80806.92544.93281" stroke-width=".7"/>
  <path d="m311.95 834.64c0.25525-0.49844 0.25525-0.49844 0 0-1.1504 2.2465 3.1589-1.8692 4.7858-1.8692 1.2218 0 1.652 0.60929 2.2972 1.8692 0.30489 0.59541 3.3469-0.37383 4.0201-0.37383 1.0962 0 2.1156 0.53109 2.8715 1.1215 0.83261 0.65038 1.5888 1.0691 2.68 1.4953 0.80599 0.3148 2.2859-0.37383 3.2543-0.37383s0.14713 0.28729 0.38287 0.74767" stroke-width=".75664"/>
  <path d="m310.56 837.09c0.25525-0.49844 0.25525-0.49844 0 0-1.1504 2.2465 3.1589-1.8692 4.7858-1.8692 1.2218 0 1.652 0.60929 2.2972 1.8692 0.30489 0.59541 3.3469-0.37383 4.0201-0.37383 1.0962 0 2.1156 0.53109 2.8715 1.1215 0.83261 0.65038 1.5888 1.0691 2.68 1.4953 0.80599 0.3148 2.2859-0.37383 3.2543-0.37383s0.14713 0.28729 0.38287 0.74767" stroke-width=".757"/>
  <path d="m310.29931,839.11453 1.41286-.06167c.41834-.01826.95426-.57249 1.56636-.5992 .58623-.02559.84461-.08537 1.16337.30312 .37293.45451.41483.75489.93315,1.10941 .35295.2414 1.16775-.22113 1.40131-.32659 .42464-.19174.71352-.20809 1.22855-.23057 .3044-.01329.80188.73482 1.01374.92896 .34575.31681 1.0577.39619 1.52044.376 .52499-.02292.91906-.36232 1.3936-.50319 .56145-.16669.85939.00025 1.07892.39527 .29767.53557.78983.97806 1.30179,1.44721 .45496.4169.99377.35346 1.51273.19938 .57576-.17093.80346-.51425 1.30915-.41103 .17841.03642.78931.80806.92544.93281" stroke-width=".7"/>
  <path d="m305.82 842.64c0.25525-0.49844 0.25525-0.49844 0 0-1.1504 2.2465 3.1589-1.8692 4.7858-1.8692 1.2218 0 1.652 0.60929 2.2972 1.8692 0.30489 0.59541 3.3469-0.37383 4.0201-0.37383 1.0962 0 2.1156 0.53109 2.8715 1.1215 0.83261 0.65038 1.5888 1.0691 2.68 1.4953 0.80599 0.3148 2.2859-0.37383 3.2543-0.37383s0.14713 0.28729 0.38287 0.74767" stroke-width=".75664"/>
  <path d="m304.44 845.09c0.25525-0.49844 0.25525-0.49844 0 0-1.1504 2.2465 3.1589-1.8692 4.7858-1.8692 1.2218 0 1.652 0.60929 2.2972 1.8692 0.30489 0.59541 3.3469-0.37383 4.0201-0.37383 1.0962 0 2.1156 0.53109 2.8715 1.1215 0.83261 0.65038 1.5888 1.0691 2.68 1.4953 0.80599 0.3148 2.2859-0.37383 3.2543-0.37383s0.14713 0.28729 0.38287 0.74767" stroke-width=".757"/>
 </g>
 <g transform="matrix(2.9346 -.19109 .17894 2.7481 -689.92 -1773.3)" fill="none" stroke="#000">
  <path d="m323.57 818.64c0.25525-0.49844 0.25525-0.49844 0 0-1.1504 2.2465 3.1589-1.8692 4.7858-1.8692 1.2218 0 1.652 0.60929 2.2972 1.8692 0.30489 0.59541 3.3469-0.37383 4.0201-0.37383 1.0962 0 2.1156 0.53109 2.8715 1.1215 0.83261 0.65038 1.5888 1.0691 2.68 1.4953 0.80599 0.3148 2.2859-0.37383 3.2543-0.37383s0.14713 0.28729 0.38287 0.74767" stroke-width=".75664"/>
  <path d="m322.19 821.09c0.25525-0.49844 0.25525-0.49844 0 0-1.1504 2.2465 3.1589-1.8692 4.7858-1.8692 1.2218 0 1.652 0.60929 2.2972 1.8692 0.30489 0.59541 3.3469-0.37383 4.0201-0.37383 1.0962 0 2.1156 0.53109 2.8715 1.1215 0.83261 0.65038 1.5888 1.0691 2.68 1.4953 0.80599 0.3148 2.2859-0.37383 3.2543-0.37383s0.14713 0.28729 0.38287 0.74767" stroke-width=".757"/>
  <path d="m321.92431,823.11453 1.41286-.06167c.41834-.01826.95426-.57249 1.56636-.5992 .58623-.02559.84461-.08537 1.16337.30312 .37293.45451.41483.75489.93315,1.10941 .35295.2414 1.16775-.22113 1.40131-.32659 .42464-.19174.71352-.20809 1.22855-.23057 .3044-.01329.80188.73482 1.01374.92896 .34575.31681 1.0577.39619 1.52044.376 .52499-.02292.91906-.36232 1.3936-.50319 .56145-.16669.85939.00025 1.07892.39527 .29767.53557.78983.97806 1.30179,1.44721 .45496.4169.99377.35346 1.51273.19938 .57576-.17093.80346-.51425 1.30915-.41103 .17841.03642.78931.80806.92544.93281" stroke-width=".7"/>
  <path d="m317.95 826.64c0.25525-0.49844 0.25525-0.49844 0 0-1.1504 2.2465 3.1589-1.8692 4.7858-1.8692 1.2218 0 1.652 0.60929 2.2972 1.8692 0.30489 0.59541 3.3469-0.37383 4.0201-0.37383 1.0962 0 2.1156 0.53109 2.8715 1.1215 0.83261 0.65038 1.5888 1.0691 2.68 1.4953 0.80599 0.3148 2.2859-0.37383 3.2543-0.37383s0.14713 0.28729 0.38287 0.74767" stroke-width=".75664"/>
  <path d="m316.56 829.09c0.25525-0.49844 0.25525-0.49844 0 0-1.1504 2.2465 3.1589-1.8692 4.7858-1.8692 1.2218 0 1.652 0.60929 2.2972 1.8692 0.30489 0.59541 3.3469-0.37383 4.0201-0.37383 1.0962 0 2.1156 0.53109 2.8715 1.1215 0.83261 0.65038 1.5888 1.0691 2.68 1.4953 0.80599 0.3148 2.2859-0.37383 3.2543-0.37383s0.14713 0.28729 0.38287 0.74767" stroke-width=".757"/>
  <path d="m316.29931,831.11453 1.41286-.06167c.41834-.01826.95426-.57249 1.56636-.5992 .58623-.02559.84461-.08537 1.16337.30312 .37293.45451.41483.75489.93315,1.10941 .35295.2414 1.16775-.22113 1.40131-.32659 .42464-.19174.71352-.20809 1.22855-.23057 .3044-.01329.80188.73482 1.01374.92896 .34575.31681 1.0577.39619 1.52044.376 .52499-.02292.91906-.36232 1.3936-.50319 .56145-.16669.85939.00025 1.07892.39527 .29767.53557.78983.97806 1.30179,1.44721 .45496.4169.99377.35346 1.51273.19938 .57576-.17093.80346-.51425 1.30915-.41103 .17841.03642.78931.80806.92544.93281" stroke-width=".7"/>
  <path d="m311.95 834.64c0.25525-0.49844 0.25525-0.49844 0 0-1.1504 2.2465 3.1589-1.8692 4.7858-1.8692 1.2218 0 1.652 0.60929 2.2972 1.8692 0.30489 0.59541 3.3469-0.37383 4.0201-0.37383 1.0962 0 2.1156 0.53109 2.8715 1.1215 0.83261 0.65038 1.5888 1.0691 2.68 1.4953 0.80599 0.3148 2.2859-0.37383 3.2543-0.37383s0.14713 0.28729 0.38287 0.74767" stroke-width=".75664"/>
  <path d="m310.56 837.09c0.25525-0.49844 0.25525-0.49844 0 0-1.1504 2.2465 3.1589-1.8692 4.7858-1.8692 1.2218 0 1.652 0.60929 2.2972 1.8692 0.30489 0.59541 3.3469-0.37383 4.0201-0.37383 1.0962 0 2.1156 0.53109 2.8715 1.1215 0.83261 0.65038 1.5888 1.0691 2.68 1.4953 0.80599 0.3148 2.2859-0.37383 3.2543-0.37383s0.14713 0.28729 0.38287 0.74767" stroke-width=".757"/>
  <path d="m310.29931,839.11453 1.41286-.06167c.41834-.01826.95426-.57249 1.56636-.5992 .58623-.02559.84461-.08537 1.16337.30312 .37293.45451.41483.75489.93315,1.10941 .35295.2414 1.16775-.22113 1.40131-.32659 .42464-.19174.71352-.20809 1.22855-.23057 .3044-.01329.80188.73482 1.01374.92896 .34575.31681 1.0577.39619 1.52044.376 .52499-.02292.91906-.36232 1.3936-.50319 .56145-.16669.85939.00025 1.07892.39527 .29767.53557.78983.97806 1.30179,1.44721 .45496.4169.99377.35346 1.51273.19938 .57576-.17093.80346-.51425 1.30915-.41103 .17841.03642.78931.80806.92544.93281" stroke-width=".7"/>
  <path d="m305.82 842.64c0.25525-0.49844 0.25525-0.49844 0 0-1.1504 2.2465 3.1589-1.8692 4.7858-1.8692 1.2218 0 1.652 0.60929 2.2972 1.8692 0.30489 0.59541 3.3469-0.37383 4.0201-0.37383 1.0962 0 2.1156 0.53109 2.8715 1.1215 0.83261 0.65038 1.5888 1.0691 2.68 1.4953 0.80599 0.3148 2.2859-0.37383 3.2543-0.37383s0.14713 0.28729 0.38287 0.74767" stroke-width=".75664"/>
  <path d="m304.44 845.09c0.25525-0.49844 0.25525-0.49844 0 0-1.1504 2.2465 3.1589-1.8692 4.7858-1.8692 1.2218 0 1.652 0.60929 2.2972 1.8692 0.30489 0.59541 3.3469-0.37383 4.0201-0.37383 1.0962 0 2.1156 0.53109 2.8715 1.1215 0.83261 0.65038 1.5888 1.0691 2.68 1.4953 0.80599 0.3148 2.2859-0.37383 3.2543-0.37383s0.14713 0.28729 0.38287 0.74767" stroke-width=".757"/>
 </g>
 <g transform="matrix(2.9279 -.27516 .25768 2.7418 -678.01 -1734.7)" fill="none" stroke="#000">
  <path d="m323.57 818.64c0.25525-0.49844 0.25525-0.49844 0 0-1.1504 2.2465 3.1589-1.8692 4.7858-1.8692 1.2218 0 1.652 0.60929 2.2972 1.8692 0.30489 0.59541 3.3469-0.37383 4.0201-0.37383 1.0962 0 2.1156 0.53109 2.8715 1.1215 0.83261 0.65038 1.5888 1.0691 2.68 1.4953 0.80599 0.3148 2.2859-0.37383 3.2543-0.37383s0.14713 0.28729 0.38287 0.74767" stroke-width=".75664"/>
  <path d="m322.19 821.09c0.25525-0.49844 0.25525-0.49844 0 0-1.1504 2.2465 3.1589-1.8692 4.7858-1.8692 1.2218 0 1.652 0.60929 2.2972 1.8692 0.30489 0.59541 3.3469-0.37383 4.0201-0.37383 1.0962 0 2.1156 0.53109 2.8715 1.1215 0.83261 0.65038 1.5888 1.0691 2.68 1.4953 0.80599 0.3148 2.2859-0.37383 3.2543-0.37383s0.14713 0.28729 0.38287 0.74767" stroke-width=".757"/>
  <path d="m321.92431,823.11453 1.41286-.06167c.41834-.01826.95426-.57249 1.56636-.5992 .58623-.02559.84461-.08537 1.16337.30312 .37293.45451.41483.75489.93315,1.10941 .35295.2414 1.16775-.22113 1.40131-.32659 .42464-.19174.71352-.20809 1.22855-.23057 .3044-.01329.80188.73482 1.01374.92896 .34575.31681 1.0577.39619 1.52044.376 .52499-.02292.91906-.36232 1.3936-.50319 .56145-.16669.85939.00025 1.07892.39527 .29767.53557.78983.97806 1.30179,1.44721 .45496.4169.99377.35346 1.51273.19938 .57576-.17093.80346-.51425 1.30915-.41103 .17841.03642.78931.80806.92544.93281" stroke-width=".7"/>
  <path d="m317.95 826.64c0.25525-0.49844 0.25525-0.49844 0 0-1.1504 2.2465 3.1589-1.8692 4.7858-1.8692 1.2218 0 1.652 0.60929 2.2972 1.8692 0.30489 0.59541 3.3469-0.37383 4.0201-0.37383 1.0962 0 2.1156 0.53109 2.8715 1.1215 0.83261 0.65038 1.5888 1.0691 2.68 1.4953 0.80599 0.3148 2.2859-0.37383 3.2543-0.37383s0.14713 0.28729 0.38287 0.74767" stroke-width=".75664"/>
  <path d="m316.56 829.09c0.25525-0.49844 0.25525-0.49844 0 0-1.1504 2.2465 3.1589-1.8692 4.7858-1.8692 1.2218 0 1.652 0.60929 2.2972 1.8692 0.30489 0.59541 3.3469-0.37383 4.0201-0.37383 1.0962 0 2.1156 0.53109 2.8715 1.1215 0.83261 0.65038 1.5888 1.0691 2.68 1.4953 0.80599 0.3148 2.2859-0.37383 3.2543-0.37383s0.14713 0.28729 0.38287 0.74767" stroke-width=".757"/>
  <path d="m316.29931,831.11453 1.41286-.06167c.41834-.01826.95426-.57249 1.56636-.5992 .58623-.02559.84461-.08537 1.16337.30312 .37293.45451.41483.75489.93315,1.10941 .35295.2414 1.16775-.22113 1.40131-.32659 .42464-.19174.71352-.20809 1.22855-.23057 .3044-.01329.80188.73482 1.01374.92896 .34575.31681 1.0577.39619 1.52044.376 .52499-.02292.91906-.36232 1.3936-.50319 .56145-.16669.85939.00025 1.07892.39527 .29767.53557.78983.97806 1.30179,1.44721 .45496.4169.99377.35346 1.51273.19938 .57576-.17093.80346-.51425 1.30915-.41103 .17841.03642.78931.80806.92544.93281" stroke-width=".7"/>
  <path d="m311.95 834.64c0.25525-0.49844 0.25525-0.49844 0 0-1.1504 2.2465 3.1589-1.8692 4.7858-1.8692 1.2218 0 1.652 0.60929 2.2972 1.8692 0.30489 0.59541 3.3469-0.37383 4.0201-0.37383 1.0962 0 2.1156 0.53109 2.8715 1.1215 0.83261 0.65038 1.5888 1.0691 2.68 1.4953 0.80599 0.3148 2.2859-0.37383 3.2543-0.37383s0.14713 0.28729 0.38287 0.74767" stroke-width=".75664"/>
  <path d="m310.56 837.09c0.25525-0.49844 0.25525-0.49844 0 0-1.1504 2.2465 3.1589-1.8692 4.7858-1.8692 1.2218 0 1.652 0.60929 2.2972 1.8692 0.30489 0.59541 3.3469-0.37383 4.0201-0.37383 1.0962 0 2.1156 0.53109 2.8715 1.1215 0.83261 0.65038 1.5888 1.0691 2.68 1.4953 0.80599 0.3148 2.2859-0.37383 3.2543-0.37383s0.14713 0.28729 0.38287 0.74767" stroke-width=".757"/>
  <path d="m310.29931,839.11453 1.41286-.06167c.41834-.01826.95426-.57249 1.56636-.5992 .58623-.02559.84461-.08537 1.16337.30312 .37293.45451.41483.75489.93315,1.10941 .35295.2414 1.16775-.22113 1.40131-.32659 .42464-.19174.71352-.20809 1.22855-.23057 .3044-.01329.80188.73482 1.01374.92896 .34575.31681 1.0577.39619 1.52044.376 .52499-.02292.91906-.36232 1.3936-.50319 .56145-.16669.85939.00025 1.07892.39527 .29767.53557.78983.97806 1.30179,1.44721 .45496.4169.99377.35346 1.51273.19938 .57576-.17093.80346-.51425 1.30915-.41103 .17841.03642.78931.80806.92544.93281" stroke-width=".7"/>
  <path d="m305.82 842.64c0.25525-0.49844 0.25525-0.49844 0 0-1.1504 2.2465 3.1589-1.8692 4.7858-1.8692 1.2218 0 1.652 0.60929 2.2972 1.8692 0.30489 0.59541 3.3469-0.37383 4.0201-0.37383 1.0962 0 2.1156 0.53109 2.8715 1.1215 0.83261 0.65038 1.5888 1.0691 2.68 1.4953 0.80599 0.3148 2.2859-0.37383 3.2543-0.37383s0.14713 0.28729 0.38287 0.74767" stroke-width=".75664"/>
  <path d="m304.44 845.09c0.25525-0.49844 0.25525-0.49844 0 0-1.1504 2.2465 3.1589-1.8692 4.7858-1.8692 1.2218 0 1.652 0.60929 2.2972 1.8692 0.30489 0.59541 3.3469-0.37383 4.0201-0.37383 1.0962 0 2.1156 0.53109 2.8715 1.1215 0.83261 0.65038 1.5888 1.0691 2.68 1.4953 0.80599 0.3148 2.2859-0.37383 3.2543-0.37383s0.14713 0.28729 0.38287 0.74767" stroke-width=".757"/>
 </g>
</svg>
