<?xml version="1.0" encoding="UTF-8"?>
<svg viewBox="0 0 1970 1760" xmlns="http://www.w3.org/2000/svg">
 <g transform="matrix(2.3428 0 0 2.3428 765.59 -99.585)">
  <path d="m85.003 47.958v72.406h-92.25v53.344h92.25v263h53.375v-263h92.25v-53.344h-92.25v-72.406h-53.375z" display="block" fill="#a3673b" stroke="#000" stroke-linecap="round" stroke-linejoin="round" stroke-width="2.61"/>
  <g transform="matrix(.95908 -.28314 .28314 .95908 -71.164 -259.82)" fill-rule="evenodd">
   <path d="m-349.44 689.39c25.714-83.66 71.171-61.842 99.695-49.204 68.542 20.26 118.25 119 131.31 103.11 46.379-56.405 183.92-97.678 204.26-113.62 20.043-15.712 12.972-4.6738 10.287 2.9238 2.5353-6.7564 1.0971-5.2957 3.4761-12.006 6.474-5.3056 10.644-23.559 16.182-32.148 3.8855-6.025 21.624-24.628 27.669-28.921 7.3645-5.23 11.814-7.4742 17.774-8.9139 12.257 1.7712-9.2656 26.294-15.605 30.796-9.476 15.515-0.37384 29.488-10.418 44.972 12.98-22.706-1.5987-31.914 11.239-45.223 40.237-18.466 54.237-46.222 66.197-40.03 8.9084 6.6099-16.496 30.276-45.096 47.976 19.459-9.7416 54.426-49.999 60.366-39.659 7.5311 14.319-36.902 43.428-51.364 54.376 22.404-12.006 44.297-38.339 49.696-40.708 33.53 0.92071-46.875 55.021-47.375 57.564s45.663-37.721 50.315-39.138c23.603-7.1891-17.237 41.167-43.227 53.932-7.4769 3.6723-42.763 34.709-57.509 31.37-11.325-2.565 1.3669 5.8137-15.17-20.958 6.2548 11.7 11.546 18.727 9.4706 20.212-4.435 3.1748-6.6282 6.9821-10.128 9.7009-106.33 82.6-118.81 150.59-188.94 169.15-25.311 6.7006-8.2623 24.253-31.975 17.23-11.856-3.5116-29.84-20.684-126.04-48.799-56.178-26.21-114.34-61.457-115.09-123.99z" fill="#ffd8a6" stroke="#000" stroke-width="1.25"/>
   <path d="m100.73 657.03c-26.217 30.157-56.355 56.847-92.967 73.496-36.654 19.928-76.98 32.923-111.55 56.681-28.763 33.887 8.1106 57.956 45.411 38.584 52.548-27.29 78.732-62.639 101.68-100.11 13.692-27.163 50.849-38.752 57.419-68.652z" fill="#f1cf9d"/>
   <path d="m-280.39 634.16c-33.957-14.605-65.654 34.683-61.993 67.165-0.46091 40.988 32.016 29.468 88.686 57.899 15.515 7.7837 131.32 91.526 140.59 88.394-10.011-23.586-85.375-87.11-104-138.4-10.893-29.993 6.8699-45.296-63.279-75.057z" fill="#f1cf9d"/>
   <path d="m-131.75 786.61c14.864-26.589-45.607-85.435-77.128-85.23 4.1334-20.323 119.68 46.427 77.128 85.23z" fill="#f1cf9d"/>
   <path d="m141.31 627.66c3.5317-4.4953 5.6278-9.8952 8.8991-14.561 4.5626 0.00997 9.0475-0.92802 13.536-1.6262-1.8817 3.461-3.1595 7.4836-6.3476 10.022-2.069 1.6343-13.498 4.2335-16.088 6.1655z" fill="#b30000" stroke="#e20000" stroke-opacity=".50307" stroke-width="1.25"/>
   <path d="m51.204 648.12c-5.8218 69.943-18.357 143.62 8.629 210.91-22.802 58.327-97.238 19.381-140.04 46.114-63.255 44.949-131.66 22.577-193.45-8.9908-75.217-6.2297-102.82-84.249-85.182-148.96 15.886-47.166-3.22-118.79 48.793-126.13 85.761 0.82361 136.96 58.759 184.59 112.46 40.929-19.503 104.46-63.009 176.66-85.388z" fill="#543228" stroke="#000" stroke-width="1.25"/>
   <path d="m74.111 708.2c15.294 29.139 6.8796 57.018-14.397 151.21-18.382-43.268-15.559-98.182-16.569-120.85 9.387-9.9802 19.388-18.649 30.967-30.355z" fill="#2b1512" stroke="#000" stroke-width="1.25"/>
   <path d="m24.773 663.62c-14.454 45.81-16.993 95.098-36.27 139.35-12.697 26.525-92.077 91.874-112.79 112.59 84.555-45.347 162.2-8.8314 147.1-70.711-10.47-42.904-1.3399-165.67 1.9601-181.23z" fill="#351c1c" fill-opacity=".38037"/>
   <path d="m-127.68 745.56c1.0867 32.971-22.358 58.611-39.145 84.477-16.556 24.308-3.3684 45.74 27.221 63.655 29.013-44.066 42.899-28.691 34.444-63.514-6.3077-23.299-19.755-80.023-22.52-84.618z" fill="#482a24"/>
   <path d="m-302.99 659.81c37.213 44.687 45.943 106.63 37.695 162.72-3.146 22.829 26.52 43.185 25.057 59.296-20.348 0.47446-35.545-18.869-42.511-36.122 1.0884-15.401-21.836-38.74-24.128-11.952-16.271 25.297-30.636-11.344-20.993-26.576 9.4622-34.909 26.395-69.331 22.06-106.54-0.21955-13.663 1.077-27.298 2.8202-40.834z" fill="#482a24"/>
   <path d="m-78.13 800.82c5.5995-13.371 5.1216-61.786 10.744-69.822 33.299-48.964 57.325-39.884 38.408-11.196-21.122 32.032-34.8 74.247-49.152 81.018z" fill="#482a24"/>
   <path d="m-249.64 673.15c-26.715 22.868 47.773 41.312 51.577 180.99-0.04658-27.044 1.2711-101.7 20.18-125.71 17.844-37.558-36.249-85.67-71.757-55.275z" fill="#482a24"/>
  </g>
  <g transform="matrix(.95145 .30779 -.30779 .95145 18.892 -6.8323)" fill-rule="evenodd">
   <path d="m564.87 377.36c-25.714-83.66-71.171-61.842-99.695-49.204-68.542 20.26-118.25 119-131.31 103.11-46.379-56.405-183.92-97.678-204.26-113.62-20.043-15.712-12.972-4.6738-10.287 2.9238-2.5353-6.7564-1.0971-5.2957-3.4761-12.006-6.474-5.3056-10.644-23.559-16.182-32.148-3.8855-6.025-21.624-24.628-27.669-28.921-7.3645-5.23-11.814-7.4742-17.774-8.9139-12.257 1.7712 9.2656 26.294 15.605 30.796 9.476 15.515 0.37384 29.488 10.418 44.972-12.98-22.706 1.5987-31.914-11.239-45.223-40.237-18.466-54.237-46.222-66.197-40.03-8.9084 6.6099 16.496 30.276 45.096 47.976-19.459-9.7416-54.426-49.999-60.366-39.659-7.5311 14.319 36.902 43.428 51.364 54.376-22.404-12.006-44.297-38.339-49.696-40.708-33.53 0.92071 46.875 55.021 47.375 57.564s-45.663-37.721-50.315-39.138c-23.603-7.1891 17.237 41.167 43.227 53.932 7.4769 3.6723 42.763 34.709 57.509 31.37 11.325-2.565-1.3669 5.8137 15.17-20.958-6.2548 11.7-11.546 18.727-9.4706 20.212 4.435 3.1748 6.6282 6.9821 10.128 9.7009 106.33 82.6 118.81 150.59 188.94 169.15 25.311 6.7006 8.2623 24.253 31.975 17.23 11.856-3.5116 29.84-20.684 126.04-48.799 56.178-26.21 114.34-61.457 115.09-123.99z" fill="#ffd8a6" stroke="#000" stroke-width="1.25"/>
   <path d="m114.7 345c26.217 30.157 56.355 56.847 92.966 73.496 36.654 19.928 76.98 32.923 111.55 56.681 28.763 33.887-8.1106 57.956-45.411 38.584-52.548-27.29-78.732-62.639-101.68-100.11-13.692-27.163-50.849-38.752-57.419-68.652z" fill="#f1cf9d"/>
   <path d="m495.82 322.13c33.957-14.605 65.654 34.683 61.993 67.165 0.46091 40.988-32.016 29.468-88.686 57.899-15.515 7.7837-131.32 91.526-140.59 88.394 10.011-23.586 85.375-87.11 104-138.4 10.893-29.993-6.8699-45.296 63.279-75.057z" fill="#f1cf9d"/>
   <path d="m347.18 474.58c-14.864-26.589 45.607-85.435 77.128-85.23-4.1334-20.323-119.68 46.427-77.128 85.23z" fill="#f1cf9d"/>
   <path d="m74.117 315.63c-3.5317-4.4953-5.6278-9.8952-8.8991-14.561-4.5626 0.00997-9.0475-0.92802-13.536-1.6262 1.8817 3.461 3.1595 7.4836 6.3476 10.022 2.069 1.6343 13.498 4.2335 16.088 6.1655z" fill="#b30000" stroke="#e20000" stroke-opacity=".50307" stroke-width="1.25"/>
  </g>
  <path d="m-274.49 403.77c103.24-50.546 127.57 13.586 123.85 77.941 45.206-11.91 59.037 25.223 69.858 63.101 99.045-59.727 252.49 8.0146 273.31 65.874 54.168-70.273 51.553-105.58 173.87-24.132-72.813-76.731 11.001-245.94 124.87-129.92 45.06 80.28 8.6437 283.75-138.09 315.6-172.07 37.353-357.2 8.7671-517.56-10.361-151.76-18.102-196.02-315.95-110.1-358.1z" fill="#d8f5df" fill-rule="evenodd" stroke="#83d8fe" stroke-width="1.25"/>
  <path d="m-106.71 598.83c37.945-47.822 97.111-58.187 150.4-34.102 37.737-0.85343 82.295 80.012 23.843 71.183-97.926-102.15-214.09-15.08-212.95 31.861-46.262-49.454 10.127-87.69 38.707-68.943z" fill="#c2f5ee" fill-rule="evenodd"/>
  <path d="m321.94 617.63c-67.436 23.639-98.146 24.093-118.43 125.74-45.735-68.602 39.444-168.17 118.43-125.74z" fill="#c2f5ee" fill-rule="evenodd"/>
  <path d="m479.66 586.32c-4.2294-71.334 3.7596-100.99-88.42-148.38 78.518-25.157 150.89 84.071 88.42 148.38z" fill="#c2f5ee" fill-rule="evenodd"/>
  <path d="m142.04 785.98c-32.202-63.792-36.644-94.182-140.06-101.08 62.077-54.262 171.87 17.255 140.06 101.08z" fill="#c2f5ee" fill-rule="evenodd"/>
  <path d="m-170.66 403.84c-67.436 23.639-98.146 24.093-118.43 125.74-45.735-68.602 39.444-168.17 118.43-125.74z" fill="#c2f5ee" fill-rule="evenodd"/>
  <path d="m-93.961 607.72c-41.436-58.219-50.4-87.595-153.68-78.855 53.204-62.986 172.51-8.8062 153.68 78.855z" fill="#c2f5ee" fill-rule="evenodd"/>
  <path d="m476.19 675.25c-66.176-26.965-89.482-46.969-172.01 15.737 11.186-81.687 140.95-99.844 172.01-15.737z" fill="#c2f5ee" fill-rule="evenodd"/>
  <path d="m-99.15 744.59c-35.27-62.148-41.186-92.286-144.82-94.146 59.361-57.22 172.5 8.8669 144.82 94.146z" fill="#c2f5ee" fill-rule="evenodd"/>
 </g>
</svg>
