<?xml version="1.0" encoding="UTF-8"?>
<svg viewBox="0 0 320 320" xmlns="http://www.w3.org/2000/svg" xmlns:xlink="http://www.w3.org/1999/xlink">
 <defs>
  <linearGradient id="a">
   <stop stop-opacity="0" offset="0"/>
   <stop stop-opacity=".0409" offset=".5365"/>
   <stop offset="1"/>
  </linearGradient>
  <linearGradient id="b">
   <stop stop-color="#51504c" offset="0"/>
   <stop stop-color="#d6d3c4" offset="1"/>
  </linearGradient>
  <linearGradient id="c">
   <stop stop-color="#7c7a75" offset="0"/>
   <stop stop-color="#e2dfd5" offset="1"/>
  </linearGradient>
  <linearGradient id="q" x1="119.79" x2="113.57" gradientUnits="userSpaceOnUse">
   <stop stop-color="#51504d" offset="0"/>
   <stop stop-color="#1f1f1d" offset="1"/>
  </linearGradient>
  <linearGradient id="n" x1="153.22" x2="135.58" y1="41.938" y2="231.27" gradientUnits="userSpaceOnUse">
   <stop stop-color="#6b6965" offset="0"/>
   <stop stop-color="#8a8274" offset=".5"/>
   <stop stop-color="#31302e" offset="1"/>
  </linearGradient>
  <linearGradient id="m" x1="149.5" x2="146.87" y1="42.946" y2="41.071" gradientUnits="userSpaceOnUse">
   <stop stop-color="#4f4e4a" offset="0"/>
   <stop stop-color="#e2dfd5" offset="1"/>
  </linearGradient>
  <linearGradient id="l" x1="43.043" x2="175.51" y1="85.213" y2="176.43" gradientUnits="userSpaceOnUse">
   <stop stop-color="#cacaca" offset="0"/>
   <stop stop-color="#7b7b7b" offset="1"/>
  </linearGradient>
  <linearGradient id="s" x1="119.37" x2="109.21" y1="258.73" y2="280.89" gradientUnits="userSpaceOnUse" xlink:href="#c"/>
  <linearGradient id="r" x1="55.263" x2="139.86" y1="280.67" y2="294.85" gradientUnits="userSpaceOnUse" xlink:href="#c"/>
  <linearGradient id="p" x1="125.65" x2="152.47" y1="235.68" y2="38.542" gradientUnits="userSpaceOnUse" xlink:href="#b"/>
  <linearGradient id="o" x1="104.72" x2="152.03" y1="221.71" y2="42.048" gradientUnits="userSpaceOnUse" xlink:href="#b"/>
  <radialGradient id="j" cx="115.73" cy="218.31" r="68.382" fx="111.1" fy="196.08" gradientTransform="matrix(.66751 .23966 -.10267 .28596 66.311 160.54)" gradientUnits="userSpaceOnUse">
   <stop stop-opacity=".7143" offset="0"/>
   <stop stop-opacity="0" offset="1"/>
  </radialGradient>
  <radialGradient id="i" cx="115.5" cy="283.5" r="69.833" gradientTransform="matrix(1 0 0 .31742 0 193.51)" gradientUnits="userSpaceOnUse">
   <stop offset="0"/>
   <stop offset=".7969"/>
   <stop stop-opacity="0" offset="1"/>
  </radialGradient>
  <radialGradient id="h" cx="203.62" cy="123.93" r="33.771" gradientTransform="matrix(.82341 -.56744 2.7639 4.0107 -303.74 -267.45)" gradientUnits="userSpaceOnUse">
   <stop stop-color="#ccc9c0" offset="0"/>
   <stop stop-color="#a8a598" offset="1"/>
  </radialGradient>
  <radialGradient id="f" cx="149.92" cy="151.3" r="60.915" gradientUnits="userSpaceOnUse">
   <stop stop-color="#295a85" offset="0"/>
   <stop stop-color="#1c3850" offset="1"/>
  </radialGradient>
  <radialGradient id="k" cx="79.726" cy="97.085" r="46.846" gradientTransform="matrix(1 0 0 .68302 0 30.774)" gradientUnits="userSpaceOnUse">
   <stop stop-color="#fff" stop-opacity=".4052" offset="0"/>
   <stop stop-color="#fff" stop-opacity=".1264" offset=".5"/>
   <stop stop-color="#fff" stop-opacity="0" offset="1"/>
  </radialGradient>
  <radialGradient id="g" cx="167.83" cy="265.72" r="142.48" gradientTransform="matrix(1.2928 .11153 -.01397 .22172 -46.736 190.57)" gradientUnits="userSpaceOnUse">
   <stop stop-opacity=".2259" offset="0"/>
   <stop stop-opacity="0" offset="1"/>
  </radialGradient>
  <radialGradient id="e" cx="125.49" cy="140.57" r="53.819" gradientTransform="matrix(1.5806 .06137 -.13976 3.5994 -54.824 -363.18)" gradientUnits="userSpaceOnUse" xlink:href="#a"/>
  <radialGradient id="d" cx="130.4" cy="139.73" r="53.819" gradientTransform="matrix(-.55289 1.3759 -3.3424 -1.3431 636.5 152.07)" gradientUnits="userSpaceOnUse" xlink:href="#a"/>
 </defs>
 <path transform="matrix(1.0593 .02708 -.02694 1.0522 1.7851 -29.259)" d="m185.33 283.5a69.833 22.167 0 1 1 -139.67 0 69.833 22.167 0 1 1 139.67 0z" fill="url(#i)"/>
 <path transform="matrix(1 .09297 0 .93666 -5.6569 9.463)" d="m350.72 270.86a142.48 36.416 0 1 1 -284.96 0 142.48 36.416 0 1 1 284.96 0z" fill="url(#g)"/>
 <path transform="matrix(.99236 0 0 1 .62283 -3.2143)" d="m219.29 128.39a99.107 99.107 0 1 1 -198.21 0 99.107 99.107 0 1 1 198.21 0z" fill="url(#f)" stroke="#000" stroke-linecap="round" stroke-linejoin="round" stroke-width=".20077"/>
 <path d="m51.518 196.26c3.2315-0.13553 4.9935 3.1507 6.9233 5.212 1.9356 1.2792 3.7115 2.7622 5.5852 4.0194 3.2201 0.66539 5.9063 2.7262 8.9876 3.8145 1.9372 0.2966 1.5951 3.5602 3.6315 1.9801 1.494 2.2676 4.0928 0.058 5.993 2.16 2.4685 1.3729 4.8871 2.9514 7.6764 3.5586 6.5336 2.4497 13.119 5.0415 20.118 5.7606 4.0902 0.58513 8.1927 1.0817 12.3 1.5265-13.577 1.2303-27.38-1.432-39.882-6.7457-11.095-4.8824-21.462-11.572-30.216-19.977-0.36868-0.42955-0.86496-0.79272-1.1185-1.309z" fill="#dcdbdd" fill-rule="evenodd" stroke="#000" stroke-width=".5"/>
 <path d="m149.91071,211.96429c-.61118-.003-1.18522-.28054-1.79048-.30173-.50395.0774-.88842.46633-1.37727.59991-.4373.1219-.8683.26293-1.23642.53984-.44543.22787-.95543.28801-1.42846.44496-.7922.20486-1.61064.32435-2.36665.65264-.7344.23395-1.49912.34906-2.24985.51197-.57945.21832-1.11927.53343-1.67327.80817 .0442.2956.70507.1743.99121.22594 .91786-.0162 1.83901.0382 2.75452-.0348 .71875-.10258 1.4196-.30948 2.11246-.52001 .66574-.27546 1.21627-.807 1.94931-.92162 .76064-.12705 1.46889-.4392 2.15146-.78612 .59653-.2492 1.40149-.0303 1.8364-.61082 .14399-.18167.24115-.39461.32704-.60836z" fill="#475422" fill-rule="evenodd" stroke="#000" stroke-width=".5"/>
 <path d="m157.94643,209.375c-.0946.39423-.6152.13415-.88623.0959-.57038-.1854-1.17229-.0514-1.74452.0511-.34603.10489-.54827-.30849-.78274-.49816-.2847-.27386-.52382-.61417-.87223-.80952-.36202-.0753-.62637-.47233-1.02643-.36726-.40218.13549-.0275.6191.119.83641 .16435.24648.45851.42973.46761.75538 .0208.31518-.0201.64903-.14741.93758-.23729.23118-.60673.12866-.90397.18464-.38348.0175-.60017.38088-.77508.67542-.0524.19757-.37676.60485-.11103.69046 .54626.0522 1.0998.0555 1.64698.019 .60117-.0903 1.08701-.48391 1.61502-.753 .59478-.37825 1.15822-.86684 1.87701-.98237 .41532-.0891.83481-.15493 1.2555-.2078 .27749-.0657.26071-.40656.26852-.62779z" fill="#475422" fill-rule="evenodd" stroke="#000" stroke-width=".5"/>
 <path d="m112.05357,208.48215c.59738-.0513 1.20789.0352 1.79378-.12487 .38837-.0499.8085-.0586 1.16735.11793 .25384.20555.14377.58325.0595.84535-.19931.2813-.5837.29116-.8966.31957-.46916-.006-.89727.20085-1.32578.36359-.4723.1992-.99568.13528-1.48703.0585-.22567-.0284-.44354-.10296-.60451-.27082-.23637-.21902-.45195-.46114-.6629-.70382-.23266-.3336-.33699-.74372-.38105-1.14192 .0629-.28452.41956-.2747.65037-.26959 .38588-.011.83727-.004 1.10578.32073 .1813.17587.37451.33983.58112.48531z" fill="#475422" fill-rule="evenodd" stroke="#000" stroke-width=".5"/>
 <path d="m127.5 201.79c-1.2063 1.4657-3.1761 2.7712-5.2473 3.1457-1.772 0.94558-3.4666 3.2782-5.7009 2.0549-1.8278-0.97322-4.223 0.36149-5.6978-1.2694-2.7009 1.1511-4.6007-1.6118-6.7469-2.5919-0.69424-2.4301-2.4246-4.3577-5.0893-3.4821-2.192 0.66877-0.37562-2.4225-2.5214-2.4758-0.8769-2.3502-4.1493-1.365-5.9197-2.93-2.2291-0.79707-4.5703-1.3725-6.8619-1.9925-2.5416 0.16895-4.6586-0.70968-6.7186-2.0233-2.506-0.35479-4.6215-1.1658-6.7173-2.4835-2.3688-0.85615 1.0098-2.6182-1.0531-3.8677-1.1142-2.1146-0.30343-4.5934-0.87417-6.8294 1.3885-1.4368 4.246-0.26591 5.9341 0.45942 2.369 0.50135 4.7752 1.1646 7.2098 1.1607 0.68314-0.30126 2.2444-2.2886 2.5802-0.20388 2.3752 0.25997 4.9573-1.62 7.2639 0.11645 0.63888 2.0734 2.8784 2.8456 4.4068 1.1239 1.3476-0.61002 3.5311 0.70664 4.3323 0.0281 0.99171-1.1538 2.6648 2.6525 4.5575 2.015 2.3952 0.12692 0.30316 1.2986-0.40577 2.0606 0.33702 2.3476 3.2469 2.8966 4.7874 4.3242 1.9364 1.5847 4.2272 0.22815 4.9549-1.7924 0.69739-1.6206 3.8435-3.8163 3.1701-0.4621-0.38783 1.7394 1.0832 2.3559 2.4208 1.7886 0.30676 2.0607-0.75809 5.0426 2.1249 5.5849 1.4059 1.2909 2.0293 2.9582 3.7994 3.4157-0.2238 1.7959 3.0703 2.7413 2.012 5.126z" fill="#475422" fill-rule="evenodd" stroke="#000" stroke-width=".5"/>
 <path d="m129.38 186.61c-0.8317-0.97458-1.7136-1.9149-2.8064-2.6-0.8664-0.43439-1.3183-1.4997-0.10725-1.7376 0.0354-1.4415-1.8584-0.99884-2.5956-1.7965-1.0733-0.70846-1.8608-1.731-2.9262-2.4277-1.5818-0.73555-3.3291-1.129-4.7782-2.1464-1.2336-0.5301-2.3052-1.3422-3.4524-1.9791-1.2667-0.24379-2.6065-0.24286-3.8718 0.0124-1.3524 0.53798-2.6018-0.1352-2.9148-1.5367-0.6689-1.1405-2.0312-1.8572-3.3072-1.9429-0.5031 0.87478 0.24109 2.3198 0.78212 3.1432 1.163 0.64596 2.5283 0.8717 3.7627 1.3759 1.3536 1.1594 3.1548 1.6973 4.3756 3.0265 0.44306 1.3175-1.4395 1.6013-1.7966 1.8225 0.854 1.2043 2.5613 0.29307 3.7266 0.71276 0.8124 0.78557 1.4226 1.862 2.6353 2.1042 1.1475 0.43295 2.3592 2e-3 3.3287-0.61091 1.3456-0.68957 2.9452-0.4949 3.7469 0.87829 1.1246 0.98787 2.2695 1.9524 3.3107 3.0287 0.7899 0.78631 1.9017 0.5128 2.888 0.67338z" fill="#64633b" fill-rule="evenodd" stroke="#000" stroke-width=".5"/>
 <path d="m86.25,164.10714c.27952,0 .44643.92505.44643,1.33929 0,.27461.71792.62682.89286.71429 .25561.1278.17857.77407.17857,1.16071 0,.69447-.284.80357-.98214.80357-.62593,0-.82632.22235-1.07143-.26786-.1932-.3864-.18832-.91236-.35714-1.25-.21209-.42418-.34826-.79468-.625-1.07142-.16796-.16797-.38958-.95773-.44643-1.07143-.24456-.48912-.71429-.097-.71429.35714 0,.51535-.29219.60876-.71429.71429-.28615.0715-.71428.62814-.71428-.0893 0-.51827-.06438-.88252-.17857-1.33929-.09734-.38934 0-.93558 0-1.33928 0-.42809.26586-.621.44643-.98214 .20324-.40649.55114-.63657.89286-.89286 .31604-.23703 1.02219-.40888 1.33929-.53572 .56224-.22489 1.20869.29185 1.51786.44643l1.60714.80357c.58528.29264.88838.35267 1.25.71429 .2995.2995.53811.625 1.07143.625h1.51786c.7546,0 .53572.0407.53572.625 0,.34938-.6494.65342-.89286.71429-.66962.1674-1.43833.0893-2.14286.0893-.51584,0-1.03106.0324-1.51786-.0893-.51232-.12809-.75901-.17858-1.33929-.17858z" fill="#64633b" fill-rule="evenodd" stroke="#000" stroke-width=".5"/>
 <path d="m78.92857,152.67857c.87679-.59016 2.02266-.14159 2.97284-.5505 1.15408-.0251.75575,1.19388 1.05349,1.84789 .47785.6585 1.45571.62924 1.93116,1.28976-.14115,1.07084-1.53536.56417-2.21952.37594-.85213-.29723-1.73859.78411-1.08288,1.48972 .43946.65085.85898,1.33737 1.06306,2.09437 .16917,1.00506-.96732,1.10077-1.59634.67525-.73375-.33069-1.4573-1.0005-2.31726-.78388-.87095.43969-.65964,1.76674-1.61007,2.14679-.85487.67971-1.81586-.0543-2.07149-.92027-.57484-.7971-1.56029-1.00293-2.38982-1.40377-.7404-.35601-1.46848-.7589-2.08255-1.30627-.9122-.51825-1.50428-1.61822-1.25117-2.66444-.0053-.99256-.99294-1.48981-1.65164-2.04677-.6204-.72577.2418-1.60562.95173-1.83064 .84281-.59647 1.34625.4254 1.56895,1.03915 .77357.42448 1.76061.29183 2.56173.0348 .90881-.15328 1.69795.69683 2.61429.40525 .93387-.0719 1.84385-.76808 2.78447-.37891 .26853.14371.50169.34421.77103.48655z" fill="#64633b" fill-rule="evenodd" stroke="#000" stroke-width=".5"/>
 <path d="m92.32143,173.92857c-.08745.014-.41745.003-.60373.001-.58761-.006-1.18901-.0736-1.72107-.34031-.55912-.23482-1.1667-.39402-1.77704-.3207-.51723.0407-1.10203.11394-1.53906-.23315-.16936-.13428-.38847-.35023-.28976-.58458 .18982-.20653.51283-.17732.77035-.21246 1.00428-.0283 2.01123.0338 3.01383-.0465 .31887.009.69879-.0937.9561.15382 .39158.41022.46855,1.05345.95679,1.38133 .0808.0636.16222.12709.2336.2014z" fill="#64633b" fill-rule="evenodd" stroke="#000" stroke-width=".5"/>
 <path d="m73.21429,164.19643c-.21606-.77595-1.0261-1.06323-1.72512-1.21666-.5786-.472-.54755-1.35087-1.1082-1.86681-.28749-.63455-.94324-.9059-1.58834-1.0162-.84928-.18239-1.76729-.36475-2.39191-1.02186-.45941-.38455-.90759-.79098-1.26254-1.27488-.77812-.74444-1.73415-1.27353-2.4843-2.04788-.40276-.55004-1.2283-.18597-.94341.48969 .15439.67958.88492.81147 1.34799,1.19886 .66558.62485.94257,1.63571 1.82131,2.03278 .58716.164 1.32484-.0757 1.79464.43078 1.00908.52674 1.65406,1.49252 2.30936,2.38302 .45072.52883 1.11261.86312 1.80656.90835 .74676.15172 1.07974,1.14367 1.91437,1.05413 .17102-.004.34063-.0285.50959-.0533z" fill="#64633b" fill-rule="evenodd" stroke="#000" stroke-width=".5"/>
 <path d="m61.60714,154.55357c-.98641-.88629-2.32824-1.50479-2.77756-2.85244-.36985-.93281-.57694-1.94168-1.21401-2.74823-.59982-.69078-.74034-1.56954-.97588-2.41715-.24242-.69944-.50127-1.4563-1.13983-1.88018-.77289-.87638-.4135-2.11279-.38002-3.15531-.03196-1.11851-.89084-1.92558-1.2274-2.94238-.33407-.71784-.57323-1.48308-.85148-2.21524-.46584-.4964-.18365-2.17107.47344-1.09752 .83158.85752 1.60159,1.81749 1.94681,2.97977 .53524.73694.8494,1.576 1.26411,2.37691 .63495.94794.93341,2.07938 1.6338,2.98166 .77117.91243 1.20532,2.03866 1.86435,3.02713 .76822.95097.33269,2.28817.99661,3.26339 .45925.95168 1.90383,1.01398 2.10185,2.12466 .15231.94683-1.05073,1.38922-1.23864,2.25717-.13989.12659-.30981.21211-.47615.29776z" fill="#64633b" fill-rule="evenodd" stroke="#000" stroke-width=".5"/>
 <path d="m75.89286,165.44643c.29444.51656 1.12338.26793 1.36849.84281 .17414.40001.68791.50057 1.05882.66514 .49809.15262.90865.47293 1.33585.75479 .51647.41159 1.03629,1.00386 1.76441.92671 .64791-.0137 1.2952.1925 1.78756.62057 .43225.34992.89847.75045 1.48853.74551 .51482.11345 1.11959.27857 1.39935.76632 .22455.6585-.77306.45917-1.16046.47422-.65925-.0521-1.28813-.33541-1.77896-.77242-.58416-.33771-1.04167-.93301-1.75351-1.01237-.70491-.14235-1.44929-.27013-2.02528-.73318-.72269-.39662-1.12204-1.25895-1.96426-1.4612-.70677-.26275-1.2663-.79052-1.86811-1.22176-.23768-.26109.09701-.54495.34757-.59514z" fill="#64633b" fill-rule="evenodd" stroke="#000" stroke-width=".5"/>
 <path d="m96.78571,155.98215c-.3511.16877-.13383.58706-.0637.8619 .10052.62353.06282,1.26053.05279,1.8906-.29618.276-.71179.0545-1.00262-.11327-.26393-.095-.59988-.65224-.85405-.29896-.03494.33355.09575.68865-.05216,1.01178-.18096.42299-.79136.42754-1.0938.13554-.31534-.26587-.52166-.63801-.62718-1.0331-.05739-.48015-.68808-.2601-.80586-.66652-.08143-.3353.16185-.64805.44802-.79256 .31401-.13222.23558-.43726-.08945-.44567-.62608-.27595-1.08583-.85299-1.76765-1.01866-.36073-.11462-.76545-.2349-.98218-.57201 .06288-.47335.66041-.2481.97746-.30492 .50014-.0678.92541.28305 1.22394.64331 .66782.63471 1.59918.81793 2.43655,1.12182 .68462.17498 1.3728-.10101 1.99401-.36646 .06715-.0227.13587-.0413.20588-.0528z" fill="#64633b" fill-rule="evenodd" stroke="#000" stroke-width=".5"/>
 <path d="m93.83929,144.55357c.46179-.01.62264.54598.58019.92287-.05784.59131-.73735.91387-1.27495.79495-.46448-.0882-.94186.16786-1.04986.64062-.14168.43666-.45843.80128-.48574,1.26996 .03065.53904-.74055.54213-.66613,1.07509-.0077.34524.2657.73489-.0308,1.02711-.2532.33548-.73459.16151-.82408-.21014-.14526-.38227-.13793-.80123-.2427-1.1937-.02453-.42166.36808-.75414.29789-1.18042-.2326-.3611-.76528-.48403-.81079-.9752-.12199-.4253-.11567-1.02119.33817-1.24785 .33708-.2187.79343-.0252 1.09111-.32383 .30185-.23907.42344-.61629.56986-.95452 .45881-.73832 1.70038-.79637 2.18818-.0594 .11089.13477.21084.27804.31966.41443z" fill="#64633b" fill-rule="evenodd" stroke="#000" stroke-width=".5"/>
 <path d="m95.80357,151.78572c.32786.29155.4836.71658.66856,1.10236 .1233.28996.11591.68762-.18371.86473-.19794.18327-.46366.3938-.7499.28957-.28617-.002-.43455-.34277-.71867-.3381-.38289.13591-.15015.70381-.49499.87669-.31327.10109-.62296-.0999-.8799-.25859-.24652-.1492-.28813-.46695-.5018-.63788-.35429-.21532-.78439-.0603-1.17171-.11627-.32616-.0265-.71112-.20689-.76231-.5652-.0447-.35904.45567-.58207.30889-.94418-.08428-.22528-.32242-.46415-.17044-.7127 .15202-.31675.5544-.2025.77507-.0331 .27541.16179.42447.44797.59661.70132 .29998.31132.76218.32276 1.15059.44979 .32076.0735.66152.16074.98823.10059 .34972-.17859.29911-.70994.67411-.85627 .16066-.0384.32232.0228.47138.0772z" fill="#64633b" fill-rule="evenodd" stroke="#000" stroke-width=".5"/>
 <path d="m97.85714,164.64285c.07248-.005.14996-.0641.02669-.0558-.55222-.003-1.10341.0492-1.65528.0586-.13187.0664-.16241.23147-.20723.3596-.06982.26833-.12216.54484-.12649.82246 .05244.17298.24549.24082.39744.30379 .24691.0931.51104.12862.77398.12193 .40492.006.83645.0955 1.21854-.0836 .07579-.11701-.03916-.29504-.05609-.42906-.11064-.3702-.2354-.73639-.37157-1.09796z" fill="#64633b" fill-rule="evenodd" stroke="#000" stroke-width=".5"/>
 <path d="m92.32143,167.94643c.42923-.21462-.17857.94867-.17857,1.42857 0,.34526.93002.35714 1.25.35714 .66006,0 .4655-.45943.35714-.89285-.08276-.33105-1.05357-.66786-1.42857-.89286z" fill="#475422" fill-rule="evenodd" stroke="#000" stroke-width=".5"/>
 <path d="m95.35714,168.83929c.09744.42331.19322.91791.58903,1.1675 .76811.56528 1.66214.91734 2.50243,1.35654 .40705.19752.85408.27622 1.29271.367 .24229.054.73974.23366.73084-.17675-.058-.41028-.47995-.63336-.84534-.72431-.50078-.12318-1.0536-.17553-1.4581-.5307-.38849-.33889-.86676-.55736-1.23942-.91506-.34938-.31075-.78405-.58603-1.27171-.54468l-.30045.00046z" fill="#64633b" fill-rule="evenodd" stroke="#000" stroke-width=".5"/>
 <path d="m95.625,137.05357c-.41479-.0249-.81375.12309-1.21831.19327-.36861.0627-.72823.22266-.96956.51751-.26045.30146-.4439.66375-.58905,1.03208-.08178.27568-.11041.57645-.04898.85827 .1299.30381.5064.33402.79287.34211 .41657.0233.85897-.009 1.21549-.24815 .38628-.1889.73541-.4461 1.02855-.76065 .35846-.36031.7017-.76181 1.173-.97784 .22338-.23982-.20811-.41017-.38283-.50359-.32264-.1457-.67336-.23146-.96772-.43575l-.03345-.0173z" fill="#475422" fill-rule="evenodd" stroke="#000" stroke-width=".5"/>
 <path d="m112.41071,133.66072c-.42038-.0665-.85965.0294-1.22471.24481-.0692.27821.31182.36041.47183.51321 .18962.15407.55194.19474.55427.49517-.0111.24047-.12869.46389-.24438.67014-.13797.21684-.38559.37323-.43968.63557-.003.26488.2927.34118.50238.38102 .56008.11754 1.13128.002 1.696.008 .27035-.0604.4163-.32971.57179-.53444 .20971-.29345.35004-.6483.31729-1.01422 .004-.26019-.0655-.55039-.30202-.69509-.25308-.17928-.54543-.29411-.82861-.41564-.351-.12155-.72286-.16777-1.07416-.28826z" fill="#5a5f38" fill-rule="evenodd" stroke="#000" stroke-width=".5"/>
 <path d="m131.16071,130.08929c-.76212-.26343-1.88408.27898-1.70788,1.18912 .19541.77263-.73306,1.12904-1.30546,1.38147-.59548.30004-.99592.90909-1.66455,1.09332-.57391.1954-1.23231.2834-1.81155.0847-.52186-.34667-.12069-1.90791-1.09476-1.2546-.51715.51771-.75113,1.29057-1.44893,1.62786-.74962.45802-1.55352-.1121-2.2513-.39384-1.11425-.16149-2.10726-.84373-3.25851-.79207-.6717-.0147-1.34886-.0337-2.00714-.1675-.81055-.0136-.92299,1.23438.0205,1.0616 .88014.0771 1.70354.45337 2.57803.53068 .80064.0418 1.65625-.0679 2.39258.32143 .47501.57148 1.41981,1.17263 1.02964,2.03646 .77945.28379 1.84029-.0684 1.90117-.99297 .47729-.8475 1.39379-.31259 1.44991.46766 .64455.27895 1.40606-.0816 2.10257.0927 .68099.0956 1.33137.0252 1.56636-.70043 .2354.27919.42741,1.16458 1.10965.79867 .63299-.41492.22582-1.53215 1.20513-1.73934 .7957-.19903.76647-.95088 1.00021-1.53245 .47838-.33514 1.32051-.34652 1.12947-1.20114-.11398-.70436-.53443-1.33797-.9351-1.91139z" fill="#5d633a" fill-rule="evenodd" stroke="#000" stroke-width=".5"/>
 <path d="m115.98214,135.17857c-.10774-.14705-.036.20424-.0213.26479 .0656.26276.13662.54635.33037.74641 .11891.1052.29303.0504.4319.022 .25963-.0768.46276-.29928.74406-.31272 .41422-.0384.82091.0912 1.23411.077 .15954-.0196.36409-.0525.44896-.20727 .0205-.19578-.20108-.29655-.33749-.39056-.288-.16015-.59225-.29731-.90931-.38819-.52949-.0954-1.06648.0211-1.58648.12153l-.33482.067z" fill="#757245" fill-rule="evenodd" stroke="#000" stroke-width=".5"/>
 <path d="m134.64285,125.71429c-.7296.0745-1.4191.5111-1.74736,1.17496-.24727.38153-.69763.60285-1.15005.57144-.47724.0375-1.02649.10864-1.33606.5196-.38969.26198-.37384,1.09416.234.94448 .7763-.025 1.4532-.51668 2.22548-.54375 .58829.0699.93024.61886 1.28314,1.03096 .28311.28585.71499.39721 1.10599.32315 .28253-.28535-.0896-.9855.5247-.99321 .45431-.0572.91156.0494 1.36773-.007 .45203-.0198.90656-.0787 1.33578-.2271-.37537-.29888-.90487-.11109-1.325-.31276-.495-.15793-.60744-.70543-.88996-1.0761-.39521-.6314-1.18419-.82298-1.62839-1.40472z" fill="#6d7545" fill-rule="evenodd" stroke="#000" stroke-width=".5"/>
 <path d="m138.125,114.10714c-.49567.28789-.51804.99898-1.04132,1.25643-.3754.60009-.22909,1.34327-.39537,2.00169-.009.63366.14627,1.35637-.28173,1.89561-.53604.82653-.94054,1.77051-.96825,2.76559-.1599.54724-.36683,1.07899-.54764,1.61934-.39803.27553-.13424.93036.35175.61774 .38716-.1477.82969-.52125 1.23875-.22612 .59578.24237.39795-.6119.0486-.77125-.35098-.39899-.52417-.98679-.27201-1.48187 .24531-.5401.74658-.893 1.15002-1.30637 .43989-.42072.97441.16731 1.36523.0986 .28536-.39293-.3734-.64797-.38482-1.03437-.16552-.65214-.0665-1.33226-.0778-1.99618 .0371-.53606.34058-.99181.53921-1.47311 .17954-.61247.0717-1.34692-.37263-1.82073-.0989-.0823-.2225-.13825-.35202-.14504z" fill="#61653b" fill-rule="evenodd" stroke="#000" stroke-width=".5"/>
 <path d="m144.19643,127.14286c-.16559-.0666-.36409-.009-.541-.006-.43198.0447-.86265.10641-1.28861.19051-.26596-.0617-.5116.14841-.57809.3957-.0946.22954.13153.43265.35413.40178 .76006.001 1.51622-.0993 2.27651-.0921 .53959-.0263 1.06846-.15577 1.58672-.30003 .22251-.0403.31073-.31707.13334-.46522-.22587-.27028-.60471-.26607-.92635-.25903-.34206.0139-.68128.0677-1.01665.1342z" fill="#475422" fill-rule="evenodd" stroke="#000" stroke-width=".5"/>
 <path d="m153.39285,122.76786c-.23476.094-.42554.27655-.63255.42022-.54645.43012-1.11154.83524-1.683,1.23128-.13201.12704-.41703.2259-.41079.41858 .22261.0548.45613-.0136.68306-.0123 .403.002.80955-.0284 1.19357-.15996 .46182-.15034.98783-.19179 1.35648-.54177 .28792-.26084.59358-.54717.68144-.94209 .0465-.2095.14325-.42677.0919-.64377-.12942-.21315-.4253-.10921-.63256-.12838-.26464-.046-.43558.18424-.61448.33454l-.0331.0236h-1e-005z" fill="#475422" fill-rule="evenodd" stroke="#000" stroke-width=".5"/>
 <path d="m39.64286,117.41072c-.30293.58705-.45672,1.24965-.85389,1.78725-.25959.44-.3787,1.02255-.11474,1.48818 .16104.28917.50157.45464.82857.4111 .34267-.01.67516-.10962 1.01735-.12459 .17528-.19165-.04923-.41761-.15627-.58072-.19657-.26845-.39702-.54982-.45277-.88574-.1791-.68786.02304-1.43041-.26825-2.09548z" fill="#475422" fill-rule="evenodd" stroke="#000" stroke-width=".5"/>
 <path d="m31.33929,82.58929c-.35725.57685-.10538,1.33327-.49544,1.89727-.28853.99257-.05196,2.03139-.1292,3.04448-.0054.63469.07214,1.31728-.21691,1.90361-.6006.92898-1.75731,1.32072-2.30644,2.29635-.43773.58318-.89307,1.15598-1.28208,1.77239-.44647.26861-.31176-.60626-.10246-.80018 .40039-.69369.77971-1.40251 1.02627-2.16784 .36791-1.0528.62712-2.15255 1.16436-3.13762 .37728-.9216.52541-1.94178 1.10192-2.77593 .42679-.67013.99144-1.26182 1.23999-2.03252z" fill="none" stroke="#000" stroke-width=".5"/>
 <path d="m99.19643,48.125c-.13244-.65908-1.09059-.55864-1.45011-1.08179-.58223-.19299-.98215-.63939-1.20964-1.19643-.33148-.60902-1.03867-.81175-1.62262-1.09576-.99998-.42739-2.08903-.53966-3.14447-.75791-.66985-.10697-1.34145.09372-2.01421-.0018-.79397-.03201-1.6322-.19819-2.3981.0798-.78822.4032-.97969,1.35254-1.52162,1.98628-.39034.33654-.22687.93385.32643.65945 .65723-.12765 1.09249-.69866 1.72997-.86577 .70671-.26106 1.41551-.67058 2.19819-.50807 .75364.03606 1.33058.53545 1.97251.85911 .76441.29187 1.58699.36309 2.37837.55344 .60513.23851 1.22798.50082 1.64692,1.02129 .52842.44706 1.18171.71246 1.72287,1.14246 .54773.29152 1.1997.1437 1.74265-.07999 .2148-.27329-.22381-.52075-.35714-.7143z" fill="#6a674e" fill-rule="evenodd" stroke="#000" stroke-width=".5"/>
 <path d="m93.03125,29.84375c-3.18729.85146-7.50617,2.7634-9.34375,3.03125-2.67865.39044-6.21824,8.58999-9.4375,5.03125-5.3443,1.02496-9.72902,5.73848-14.21875,8.84375-11.61187,9.55648-21.08738,21.61496-27.96875,34.96875-.93836,6.80924 6.2289,6.37645 6.1875.125-.41238-1.80313-2.56517-4.07153.9375-6.25-.22903-3.43414 5.23514-6.80436 1.71875-1.4375-3.35194,4.30676-1.53429,10.71616-.25,15.1875-.56697,3.9972-.81109,8.19458.75,10.375-3.0485,4.67924-3.28711,10.78268-3.65625,16 4.13916,1.07432 5.15101-6.16655 10.34375-3.6875 4.53788.67027 10.29064,2.80982 9.625,8.09375 1.09593,3.56744-2.98283,5.10522 1.5,6.5625 1.44451,4.64815-3.13893,8.98234-.375,13.875 .37612,5.91024 6.19158,8.38923 2.53125,1.90625-3.31798-2.91082-2.29405-11.56156 2.125-9.34375 .09723,5.50845 4.78294,10.34457 9.75,7.1875 .70289-3.97724-5.44106-10.95448 2.5-9.46875 6.53121,1.02225-5.98543,4.86704 1.65625,4.8125 1.60373-5.51035 7.98581.67985 12.25-.625 3.68916,1.60131 7.30838-1.47311 8.96875-2.78125-3.12873-1.00128 3.36006-1.51588-.15625-4.4375-4.87368-4.56518 8.78756-.27176 2.28125-4.53125-5.80139,1.29069-3.49696-5.87196 1.28125-3.15625 5.4124-1.23508-2.41048,3.13817 2.875,2.3125 3.97803.008 1.48251,3.59595 3.90625,5.46875-5.33933,4.04039 7.7812,5.2879 3.34375-1.03125-4.80378-3.30707 5.42321-2.71443 7.40625-3.84375 2.85227,3.74086 12.25899-.56049 14.28125-4.5625 2.70885-3.70344.0599-6.17396-3.28125-6.625-3.10992-3.38126 7.42128-2.95567 10-4.90625 3.57944,1.27783 7.97653.82037 10.28125,2.78125 4.26088,3.77297 6.4382-7.00613 10.125-1.25 2.62333-.14703 5.81494-4.27395 4.125.71875-3.67361,2.18224-12.45996,4.43804-9.1875,10.09375-.27749,7.15564 3.90872-3.72626 6.5625-.75-.48062-2.26642 4.60222-3.85203.1875-5.53125 2.91663-5.37917 9.53154-.55888 12.78125-5 3.58317-.57426 8.20677-1.2537 2.5-3.96875-.92297-2.0834 3.8117,1.43337 2.0625-1.96875 3.38027-.0445 5.386,1.99808 6.625-1.71875-.0704-3.26728-6.27291-5.90174-10.375-5.0625-3.03533-.52051-5.68131-1.11491-6.375,1.90625-.43634-4.23826-3.68785.25252-6.3125-2.1875-4.47603.8137-5.38748-4.78572-10.6875-3.625-3.21259-1.74063-10.40021-7.69489-12.59375-3.53125-3.67453-1.82942-6.23854-2.15097-9.34375-2.59375-1.20961-2.03281 3.2065-4.75508-2-5.4375-3.62491-1.29425-7.12703-2.36379-10.28125-5.53125-2.53934-.41151-10.90034-3.61958-3.84375-2.59375 4.02622,2.19145 8.85379-1.97086 3.1875-3.90625-1.72448-5.26779-8.75933-.69627-12.1875-6.125-2.93892-2.73473-6.59966,1.24453-8.65625-3.40625-.9015,1.88275-5.13849,6.48737-3.3125,1.46875 1.45094-4.53758-4.04257,1.11565-2.1875-3.75-1.44068-2.74994-5.65114,9.88588-4.84375,3.09375-1.2866.19558-3.82182,1.4715-5.40625-1.21875 3.44853-.36569 9.95489-1.69827 10.75-5.21875-3.82131-2.95604-9.8315,6.72152-7.96875-1.28125 3.03402-5.92771-4.03748,3.35021-1.46875-3.3125 .12082-2.85386-5.16992-4.33017-1.625-5.40625-1.75588-2.06204-8.38571-1.91909-2.15625-3.34375 2.47008-2.86842 5.79275-2.49677 1.6875.4375 2.5987,2.38285 7.67028-6.54854 11.78125-7.3125 1.04871-.31855 2.33092-2.5831.625-2.5625zm-33.96875,18.34375c.03123.36771-.36981.77226-.625,1.0625-.30211.36181-.94522.48793-.90625,1.0625-.08359.3983.76428.43659.3125.8125-.45299.48573-1.27537.23447-1.6875.78125-.25679.5034-.7389.81124-1,1.3125-.29036.39134-.70078.73752-.90625,1.1875-.35001.50235-.57183,1.07704-1.0625,1.46875-.34148.30444-.63781.99201-1.1875.8125-.34421-.35584-.12634-.97221.09375-1.34375 .32574-.39073.8165-.63043 1.0625-1.09375 .33469-.42506.63529-.8772 1-1.28125 .34292-.36945.63112-.77652.875-1.21875 .38678-.38086.68787-.84949 1-1.28125 .45306-.43574 1.06233-.66696 1.4375-1.1875 .35996-.33483.67282-.80588 1.1875-.90625 .14649-.04549.27919-.09919.40625-.1875zm-2.1875,6.875c.218.49482-.42156,1.50843 0,2.1875 .25371-.21523.78193-.42843 1.03125-.09375 .27055.86385-.52596,1.46733-1,2.0625-.36529.87797-1.16858,1.51894-1.375,2.46875-.22027.8131-.88051,1.66652-1.78125,1.75-.94218-.18635-.1253-1.45337-.5625-2.0625-.38565.33112-.72373.91295-1.15625,1.28125-.40928.79811-1.58004,1.10892-1.5,2.125 .03087.42574.24715,1.88287-.53125,1.25-.29697-.43239-.72946-.32644-.65625.21875-.38822.74966-1.4068.99368-1.59375,1.90625-.15201.77898-1.44218,1.38467-1.875.59375 .03473-.74783.30711-1.46868.53125-2.1875 .11094-.76363.51567-1.45876 1.09375-1.96875 .60621-.50659 1.06298-1.18993 1.8125-1.5 .73344-.37063 1.07512-1.1923 1.6875-1.71875 .64602-.50387 1.01033-1.22941 1.4375-1.90625 .37572-.58176.96263-1.02158 1.15625-1.71875 .30797-.7371 1.03334-1.18345 1.65625-1.625 .9521.61096.9788-.79807 1.625-1.0625zm-3.09375,11.1875c.1255-.0086.26629.02749.375.09375 .20212.11885.34233.32275.59375.34375 .3618.06361.70288-.16835 1.0625-.125 .13667.21398.24866.49047.1875.75-.1242.24012-.30727.43801-.53125.59375-.37038.13646-.79681.09814-1.125.34375-.37866.24496-.69582.65813-1.15625.75-.24107.01047-.52527.04131-.75-.0625-.22804-.14734-.1316-.45616-.03125-.65625 .16729-.24565.24352-.53709.34375-.8125 .1773-.38476.3626-.78005.6875-1.0625 .0914-.09587.21825-.1477.34375-.15625zm44.53125,28.65625c.12477-.0073.24863.0074.375.03125 .40642.10246.84332.28829.96875.71875 .53308.07619 1.08492.0081 1.625.0625 .51281.10751.42588.88289-.0937.90625-.5392.1221-.99886-.18225-1.3125-.59375-.38297-.42881-1.12192-.34914-1.5625-.0625-.47032.41897-1.04543.69854-1.53125,1.09375-.45702.21753-.90637.61236-1.4375.5625-.62465.02358-1.26136.0577-1.84375-.21875-.59997-.0661-1.24152.0977-1.8125-.09375-.50271-.14967-1.09493-.03996-1.56255-.3125-.34999-.27151-.56768-.688-.9375-.96875-.03554-.04935.01067-.06217.0625-.09375 .41465.14446.86325.4492 1.34375.53125 .59638.21207 1.22266.09384 1.84375.125 .69531-.01969 1.40249.03565 2.09375-.03125 .49378-.20358.9886-.4384 1.5-.59375 .42185-.21369.82197-.48134 1.28125-.625 .27936-.24994.6257-.41551 1-.4375z" fill="#475422" fill-rule="evenodd" stroke="#000" stroke-width=".5"/>
 <path d="m193.75,64.625c2.375,3 2.375,5.5 3.125,5.875s1.125-.625 1.75-1.5 .375-2.625-.125-3.5-4.25-5.375-5.5-6.625-1.375,2.5-1.25,3.125 1.625,2.625 2,2.625z" fill="#73662f" fill-rule="evenodd"/>
 <path d="m137.48 27.931c-0.45427 2.3749 7.2357 2.6229 2.3214 2.4219-3.7889-0.30716-7.0507-2.499-10.744-1.5123-3.7803-1.0989-8.2355-0.41746-11.778 1.3994-1.6054 1.5378-7.6366 1.5235-6.4105 4.0148-0.96101 1.3044-3.6287 2.9036-1.1 4.9122 1.7524 2.7595 1.9495 6.266-2.062 6.7528-2.1446 1.2284 1.9045 4.6345 3.8798 3.8862 2.2536 2.9198 7.9975 5.2313 6.1607 9.5536 3.3761-0.64221 3.6564 3.1635 6.3393 3.75-4.239 1.6105-1.3463 7.1378 1.7188 8.6482 1.6527 1.3261-3.3173 4.1856 1.0491 2.892 2.7409-1.2359 3.5738 3.5476 6.3267 0.91099 2.3459 0.92206 7.385 2.3286 5.579 5.4785 0.32683 2.4138 4.7182-0.03796 3.2729 3.1417-5.427-1.6079 3.1773 5.3511 3.5714 0.53572-0.80661-2.1744-2.1188-5.6363 1.2087-2.9239 1.4263 0.30043 6.4924-0.21327 4.5572 2.1706-1.7512-1.1854-5.2209 1.2738-3.404 2.0717 2.4632-1.6954 3.4776 3.0723 6.4655 1.1844 3.7757 1.8444 8.442 0.84856 12.047 2.2391 1.3909 3.5134 6.6552-1.4511 7.8864 2.9925 1.3179 0.9811 1.244 2.4477 0.79241 3.4263 2.9426-0.74113 6.1733 3.7343 8.0539 2.7748 0.0722-2.0401-5.2087-6.3659-0.47573-5.498 2.9423 0.73764-1.0621-6.1513 3.1794-2.7246 2.6939-2.0833 4.9862-6.2166 7.5409-9.0648 2.1539-2.2684 5.2641-6.0236 1.5882-8.4615-2.9898-3.4211 1.1702-7.4359-2.4257-10.449-0.26823-4.256 3.4037-0.44055-6.3996-10.105-8.1262-7.3383-17.22-14.201-27.722-17.8-6.8848-2.7211-14.004-4.2856-21.018-6.6191z" fill="#dcdbdd" fill-rule="evenodd" stroke="#000" stroke-width=".5"/>
 <path d="m155.88 120.62c0.69009-0.65018 0.60078-1.6698 0.66472-2.5339 0.12299-0.68848-0.0787-2.4088 0.48866-2.944 0.45136-0.47524 1.8483-1.2669 2.1406-1.8768 1.7709-2.0407 3.3409-2.1783 5.7532-3.3535 0.60746-0.34295-1.1213 1.4816-1.7875 1.7808-0.69884 0.56462-2.1594 1.8367-2.7445 2.5388-1.7245 3.0607-1.3686 1.2483-2.668 3.4346-0.22264 0.31424-1.4732 2.8261-1.8473 2.9539z" fill="#937d59" fill-opacity=".681" fill-rule="evenodd"/>
 <path d="m102 95.759c3.0814-0.49014 5.3067 2.3007 8.3759 2.0977 3.0035 0.80624 6.2753 0.13068 9.125 1.6146 2.8489 0.05402 13.407 2.558 13.918-1.5136 0.57636-2.854-11.51-6.6746-9.766-9.2156 0.41553-1.2825 7.821-4.7226 7.7977-1.6972-0.69057 3.1096 12.383 8.0696 10.215 11.067 2.268 0.95691 1.9314 4.853 4.7995 4.9463 3.5693 1.7264 1.3753 1.3391 5.3144 0.71613 3.5168-0.0548 7.0212-0.30296 10.502-0.76769 2.6253 0.092 5.1486-0.78939 7.6738-1.2336 2.0775 1.5057 4.4465 0.82147 6.6517 0.54432 1.2785 2.9237-1.8278 3.1917-3.9231 3.1342-2.4856 0.10612-5.225-0.44861-7.5167 0.54054-2.4007 0.44975-4.5059 2.7295-6.5272 0.23751-2.4643 0.3067-4.7362 2.1268-7.4071 1.7268-3.4547 1.0594-5.949-2.7111-9.4962-1.9307-5.4678-1.8901-8.9511 1.7688-13.873 3.0859-2.6948 0.0739-4.6556-3.1861-7.3558-2.9909-3.1602 0.0123-6.3674-2.313-9.2128-4.0508-3.0498-0.4791-4.8345-3.0484-7.3496-4.455-0.72932-0.46796-1.8671-0.83656-1.9446-1.8562z" fill="#937d59" fill-opacity=".5429" fill-rule="evenodd"/>
 <path d="m50.656 55.5c-2.344 3.0607-3.9263 6.9182-6.3125 9.75-2.638-0.30403-5.3576 4.7351-2.375 5.75 3.8293 3.138-0.70534 6.1275-1.9375 9.4375-1.0374 5.031 4.6886 8.4166 3.0312 13.594-0.02612 4.0872 4.3011 6.2455 8.2188 8.6562 4.0883 2.0452 0.779 9.7522 5.625 11.844 0.35055-2.1107 2.2175-3.2738 3.8438-3.9375 1.9446 0 2.5331-0.77849 3.5938 0.8125s1.2267 4.0545-0.1875 5.4688c-1.0607 1.0607-2.8655 3.5268-4.125 3.4688-2.8698 6.282 2.0962 3.6759 4.2188 5.9375 1.6001 4.0274 0.71376-2.2097 4.3438 0.5625 4.8674 0.45693 6.461 2.872 6.875 0.625 3.0979-2.3696 5.4214-1.0013 8.3125 1.3438 2.948 2.4359 17.232 0.27563 12.188-4-3.1709-0.40942-1.3426-2.9818 0.625-3.8125 3.8149-1.1163 6.3744-6.2155 3.0625-9.2812-2.5338-3.6909-5.6273-6.5284-9.7812-8.25-2.2184-2.1754-1.784-8.0031-6.3438-7.0625-4.4251 0.80765-1.3296-8.1721-5.4688-9.0938-4.6695-1.1072-14.258 0.66721-15.688-3.6562-2.9484-3.4773-2.2439-14.39-2.8125-19.031-0.74165-2.4947-9.6565-0.2975-10.281 2.6875-0.93092 2.9411-5.5103 3.6193-3-1.625 2.2295-2.8545 6.3831-7.9816 4.375-10.188zm2.8125 10.188c0.33776-0.04109 0.9141 0.51641 1.6875 0.59375 0.04419-0.08839 0.49556-0.25 0.9375-0.25s0.51294 0.8554 0.46875 1.5625-1.2898 0.98705-1.6875 1.0312-1.3134 0.7143-1.8438 1.1562-1.2317-0.79512-1.1875-1.2812 1.1906-2.4848 1.5-2.75c0.03867-0.03315 0.07675-0.05663 0.125-0.0625zm-2.0312 20.969c1.0607 2e-6 -0.35263 6.1823 0.53125 9.1875 0.34916 1.1872 3.5386 6.5521 7.7812 12.562-2e-6 0.35355-7.9491-8.1278-8.6562-9.7188s-2.3027-4.4393-2.6562-5.5-1.9599-2.1054-2.8438-2.8125 4.6063 1.7613 5.8438-3.7188z" fill="#937d59" fill-opacity=".5095" fill-rule="evenodd"/>
 <path d="m59.22 62.702c3.0052-2.74 6.6291-4.2426 8.1317-5.2149s4.9498-4.1542 6.1872-4.5962 4.0659-1.4142 4.9498-1.591 2.2097-0.26516 2.2981 0.17678-0.08839 0.70711-2.0329 1.3258-3.4472 1.3258-4.0659 1.9445-1.3258 1.8562-3.2704 2.2097-7.3362 3.0936-8.0433 3.8007-4.0659 2.1213-4.1542 1.9445z" fill="#827e58" fill-opacity=".6619" fill-rule="evenodd"/>
 <path d="m97.05 59.52c1.6068 1.8986 4.6153 1.485 6.2817 1.4207 1.6095 0.04215 2.721 1.9723 3.981 3.1993 2.9367 0.87457 4.6332 0.63268 7.6749 1.4226 0.80282 0.20783 3.648 3.1951 5.24 3.837-5.1675-0.2623-9.3216-1.782-11.61-2.4495-1.3446-1.2152-3.5328-2.51-4.9803-3.5556-1.9641-0.6987-5.8024 0.48587-6.5873-3.8745z" fill="#484424" fill-rule="evenodd"/>
 <path d="m110.49 71.54c2.07 1.2772 5.7431 2.2618 8.0529 3.0148 1.7896 1.9884 4.4377 3.2547 5.7686 3.7908 1.124 1.0672 5.0237 1.8164 6.3132 2.4415-4.0343 1.5729-6.9457 0.09094-8.8235-1.1698-1.777-1.0034-2.6268-1.903-4.1113-3.2789-2.7779-0.1872-5.9329-2.1578-7.2-4.7984z" fill="#484424" fill-rule="evenodd"/>
 <path d="m88.212 60.315c0.88388-1.5026 2.8284-5.1265 3.0052-4.6846s-0.70711 2.3865-0.26516 2.4749 2.5633-0.44194 2.8284 0 0 3.7123-0.61872 3.8007-2.2097-2.3865-2.8284-2.2097-1.9445 0.53033-2.1213 0.61872z" fill="#484424" fill-rule="evenodd"/>
 <path d="m93 182.25c0.75 0.125 4.1688-0.98468 8.7001 0.70282 4.0893 6.9024 10.175 6.1722 10.425 6.1722 0.5 0 2-2.375 2.625-2.75s1.375 1.25 1.875 2.375-1 3.75 0.25 4.75 3.375 2.125 2.25 3.25-4.3624-0.091-5.3624 1.034 6.3963 8.4552-3.068 6.8122c-5.5212-0.95847-10.442-7.4105-12.192-8.5355s-17.724-5.9358-18.929-6.4963c-6.7086-3.1213-10.877-10.561-10.252-11.561 3.3517-1.8496 20.685 3.0447 23.678 4.2463z" fill="#6f5735" fill-opacity=".782" fill-rule="evenodd"/>
 <path d="m140.62 72.5c-1.75 0-3.875 1.625-2.625 2.375s4.75 0.625 6.25 1.125 6.1571 2.8083 7.25 3.375c3.375 1.75 9.7507 4.6972 18.125 4.375-8.4274-2.0344-17.875-5.875-18.625-6.5s-4.125-3.875-5.375-4.375-5-0.375-5-0.375z" fill="#91899d" fill-opacity=".4028" fill-rule="evenodd"/>
 <path d="m139.25,78.625c-.25,1.5-.875,2.125-.25,2.625s3.5,0 3.625.875-1.25,1.5-1.625,2.25 1.625,1.625 2.375,1.625 2.125.375 1.875-1.125-1.125-3.5-.5-4.125 3.75-.25 2.875-1.375-5.375-3.25-6.875-2-1.125,1.25-1.5,1.25z" fill="#91899d" fill-opacity=".4028" fill-rule="evenodd"/>
 <path d="m139.29 59.332c0.125 0.875-1.3384 0.79289-1.7134 1.5429s1.625 1.625 2.375 1.625 2.125 0.375 1.875-1.125 1.5266-1.6438 2.1516-2.2688c-1.06-4.0016-1.94-2.2828-4.6883 0.22595z" fill="#91899d" fill-opacity=".4028" fill-rule="evenodd"/>
 <path d="m126.3 52.972c-0.11957 0.52008-0.9119 1.4075-1.3211 1.7281s0.66388 1.3276 1.1409 1.5223 1.2663 0.7608 1.4486-0.14005 0.65029-0.74582 1.19-0.93182 0.94881-0.8096 0.64821-1.6638c-0.27968-0.41691-1.8516-0.45984-3.1067-0.51478z" fill="#91899d" fill-opacity=".4028" fill-rule="evenodd"/>
 <path d="m118.51 58.655c3.4399 2.1615 4.4414 4.0756 6.6988 4.5092-0.57113 0.16848-4.6595 1.2431-2.3838 4.2891 0.42786 0.57269 4.6726-1.7825 5.6462-1.7825s7.6198 2.2063 7.2952 1.1593 2.3726-0.11347 1.593-3.7317c-0.19404-0.90048-5.0173-1.4618-6.1531-2.2471-0.78698-0.32501-6.4841-2.5106-12.696-2.1962z" fill="#91899d" fill-opacity=".4028" fill-rule="evenodd"/>
 <path d="m216.5 109c-3-4.5-5.625-13.625-7.375-13.875s-8.375 3.125-8.375 3.125-10.5-6.75-9.25-7.75 5.875 0.125 7.875-3.125c1.3836-3.5934 0.41531-8.4098 1.75-11.625 1.2065-2.9065-1.3419-5.5695-3.25-10.125 0.80916 1.331 9.125 11.625 12.625 20.875s6.25 22 6 22.5z" fill="#465322" fill-rule="evenodd" stroke="#000" stroke-linecap="round" stroke-linejoin="round" stroke-width=".5"/>
 <path d="m202.25 85.125c0 1 1 3.25 1 6s1.125 4.75 2.125 4.375 2.875-1.5 4.625-0.375 4.625 10.125 5.375 11.125 0.875-1.375 0.375-2.5-3.25-11-3.5-12.25-1.625-5.375-2.625-5.5c-1.1362 1.029-5.6698-4.3784-7.375-0.875z" fill="#6f693f" fill-rule="evenodd"/>
 <path d="m179.89 91.425c1.18 1.2923 1.4129 3.9572 0.0162 3.5399s-3.6645-3.0862-5.0452-3.8567-6.2255-2.6531-7.381-3.078c-2.2361-0.47913-1.412-2.7902 1.9064-1.0637 0.96726 0.1324 5.643 0.4332 6.8551 1.0191s3.6484 3.4394 3.6484 3.4394z" fill="#91899d" fill-opacity=".4028" fill-rule="evenodd"/>
 <path d="m190.2 64.919c0.74723 0.47211-0.26403 1.5331 0.0639 2.3048s2.2907-0.1837 2.777-0.75472 1.6632-1.3748 0.35907-2.1569-0.26181-2.2281-0.33246-3.1091c-3.7339-1.7872-2.9958-3e-3 -2.8675 3.716z" fill="#91899d" fill-opacity=".6209" fill-rule="evenodd"/>
 <path d="m113.34 38.074c-0.125 0.875 1.3384 0.79289 1.7134 1.5429s-1.625 1.625-2.375 1.625-2.125 0.375-1.875-1.125-1.5266-1.6438-2.1516-2.2688c1.06-4.0016 1.94-2.2828 4.6883 0.22595z" fill="#91899d" fill-opacity=".4028" fill-rule="evenodd"/>
 <path d="m150.25 43c35.58 45.551 45.104 104.72 17.25 155.75-10.06 18.432-37.5 25-37.5 25" fill="none" stroke="#000" stroke-linecap="round" stroke-linejoin="round" stroke-width=".5"/>
 <path d="m149.5 43.25c5.0816 45.592-2.9331 92.477-18.75 135.25-5.908 15.977-12.25 32.25-28 44.75" fill="none" stroke="#000" stroke-linecap="round" stroke-linejoin="round" stroke-width=".5"/>
 <path d="m147.79 43.521c-29.216 34.65-47.642 73.323-65.035 117.48-3.3352 8.4668-11 29.5-9.5 51.75" fill="none" stroke="#000" stroke-linecap="round" stroke-linejoin="round" stroke-width=".5"/>
 <path d="m149.08 42.607c-20.627-0.63388-89.732 38.856-103.97 92.381-11.051 41.546-2.2356 48.362 0.58211 55.088" fill="none" stroke="#000" stroke-linecap="round" stroke-linejoin="round" stroke-width=".5"/>
 <path d="m149.55 42.107c-46.526-6.7855-85.396 13.46-104.65 33.916-22.405 23.801-23.481 53.44-23.481 53.44" fill="none" stroke="#000" stroke-linecap="round" stroke-linejoin="round" stroke-width=".5"/>
 <path d="m149 42.75c-17.75-11.5-48.5-8.75-52.5-8.5s-22.75 3.75-28.5 7" fill="none" stroke="#000" stroke-linecap="round" stroke-linejoin="round" stroke-width=".5"/>
 <path d="m149.5 42.75c-7.25-12.75-31.375-16-39.5-16" fill="none" stroke="#000" stroke-linecap="round" stroke-linejoin="round" stroke-width=".5"/>
 <path d="m150.25 41.75c30.75 9 47.125 23.5 57.5 39.25" fill="none" stroke="#000" stroke-linecap="round" stroke-linejoin="round" stroke-width=".5"/>
 <path d="m117.03 26.462c-18.738 4.773-16.617 13.17-16.617 15.291s2.4749 19.092 33.234 31.113 49.497 7.0711 53.033 1.4142 8.1317-8.8388-5.3033-26.163" fill="none" stroke="#000" stroke-linecap="round" stroke-linejoin="round" stroke-width=".5"/>
 <path d="m87.681 31.854c-27.577 13.789-3.2246 37.879 0 40.659 20.506 17.678 46.198 31.292 92.985 32.527 10.215 0.26971 32.88-12.021 23.335-30.759" fill="none" stroke="#000" stroke-linecap="round" stroke-linejoin="round" stroke-width=".5"/>
 <path d="m58.677 47.854c-11.412 15.967 1.8232 34.396 10.323 42.646 6.9248 6.7211 36.5 31 76.5 38 46.284 8.0997 68.5-4.5 70.25-23.25" fill="none" stroke="#000" stroke-linecap="round" stroke-linejoin="round" stroke-width=".5"/>
 <path d="m38 70.5c-3.25 16.5 1.0702 29.663 25 49 24.75 20 81.213 41.441 120 37 32.75-3.75 33.812-22.875 34.75-26.5" fill="none" stroke="#000" stroke-linecap="round" stroke-linejoin="round" stroke-width=".5"/>
 <path d="m21.53 127.36c5 19.25 22.72 34.394 37.22 43.644s55.5 29 89.75 29 46-10 49-12.5" fill="none" stroke="#000" stroke-linecap="round" stroke-linejoin="round" stroke-width=".5"/>
 <path d="m25.826 154.31c11.5 25.75 36.424 37.687 45.924 42.437s39.75 17 67 18.25 43.75-14.25 43.75-14.25" fill="none" stroke="#000" stroke-linecap="round" stroke-linejoin="round" stroke-width=".5"/>
 <path d="m146.5 33.75c-13.25-2.25-17.646 1.3232-18 4.5-0.33183 2.9816 0.59099 9.4571 12 14.75 12.988 6.0255 27.5 5.25 28.25 3.5" fill="none" stroke="#000" stroke-linecap="round" stroke-linejoin="round" stroke-width=".5"/>
 <path d="m165.79 37.439c20 17.5 36.211 55.061 38.211 85.061s-12.25 72-20.25 78-34.25 28-75.25 23.5-26.847-57.068-12.5-91c15.75-37.25 37.257-64.653 43.757-79.153s26.031-16.908 26.031-16.408z" fill="url(#e)" fill-rule="evenodd"/>
 <path d="m180.15 203.58c-23.715 19.2-62.365 27.378-90.497 16.767s-48.728-31.55-58.096-52.002c-4.3433-9.482-15.963-38.534-2.7047-76.473 5.2189-14.934 6.6851 49.445 37.832 69.121s107.42 6.6071 117.92 18.531 5.999 14.013-4.4561 24.056z" fill="url(#d)" fill-rule="evenodd"/>
 <path transform="matrix(.84298 .56551 -.53555 .79833 52.138 -29.219)" d="m126.57 97.085a46.846 31.997 0 1 1 -93.692 0 46.846 31.997 0 1 1 93.692 0z" fill="url(#k)"/>
 <path d="m32.178 80.561c-2.9257 5.1986-4.9245 10.379-5.9599 14.306-0.94242 3.5743-1.2374 13.599 4.8235 23.701s20.828 23.348 33.328 31.384 43.929 24.375 73.036 28.125 48.571 2.3214 59.286-4.1071 14.085-10.202 16.72-17.734c1.4976-4.2819 2.8756-11.385 2.8756-11.385s1.0714 8.1905-1.381 14.476c-1.6875 4.3253-8.5714 19.821-39.107 22.679s-68.214-7.1429-94.107-19.643-46.786-32.017-52.679-42.017-6.5032-22.793-5.1939-27.247c2.0842-7.0906 6.81-12.165 8.3593-12.538z" fill="url(#l)" fill-rule="evenodd"/>
 <path d="m116.77 240.24s25.291 7.9234 42.89 14.016c17.358 6.0091 22.868 9.2779 25.506 11.996 5.2538 5.4111 2.114 11.367-3.7881 15.91-7.7024 4.9245-24.358 11.095-62.394 11.095s-63.571-11.219-65.714-12.648-8.9286-5.1786-8.75-10.566c0.1953-5.8923 5.5088-11.798 19.527-15.37 4.8852-1.2446 49.416-13.82 52.723-14.432z" fill="url(#s)" fill-rule="evenodd"/>
 <path d="m116.79 242.74c3.7984 1e-3 3.3149-1.3992 3.3149-1.3992s0.0312-4.259 0.0312-6.8465c-3.766 0.0475-8.0997-1.4521-8.0997-1.4521s-0.0137 1.2027 1.346 1.6122c0.0204 1.7934-0.0295 6.4568-0.0295 6.4568s-0.33187 1.6274 3.4371 1.6288z" fill="url(#q)" fill-rule="evenodd"/>
 <path d="m157.26 30.756s22.974 16.782 38.688 44.64 18.036 58.571 17.143 73.393-6.6675 47.32-30.179 67.5c-10.714 9.1964-24.241 13.17-29.018 14.732 5.3125-1.9196 25.089-10.446 35.625-29.196 9.355-16.649 16.786-37.679 14.464-65.179s-11.42-50.478-24.196-69.464c-10.569-15.707-24.001-26.761-26.589-28.782s-5.5464-4.3708-6.3683-5.2803c-1.3463-1.4897-1.0218-3.5314-0.21304-4.1497 1.4196-1.0854 3.69-0.7239 4.7829-0.56821 2.6685 0.38013 5.9238 2.3545 5.8607 2.3545z" fill="url(#h)" fill-rule="evenodd"/>
 <path d="m145.2 32.902c-1.2627 1.4521-0.88388 2.9673-0.56821 3.3461s8.5914 7.1999 9.9803 8.5257 14.011 13.382 18.556 19.822 15.657 23.739 19.193 34.093 8.599 38.455 7.8338 50.003c-1.1278 17.202-3.7932 33.335-12.506 47.982s-19.824 25.001-35.482 30.557-33.84 3.283-41.921 0.88389-19.824-7.955-19.824-7.955l-10.48-3.5355s7.3236 7.3236 21.087 11.869 29.547 7.5761 41.669 4.672 32.325-12.374 43.31-28.284 17.551-43.563 17.425-53.664-3.71-39.415-6.4473-48.239c-3.2843-10.586-13.124-28.28-19.185-36.74s-21.466-23.739-25.506-27.148-6.8185-5.9346-7.1342-6.1872z" fill="url(#n)" fill-rule="evenodd"/>
 <path d="m146.28 29.315c-1.1161 1.875-1.3887 3.2449-0.9423 4.0931s14.29 11.667 18.933 17.024c22.867 25.836 27.574 39.825 34.139 63.445 7.2594 26.119 5.3424 59.328-9.9226 86.161-7.3806 12.973-23.955 25.893-35.959 29.619-12.723 3.9497-23.809 4.9701-35.952 2.6487s-26.488-9.0884-29.708-11.109-6.6923-4.6998-6.6923-4.6998l-1.0733-0.63134s-0.12627 1.2627 0.37881 2.0834 9.3867 7.0436 19.887 11.175c10.107 3.9762 20.875 6.8376 28.814 6.4494 11.446-0.55357 22.513-1.903 32.679-7.4107 13.25-7.1786 22.449-15.378 28.795-26.25 6.9464-11.902 15.402-32.768 15.045-57.768s-8.5-48-16.964-64.286c-3.1681-6.0956-11.713-20.684-26.875-34.899-6.9724-6.5367-12.042-10.166-13.48-11.284-1.7046-1.3258-1.5308-3.6375-1.1031-4.3619z" fill="url(#p)" fill-rule="evenodd"/>
 <path transform="matrix(1.0424 .25022 0 1.074 -7.0469 -40.639)" d="m158.93 32.009a5.2679 3.1696 0 1 1 -10.536 0 5.2679 3.1696 0 1 1 10.536 0z" fill="#b6b3a8"/>
 <path d="m147.17 39.74s-0.94702 2.2097-0.94702 2.4622 0.69224 1.2229 1.389 1.7046c1.6326 1.1288 3.7881 0.82075 3.9775 0.56821s0.44194-0.82075 0.44194-0.82075l-4.8614-3.9143z" fill="url(#m)" fill-rule="evenodd"/>
 <path d="m144.56 33.715c-1.25 1.4286-1.1161 3.4375-0.49107 4.1071s12.589 10.893 15.625 14.062 11.794 12.68 17.812 22.009c8.4702 13.131 15.661 29.375 18.339 44.554s5 42.155-3.0357 62.333-19.679 33.917-32.536 40.702-33.465 8.3367-41.071 7.4464c-6.2064-0.72639-19.975-6.3547-19.975-6.3547l-8.8388-2.2728s12.334 8.455 27.613 10.096 29.189 0.5691 43.116-6.9397c13.187-7.1101 26.941-21.087 33.759-42.174s7.0848-40.293 3.6618-58.841c-3.6368-19.707-8.3338-31.694-17.678-46.467s-16.956-22.073-25.696-30.683c-5.0313-4.9564-10.038-8.1444-10.543-9.0914s-0.12627-2.336-0.0615-2.4864z" fill="url(#o)" fill-rule="evenodd"/>
 <path d="m99.483 222.77c6.8456 1.9893 23.739 1.8309 23.739 1.8309s8.8008 1.4088 13.447 1.4416c12.634 0.0893 15.214-1.7567 20.848-3.1696-8.1161 3.5871-13.658 6.6777-32.812 6.5179-11.131-0.0914-21.677-3.9651-25.221-6.6207z" fill="#31302e" fill-rule="evenodd"/>
 <path d="m116.63 242.74c-1.682 2e-3 -3.6147-0.66953-3.2022-1.7302l-56.858 15.819-7.5425 14.614 48.083 16.499 87.681-11.785-12.964-17.56-51.677-17.315c0.0737 1.2522-1.8557 1.4566-3.522 1.4587z" fill="url(#j)" fill-rule="evenodd"/>
 <path d="m44.84 267.99c-0.18146 0.71249-0.28876 1.4399-0.3125 2.1562-0.17857 5.3878 6.6072 9.1339 8.75 10.562s27.683 12.625 65.719 12.625 54.673-6.1692 62.375-11.094c3.6324-2.7959 6.2104-6.1213 6.4375-9.5312-0.73727 2.9108-3.0586 5.7167-6.1875 8.125-7.7024 4.9245-24.371 11.094-62.406 11.094s-63.576-11.228-65.719-12.656-8.9286-5.1747-8.75-10.562c8e-3 -0.24245 0.06813-0.47642 0.09375-0.71875z" fill="url(#r)" fill-rule="evenodd"/>
 <path d="m44.666 268.38c-0.47978 3.3378 3.6452 10.263 15.438 14.496 29.331 10.526 61.026 9.0602 61.026 9.0602s-36.707-0.0125-63.501-11.064c-8.8004-3.6297-12.13-9.7291-12.964-12.492z" fill="#fff" fill-rule="evenodd"/>
 <path d="m117.375,237.375v3.25c0,0 .20833,1 .66667,1s.625-.875.625-.875v-3.33333c0,0-.0417-1-.60417-1-.375,0-.70834.66666-.6875.95833z" fill="#fff" fill-opacity=".2" fill-rule="evenodd"/>
 <path d="m149.49 28.76c-1.0607 1.1196-0.82496 2.0035-0.64818 2.4749s1.6499 1.6499 2.0035 1.8267 0.64818 0.64818 0.64818 0.94281-0.23571 0.58926-0.53033 0.58926-1.591-0.64818-2.2981-1.591-1.0607-2.1213-0.88388-2.8284 1.7678-1.4142 1.7088-1.4142z" fill="#fff" fill-opacity=".4381" fill-rule="evenodd"/>
 <path d="m158.26 31.981c0.13772 0.95612-0.35908 2.0186-1.5532 2.6445-0.92594 0.48531-3.3993 0.72565-5.8322-0.04394 1.6684 1.0862 3.4764 1.2637 4.6539 1.213 1.0451-0.04494 2.0535-0.36432 2.504-0.93728 1.0754-1.3677 0.20034-2.9286 0.22759-2.8763z" fill-opacity=".4381" fill-rule="evenodd"/>
</svg>
