<?xml version="1.0" encoding="UTF-8"?>
<!DOCTYPE svg  PUBLIC '-//W3C//DTD SVG 1.1//EN'  'http://www.w3.org/Graphics/SVG/1.1/DTD/svg11.dtd'>
<svg enable-background="new 0 0 1024 700" version="1.1" viewBox="0 0 1024 700" xml:space="preserve" xmlns="http://www.w3.org/2000/svg">
		<circle cx="347.44" cy="497.25" r="20" fill="#BCE4E4" stroke="#000" stroke-miterlimit="10" stroke-width="2"/>
			<path d="m358.92 497.68c0 8.352-5.076 12.778-11.267 12.778-6.407 0-10.907-4.968-10.907-12.311 0-7.703 4.787-12.742 11.267-12.742 6.62-0.01 10.91 5.07 10.91 12.27zm-18.83 0.4c0 5.183 2.808 9.826 7.739 9.826 4.967 0 7.775-4.571 7.775-10.078 0-4.824-2.52-9.863-7.739-9.863-5.18-0.01-7.77 4.78-7.77 10.11z"/>
			<line x1="300.36" x2="331.02" y1="525.97" y2="508.66" fill="none" stroke="#000" stroke-miterlimit="10" stroke-width="2"/>
			<line x1="363.86" x2="391.36" y1="508.66" y2="523.97" fill="none" stroke="#000" stroke-miterlimit="10" stroke-width="2"/>
		<circle cx="307.1" cy="527.01" r="20" fill="#F69E9F" stroke="#000" stroke-miterlimit="10" stroke-width="2"/>
			<path d="m300.35 515.61v10.15h11.734v-10.15h3.168v24.262h-3.168v-11.37h-11.73v11.375h-3.131v-24.262h3.13z"/>
		<circle cx="389.51" cy="525.97" r="20" fill="#F69E9F" stroke="#000" stroke-miterlimit="10" stroke-width="2"/>
			<path d="m383.48 514.11v10.15h11.734v-10.15h3.168v24.262h-3.168v-11.37h-11.734v11.375h-3.131v-24.262h3.13z"/>
		<path d="m750.7 228.54c-10.814-2.252-17.754-12.845-15.502-23.657 2.252-10.815 12.844-17.754 23.657-15.502s17.755 12.843 15.502 23.658c-2.26 10.82-12.85 17.76-23.66 15.5" fill="#BCE4E4" stroke="#000" stroke-miterlimit="10" stroke-width="2"/>
		<path d="m801.4 239.11c-10.814-2.252-17.754-12.845-15.502-23.658 2.252-10.814 12.844-17.753 23.658-15.501 10.813 2.252 17.754 12.843 15.502 23.657-2.25 10.81-12.84 17.75-23.66 15.5" fill="#F9F28F" stroke="#000" stroke-miterlimit="10" stroke-width="2"/>
			<path d="m763.48 211.22c-1.703 8.176-7.574 11.475-13.636 10.212-6.272-1.306-9.665-7.087-8.167-14.275 1.57-7.542 7.285-11.498 13.628-10.177 6.48 1.35 9.64 7.19 8.18 14.24zm-18.52-3.45c-1.058 5.074 0.745 10.192 5.572 11.198 4.862 1.013 8.544-2.89 9.667-8.281 0.983-4.723-0.455-10.17-5.566-11.234-5.07-1.07-8.58 3.09-9.67 8.31z"/>
			<path d="m811.58 233.07c-1.245 0.33-3.618 0.424-6.508-0.178-6.694-1.395-10.854-6.673-9.231-14.461 1.549-7.436 7.638-11.425 15.002-9.892 2.961 0.617 4.695 1.64 5.418 2.231l-1.26 2.349c-1.047-0.806-2.614-1.574-4.588-1.985-5.568-1.16-10.01 1.629-11.309 7.866-1.211 5.814 1.358 10.247 7.138 11.451 1.868 0.389 3.853 0.397 5.21 0.056l0.13 2.55z"/>
			<line x1="774.54" x2="788.58" y1="205.9" y2="208.83" fill="none" stroke="#000" stroke-miterlimit="10" stroke-width="2"/>
			<line x1="769.9" x2="786.39" y1="222.05" y2="225.48" fill="none" stroke="#000" stroke-miterlimit="10" stroke-width="2"/>
		<path d="m852.42 249.73c-10.814-2.253-17.754-12.846-15.502-23.658 2.253-10.814 12.844-17.754 23.658-15.502 10.813 2.253 17.754 12.843 15.501 23.658-2.26 10.81-12.85 17.75-23.66 15.5" fill="#BCE4E4" stroke="#000" stroke-miterlimit="10" stroke-width="2"/>
			<line x1="825.56" x2="839.6" y1="216.53" y2="219.45" fill="none" stroke="#000" stroke-miterlimit="10" stroke-width="2"/>
			<line x1="819.93" x2="837.4" y1="232.46" y2="236.1" fill="none" stroke="#000" stroke-miterlimit="10" stroke-width="2"/>
			<path d="m868.79 233.15c-1.703 8.177-7.574 11.475-13.636 10.212-6.272-1.306-9.664-7.086-8.167-14.274 1.57-7.541 7.285-11.499 13.628-10.178 6.49 1.35 9.65 7.19 8.18 14.24zm-18.51-3.45c-1.057 5.074 0.745 10.191 5.573 11.197 4.862 1.013 8.543-2.89 9.666-8.281 0.983-4.722-0.455-10.17-5.566-11.233-5.07-1.06-8.58 3.09-9.67 8.31z"/>
		<circle cx="459.78" cy="653.96" r="20" fill="#BCE4E4" stroke="#000" stroke-miterlimit="10" stroke-width="2"/>
		<circle cx="512.72" cy="654.77" r="20" fill="#BCE4E4" stroke="#000" stroke-miterlimit="10" stroke-width="2"/>
			<path d="m471.26 654.38c0 8.352-5.076 12.778-11.267 12.778-6.407 0-10.907-4.968-10.907-12.311 0-7.703 4.787-12.742 11.267-12.742 6.62 0 10.91 5.08 10.91 12.27zm-18.83 0.4c0 5.183 2.808 9.826 7.739 9.826 4.967 0 7.775-4.571 7.775-10.078 0-4.824-2.52-9.863-7.739-9.863-5.18 0-7.77 4.78-7.77 10.11z"/>
			<line x1="478.71" x2="494.32" y1="646.93" y2="646.93" fill="none" stroke="#000" stroke-miterlimit="10" stroke-width="2"/>
			<line x1="476.45" x2="494.81" y1="663.68" y2="663.68" fill="none" stroke="#000" stroke-miterlimit="10" stroke-width="2"/>
			<path d="m524.08 654.38c0 8.352-5.076 12.778-11.267 12.778-6.407 0-10.907-4.967-10.907-12.31 0-7.703 4.787-12.743 11.267-12.743 6.63 0 10.91 5.08 10.91 12.27zm-18.82 0.4c0 5.184 2.808 9.826 7.739 9.826 4.968 0 7.774-4.571 7.774-10.078 0-4.823-2.52-9.863-7.738-9.863-5.18 0-7.77 4.78-7.77 10.11z"/>
		<circle cx="922.09" cy="164.16" r="20" fill="#AAACD6" stroke="#000" stroke-miterlimit="10" stroke-width="2"/>
		<circle cx="958.64" cy="199.56" r="20" fill="#AAACD6" stroke="#000" stroke-miterlimit="10" stroke-width="2"/>
			<path d="m906.62 167.43l16.301-17.97 2.532 2.298-2.488 14.314c-0.577 3.315-1.255 6.151-2.07 8.766l0.078 0.021c1.963-2.593 3.892-4.828 6.432-7.627l6.819-7.519 2.187 1.983-16.3 17.969-2.346-2.128 2.565-14.294c0.561-3.136 1.224-6.277 2.083-9.046l-0.105-0.046c-1.922 2.387-3.827 4.596-6.536 7.582l-6.966 7.678-2.17-1.97z"/>
			<line x1="941.16" x2="952.53" y1="170.2" y2="180.52" fill="none" stroke="#000" stroke-miterlimit="10" stroke-width="2"/>
		<line x1="926.58" x2="939.09" y1="183.64" y2="195.33" fill="none" stroke="#000" stroke-miterlimit="10" stroke-width="2"/>
			<line x1="935.73" x2="943.82" y1="178.78" y2="186.12" fill="none" stroke="#000" stroke-miterlimit="10" stroke-width="2"/>
			<path d="m943.05 202.8l16.3-17.97 2.533 2.298-2.488 14.314c-0.577 3.315-1.255 6.151-2.07 8.765l0.078 0.022c1.963-2.594 3.893-4.828 6.432-7.627l6.82-7.519 2.186 1.983-16.3 17.969-2.347-2.128 2.566-14.294c0.561-3.137 1.223-6.277 2.082-9.045l-0.104-0.047c-1.923 2.388-3.828 4.596-6.537 7.582l-6.965 7.678-2.19-1.97z"/>
		<circle cx="746.7" cy="96.963" r="20" fill="#AAACD6" stroke="#000" stroke-miterlimit="10" stroke-width="2"/>
		<circle cx="796.32" cy="85.71" r="20" fill="#AAACD6" stroke="#000" stroke-miterlimit="10" stroke-width="2"/>
			<path d="m740.98 111.7l-6.137-23.473 3.309-0.865 10.627 9.909c2.46 2.295 4.465 4.413 6.207 6.525l0.061-0.054c-1.098-3.061-1.914-5.898-2.87-9.555l-2.567-9.82 2.855-0.747 6.137 23.472-3.064 0.801-10.566-9.962c-2.32-2.184-4.588-4.456-6.437-6.688l-0.095 0.062c0.947 2.915 1.755 5.717 2.774 9.618l2.622 10.03-2.85 0.74z"/>
		<line x1="762.18" x2="777.04" y1="84.299" y2="80.416" fill="none" stroke="#000" stroke-miterlimit="10" stroke-width="2"/>
			<line x1="765.47" x2="782.1" y1="103.85" y2="99.765" fill="none" stroke="#000" stroke-miterlimit="10" stroke-width="2"/>
		<line x1="766.4" x2="776.97" y1="93.533" y2="90.769" fill="none" stroke="#000" stroke-miterlimit="10" stroke-width="2"/>
			<path d="m790.51 100.54l-6.136-23.472 3.308-0.865 10.627 9.908c2.461 2.296 4.465 4.414 6.208 6.525l0.061-0.053c-1.098-3.061-1.914-5.899-2.87-9.555l-2.567-9.82 2.855-0.747 6.136 23.472-3.064 0.801-10.566-9.961c-2.319-2.184-4.587-4.456-6.436-6.689l-0.096 0.063c0.948 2.915 1.755 5.717 2.775 9.618l2.622 10.03-2.85 0.745z"/>
		<circle cx="721.61" cy="631.41" r="20" fill="#AAACD6" stroke="#000" stroke-miterlimit="10" stroke-width="2"/>
		<circle cx="771.78" cy="622.93" r="20" fill="#AAACD6" stroke="#000" stroke-miterlimit="10" stroke-width="2"/>
			<path d="m715.09 645.81l-4.825-23.777 3.352-0.68 10.061 10.483c2.329 2.429 4.214 4.653 5.836 6.859l0.063-0.05c-0.927-3.117-1.584-5.996-2.336-9.699l-2.019-9.949 2.893-0.586 4.825 23.775-3.104 0.631-9.997-10.533c-2.195-2.309-4.333-4.703-6.056-7.035l-0.099 0.057c0.785 2.963 1.436 5.806 2.237 9.757l2.062 10.159-2.87 0.59z"/>
			<line x1="737.78" x2="752.82" y1="619.63" y2="616.57" fill="none" stroke="#000" stroke-miterlimit="10" stroke-width="2"/>
		<line x1="739.98" x2="756.8" y1="639.33" y2="636.17" fill="none" stroke="#000" stroke-miterlimit="10" stroke-width="2"/>
			<line x1="741.47" x2="752.18" y1="629.08" y2="626.91" fill="none" stroke="#000" stroke-miterlimit="10" stroke-width="2"/>
			<path d="m765.16 637.41l-4.824-23.775 3.352-0.681 10.061 10.483c2.329 2.429 4.213 4.654 5.836 6.859l0.063-0.05c-0.927-3.117-1.584-5.996-2.336-9.7l-2.019-9.947 2.893-0.587 4.824 23.775-3.104 0.63-9.998-10.532c-2.194-2.31-4.333-4.703-6.055-7.036l-0.099 0.058c0.785 2.963 1.436 5.806 2.237 9.757l2.062 10.159-2.88 0.59z"/>
		<circle cx="93.142" cy="577.59" r="20" fill="#AAACD6" stroke="#000" stroke-miterlimit="10" stroke-width="2"/>
		<circle cx="144" cy="579.26" r="20" fill="#AAACD6" stroke="#000" stroke-miterlimit="10" stroke-width="2"/>
			<path d="m83.886 590.4v-24.261h3.419l7.775 12.274c1.8 2.844 3.204 5.398 4.355 7.883l0.072-0.036c-0.288-3.239-0.36-6.19-0.36-9.971v-10.15h2.952v24.261h-3.167l-7.703-12.311c-1.692-2.699-3.312-5.471-4.535-8.1l-0.108 0.037c0.18 3.059 0.252 5.975 0.252 10.006v10.367h-2.953z"/>
			<line x1="111.32" x2="126.68" y1="569.26" y2="569.26" fill="none" stroke="#000" stroke-miterlimit="10" stroke-width="2"/>
			<line x1="109.56" x2="126.68" y1="589" y2="589.26" fill="none" stroke="#000" stroke-miterlimit="10" stroke-width="2"/>
			<line x1="113.07" x2="124" y1="579.26" y2="579.26" fill="none" stroke="#000" stroke-miterlimit="10" stroke-width="2"/>
			<path d="m134.63 592.13v-24.261h3.419l7.775 12.274c1.8 2.843 3.204 5.399 4.355 7.883l0.072-0.036c-0.288-3.239-0.36-6.191-0.36-9.971v-10.15h2.952v24.261h-3.167l-7.703-12.311c-1.692-2.7-3.312-5.472-4.535-8.099l-0.108 0.035c0.18 3.061 0.252 5.976 0.252 10.008v10.366h-2.95z"/>
		<circle cx="98.566" cy="117.06" r="20" fill="#AAACD6" stroke="#000" stroke-miterlimit="10" stroke-width="2"/>
		<circle cx="109.05" cy="67.273" r="20" fill="#AAACD6" stroke="#000" stroke-miterlimit="10" stroke-width="2"/>
			<path d="m109.57 128.41l-23.892-4.218 0.595-3.367 13.439-5.522c3.113-1.278 5.874-2.216 8.521-2.918l-0.023-0.078c-3.24-0.28-6.159-0.722-9.882-1.379l-9.996-1.765 0.514-2.906 23.892 4.218-0.551 3.119-13.463 5.445c-2.952 1.197-5.964 2.31-8.765 3.058l0.018 0.113c3.044 0.354 5.928 0.791 9.897 1.492l10.209 1.803-0.52 2.91z"/>
		<line x1="93.518" x2="96.187" y1="97.709" y2="82.588" fill="none" stroke="#000" stroke-miterlimit="10" stroke-width="2"/>
		<line x1="112.66" x2="115.88" y1="102.88" y2="86.066" fill="none" stroke="#000" stroke-miterlimit="10" stroke-width="2"/>
		<line x1="103.67" x2="105.57" y1="97.73" y2="86.968" fill="none" stroke="#000" stroke-miterlimit="10" stroke-width="2"/>
			<path d="m120.1 78.737l-23.891-4.218 0.595-3.367 13.439-5.522c3.113-1.278 5.873-2.216 8.52-2.918l-0.023-0.077c-3.239-0.28-6.158-0.722-9.881-1.379l-9.996-1.765 0.514-2.907 23.891 4.219-0.551 3.119-13.462 5.445c-2.952 1.196-5.964 2.31-8.765 3.058l0.018 0.112c3.043 0.355 5.928 0.791 9.897 1.492l10.209 1.803-0.53 2.905z"/>
		<circle cx="822.37" cy="327.96" r="20" fill="#AAACD6" stroke="#000" stroke-miterlimit="10" stroke-width="2"/>
		<circle cx="850.62" cy="370.28" r="20" fill="#AAACD6" stroke="#000" stroke-miterlimit="10" stroke-width="2"/>
			<path d="m806.56 327.9l19.727-14.123 1.991 2.78-5.455 13.467c-1.264 3.119-2.524 5.748-3.873 8.131l0.07 0.037c2.467-2.119 4.824-3.896 7.898-6.098l8.253-5.908 1.718 2.4-19.727 14.123-1.844-2.576 5.525-13.43c1.211-2.947 2.521-5.877 3.945-8.402l-0.092-0.066c-2.383 1.928-4.712 3.684-7.99 6.03l-8.43 6.034-1.71-2.39z"/>
			<line x1="839.73" x2="848.67" y1="337.89" y2="350.38" fill="none" stroke="#000" stroke-miterlimit="10" stroke-width="2"/>
			<line x1="822.65" x2="832.41" y1="347.96" y2="362.02" fill="none" stroke="#000" stroke-miterlimit="10" stroke-width="2"/>
			<line x1="832.62" x2="838.98" y1="345.13" y2="354.02" fill="none" stroke="#000" stroke-miterlimit="10" stroke-width="2"/>
			<path d="m834.7 370.16l19.727-14.123 1.99 2.781-5.454 13.467c-1.265 3.119-2.524 5.748-3.874 8.131l0.071 0.037c2.466-2.119 4.825-3.896 7.897-6.098l8.254-5.908 1.718 2.4-19.726 14.123-1.845-2.576 5.526-13.43c1.209-2.947 2.52-5.877 3.944-8.402l-0.093-0.066c-2.383 1.928-4.711 3.684-7.989 6.029l-8.429 6.035-1.72-2.4z"/>
		<circle cx="684.76" cy="489.11" r="20" fill="#AAACD6" stroke="#000" stroke-miterlimit="10" stroke-width="2"/>
		<circle cx="716.55" cy="449.39" r="20" fill="#AAACD6" stroke="#000" stroke-miterlimit="10" stroke-width="2"/>
			<path d="m689.48 504.2l-19.428-14.531 2.047-2.738 14.486 1.125c3.355 0.262 6.242 0.668 8.922 1.234l0.014-0.08c-2.766-1.709-5.174-3.42-8.199-5.684l-8.129-6.079 1.768-2.364 19.428 14.531-1.896 2.537-14.473-1.205c-3.174-0.263-6.365-0.626-9.201-1.22l-0.035 0.108c2.557 1.688 4.936 3.377 8.164 5.791l8.301 6.21-1.76 2.35z"/>
			<line x1="688.98" x2="698.17" y1="469.56" y2="457.26" fill="none" stroke="#000" stroke-miterlimit="10" stroke-width="2"/>
			<line x1="703.73" x2="714.19" y1="482.8" y2="469.24" fill="none" stroke="#000" stroke-miterlimit="10" stroke-width="2"/>
			<line x1="698.03" x2="704.57" y1="474.15" y2="465.4" fill="none" stroke="#000" stroke-miterlimit="10" stroke-width="2"/>
			<path d="m721.25 464.6l-19.428-14.531 2.049-2.737 14.486 1.125c3.354 0.262 6.242 0.669 8.92 1.234l0.016-0.08c-2.768-1.709-5.174-3.42-8.201-5.684l-8.127-6.08 1.768-2.363 19.428 14.531-1.898 2.537-14.471-1.205c-3.176-0.263-6.365-0.625-9.203-1.22l-0.035 0.108c2.557 1.688 4.936 3.377 8.164 5.792l8.301 6.209-1.77 2.35z"/>
		<circle cx="524.31" cy="216.97" r="20" fill="#AAACD6" stroke="#000" stroke-miterlimit="10" stroke-width="2"/>
		<circle cx="575.16" cy="218.63" r="20" fill="#AAACD6" stroke="#000" stroke-miterlimit="10" stroke-width="2"/>
			<path d="m515.05 229.78v-24.261h3.419l7.775 12.274c1.8 2.843 3.203 5.399 4.355 7.883l0.072-0.036c-0.288-3.239-0.36-6.191-0.36-9.971v-10.15h2.952v24.261h-3.168l-7.703-12.311c-1.691-2.7-3.312-5.471-4.535-8.099l-0.107 0.036c0.18 3.06 0.252 5.975 0.252 10.007v10.367h-2.95z"/>
			<line x1="542.49" x2="557.84" y1="208.63" y2="208.63" fill="none" stroke="#000" stroke-miterlimit="10" stroke-width="2"/>
			<line x1="540.73" x2="557.84" y1="228.38" y2="228.63" fill="none" stroke="#000" stroke-miterlimit="10" stroke-width="2"/>
			<line x1="544.23" x2="555.16" y1="218.63" y2="218.63" fill="none" stroke="#000" stroke-miterlimit="10" stroke-width="2"/>
			<path d="m565.79 231.51v-24.261h3.42l7.775 12.274c1.799 2.843 3.203 5.399 4.355 7.883l0.072-0.036c-0.289-3.239-0.361-6.191-0.361-9.971v-10.15h2.952v24.261h-3.167l-7.703-12.311c-1.692-2.7-3.313-5.471-4.535-8.099l-0.108 0.036c0.18 3.06 0.252 5.975 0.252 10.007v10.367h-2.95z"/>
		<circle cx="367.45" cy="124.15" r="20" fill="#AAACD6" stroke="#000" stroke-miterlimit="10" stroke-width="2"/>
		<circle cx="417.07" cy="112.9" r="20" fill="#AAACD6" stroke="#000" stroke-miterlimit="10" stroke-width="2"/>
			<path d="m361.74 138.89l-6.137-23.473 3.309-0.865 10.627 9.909c2.46 2.295 4.465 4.413 6.207 6.525l0.061-0.054c-1.098-3.061-1.914-5.898-2.87-9.555l-2.567-9.82 2.855-0.747 6.137 23.472-3.064 0.801-10.566-9.962c-2.32-2.184-4.588-4.456-6.437-6.688l-0.095 0.062c0.947 2.915 1.755 5.717 2.774 9.618l2.622 10.03-2.85 0.73z"/>
			<line x1="382.93" x2="397.79" y1="111.49" y2="107.61" fill="none" stroke="#000" stroke-miterlimit="10" stroke-width="2"/>
			<line x1="386.22" x2="402.84" y1="131.04" y2="126.96" fill="none" stroke="#000" stroke-miterlimit="10" stroke-width="2"/>
			<line x1="387.15" x2="397.72" y1="120.72" y2="117.96" fill="none" stroke="#000" stroke-miterlimit="10" stroke-width="2"/>
			<path d="m411.26 127.73l-6.136-23.472 3.308-0.865 10.627 9.908c2.461 2.296 4.465 4.414 6.208 6.525l0.061-0.053c-1.098-3.061-1.914-5.899-2.87-9.555l-2.567-9.82 2.855-0.747 6.136 23.472-3.064 0.801-10.566-9.961c-2.319-2.184-4.587-4.456-6.436-6.689l-0.096 0.063c0.948 2.915 1.755 5.717 2.775 9.618l2.622 10.03-2.84 0.73z"/>
		<circle cx="247.18" cy="649.6" r="20" fill="#AAACD6" stroke="#000" stroke-miterlimit="10" stroke-width="2"/>
		<circle cx="297.35" cy="641.12" r="20" fill="#AAACD6" stroke="#000" stroke-miterlimit="10" stroke-width="2"/>
			<path d="m240.66 664l-4.825-23.777 3.352-0.68 10.061 10.483c2.329 2.429 4.214 4.653 5.836 6.859l0.063-0.05c-0.927-3.117-1.584-5.996-2.336-9.699l-2.019-9.949 2.893-0.586 4.825 23.775-3.104 0.631-9.997-10.533c-2.195-2.309-4.333-4.703-6.056-7.035l-0.099 0.057c0.785 2.963 1.436 5.806 2.237 9.757l2.062 10.159-2.88 0.6z"/>
			<line x1="263.34" x2="278.39" y1="637.81" y2="634.76" fill="none" stroke="#000" stroke-miterlimit="10" stroke-width="2"/>
			<line x1="265.54" x2="282.37" y1="657.52" y2="654.36" fill="none" stroke="#000" stroke-miterlimit="10" stroke-width="2"/>
		<line x1="267.04" x2="277.75" y1="647.27" y2="645.1" fill="none" stroke="#000" stroke-miterlimit="10" stroke-width="2"/>
			<path d="m290.73 655.6l-4.824-23.775 3.352-0.681 10.061 10.483c2.329 2.429 4.213 4.654 5.836 6.859l0.063-0.05c-0.927-3.117-1.584-5.996-2.336-9.7l-2.019-9.947 2.893-0.587 4.824 23.775-3.104 0.63-9.998-10.532c-2.194-2.31-4.333-4.703-6.055-7.036l-0.099 0.058c0.785 2.963 1.436 5.806 2.237 9.757l2.062 10.159-2.89 0.6z"/>
		<circle cx="444.48" cy="385.76" r="20" fill="#AAACD6" stroke="#000" stroke-miterlimit="10" stroke-width="2"/>
		<circle cx="486.81" cy="357.52" r="20" fill="#AAACD6" stroke="#000" stroke-miterlimit="10" stroke-width="2"/>
			<path d="m444.42 401.57l-14.119-19.729 2.781-1.99 13.465 5.456c3.119 1.265 5.748 2.526 8.131 3.876l0.037-0.072c-2.119-2.466-3.896-4.824-6.096-7.898l-5.908-8.254 2.4-1.718 14.12 19.729-2.575 1.843-13.43-5.528c-2.947-1.211-5.877-2.521-8.401-3.946l-0.067 0.093c1.928 2.383 3.684 4.712 6.029 7.99l6.033 8.431-2.38 1.72z"/>
		<line x1="454.42" x2="466.9" y1="368.4" y2="359.46" fill="none" stroke="#000" stroke-miterlimit="10" stroke-width="2"/>
			<line x1="464.48" x2="478.54" y1="385.49" y2="375.73" fill="none" stroke="#000" stroke-miterlimit="10" stroke-width="2"/>
			<line x1="461.66" x2="470.54" y1="375.52" y2="369.16" fill="none" stroke="#000" stroke-miterlimit="10" stroke-width="2"/>
			<path d="m486.68 373.44l-14.119-19.729 2.78-1.989 13.467 5.456c3.118 1.265 5.747 2.525 8.129 3.875l0.038-0.07c-2.12-2.467-3.896-4.825-6.096-7.898l-5.907-8.254 2.4-1.718 14.119 19.729-2.576 1.844-13.429-5.527c-2.947-1.211-5.877-2.522-8.401-3.947l-0.066 0.093c1.927 2.383 3.682 4.712 6.028 7.99l6.033 8.431-2.39 1.72z"/>
		<circle cx="913.81" cy="608.4" r="20" fill="#AAACD6" stroke="#000" stroke-miterlimit="10" stroke-width="2"/>
		<circle cx="945.61" cy="568.67" r="20" fill="#AAACD6" stroke="#000" stroke-miterlimit="10" stroke-width="2"/>
			<path d="m918.53 623.49l-19.428-14.531 2.047-2.738 14.486 1.126c3.355 0.262 6.242 0.669 8.922 1.233l0.014-0.078c-2.766-1.711-5.174-3.42-8.199-5.684l-8.129-6.08 1.768-2.363 19.428 14.531-1.896 2.535-14.473-1.204c-3.174-0.263-6.365-0.626-9.201-1.22l-0.035 0.107c2.557 1.689 4.936 3.377 8.164 5.793l8.301 6.209-1.77 2.36z"/>
			<line x1="918.03" x2="927.23" y1="588.85" y2="576.55" fill="none" stroke="#000" stroke-miterlimit="10" stroke-width="2"/>
			<line x1="932.79" x2="943.24" y1="602.09" y2="588.53" fill="none" stroke="#000" stroke-miterlimit="10" stroke-width="2"/>
			<line x1="927.08" x2="933.63" y1="593.44" y2="584.69" fill="none" stroke="#000" stroke-miterlimit="10" stroke-width="2"/>
			<path d="m950.3 583.89l-19.428-14.531 2.049-2.738 14.486 1.127c3.354 0.262 6.242 0.668 8.92 1.232l0.016-0.079c-2.768-1.709-5.174-3.419-8.201-5.684l-8.127-6.079 1.768-2.363 19.428 14.531-1.898 2.535-14.471-1.205c-3.176-0.262-6.365-0.625-9.203-1.219l-0.035 0.107c2.557 1.689 4.936 3.378 8.164 5.793l8.301 6.209-1.78 2.36z"/>
		<circle cx="175.98" cy="264.16" r="20" fill="#AAACD6" stroke="#000" stroke-miterlimit="10" stroke-width="2"/>
		<circle cx="226.84" cy="265.82" r="20" fill="#AAACD6" stroke="#000" stroke-miterlimit="10" stroke-width="2"/>
			<path d="m166.73 276.97v-24.261h3.419l7.775 12.274c1.8 2.843 3.204 5.399 4.355 7.883l0.072-0.036c-0.288-3.239-0.36-6.191-0.36-9.971v-10.15h2.952v24.261h-3.167l-7.703-12.311c-1.692-2.7-3.312-5.471-4.535-8.099l-0.108 0.036c0.18 3.06 0.252 5.975 0.252 10.007v10.367h-2.95z"/>
			<line x1="194.17" x2="209.52" y1="255.82" y2="255.82" fill="none" stroke="#000" stroke-miterlimit="10" stroke-width="2"/>
			<line x1="192.4" x2="209.52" y1="275.57" y2="275.82" fill="none" stroke="#000" stroke-miterlimit="10" stroke-width="2"/>
			<line x1="195.91" x2="206.84" y1="265.82" y2="265.82" fill="none" stroke="#000" stroke-miterlimit="10" stroke-width="2"/>
			<path d="m217.47 278.7v-24.261h3.419l7.775 12.274c1.8 2.843 3.204 5.399 4.355 7.883l0.072-0.036c-0.288-3.239-0.36-6.191-0.36-9.971v-10.15h2.952v24.261h-3.167l-7.703-12.311c-1.692-2.7-3.312-5.471-4.535-8.099l-0.108 0.036c0.18 3.06 0.252 5.975 0.252 10.007v10.367h-2.95z"/>
		<circle cx="333.16" cy="335.08" r="20" fill="#AAACD6" stroke="#000" stroke-miterlimit="10" stroke-width="2"/>
		<circle cx="343.64" cy="285.29" r="20" fill="#AAACD6" stroke="#000" stroke-miterlimit="10" stroke-width="2"/>
			<path d="m344.17 346.43l-23.892-4.218 0.595-3.367 13.439-5.522c3.113-1.278 5.874-2.216 8.521-2.918l-0.023-0.078c-3.24-0.28-6.159-0.722-9.882-1.379l-9.996-1.765 0.514-2.906 23.892 4.218-0.551 3.119-13.463 5.445c-2.952 1.197-5.964 2.31-8.765 3.058l0.018 0.113c3.044 0.354 5.928 0.791 9.897 1.492l10.209 1.803-0.52 2.91z"/>
			<line x1="328.12" x2="330.78" y1="315.73" y2="300.61" fill="none" stroke="#000" stroke-miterlimit="10" stroke-width="2"/>
			<line x1="347.26" x2="350.48" y1="320.9" y2="304.08" fill="none" stroke="#000" stroke-miterlimit="10" stroke-width="2"/>
			<line x1="338.27" x2="340.17" y1="315.75" y2="304.99" fill="none" stroke="#000" stroke-miterlimit="10" stroke-width="2"/>
			<path d="m354.69 296.76l-23.891-4.218 0.595-3.367 13.439-5.522c3.113-1.278 5.873-2.216 8.52-2.918l-0.023-0.077c-3.239-0.28-6.158-0.722-9.881-1.379l-9.996-1.765 0.514-2.907 23.891 4.219-0.551 3.119-13.462 5.445c-2.952 1.196-5.964 2.31-8.765 3.058l0.018 0.112c3.043 0.355 5.928 0.791 9.897 1.492l10.209 1.803-0.52 2.92z"/>
		<circle cx="529.12" cy="515.2" r="20" fill="#AAACD6" stroke="#000" stroke-miterlimit="10" stroke-width="2"/>
		<circle cx="557.37" cy="557.52" r="20" fill="#AAACD6" stroke="#000" stroke-miterlimit="10" stroke-width="2"/>
			<path d="m513.31 515.14l19.727-14.123 1.99 2.78-5.454 13.467c-1.264 3.119-2.524 5.748-3.874 8.131l0.072 0.037c2.466-2.119 4.824-3.896 7.896-6.098l8.254-5.908 1.719 2.4-19.727 14.123-1.845-2.576 5.526-13.43c1.209-2.947 2.52-5.877 3.945-8.402l-0.093-0.066c-2.384 1.928-4.712 3.684-7.99 6.03l-8.429 6.034-1.74-2.39z"/>
			<line x1="546.48" x2="555.42" y1="525.13" y2="537.62" fill="none" stroke="#000" stroke-miterlimit="10" stroke-width="2"/>
			<line x1="529.4" x2="539.16" y1="535.2" y2="549.26" fill="none" stroke="#000" stroke-miterlimit="10" stroke-width="2"/>
			<line x1="539.36" x2="545.73" y1="532.37" y2="541.26" fill="none" stroke="#000" stroke-miterlimit="10" stroke-width="2"/>
			<path d="m541.45 557.4l19.726-14.123 1.991 2.781-5.454 13.467c-1.264 3.118-2.525 5.748-3.874 8.131l0.071 0.037c2.467-2.12 4.824-3.896 7.898-6.098l8.252-5.908 1.719 2.399-19.727 14.123-1.844-2.575 5.525-13.43c1.21-2.947 2.521-5.878 3.945-8.402l-0.092-0.066c-2.384 1.927-4.713 3.683-7.99 6.029l-8.43 6.035-1.72-2.4z"/>
		<circle cx="237.92" cy="64.874" r="20" fill="#AAACD6" stroke="#000" stroke-miterlimit="10" stroke-width="2"/>
		<circle cx="288.77" cy="66.536" r="20" fill="#AAACD6" stroke="#000" stroke-miterlimit="10" stroke-width="2"/>
			<path d="m228.66 77.686v-24.261h3.419l7.775 12.274c1.8 2.843 3.204 5.399 4.355 7.883l0.072-0.036c-0.288-3.239-0.36-6.191-0.36-9.971v-10.15h2.952v24.261h-3.167l-7.703-12.311c-1.692-2.7-3.312-5.471-4.535-8.099l-0.108 0.036c0.18 3.06 0.252 5.975 0.252 10.007v10.367h-2.96z"/>
		<line x1="256.1" x2="271.45" y1="56.536" y2="56.536" fill="none" stroke="#000" stroke-miterlimit="10" stroke-width="2"/>
		<line x1="254.34" x2="271.45" y1="76.286" y2="76.536" fill="none" stroke="#000" stroke-miterlimit="10" stroke-width="2"/>
		<line x1="257.84" x2="268.77" y1="66.536" y2="66.536" fill="none" stroke="#000" stroke-miterlimit="10" stroke-width="2"/>
			<path d="m279.4 79.412v-24.261h3.419l7.775 12.274c1.8 2.843 3.204 5.399 4.355 7.883l0.072-0.036c-0.288-3.239-0.36-6.191-0.36-9.971v-10.15h2.952v24.261h-3.167l-7.703-12.311c-1.692-2.7-3.312-5.471-4.535-8.099l-0.108 0.036c0.18 3.06 0.252 5.975 0.252 10.007v10.367h-2.96z"/>
		<circle cx="72.866" cy="360.78" r="20" fill="#BCE4E4" stroke="#000" stroke-miterlimit="10" stroke-width="2"/>
		<circle cx="114.17" cy="393.91" r="20" fill="#BCE4E4" stroke="#000" stroke-miterlimit="10" stroke-width="2"/>
			<path d="m81.665 368.17c-5.125 6.594-11.849 6.975-16.737 3.175-5.059-3.932-5.563-10.614-1.057-16.412 4.727-6.082 11.599-7.123 16.714-3.146 5.23 4.07 5.498 10.7 1.08 16.39zm-15.107-11.24c-3.181 4.092-3.813 9.481 0.08 12.508 3.922 3.048 8.944 1.162 12.324-3.188 2.96-3.809 4.063-9.334-0.058-12.536-4.093-3.18-9.077-0.99-12.346 3.22z"/>
		<line x1="92.129" x2="104.45" y1="366.85" y2="376.43" fill="none" stroke="#000" stroke-miterlimit="10" stroke-width="2"/>
		<line x1="80.064" x2="94.56" y1="378.69" y2="389.96" fill="none" stroke="#000" stroke-miterlimit="10" stroke-width="2"/>
			<path d="m123.38 400.58c-5.125 6.595-11.849 6.976-16.737 3.176-5.059-3.932-5.564-10.614-1.058-16.413 4.727-6.082 11.6-7.123 16.716-3.147 5.23 4.06 5.49 10.7 1.08 16.38zm-15.11-11.24c-3.181 4.093-3.813 9.481 0.081 12.508 3.922 3.048 8.944 1.161 12.323-3.188 2.96-3.808 4.063-9.333-0.058-12.536-4.09-3.17-9.07-0.98-12.34 3.22z"/>
		<circle cx="861.58" cy="465.92" r="20" fill="#BCE4E4" stroke="#000" stroke-miterlimit="10" stroke-width="2"/>
		<circle cx="909.44" cy="488.58" r="20" fill="#BCE4E4" stroke="#000" stroke-miterlimit="10" stroke-width="2"/>
			<path d="m871.85 471.06c-3.457 7.602-9.91 9.53-15.546 6.968-5.833-2.652-7.872-9.037-4.832-15.721 3.189-7.013 9.633-9.618 15.531-6.936 6.03 2.75 7.83 9.14 4.85 15.69zm-17.3-7.43c-2.146 4.718-1.512 10.106 2.977 12.148 4.521 2.057 8.971-0.942 11.25-5.955 1.997-4.391 1.789-10.021-2.962-12.182-4.72-2.14-9.06 1.14-11.27 5.99z"/>
			<line x1="881.73" x2="895.93" y1="467.36" y2="473.82" fill="none" stroke="#000" stroke-miterlimit="10" stroke-width="2"/>
			<line x1="872.73" x2="889.44" y1="481.67" y2="489.27" fill="none" stroke="#000" stroke-miterlimit="10" stroke-width="2"/>
			<path d="m919.94 492.93c-3.458 7.604-9.91 9.531-15.546 6.969-5.832-2.652-7.872-9.037-4.832-15.721 3.189-7.012 9.633-9.619 15.531-6.936 6.03 2.75 7.83 9.14 4.85 15.69zm-17.3-7.43c-2.146 4.719-1.512 10.107 2.977 12.148 4.521 2.057 8.97-0.943 11.249-5.955 1.997-4.391 1.79-10.021-2.961-12.184-4.73-2.15-9.07 1.13-11.27 5.98z"/>
		<circle cx="544.82" cy="123.37" r="20" fill="#BCE4E4" stroke="#000" stroke-miterlimit="10" stroke-width="2"/>
		<circle cx="593.45" cy="102.43" r="20" fill="#BCE4E4" stroke="#000" stroke-miterlimit="10" stroke-width="2"/>
			<path d="m555.47 119.06c3.42 7.618 0.604 13.736-5.045 16.271-5.846 2.624-11.984-0.065-14.992-6.764-3.154-7.028-0.852-13.585 5.061-16.239 6.04-2.71 12.03 0.16 14.98 6.73zm-17.01 8.07c2.123 4.729 6.586 7.815 11.084 5.795 4.531-2.034 5.221-7.355 2.965-12.379-1.975-4.401-6.338-7.966-11.1-5.828-4.72 2.13-5.13 7.56-2.94 12.42z"/>
			<line x1="559.21" x2="573.45" y1="109.2" y2="102.81" fill="none" stroke="#000" stroke-miterlimit="10" stroke-width="2"/>
			<line x1="564.01" x2="580.76" y1="125.41" y2="117.89" fill="none" stroke="#000" stroke-miterlimit="10" stroke-width="2"/>
			<path d="m603.66 97.426c3.42 7.619 0.604 13.736-5.045 16.272-5.846 2.624-11.984-0.064-14.992-6.764-3.154-7.027-0.852-13.586 5.06-16.239 6.03-2.718 12.02 0.158 14.97 6.725zm-17.01 8.074c2.123 4.729 6.585 7.814 11.084 5.795 4.531-2.034 5.221-7.354 2.965-12.379-1.975-4.399-6.338-7.966-11.1-5.828-4.73 2.116-5.13 7.547-2.95 12.407z"/>
		<circle cx="641.41" cy="321.05" r="20" fill="#BCE4E4" stroke="#000" stroke-miterlimit="10" stroke-width="2"/>
			<path d="m652.54 318.23c2.354 8.013-1.269 13.69-7.209 15.436-6.147 1.806-11.864-1.692-13.934-8.738-2.171-7.391 1.002-13.575 7.219-15.401 6.36-1.87 11.9 1.79 13.92 8.7zm-17.95 5.68c1.46 4.973 5.463 8.637 10.193 7.247 4.767-1.4 6.172-6.577 4.62-11.861-1.359-4.628-5.197-8.753-10.205-7.282-4.97 1.46-6.11 6.78-4.61 11.89z"/>
			<line x1="604.33" x2="628.87" y1="361.88" y2="336.63" fill="none" stroke="#000" stroke-miterlimit="10" stroke-width="2"/>
			<line x1="660.38" x2="691.08" y1="327.37" y2="334.31" fill="none" stroke="#000" stroke-miterlimit="10" stroke-width="2"/>
		<circle cx="611.1" cy="360.97" r="20" fill="#F69E9F" stroke="#000" stroke-miterlimit="10" stroke-width="2"/>
			<path d="m601.4 351.94l2.859 9.739 11.26-3.307-2.861-9.739 3.039-0.893 6.838 23.278-3.041 0.893-3.205-10.914-11.258 3.307 3.205 10.914-3.004 0.883-6.838-23.278 3-0.88z"/>
		<circle cx="689.87" cy="336.75" r="20" fill="#F69E9F" stroke="#000" stroke-miterlimit="10" stroke-width="2"/>
			<path d="m680.74 327.08l2.859 9.739 11.26-3.307-2.861-9.739 3.04-0.893 6.837 23.278-3.04 0.893-3.205-10.914-11.259 3.307 3.205 10.914-3.004 0.883-6.837-23.279 3-0.88z"/>
		<path d="m172.69 487.54c-10.345 3.873-21.871-1.373-25.744-11.717-3.874-10.345 1.372-21.87 11.716-25.743 10.345-3.874 21.87 1.371 25.744 11.716 3.87 10.34-1.38 21.87-11.72 25.74" fill="#BCE4E4" stroke="#000" stroke-miterlimit="10" stroke-width="2"/>
		<path d="m221.19 469.38c-10.344 3.874-21.87-1.372-25.743-11.716-3.874-10.346 1.372-21.87 11.716-25.743 10.344-3.874 21.87 1.37 25.744 11.716 3.87 10.34-1.37 21.86-11.72 25.74" fill="#F9F28F" stroke="#000" stroke-miterlimit="10" stroke-width="2"/>
			<path d="m174.23 466.07c2.929 7.82-0.271 13.746-6.069 15.917-6.001 2.247-11.956-0.827-14.531-7.704-2.701-7.214 0.015-13.611 6.083-15.885 6.2-2.33 11.99 0.92 14.52 7.67zm-17.49 6.97c1.817 4.854 6.074 8.217 10.692 6.488 4.652-1.742 5.679-7.008 3.748-12.166-1.692-4.517-5.819-8.352-10.707-6.521-4.85 1.82-5.6 7.21-3.73 12.2z"/>
			<path d="m226.57 458.84c-0.876 0.943-2.832 2.291-5.596 3.326-6.405 2.398-12.74 0.158-15.529-7.291-2.664-7.113 0.352-13.738 7.396-16.377 2.832-1.061 4.846-1.123 5.772-1.008l0.188 2.658c-1.314-0.123-3.051 0.066-4.938 0.772-5.326 1.995-7.591 6.725-5.356 12.69 2.083 5.563 6.623 7.938 12.152 5.867 1.786-0.67 3.468-1.723 4.433-2.736l1.49 2.1z"/>
			<line x1="180.74" x2="194.18" y1="455.66" y2="450.63" fill="none" stroke="#000" stroke-miterlimit="10" stroke-width="2"/>
			<line x1="185.45" x2="201.22" y1="471.78" y2="465.88" fill="none" stroke="#000" stroke-miterlimit="10" stroke-width="2"/>
		<path d="m269.99 451.1c-10.344 3.873-21.87-1.373-25.744-11.717-3.874-10.346 1.372-21.87 11.717-25.743 10.344-3.874 21.869 1.371 25.743 11.717 3.87 10.34-1.37 21.87-11.72 25.74" fill="#BCE4E4" stroke="#000" stroke-miterlimit="10" stroke-width="2"/>
			<line x1="229.55" x2="242.98" y1="437.39" y2="432.36" fill="none" stroke="#000" stroke-miterlimit="10" stroke-width="2"/>
			<line x1="233.3" x2="250.02" y1="453.87" y2="447.61" fill="none" stroke="#000" stroke-miterlimit="10" stroke-width="2"/>
			<path d="m274.97 428.34c2.929 7.821-0.271 13.747-6.07 15.918-5.999 2.247-11.955-0.827-14.529-7.703-2.701-7.214 0.014-13.613 6.082-15.886 6.21-2.32 12 0.93 14.52 7.67zm-17.49 6.97c1.817 4.854 6.075 8.218 10.693 6.489 4.651-1.742 5.678-7.008 3.747-12.165-1.691-4.517-5.818-8.354-10.707-6.522-4.85 1.81-5.59 7.2-3.73 12.19z"/>
</svg>
