<?xml version="1.0" encoding="UTF-8"?>
<svg viewBox="0 0 524.20117 667.6781" xmlns="http://www.w3.org/2000/svg">
 <defs>
  <radialGradient id="a" cx="189.27" cy="941.96" r="9.5197" gradientTransform="matrix(.79171 .00304 -.00316 .82548 42.545 163.36)" gradientUnits="userSpaceOnUse">
   <stop stop-color="#e69969" offset="0"/>
   <stop stop-color="#ba5b49" offset="1"/>
  </radialGradient>
  <radialGradient id="b" cx="189.27" cy="941.96" r="9.5197" gradientTransform="matrix(.79171 .00304 -.00316 .82548 42.545 163.36)" gradientUnits="userSpaceOnUse">
   <stop stop-color="#e699d4" offset="0"/>
   <stop stop-color="#ba5bda" offset="1"/>
  </radialGradient>
 </defs>
 <g transform="matrix(.97914 -.20318 .20318 .97914 -130.45 -239.41)">
  <path transform="translate(22.626 -141.3)" d="m195.59 945.05c0 5.7356-4.2621 10.385-9.5197 10.385s-9.5197-4.6496-9.5197-10.385 4.2621-10.385 9.5197-10.385 9.5197 4.6496 9.5197 10.385z" fill="url(#a)"/>
  <path transform="translate(20.876 -166.16)" d="m195.59 945.05c0 5.7356-4.2621 10.385-9.5197 10.385s-9.5197-4.6496-9.5197-10.385 4.2621-10.385 9.5197-10.385 9.5197 4.6496 9.5197 10.385z" fill="url(#a)"/>
  <path transform="translate(9.6706 -156.01)" d="m195.59 945.05c0 5.7356-4.2621 10.385-9.5197 10.385s-9.5197-4.6496-9.5197-10.385 4.2621-10.385 9.5197-10.385 9.5197 4.6496 9.5197 10.385z" fill="url(#b)"/>
  <path transform="translate(10.155 -93.842)" d="m195.59 945.05c0 5.7356-4.2621 10.385-9.5197 10.385s-9.5197-4.6496-9.5197-10.385 4.2621-10.385 9.5197-10.385 9.5197 4.6496 9.5197 10.385z" fill="url(#a)"/>
  <path transform="translate(.21636 -154.25)" d="m195.59 945.05c0 5.7356-4.2621 10.385-9.5197 10.385s-9.5197-4.6496-9.5197-10.385 4.2621-10.385 9.5197-10.385 9.5197 4.6496 9.5197 10.385z" fill="url(#a)"/>
  <path transform="translate(6.8694 -138.85)" d="m195.59 945.05c0 5.7356-4.2621 10.385-9.5197 10.385s-9.5197-4.6496-9.5197-10.385 4.2621-10.385 9.5197-10.385 9.5197 4.6496 9.5197 10.385z" fill="url(#b)"/>
  <path transform="translate(31.38 -154.25)" d="m195.59 945.05c0 5.7356-4.2621 10.385-9.5197 10.385s-9.5197-4.6496-9.5197-10.385 4.2621-10.385 9.5197-10.385 9.5197 4.6496 9.5197 10.385z" fill="url(#b)"/>
  <path transform="translate(17.374 -154.95)" d="m195.59 945.05c0 5.7356-4.2621 10.385-9.5197 10.385s-9.5197-4.6496-9.5197-10.385 4.2621-10.385 9.5197-10.385 9.5197 4.6496 9.5197 10.385z" fill="url(#a)"/>
  <path d="m187.68 861.18-14.006 82.637" fill="none" stroke="#000053" stroke-linecap="round" stroke-width=".7"/>
  <path d="m192.94 865.03-10.155 48.672" fill="none" stroke="#000053" stroke-linecap="round" stroke-width=".7"/>
  <path d="m199.94 864.33-26.612 97.694" fill="none" stroke="#000053" stroke-linecap="round" stroke-width=".7"/>
  <path transform="matrix(.3557 .4617 -.4617 .3557 706.29 293.35)" d="m195.59 945.05c0 5.7356-4.2621 10.385-9.5197 10.385s-9.5197-4.6496-9.5197-10.385 4.2621-10.385 9.5197-10.385 9.5197 4.6496 9.5197 10.385z" fill="url(#a)"/>
  <path d="m325.83 716.83-90.118 41.788" fill="none" stroke="#000053" stroke-linecap="round" stroke-width=".7"/>
  <path d="m326.68 720.19-52.457 22.71" fill="none" stroke="#000053" stroke-linecap="round" stroke-width=".7"/>
  <path d="m332.56 722.16-76.474 31.187" fill="none" stroke="#000053" stroke-linecap="round" stroke-width=".7"/>
  <path transform="translate(37.192 -298.14)" d="m195.59 945.05c0 5.7356-4.2621 10.385-9.5197 10.385s-9.5197-4.6496-9.5197-10.385 4.2621-10.385 9.5197-10.385 9.5197 4.6496 9.5197 10.385z" fill="url(#a)"/>
  <path d="m214.72 656.88-14.006 82.637" fill="none" stroke="#000053" stroke-linecap="round" stroke-width=".7"/>
  <path d="m219.97 660.73-10.155 48.672" fill="none" stroke="#000053" stroke-linecap="round" stroke-width=".7"/>
  <path d="m226.98 660.03-26.612 97.694" fill="none" stroke="#000053" stroke-linecap="round" stroke-width=".7"/>
  <path transform="matrix(.24166 -.97036 .97036 .24166 -881.78 678.26)" d="m195.59 945.05c0 5.7356-4.2621 10.385-9.5197 10.385s-9.5197-4.6496-9.5197-10.385 4.2621-10.385 9.5197-10.385 9.5197 4.6496 9.5197 10.385z" fill="url(#a)"/>
  <path d="m87.83 736.78 76.803 33.561" fill="none" stroke="#000053" stroke-linecap="round" stroke-width=".7"/>
  <path d="m92.837 732.62 44.775 21.616" fill="none" stroke="#000053" stroke-linecap="round" stroke-width=".7"/>
  <path d="m93.85 725.65 88.367 49.432" fill="none" stroke="#000053" stroke-linecap="round" stroke-width=".7"/>
  <path transform="matrix(-1 0 0 1 402.64 -338.79)" d="m195.59 945.05c0 5.7356-4.2621 10.385-9.5197 10.385s-9.5197-4.6496-9.5197-10.385 4.2621-10.385 9.5197-10.385 9.5197 4.6496 9.5197 10.385z" fill="url(#a)"/>
  <path transform="matrix(-1 0 0 1 404.39 -363.65)" d="m195.59 945.05c0 5.7356-4.2621 10.385-9.5197 10.385s-9.5197-4.6496-9.5197-10.385 4.2621-10.385 9.5197-10.385 9.5197 4.6496 9.5197 10.385z" fill="url(#a)"/>
  <path transform="matrix(-1 0 0 1 415.6 -353.49)" d="m195.59 945.05c0 5.7356-4.2621 10.385-9.5197 10.385s-9.5197-4.6496-9.5197-10.385 4.2621-10.385 9.5197-10.385 9.5197 4.6496 9.5197 10.385z" fill="url(#b)"/>
  <path transform="matrix(-1 0 0 1 425.05 -351.74)" d="m195.59 945.05c0 5.7356-4.2621 10.385-9.5197 10.385s-9.5197-4.6496-9.5197-10.385 4.2621-10.385 9.5197-10.385 9.5197 4.6496 9.5197 10.385z" fill="url(#a)"/>
  <path transform="matrix(-1 0 0 1 418.4 -336.34)" d="m195.59 945.05c0 5.7356-4.2621 10.385-9.5197 10.385s-9.5197-4.6496-9.5197-10.385 4.2621-10.385 9.5197-10.385 9.5197 4.6496 9.5197 10.385z" fill="url(#b)"/>
  <path transform="matrix(-1 0 0 1 393.89 -351.74)" d="m195.59 945.05c0 5.7356-4.2621 10.385-9.5197 10.385s-9.5197-4.6496-9.5197-10.385 4.2621-10.385 9.5197-10.385 9.5197 4.6496 9.5197 10.385z" fill="url(#b)"/>
  <path transform="matrix(-1 0 0 1 407.89 -352.44)" d="m195.59 945.05c0 5.7356-4.2621 10.385-9.5197 10.385s-9.5197-4.6496-9.5197-10.385 4.2621-10.385 9.5197-10.385 9.5197 4.6496 9.5197 10.385z" fill="url(#a)"/>
  <path transform="matrix(-.63731 0 0 -.63731 484.7 1298.1)" d="m195.59 945.05c0 5.7356-4.2621 10.385-9.5197 10.385s-9.5197-4.6496-9.5197-10.385 4.2621-10.385 9.5197-10.385 9.5197 4.6496 9.5197 10.385z" fill="url(#a)"/>
  <path transform="matrix(-.63731 0 0 -.63731 485.81 1313.9)" d="m195.59 945.05c0 5.7356-4.2621 10.385-9.5197 10.385s-9.5197-4.6496-9.5197-10.385 4.2621-10.385 9.5197-10.385 9.5197 4.6496 9.5197 10.385z" fill="url(#a)"/>
  <path transform="matrix(-.63731 0 0 -.63731 492.95 1307.4)" d="m195.59 945.05c0 5.7356-4.2621 10.385-9.5197 10.385s-9.5197-4.6496-9.5197-10.385 4.2621-10.385 9.5197-10.385 9.5197 4.6496 9.5197 10.385z" fill="url(#b)"/>
  <path transform="matrix(-.63731 0 0 -.63731 498.98 1306.3)" d="m195.59 945.05c0 5.7356-4.2621 10.385-9.5197 10.385s-9.5197-4.6496-9.5197-10.385 4.2621-10.385 9.5197-10.385 9.5197 4.6496 9.5197 10.385z" fill="url(#a)"/>
  <path transform="matrix(-.63731 0 0 -.63731 494.74 1296.5)" d="m195.59 945.05c0 5.7356-4.2621 10.385-9.5197 10.385s-9.5197-4.6496-9.5197-10.385 4.2621-10.385 9.5197-10.385 9.5197 4.6496 9.5197 10.385z" fill="url(#b)"/>
  <path transform="matrix(-.63731 0 0 -.63731 479.12 1306.3)" d="m195.59 945.05c0 5.7356-4.2621 10.385-9.5197 10.385s-9.5197-4.6496-9.5197-10.385 4.2621-10.385 9.5197-10.385 9.5197 4.6496 9.5197 10.385z" fill="url(#b)"/>
  <path transform="matrix(-.63731 0 0 -.63731 488.05 1306.8)" d="m195.59 945.05c0 5.7356-4.2621 10.385-9.5197 10.385s-9.5197-4.6496-9.5197-10.385 4.2621-10.385 9.5197-10.385 9.5197 4.6496 9.5197 10.385z" fill="url(#a)"/>
  <path transform="matrix(-.28243 .50983 -.50983 -.28243 1003.9 957.31)" d="m195.59 945.05c0 5.7356-4.2621 10.385-9.5197 10.385s-9.5197-4.6496-9.5197-10.385 4.2621-10.385 9.5197-10.385 9.5197 4.6496 9.5197 10.385z" fill="url(#a)"/>
  <path d="m464.11 776.38-74.147-66.104" fill="none" stroke="#000053" stroke-linecap="round" stroke-width=".7"/>
  <path d="m461.36 778.49-41.679-39.12" fill="none" stroke="#000053" stroke-linecap="round" stroke-width=".7"/>
  <path d="m461.89 784.67-58.998-57.794" fill="none" stroke="#000053" stroke-linecap="round" stroke-width=".7"/>
  <path transform="matrix(.36975 .22037 -.2215 .36943 587.69 240.38)" d="m195.59 945.05c0 5.7356-4.2621 10.385-9.5197 10.385s-9.5197-4.6496-9.5197-10.385 4.2621-10.385 9.5197-10.385 9.5197 4.6496 9.5197 10.385z" fill="url(#a)"/>
  <path d="m440.46 634.29-50.713 53.137" fill="none" stroke="#000053" stroke-linecap="round" stroke-width=".7"/>
  <path d="m441.96 636.36-29.957 29.823" fill="none" stroke="#000053" stroke-linecap="round" stroke-width=".7"/>
  <path d="m446.54 636.12-44.192 42.158" fill="none" stroke="#000053" stroke-linecap="round" stroke-width=".7"/>
  <path transform="matrix(.45599 0 0 .45599 385.25 185.95)" d="m195.59 945.05c0 5.7356-4.2621 10.385-9.5197 10.385s-9.5197-4.6496-9.5197-10.385 4.2621-10.385 9.5197-10.385 9.5197 4.6496 9.5197 10.385z" fill="url(#a)"/>
  <path transform="matrix(.45599 0 0 .45599 384.45 174.62)" d="m195.59 945.05c0 5.7356-4.2621 10.385-9.5197 10.385s-9.5197-4.6496-9.5197-10.385 4.2621-10.385 9.5197-10.385 9.5197 4.6496 9.5197 10.385z" fill="url(#a)"/>
  <path transform="matrix(.45599 0 0 .45599 379.34 179.25)" d="m195.59 945.05c0 5.7356-4.2621 10.385-9.5197 10.385s-9.5197-4.6496-9.5197-10.385 4.2621-10.385 9.5197-10.385 9.5197 4.6496 9.5197 10.385z" fill="url(#b)"/>
  <path transform="matrix(.45599 0 0 .45599 375.03 180.05)" d="m195.59 945.05c0 5.7356-4.2621 10.385-9.5197 10.385s-9.5197-4.6496-9.5197-10.385 4.2621-10.385 9.5197-10.385 9.5197 4.6496 9.5197 10.385z" fill="url(#a)"/>
  <path transform="matrix(.45599 0 0 .45599 378.07 187.07)" d="m195.59 945.05c0 5.7356-4.2621 10.385-9.5197 10.385s-9.5197-4.6496-9.5197-10.385 4.2621-10.385 9.5197-10.385 9.5197 4.6496 9.5197 10.385z" fill="url(#b)"/>
  <path transform="matrix(.45599 0 0 .45599 389.24 180.05)" d="m195.59 945.05c0 5.7356-4.2621 10.385-9.5197 10.385s-9.5197-4.6496-9.5197-10.385 4.2621-10.385 9.5197-10.385 9.5197 4.6496 9.5197 10.385z" fill="url(#b)"/>
  <path transform="matrix(.45599 0 0 .45599 382.86 179.73)" d="m195.59 945.05c0 5.7356-4.2621 10.385-9.5197 10.385s-9.5197-4.6496-9.5197-10.385 4.2621-10.385 9.5197-10.385 9.5197 4.6496 9.5197 10.385z" fill="url(#a)"/>
  <path transform="matrix(1.104 -.79522 .79522 1.104 -799.87 -429.5)" d="m195.59 945.05c0 5.7356-4.2621 10.385-9.5197 10.385s-9.5197-4.6496-9.5197-10.385 4.2621-10.385 9.5197-10.385 9.5197 4.6496 9.5197 10.385z" fill="url(#a)"/>
  <path d="m152.32 482.55 40.576 71.598" fill="none" stroke="#000053" stroke-linecap="round" stroke-width=".7"/>
  <path d="m164.3 482.61 18.388 41.787" fill="none" stroke="#000053" stroke-linecap="round" stroke-width=".7"/>
  <path d="m171.39 472.49 31.866 96.644" fill="none" stroke="#000053" stroke-linecap="round" stroke-width=".7"/>
  <path transform="matrix(1.3989 0 0 -1.3989 -115.1 1724.2)" d="m195.59 945.05c0 5.7356-4.2621 10.385-9.5197 10.385s-9.5197-4.6496-9.5197-10.385 4.2621-10.385 9.5197-10.385 9.5197 4.6496 9.5197 10.385z" fill="url(#a)"/>
  <path transform="matrix(1.3989 0 0 -1.3989 -117.55 1759)" d="m195.59 945.05c0 5.7356-4.2621 10.385-9.5197 10.385s-9.5197-4.6496-9.5197-10.385 4.2621-10.385 9.5197-10.385 9.5197 4.6496 9.5197 10.385z" fill="url(#a)"/>
  <path transform="matrix(1.3989 0 0 -1.3989 -133.23 1744.8)" d="m195.59 945.05c0 5.7356-4.2621 10.385-9.5197 10.385s-9.5197-4.6496-9.5197-10.385 4.2621-10.385 9.5197-10.385 9.5197 4.6496 9.5197 10.385z" fill="url(#b)"/>
  <path transform="matrix(1.3989 0 0 -1.3989 -146.45 1742.4)" d="m195.59 945.05c0 5.7356-4.2621 10.385-9.5197 10.385s-9.5197-4.6496-9.5197-10.385 4.2621-10.385 9.5197-10.385 9.5197 4.6496 9.5197 10.385z" fill="url(#a)"/>
  <path transform="matrix(1.3989 0 0 -1.3989 -137.15 1720.8)" d="m195.59 945.05c0 5.7356-4.2621 10.385-9.5197 10.385s-9.5197-4.6496-9.5197-10.385 4.2621-10.385 9.5197-10.385 9.5197 4.6496 9.5197 10.385z" fill="url(#b)"/>
  <path transform="matrix(1.3989 0 0 -1.3989 -102.86 1742.4)" d="m195.59 945.05c0 5.7356-4.2621 10.385-9.5197 10.385s-9.5197-4.6496-9.5197-10.385 4.2621-10.385 9.5197-10.385 9.5197 4.6496 9.5197 10.385z" fill="url(#b)"/>
  <path transform="matrix(1.3989 0 0 -1.3989 -122.45 1743.3)" d="m195.59 945.05c0 5.7356-4.2621 10.385-9.5197 10.385s-9.5197-4.6496-9.5197-10.385 4.2621-10.385 9.5197-10.385 9.5197 4.6496 9.5197 10.385z" fill="url(#a)"/>
  <path transform="matrix(.55729 .17066 -.17066 .55729 356.61 -74.179)" d="m195.59 945.05c0 5.7356-4.2621 10.385-9.5197 10.385s-9.5197-4.6496-9.5197-10.385 4.2621-10.385 9.5197-10.385 9.5197 4.6496 9.5197 10.385z" fill="url(#a)"/>
  <path d="m292.41 490.07-50.271 87.523" fill="none" stroke="#000053" stroke-linecap="round" stroke-width=".7"/>
  <path d="m294.08 493.61-43.796 73.018" fill="none" stroke="#000053" stroke-linecap="round" stroke-width=".7"/>
  <path d="m299.8 492.29-45.924 71.946" fill="none" stroke="#000053" stroke-linecap="round" stroke-width=".7"/>
  <path transform="matrix(-.44791 0 0 .44791 396.92 42.652)" d="m195.59 945.05c0 5.7356-4.2621 10.385-9.5197 10.385s-9.5197-4.6496-9.5197-10.385 4.2621-10.385 9.5197-10.385 9.5197 4.6496 9.5197 10.385z" fill="url(#a)"/>
  <path transform="matrix(-.44791 0 0 .44791 397.7 31.516)" d="m195.59 945.05c0 5.7356-4.2621 10.385-9.5197 10.385s-9.5197-4.6496-9.5197-10.385 4.2621-10.385 9.5197-10.385 9.5197 4.6496 9.5197 10.385z" fill="url(#a)"/>
  <path transform="matrix(-.44791 0 0 .44791 402.72 36.064)" d="m195.59 945.05c0 5.7356-4.2621 10.385-9.5197 10.385s-9.5197-4.6496-9.5197-10.385 4.2621-10.385 9.5197-10.385 9.5197 4.6496 9.5197 10.385z" fill="url(#b)"/>
  <path transform="matrix(-.44791 0 0 .44791 406.96 36.848)" d="m195.59 945.05c0 5.7356-4.2621 10.385-9.5197 10.385s-9.5197-4.6496-9.5197-10.385 4.2621-10.385 9.5197-10.385 9.5197 4.6496 9.5197 10.385z" fill="url(#a)"/>
  <path transform="matrix(-.44791 0 0 .44791 403.98 43.749)" d="m195.59 945.05c0 5.7356-4.2621 10.385-9.5197 10.385s-9.5197-4.6496-9.5197-10.385 4.2621-10.385 9.5197-10.385 9.5197 4.6496 9.5197 10.385z" fill="url(#b)"/>
  <path transform="matrix(-.44791 0 0 .44791 393 36.848)" d="m195.59 945.05c0 5.7356-4.2621 10.385-9.5197 10.385s-9.5197-4.6496-9.5197-10.385 4.2621-10.385 9.5197-10.385 9.5197 4.6496 9.5197 10.385z" fill="url(#b)"/>
  <path transform="matrix(-.44791 0 0 .44791 399.27 36.535)" d="m195.59 945.05c0 5.7356-4.2621 10.385-9.5197 10.385s-9.5197-4.6496-9.5197-10.385 4.2621-10.385 9.5197-10.385 9.5197 4.6496 9.5197 10.385z" fill="url(#a)"/>
  <path transform="matrix(.44496 .89555 -.89555 .44496 1124.3 -34.395)" d="m195.59 945.05c0 5.7356-4.2621 10.385-9.5197 10.385s-9.5197-4.6496-9.5197-10.385 4.2621-10.385 9.5197-10.385 9.5197 4.6496 9.5197 10.385z" fill="url(#a)"/>
  <path d="m348.02 549.54-80.238 24.227" fill="none" stroke="#000053" stroke-linecap="round" stroke-width=".7"/>
  <path d="m346.91 555.96-48.106 12.563" fill="none" stroke="#000053" stroke-linecap="round" stroke-width=".7"/>
  <path d="m350.66 561.92-99.331 19.638" fill="none" stroke="#000053" stroke-linecap="round" stroke-width=".7"/>
  <path transform="matrix(1.1186 0 0 -1.1186 200.75 1575)" d="m195.59 945.05c0 5.7356-4.2621 10.385-9.5197 10.385s-9.5197-4.6496-9.5197-10.385 4.2621-10.385 9.5197-10.385 9.5197 4.6496 9.5197 10.385z" fill="url(#a)"/>
  <path transform="matrix(1.1186 0 0 -1.1186 198.8 1602.8)" d="m195.59 945.05c0 5.7356-4.2621 10.385-9.5197 10.385s-9.5197-4.6496-9.5197-10.385 4.2621-10.385 9.5197-10.385 9.5197 4.6496 9.5197 10.385z" fill="url(#a)"/>
  <path transform="matrix(1.1186 0 0 -1.1186 186.26 1591.4)" d="m195.59 945.05c0 5.7356-4.2621 10.385-9.5197 10.385s-9.5197-4.6496-9.5197-10.385 4.2621-10.385 9.5197-10.385 9.5197 4.6496 9.5197 10.385z" fill="url(#b)"/>
  <path transform="matrix(1.1186 0 0 -1.1186 175.68 1589.5)" d="m195.59 945.05c0 5.7356-4.2621 10.385-9.5197 10.385s-9.5197-4.6496-9.5197-10.385 4.2621-10.385 9.5197-10.385 9.5197 4.6496 9.5197 10.385z" fill="url(#a)"/>
  <path transform="matrix(1.1186 0 0 -1.1186 183.13 1572.2)" d="m195.59 945.05c0 5.7356-4.2621 10.385-9.5197 10.385s-9.5197-4.6496-9.5197-10.385 4.2621-10.385 9.5197-10.385 9.5197 4.6496 9.5197 10.385z" fill="url(#b)"/>
  <path transform="matrix(1.1186 0 0 -1.1186 210.55 1589.5)" d="m195.59 945.05c0 5.7356-4.2621 10.385-9.5197 10.385s-9.5197-4.6496-9.5197-10.385 4.2621-10.385 9.5197-10.385 9.5197 4.6496 9.5197 10.385z" fill="url(#b)"/>
  <path transform="matrix(1.1186 0 0 -1.1186 194.88 1590.3)" d="m195.59 945.05c0 5.7356-4.2621 10.385-9.5197 10.385s-9.5197-4.6496-9.5197-10.385 4.2621-10.385 9.5197-10.385 9.5197 4.6496 9.5197 10.385z" fill="url(#a)"/>
  <path transform="matrix(.16235 .24853 -.24913 .16179 594.03 235.48)" d="m195.59 945.05c0 5.7356-4.2621 10.385-9.5197 10.385s-9.5197-4.6496-9.5197-10.385 4.2621-10.385 9.5197-10.385 9.5197 4.6496 9.5197 10.385z" fill="url(#a)"/>
  <path d="m383.5 434.93-47.515 17.561" fill="none" stroke="#000053" stroke-linecap="round" stroke-width=".7"/>
  <path d="m383.8 436.67-27.593 9.4035" fill="none" stroke="#000053" stroke-linecap="round" stroke-width=".7"/>
  <path d="m386.71 437.9-40.149 12.735" fill="none" stroke="#000053" stroke-linecap="round" stroke-width=".7"/>
  <path transform="matrix(.27827 -.00835 .0082 .28356 272.83 123.3)" d="m195.59 945.05c0 5.7356-4.2621 10.385-9.5197 10.385s-9.5197-4.6496-9.5197-10.385 4.2621-10.385 9.5197-10.385 9.5197 4.6496 9.5197 10.385z" fill="url(#a)"/>
  <path d="m330.01 394.19-9.0906 47.455" fill="none" stroke="#000053" stroke-linecap="round" stroke-width=".7"/>
  <path d="m331.55 394.82-5.9161 27.162" fill="none" stroke="#000053" stroke-linecap="round" stroke-width=".7"/>
  <path d="m333.96 393.06-9.3677 39.05" fill="none" stroke="#000053" stroke-linecap="round" stroke-width=".7"/>
  <path transform="matrix(-.10431 -.25812 .26314 -.10599 20.48 619.09)" d="m195.59 945.05c0 5.7356-4.2621 10.385-9.5197 10.385s-9.5197-4.6496-9.5197-10.385 4.2621-10.385 9.5197-10.385 9.5197 4.6496 9.5197 10.385z" fill="url(#a)"/>
  <path d="m254.75 471.54 47.664-7.9243" fill="none" stroke="#000053" stroke-linecap="round" stroke-width=".7"/>
  <path d="m254.8 469.88 27.529-3.8671" fill="none" stroke="#000053" stroke-linecap="round" stroke-width=".7"/>
  <path d="m252.32 468.23 39.876-4.7505" fill="none" stroke="#000053" stroke-linecap="round" stroke-width=".7"/>
  <path transform="matrix(.95201 .64537 -.64535 .95203 683.18 -711.26)" d="m195.59 945.05c0 5.7356-4.2621 10.385-9.5197 10.385s-9.5197-4.6496-9.5197-10.385 4.2621-10.385 9.5197-10.385 9.5197 4.6496 9.5197 10.385z" fill="url(#a)"/>
  <path d="m235.86 312.52-66.664 69.634" fill="none" stroke="#000053" stroke-linecap="round" stroke-width=".7"/>
  <path d="m238.38 319.57-41.078 39.784" fill="none" stroke="#000053" stroke-linecap="round" stroke-width=".7"/>
  <path d="m245.5 323.43-88.382 75.833" fill="none" stroke="#000053" stroke-linecap="round" stroke-width=".7"/>
  <path transform="matrix(-.24166 .97036 -.97036 -.24166 1496.7 641.8)" d="m195.59 945.05c0 5.7356-4.2621 10.385-9.5197 10.385s-9.5197-4.6496-9.5197-10.385 4.2621-10.385 9.5197-10.385 9.5197 4.6496 9.5197 10.385z" fill="url(#a)"/>
  <path d="m527.13 583.27-76.803-33.561" fill="none" stroke="#000053" stroke-linecap="round" stroke-width=".7"/>
  <path d="m522.13 587.44-44.775-21.616" fill="none" stroke="#000053" stroke-linecap="round" stroke-width=".7"/>
  <path d="m521.11 594.41-88.367-49.432" fill="none" stroke="#000053" stroke-linecap="round" stroke-width=".7"/>
  <path transform="matrix(-.25851 0 0 .25851 451.4 183.39)" d="m195.59 945.05c0 5.7356-4.2621 10.385-9.5197 10.385s-9.5197-4.6496-9.5197-10.385 4.2621-10.385 9.5197-10.385 9.5197 4.6496 9.5197 10.385z" fill="url(#a)"/>
  <path transform="matrix(-.25851 0 0 .25851 451.85 176.96)" d="m195.59 945.05c0 5.7356-4.2621 10.385-9.5197 10.385s-9.5197-4.6496-9.5197-10.385 4.2621-10.385 9.5197-10.385 9.5197 4.6496 9.5197 10.385z" fill="url(#a)"/>
  <path transform="matrix(-.25851 0 0 .25851 454.75 179.59)" d="m195.59 945.05c0 5.7356-4.2621 10.385-9.5197 10.385s-9.5197-4.6496-9.5197-10.385 4.2621-10.385 9.5197-10.385 9.5197 4.6496 9.5197 10.385z" fill="url(#b)"/>
  <path transform="matrix(-.25851 0 0 .25851 457.19 180.04)" d="m195.59 945.05c0 5.7356-4.2621 10.385-9.5197 10.385s-9.5197-4.6496-9.5197-10.385 4.2621-10.385 9.5197-10.385 9.5197 4.6496 9.5197 10.385z" fill="url(#a)"/>
  <path transform="matrix(-.25851 0 0 .25851 455.47 184.02)" d="m195.59 945.05c0 5.7356-4.2621 10.385-9.5197 10.385s-9.5197-4.6496-9.5197-10.385 4.2621-10.385 9.5197-10.385 9.5197 4.6496 9.5197 10.385z" fill="url(#b)"/>
  <path transform="matrix(-.25851 0 0 .25851 449.14 180.04)" d="m195.59 945.05c0 5.7356-4.2621 10.385-9.5197 10.385s-9.5197-4.6496-9.5197-10.385 4.2621-10.385 9.5197-10.385 9.5197 4.6496 9.5197 10.385z" fill="url(#b)"/>
  <path transform="matrix(-.25851 0 0 .25851 452.76 179.86)" d="m195.59 945.05c0 5.7356-4.2621 10.385-9.5197 10.385s-9.5197-4.6496-9.5197-10.385 4.2621-10.385 9.5197-10.385 9.5197 4.6496 9.5197 10.385z" fill="url(#a)"/>
  <path transform="matrix(-.36292 -.10267 -.10267 .36292 396.74 150.01)" d="m195.59 945.05c0 5.7356-4.2621 10.385-9.5197 10.385s-9.5197-4.6496-9.5197-10.385 4.2621-10.385 9.5197-10.385 9.5197 4.6496 9.5197 10.385z" fill="url(#a)"/>
  <path transform="matrix(-.36292 -.10267 -.10267 .36292 399.93 141.16)" d="m195.59 945.05c0 5.7356-4.2621 10.385-9.5197 10.385s-9.5197-4.6496-9.5197-10.385 4.2621-10.385 9.5197-10.385 9.5197 4.6496 9.5197 10.385z" fill="url(#a)"/>
  <path transform="matrix(-.36292 -.10267 -.10267 .36292 402.96 146)" d="m195.59 945.05c0 5.7356-4.2621 10.385-9.5197 10.385s-9.5197-4.6496-9.5197-10.385 4.2621-10.385 9.5197-10.385 9.5197 4.6496 9.5197 10.385z" fill="url(#b)"/>
  <path transform="matrix(-.36292 -.10267 -.10267 .36292 406.21 147.61)" d="m195.59 945.05c0 5.7356-4.2621 10.385-9.5197 10.385s-9.5197-4.6496-9.5197-10.385 4.2621-10.385 9.5197-10.385 9.5197 4.6496 9.5197 10.385z" fill="url(#a)"/>
  <path transform="matrix(-.36292 -.10267 -.10267 .36292 402.21 152.51)" d="m195.59 945.05c0 5.7356-4.2621 10.385-9.5197 10.385s-9.5197-4.6496-9.5197-10.385 4.2621-10.385 9.5197-10.385 9.5197 4.6496 9.5197 10.385z" fill="url(#b)"/>
  <path transform="matrix(-.36292 -.10267 -.10267 .36292 394.9 144.41)" d="m195.59 945.05c0 5.7356-4.2621 10.385-9.5197 10.385s-9.5197-4.6496-9.5197-10.385 4.2621-10.385 9.5197-10.385 9.5197 4.6496 9.5197 10.385z" fill="url(#b)"/>
  <path transform="matrix(-.36292 -.10267 -.10267 .36292 400.05 145.59)" d="m195.59 945.05c0 5.7356-4.2621 10.385-9.5197 10.385s-9.5197-4.6496-9.5197-10.385 4.2621-10.385 9.5197-10.385 9.5197 4.6496 9.5197 10.385z" fill="url(#a)"/>
  <path transform="matrix(-.74386 -.66833 -.66833 .74386 1235 -175.93)" d="m195.59 945.05c0 5.7356-4.2621 10.385-9.5197 10.385s-9.5197-4.6496-9.5197-10.385 4.2621-10.385 9.5197-10.385 9.5197 4.6496 9.5197 10.385z" fill="url(#a)"/>
  <path d="m464.7 415.82-44.81 70.832" fill="none" stroke="#000053" stroke-linecap="round" stroke-width=".7"/>
  <path d="m458.22 415.17-24.975 42.992" fill="none" stroke="#000053" stroke-linecap="round" stroke-width=".7"/>
  <path d="m453.48 409.97-45.496 90.456" fill="none" stroke="#000053" stroke-linecap="round" stroke-width=".7"/>
  <path transform="matrix(.5095 -.28301 .28301 .5095 -282.62 -142.22)" d="m195.59 945.05c0 5.7356-4.2621 10.385-9.5197 10.385s-9.5197-4.6496-9.5197-10.385 4.2621-10.385 9.5197-10.385 9.5197 4.6496 9.5197 10.385z" fill="url(#a)"/>
  <path d="m79.518 297.04 27.909 95.334" fill="none" stroke="#000053" stroke-linecap="round" stroke-width=".7"/>
  <path d="m82.968 296.69 14.649 55.253" fill="none" stroke="#000053" stroke-linecap="round" stroke-width=".7"/>
  <path d="m85.79 291.17 19.457 80.264" fill="none" stroke="#000053" stroke-linecap="round" stroke-width=".7"/>
  <path transform="matrix(.58077 .53273 .53347 -.57997 -560.35 1028.4)" d="m195.59 945.05c0 5.7356-4.2621 10.385-9.5197 10.385s-9.5197-4.6496-9.5197-10.385 4.2621-10.385 9.5197-10.385 9.5197 4.6496 9.5197 10.385z" fill="url(#a)"/>
  <path d="m54.984 565.67 66.869-116.43" fill="none" stroke="#000053" stroke-linecap="round" stroke-width=".7"/>
  <path d="m59.413 567.21 36.748-67.962" fill="none" stroke="#000053" stroke-linecap="round" stroke-width=".7"/>
  <path d="m61.38 575.36 50.983-99.301" fill="none" stroke="#000053" stroke-linecap="round" stroke-width=".7"/>
 </g>
</svg>
