<?xml version="1.0" encoding="UTF-8"?>
<svg viewBox="0 0 607.14636 721.09393" xmlns="http://www.w3.org/2000/svg" xmlns:xlink="http://www.w3.org/1999/xlink">
 <defs>
  <linearGradient id="f">
   <stop stop-color="#ffe6d5" stop-opacity=".3922" offset="0"/>
   <stop stop-color="#ffe6d5" stop-opacity="0" offset="1"/>
  </linearGradient>
  <linearGradient id="b">
   <stop stop-color="#c87137" stop-opacity="0" offset="0"/>
   <stop stop-color="#a05a2c" stop-opacity="0" offset=".4392"/>
   <stop stop-color="#a05a2c" offset="1"/>
  </linearGradient>
  <linearGradient id="g">
   <stop stop-color="#c35736" offset="0"/>
   <stop stop-color="#782121" offset="1"/>
  </linearGradient>
  <linearGradient id="c">
   <stop stop-color="#c87137" stop-opacity="0" offset="0"/>
   <stop stop-color="#c87137" stop-opacity="0" offset=".5368"/>
   <stop stop-color="#a05a2c" offset="1"/>
  </linearGradient>
  <linearGradient id="h">
   <stop offset="0"/>
   <stop stop-opacity="0" offset="1"/>
  </linearGradient>
  <linearGradient id="z" x1="441.01" x2="448.82" y1="514.57" y2="559" gradientTransform="matrix(.96593 -.25882 .25882 .96593 -137.29 140.05)" gradientUnits="userSpaceOnUse">
   <stop stop-color="#c87137" stop-opacity="0" offset="0"/>
   <stop stop-color="#a05a2c" stop-opacity="0" offset=".3386"/>
   <stop stop-color="#a05a2c" offset="1"/>
  </linearGradient>
  <linearGradient id="ad" x1="505.63" x2="502.78" y1="398.71" y2="421.14" gradientTransform="matrix(.923 -.24732 .24732 .923 -110.77 151.95)" gradientUnits="userSpaceOnUse" xlink:href="#h"/>
  <linearGradient id="ac" x1="505.63" x2="502.78" y1="398.71" y2="421.14" gradientTransform="matrix(.923 -.24732 .24732 .923 -231.2 173.87)" gradientUnits="userSpaceOnUse" xlink:href="#h"/>
  <linearGradient id="ab" x1="431.25" x2="432.81" y1="500.29" y2="517.24" gradientTransform="matrix(.96593 -.25882 .25882 .96593 -137.29 140.05)" gradientUnits="userSpaceOnUse" xlink:href="#g"/>
  <linearGradient id="aa" x1="421.9" x2="439.44" y1="519.5" y2="550.1" gradientTransform="matrix(.96593 -.25882 .25882 .96593 -137.29 140.05)" gradientUnits="userSpaceOnUse" xlink:href="#g"/>
  <linearGradient id="af" x1="505.04" x2="462.84" y1="447.84" y2="398.54" gradientTransform="matrix(.96593 -.25882 .25882 .96593 -137.29 140.05)" gradientUnits="userSpaceOnUse" xlink:href="#c"/>
  <linearGradient id="ae" x1="393.17" x2="423.78" y1="438.92" y2="402.39" gradientTransform="matrix(.96593 -.25882 .25882 .96593 -137.29 140.05)" gradientUnits="userSpaceOnUse" xlink:href="#c"/>
  <radialGradient id="y" cx="506.5" cy="428.43" r="37.026" gradientTransform="matrix(-.76556 .25417 -.14594 -.43956 909.06 473.32)" gradientUnits="userSpaceOnUse">
   <stop stop-color="#fff" offset="0"/>
   <stop stop-color="#fff" offset=".787"/>
   <stop stop-color="#b3b3b3" offset="1"/>
  </radialGradient>
  <radialGradient id="d" cx="507.5" cy="411.11" r="17.539" gradientTransform="matrix(-.44771 .92573 -.94232 -.45573 1121.7 130.75)" gradientUnits="userSpaceOnUse">
   <stop stop-color="#95372b" offset="0"/>
   <stop stop-color="#461a14" offset=".8137"/>
   <stop stop-opacity="0" offset="1"/>
  </radialGradient>
  <radialGradient id="x" cx="382.05" cy="407.82" r="28.159" gradientTransform="matrix(.96354 .15796 -.07913 .48266 1.4483 177.9)" gradientUnits="userSpaceOnUse">
   <stop stop-color="#fff" offset="0"/>
   <stop stop-color="#fff" offset=".7804"/>
   <stop stop-color="#b3b3b3" offset="1"/>
  </radialGradient>
  <radialGradient id="r" cx="439.47" cy="451.65" r="160.19" gradientTransform="matrix(.00835 -1.3215 1.2004 .0076 -99.135 1040.6)" gradientUnits="userSpaceOnUse">
   <stop stop-opacity="0" offset="0"/>
   <stop stop-opacity="0" offset=".6631"/>
   <stop stop-color="#a7a7a7" offset="1"/>
  </radialGradient>
  <radialGradient id="q" cx="450.04" cy="612.52" r="9.6457" gradientTransform="matrix(1.6447 -.07964 .07287 1.505 -334.78 -273.48)" gradientUnits="userSpaceOnUse">
   <stop stop-color="#fdfed5" offset="0"/>
   <stop stop-color="#eed253" offset=".2439"/>
   <stop stop-color="#48221e" offset="1"/>
  </radialGradient>
  <radialGradient id="w" cx="436.89" cy="467.65" r="17.225" gradientTransform="matrix(.26943 1.2546 -1.6506 .3545 1057.3 -238.37)" gradientUnits="userSpaceOnUse" xlink:href="#c"/>
  <radialGradient id="v" cx="538.47" cy="457.82" r="35.695" gradientTransform="matrix(-.92918 2.663 -1.3986 -.48801 1646.5 -785.32)" gradientUnits="userSpaceOnUse" xlink:href="#b"/>
  <radialGradient id="u" cx="363.3" cy="369.38" r="43.062" gradientTransform="matrix(1.637 .43532 -.15983 .60103 -224.57 29.61)" gradientUnits="userSpaceOnUse" xlink:href="#b"/>
  <radialGradient id="t" cx="538.57" cy="414.01" r="61.318" gradientTransform="matrix(-1.2546 .58834 -.32218 -.687 1287.6 337.58)" gradientUnits="userSpaceOnUse" xlink:href="#b"/>
  <radialGradient id="a" cx="429.1" cy="469.21" r="5.5118" gradientTransform="matrix(-.2 -.95 .97855 -.20601 55.773 973.51)" gradientUnits="userSpaceOnUse" xlink:href="#f"/>
  <radialGradient id="s" cx="429.1" cy="469.21" r="5.5118" gradientTransform="matrix(.73159 -5.2317 7.5696 1.9746 -3544.4 1786.1)" gradientUnits="userSpaceOnUse" xlink:href="#f"/>
 </defs>
 <g transform="translate(-135.18 -179.87)">
  <path d="m438.75 179.87c-17.321 0-19.324 10.108-17.75 18.719 0 0-8.5729-13.698-22.969-15.312-31.319-3.5124-45.111 25.099-44.25 28.906 0.83957 3.7104 5.9724 8.5276 9.375 5.125s13.601-4.694 12.75 3.8125-1.743 4.9392-6.8125 5.5312c-58.27 6.8052-82.912 28.063-91.844 35.719-1.7013-5.1039-14.193-12.631-29.781-7.6562-19.99 6.3799-20.84 17.021-25.094 22.125-2.2453 2.6944 8.6594 10.352 12.312 5.9688 4.2533-5.1039 13.212 2.1254 14.062 9.7812s-5.1454 15.211-13.188 8.0625c-11.484-10.208-30.206-12.032-42.531 0-17.864 17.438-17.875 43.382-17.875 50.188s14.027 9.4042 15.312 3.4062c1.276-5.9546 6.3892-18.291 12.344-13.188s8.923 14.914-4.6875 21.719-63.788 42.081-62.938 107.16c0.82256 62.926 33.149 74.005 34 108.03s-13.468 104.33 11.062 130.16c24.244 25.52 41.263 36.155 49.344 38.281 5.9322 1.5611 19.99-10.466 14.469-11.906-9.7825-2.552-17.882-12.747-9.375-17 13.988-6.994 18.729 6.8027 21.281 19.562s-15.987 34.279-15.312 51.469c0.85065 21.692 16.168 42.097 34.031 45.5 24.463 4.6596 33.167 2.5345 35.719-1.7188s-8.9862-13.3-12.75-15.281c-8.0812-4.2533-10.638-23.399 6.375-16.594s24.656 16.143 24.656 25.5 2.5547 23.832 20.844 31.062c13.095 5.1769 17.043 3.692 20.844 16.594 2.243 7.6131 11.936 17.065 34.469 17.844 14.527 0.50226 18.594-14.882 33.906-14.031 15.312-0.85065 19.379 14.534 33.906 14.031 22.532-0.77903 32.194-10.231 34.438-17.844 3.8011-12.902 7.7491-11.417 20.844-16.594 18.289-7.2306 20.844-21.705 20.844-31.062s7.6744-18.695 24.688-25.5 14.456 12.34 6.375 16.594c-3.7638 1.981-15.333 11.028-12.781 15.281s11.287 6.3783 35.75 1.7188c17.864-3.4026 33.149-23.808 34-45.5 0.67412-17.19-17.864-38.709-15.312-51.469s7.2932-26.557 21.281-19.562c8.5065 4.2533 0.43877 14.448-9.3438 17-5.5216 1.4404 8.5053 13.467 14.438 11.906 8.0812-2.1266 25.1-12.762 49.344-38.281 24.53-25.821 10.212-96.13 11.062-130.16s33.209-45.105 34.031-108.03c0.85065-65.075-49.327-100.35-62.938-107.16s-10.642-16.615-4.6875-21.719 11.068 7.2329 12.344 13.188c1.2853 5.998 15.281 3.399 15.281-3.4062s0.02-32.749-17.844-50.188c-12.325-12.032-31.047-10.208-42.531 0-8.0421 7.1486-14.038-0.40662-13.188-8.0625s9.778-14.885 14.031-9.7812c3.6531 4.3837 14.589-3.2743 12.344-5.9688-4.2533-5.1039-5.1034-15.745-25.094-22.125-15.588-4.9749-28.08 2.5523-29.781 7.6562-8.9319-7.6559-33.605-28.914-91.875-35.719-5.0695-0.59205-5.9618 2.9753-6.8125-5.5312s9.3786-7.2151 12.781-3.8125 8.5042-1.4146 9.3438-5.125c0.86148-3.8073-12.9-32.419-44.219-28.906-14.396 1.6145-22.969 15.312-22.969 15.312 0.37096-8.6106-0.42941-18.719-17.75-18.719z" fill="#d7eef4"/>
  <path d="m392.38 183c-27.318 0.26313-39.401 25.618-38.594 29.188 0.83957 3.7104 5.9724 8.5276 9.375 5.125s13.601-4.694 12.75 3.8125-1.743 4.9392-6.8125 5.5312c-31.772 3.7106-53.538 11.712-68.219 19.469v553.31c0.96745 0.23522 2.0177 0.54459 3.1562 1 17.013 6.8052 24.656 16.143 24.656 25.5s2.5547 23.832 20.844 31.062c13.095 5.1769 17.043 3.692 20.844 16.594 1.8615 6.3182 8.8581 13.907 24.062 16.75v-707.31c-0.69398-0.0249-1.3872-0.0378-2.0625-0.0312zm95.625 0.125v706.06c11.799-3.4121 17.447-10.005 19.094-15.594 3.8011-12.902 7.7491-11.417 20.844-16.594 18.289-7.2306 20.844-21.705 20.844-31.062s7.6744-18.695 24.688-25.5c3.5012-1.4005 6.159-1.6916 8.125-1.25v-550.28c-14.592-8.5467-37.632-18.094-73.219-22.25-5.0695-0.59205-5.9618 2.9753-6.8125-5.5312s9.3786-7.2151 12.781-3.8125 8.5042-1.4146 9.3438-5.125c0.77876-3.4417-10.4-27.135-35.688-29.062zm-280.69 109.84c-5.1399 1.1005-10.086 3.592-14.281 7.6875-17.864 17.438-17.875 43.382-17.875 50.188s14.027 9.4042 15.312 3.4062c1.276-5.9546 6.3892-18.291 12.344-13.188 2.0469 1.7545 3.711 4.0716 4.5 6.625v-54.719zm467.84 1.5312v46.188c5.7527-4.0917 10.633 7.7647 11.875 13.562 1.2853 5.998 15.281 3.399 15.281-3.4062s0.02-32.749-17.844-50.188c-2.823-2.7558-5.9822-4.7885-9.3125-6.1562zm-467.84 59.312c-1.0462 3.1431-3.8239 6.287-9.1875 8.9688-13.61 6.8052-63.788 42.081-62.938 107.16 0.82256 62.926 33.149 74.005 34 108.03s-13.468 104.33 11.062 130.16c10.397 10.944 19.458 19.122 27.062 25.094v-379.41zm467.84 6.375v368.97c6.4894-5.4774 13.847-12.384 22.062-21.031 24.53-25.821 10.212-96.13 11.062-130.16s33.209-45.105 34.031-108.03c0.85065-65.075-49.327-100.35-62.938-107.16-1.6442-0.82207-3.0345-1.6976-4.2188-2.5938zm-93.562 455.59c-0.55009 0.48513-1.1281 0.92267-1.75 1.25-3.7638 1.981-15.333 11.028-12.781 15.281 1.604 2.6734 5.6715 4.5082 14.531 4.3438v-20.875zm-280.72 3.375v17.344c5.4668-0.494 8.2653-2.0775 9.5312-4.1875 2.0169-3.3615-4.7397-9.6609-9.5312-13.156z" fill="#c6e7ef"/>
  <path d="m428.16 235.47c-8.2193-0.50945-14.976 6.4024-20.531 10.281-10.638-10.845-27.754-8.0752-40.781-4-11.208 3.2014-23.515 8.8022-28.438 20.062-0.40723 1.9809-0.0731 4.9177-2.7812 2.8125-13.033-4.1188-29.829 1.6203-33.938 15.531-1.0152 3.1723-1.3345 6.6099-0.84375 9.9062-11.977 0.44037-24.626 7.6533-27.312 19.969-1.8504 5.3941 7e-3 11.772 2.25 16.281-8.1192 7.3969-8.1803 19.363-13.156 28.375-5.9293 3.3499-13.821-0.4651-19.469 4.1562-15.46 8.1687-16.589 33.543-1.7812 42.875-2.5932 4.7048-2.4351 10.862-3.8125 15.406-11.428-0.83739-18.122 10.879-20.406 20.531-3.0851 12.721 0.47247 26.572 7.875 36.969-13.043 8.8889-11.703 30.624 0.6875 39.375-8.828 17.964 1.6341 42.791 21 47.75-1.5911 15.624 7.2697 32.515 22.094 38.531-4.4701 13.972 3.9401 29.328 15.281 37.312 8.0448 5.153 20.859 5.2826 26.719-3.125 4.1832 4.9977 10.719 7.6532 15.844 11 1.6562 11.595 15.243 15.649 25.344 15.156 4.5329-2.018 1.9917 4.4147 3.6875 6.6562 5.3427 18.39 29.088 28.117 45.75 18.469 4.4634-1.77 8.8042-4.6194 11.875-8.3125 3.5722 1.419 9.1073-0.28439 10.094 4.5312 3.4016 6.3039 10.281 10.303 16.719 11.844 0.2901 1.9667 1.1038 4.7782-1.8438 4.6562-11.526 7.0405-23.029 14.064-34.5 21.156 9.3714 7.8341 13.699 22.716 27.219 24.844 4.7367 0.62034 9.5785 0.62052 14.281-0.15625-7.158 9.2823-17.093 19.81-15.031 32.531 1.2225 6.6924 7.3423 11.874 9.9688 17.312-8.1995 8.0682-5.114 22.248 2.7519 29.428 11.941 16.181 24.657 31.816 35.248 48.728 3.974 4.1215 10.706 2.5412 13.719-1.75 3.0153-4.306 3.3329-1.4888 3.7188 2.7812 1.6589 9.9706 4.3213 10.932 7.2861 20.388 3.1317 6.348 10.731 8.3182 17.156 6.6886 34.988-0.51037 69.98-0.0625 104.97-0.21985-6.1572-55.058-3.7756-102.78-15.099-157.11-4.5508-14.666-20.096-20.79-31.205-29.62-14.154-9.6158-28.632-18.78-42.733-28.473 1.232-5.7314-0.96008-11.649-2.625-16.844 6.8525-4.95 8.8037-14.025 8.8125-21.781 2.876-1.9983 5.2974-7.1272 9.3125-4.125 11.17 2.3449 23.792-1.0479 32.312-8.5625 9.5421-9.0632 13.525-24.741 6.75-36.562 9.6058-4.5445 20.253-13.959 17.656-25.75-2.0898-2.7356 2.6689-4.8081 3.2188-7.7812 1.9475-3.0683 2.4637-8.1714 4.875-10.125 14.881 4.2205 27.643-10.622 27.781-24.656 0.7559-9.6267-2.2715-19.604-8.7188-26.812 9.875-13.11 8.0561-32.336-0.75-44.969 14.253-12.514 11.232-37.517-2.9062-48.906-2.7243-1.385-2.8207-3.1992-1.4375-5.7188 4.1122-13.854-6.8182-29.497-20.344-31.438 2.4611-19.262-9.2636-41.02-28.875-45.312-3.8188-0.59682-7.9045 0.37789-11.031 2.2812-2.7326-4.4712-6.5264-8.053-10.625-11.25 9.2782-17.518-9.1361-41.044-28.406-35.781-5.4883 1.0405-11.396 8.7906-16.844 3.9688-6.7579-6.3729-13.721-14.069-22.656-16.625 1.303-14.272-15.16-24.948-28.281-22.25-3.8427 0.66215-7.4888 2.0462-11.094 3.5-3.5305-9.5421-14.268-14.513-24-14.031z" fill="#0b1728" opacity=".6"/>
 </g>
 <g transform="translate(-135.18 -179.87)">
  <path transform="matrix(.99089 -.26551 .26551 .99089 -136.48 133.69)" d="m608 461.9a160.19 180.45 0 1 1 -320.37 0 160.19 180.45 0 1 1 320.37 0z" fill="#d7eef4" stroke="#000"/>
  <path d="m265.81 418.64s8.7118 27.311 8.2591 41.364c-0.37666 11.693-9.0728 33.904-9.0728 33.904 7.2388-7.8861 15.263-24.781 21.565-21.918-14.004 40.056-7.9221 45.323-11.719 67.699l33.418 64.482 81 49.311 98.274 8.3681 83.168-69.09 37.545-94.794-28.555-112.59-74.966-84.015-237.18 96.64z" fill="#502d16"/>
  <path d="m551.48 427.23-236.44 64.097s-6.2216 54.324-6.8141 60.416 2.7233 26.705 2.7233 26.705 3.7989-21.803 2.6865-25.955-0.26323-14.747-0.26323-14.747 2.0338 7.598 3.0101 14.011c0.96177 6.3148-4.8193 41.051-2.7777 55.679l75.653 46.051 98.26 8.353 83.177-69.069 22.026-55.563-23.04-61.475s7.3818 5.4632 9.1001 14.644 10.285 32.832 10.285 32.832l-5.6615-37.791-31.929-58.188z" fill-opacity=".3137"/>
  <path d="m350.67 502.11c-1.2765 0-2.5198 0.27325-3.7348 0.75864 10.044 3.9966 17.682 23.835 17.682 47.736s-7.6414 43.734-17.682 47.736c1.2166 0.48674 2.4565 0.75864 3.7348 0.75864 11.821 0 21.417-21.713 21.417-48.494s-9.5962-48.494-21.417-48.494z" fill="#ffd42a"/>
  <use transform="translate(3.9497 -7.6205)" width="744.09448" height="1052.3622" xlink:href="#n"/>
  <use id="n" transform="translate(-4.1459 -8.0192)" width="744.09448" height="1052.3622" xlink:href="#o"/>
  <use id="i" transform="translate(-8.1035 -12.812)" width="744.09448" height="1052.3622" xlink:href="#j"/>
  <use transform="translate(6.116 4.5729)" width="744.09448" height="1052.3622" xlink:href="#i"/>
  <path d="m423.71 577.27c4.3918 29.625 26.049 67.908 10.549 87.556 0 0 90.096-28.176 96.321-29.037-14.31-14.254-29.596-59.253-37.979-99.574z" fill="#deaa87"/>
  <path d="m492.62 536.21-68.904 41.077c0.94699 6.3878 2.7276 13.165 4.7344 20.084 24.34 0.25735 52.407-9.697 60.788-22.467 2.0292-3.5148 5.2801-8.8428 8.9903-14.865-2.0969-7.9423-3.9767-15.98-5.6085-23.829zm17.547 61.621c-2.4784 1.8494-3.9558 4.8185-3.8836 7.964-3.7616 1.4722-6.1544 5.1259-6.1086 9.0778-1.7045-0.54767-3.5794-0.62618-5.4372-0.12836-4.3352 1.1616-7.161 5.0945-7.1268 9.383-2.3565-2.3097-5.8406-3.3526-9.2586-2.4367-3.3389 0.89466-5.7898 3.4462-6.7276 6.5261-2.3455-2.6729-6.055-3.9422-9.7223-2.9595-2.2818 0.61141-4.1394 1.979-5.3943 3.7748-2.2882-3.092-6.3078-4.6509-10.248-3.595-0.71861 0.19255-1.3874 0.46555-2.0181 0.79956-1.8668-2.8221-5.1327-4.4875-8.5624-4.3056 1.7595 6.4916 3.188 12.811 3.7867 18.72 0.43174-0.15844 0.84941-0.353 1.2413-0.55908 2.2263 3.3656 6.4384 5.1012 10.551 3.9993 2.2818-0.61141 4.1313-2.0092 5.3862-3.805 2.286 3.1033 6.3006 4.6528 10.248 3.595 3.3263-0.89129 5.7598-3.4235 6.7056-6.4878 2.3467 2.6584 6.0867 3.9013 9.7444 2.9213 4.3405-1.163 7.1681-5.0884 7.1268-9.383 2.3567 2.3183 5.8345 3.3542 9.2586 2.4367 4.3468-1.1647 7.1987-5.1194 7.1489-9.4213 1.6998 0.54259 3.5556 0.63256 5.4071 0.13645 3.1634-0.84762 5.5314-3.17 6.5692-6.0307-2.9757-5.917-5.8836-12.788-8.6861-20.222z" fill="#a05a2c"/>
  <path d="m529.11 384.01s-0.0246-10.785 6.1603-15.873c9.4529-7.7769 21.878 11.435 22.928 19.028 2.7976 20.226-6.5839 59.903-13.659 64.49-4.9749 3.225-10.904-5.4685-10.904-5.4685z" fill="#deaa87"/>
  <path d="m350.67 502.11c-11.821 0-21.388 21.713-21.388 48.494s9.567 48.494 21.388 48.494c1.2736 0 2.5224-0.27541 3.7348-0.75864-10.034-4.0142-17.653-23.851-17.653-47.736s7.6163-43.726 17.653-47.736c-1.2106-0.48176-2.4632-0.75864-3.7348-0.75864z" fill="#fff6d5"/>
  <path d="m274.7 385.59s7.2774 39.207 11.608 49.344 6.3119 37.244 15.729 52.678c21.583 35.373 76.859 81.053 96.016 93.304 23.858 15.257 79.734 0.38208 88.605-15.672 8.5308-15.438 39.105-62.77 42.247-68.213 7.9922-13.843 7.3706-40.678 8.7828-45.527 2.3575-8.0952 4.6165-23.429 3.5933-39.295-0.65985-10.231-9.4633-36.659-19.024-57.444-9.1841-19.967-35.376-55.64-35.376-55.64l-77.694-23.007-70.815 27.852z" fill="#deaa87"/>
  <path transform="matrix(6.1246 -4.2136 2.9101 4.23 -3495.1 262.44)" d="m435.44 468.66a5.5118 5.5118 0 1 1 -11.024 0 5.5118 5.5118 0 1 1 11.024 0z" fill="url(#a)"/>
  <path d="m306.59 429.3 8.149 12.342 18.098 8.0624 23.825 0.0719 12.396-4.9356-1.8995-3.3242-23.928-23.044-22.481 1.1818z" fill="url(#x)"/>
  <path transform="matrix(.96593 -.25882 .25882 .96593 -257.72 161.97)" d="m524.6 412.98a17.539 17.539 0 1 1 -35.077 0 17.539 17.539 0 1 1 35.077 0z"/>
  <path d="m427.08 431.72 0.63493-4.4068 5.5956-12.999 12.083-15.141 12.988-3.4802 26.972 7.2986 11.036 1.2797-6.843 9.0965-15.713 12.886-14.104 4.5861-17.197 0.57292z" fill="url(#y)"/>
  <path d="m318.48 312.53s-1.9615 18.279 2.2752 34.091 30.51 26.525 30.51 26.525-27.186-18.015-26.248-31.702c1.2226-17.843 21.914-23.626 21.914-23.626s1.2955 31.074 12.198 39.502c12.938 10.001 49.009 2.2009 49.009 2.2009-45.502 3.4249-46.787-7.2837-52.089-16.708 0 0 19.929 20.347 52.136 13.871 32.124-6.4589 84.851-47.752 84.851-47.752l-34.64-25.472-83.084 1.7369z" fill="#502d16"/>
  <path transform="matrix(.923 -.24732 .24732 .923 -231.2 173.87)" d="m524.6 412.98a17.539 17.539 0 1 1 -35.077 0 17.539 17.539 0 1 1 35.077 0z" fill="url(#d)"/>
  <path d="m334.62 413.45c-8.9404 2.3956-14.24 11.574-11.844 20.514 0.89834 3.3526 2.7355 6.2036 5.1733 8.3195l26.865-7.1984c1.0532-3.0513 1.2188-6.4389 0.32042-9.7916-2.3956-8.9404-11.574-14.24-20.514-11.844z" fill="url(#ac)"/>
  <path transform="matrix(.96593 -.25882 .25882 .96593 -137.29 140.05)" d="m524.6 412.98a17.539 17.539 0 1 1 -35.077 0 17.539 17.539 0 1 1 35.077 0z"/>
  <path transform="matrix(.923 -.24732 .24732 .923 -110.77 151.95)" d="m524.6 412.98a17.539 17.539 0 1 1 -35.077 0 17.539 17.539 0 1 1 35.077 0z" fill="url(#d)"/>
  <path d="m455.05 391.53c-8.9404 2.3956-14.24 11.574-11.844 20.514 0.89834 3.3527 2.7355 6.2036 5.1733 8.3195l26.865-7.1984c1.0532-3.0513 1.2188-6.4389 0.32042-9.7916-2.3956-8.9404-11.574-14.24-20.514-11.844z" fill="url(#ad)"/>
  <path d="m438.14 406.76 8.7019-8.1824 10.83-2.4984 20.354 4.4319-5.3427-16.927-28.45 6.0092z" fill="#deaa87"/>
  <path d="m450.82 375.87c-0.38113 0.0949-0.73015 0.20993-1.0705 0.35154-1.127 0.46899-3.5322 1.8693-6.3829 3.5867l4.9742 18.564 10.052-2.6933 26.965 7.301c3.4385-0.0476 10.323 2.2927 13.544 0.80307 5.0688-2.1652 13.272-10.422 15.349-16.224s2.8465-7.856 3.4226-13.815c-4.4906 2.8172-24.831 8.2582-38.29 6.2156-12.618-1.9149-22.846-5.513-28.563-4.0904z" fill="url(#t)"/>
  <path transform="matrix(.4615 -.12366 .12366 .4615 174.31 279.84)" d="m524.6 412.98a17.539 17.539 0 1 1 -35.077 0 17.539 17.539 0 1 1 35.077 0z"/>
  <path transform="matrix(.96593 -.25882 .19411 .72444 -109.57 240.47)" d="m515.25 411.62a1.8513 2.7282 0 1 1 -3.7026 0 1.8513 2.7282 0 1 1 3.7026 0z" fill="#fff" fill-opacity=".7843"/>
  <path d="m427.8 426.88c2.1198 1.346 4.6156 1.817 5.7182 5.529-3.918 1.2516-8.6864 7.4022-9.9592 6.5018-2.2636-1.6014 4.241-12.031 4.241-12.031z" fill="#c87137"/>
  <path d="m492.81 405.23s-3.234 4.9477-9.7268 11.887c-5.5776 5.961-10.545 10.908-26.308 12.497-5.4927 0.5534-19.533-0.61681-23.886 1.9617-2.7087 1.6046-5.0282 4.5753-5.0282 4.5753s4.0132-3.0928 7.5023-3.6242 26.708 1.1218 36.098-3.8216c10.733-5.6508 18.496-11.407 25.403-24.157z" fill="#ffe6d5"/>
  <path d="m414.1 403.22s-5.0752 12.372-5.1969 19.746 3.3874 23.713 12.389 12.926c1.6548-1.983 5.7472-13.055 6.6083-15.151 7.2377-17.61 23.354-28.763 46.424-23.695-11.573-14.139-29.957-12.821-50.318-3.8225z" fill="url(#af)"/>
  <path d="m426.97 428.31s7.4733-27.826 23.661-32.164 34.043 5.9044 48.559 3.532c5.6604-0.9251 10.138-4.3303 10.138-4.3303s-2.0498 7.4087-8.248 9.8764c-2.6361 1.0496-7.9738 3.2844-26.064-3.9104-5.8396-2.3224-18.651-5.8427-26.79-2.1019-10.914 5.016-21.255 29.098-21.255 29.098z"/>
  <path d="m308.47 428.79s4.0313 12.033 15.158 15.911 22.056 5.037 33.006 3.4628c2.0097-0.28895 4.9062-1.8363 5.6335-2.3165 2.057-1.3582 6.3162 1.7373 6.3162 1.7373s-14.883 4.4477-24.837 4.4358c-10.494-0.0125-25.059-3.171-33.255-12.676-4.7222-5.4766-4.5186-10.087-4.5186-10.087z" fill="#ffe6d5"/>
  <path d="m364.25 445.72s-1.7986-2.9478-0.40711-4.5311 2.0066-1.5464 2.0066-1.5464l8.2058 7.2834s0.36657 2.121-0.96458 1.6707-7.2574-1.4851-7.2574-1.4851z" fill="#c87137"/>
  <path transform="matrix(.4615 -.12366 .12366 .4615 53.877 301.75)" d="m524.6 412.98a17.539 17.539 0 1 1 -35.077 0 17.539 17.539 0 1 1 35.077 0z"/>
  <path d="m320.25 420.8 8.2822-2.2192c13.589 2.691 20.705 8.9761 28.939 14.64l2.5028-17.012-30.801-7.2815z" fill="#deaa87"/>
  <path d="m296.15 402.11-6.8698 2.1319-7.4027 4.2482s8.6727 22.799 19.535 20.745 22.21-10.804 22.21-10.804l11.869 1.6727 6.5177 3.0741-3.1544-11.772c-19.487-4.5723-42.705-9.2952-42.705-9.2952z" fill="url(#u)"/>
  <path d="m329.8 413.57s26.881 2.0674 32.584 5.3598 16.201 23.098 16.436 26.744-7.8592-2.206-11.22-5.8929c-7.8778-8.6425-32.95-21.948-36.434-22.497s-1.3657-3.7129-1.3657-3.7129z" fill="url(#ae)"/>
  <path d="m282.24 408.99s6.9439-8.72 14.601-8.7543 55.947 5.7643 58.905 6.0051c5.7749 0.47009 10.361 14.574 6.6702 14.353s-30.681-6.4512-33.877-7.4661c-11.026-3.5016-30.166-11.688-37.292-8.165s-9.0082 4.0277-9.0082 4.0277z" fill="#28170b"/>
  <path d="m292.88 426.32s8.5822 7.1825 13.927 4.54c4.4192-2.1851 14.507-11.299 21.892-10.91 17.154 0.90461 44.016 25.731 44.016 25.731s-27.202-25.79-44.621-27.99c-8.1938-1.0347-18.635 4.9932-23.603 7.5349s-11.61 1.0934-11.61 1.0934z"/>
  <path d="m305.69 437.47c-6.845 1.9471-12.423 5.6-15.783 10.764 2.4535 11.486 5.1722 26.282 10.771 36.94 4.2639 3.5665 9.3775 6.7099 15.163 9.1369 22.076 9.2614 45.636 4.7568 52.628-10.058s-5.2343-34.344-27.31-43.605c-12.418-5.2095-25.324-6.0641-35.469-3.1783z" fill="url(#s)"/>
  <path transform="matrix(.96593 -.25882 .19411 .72444 -230 262.39)" d="m515.25 411.62a1.8513 2.7282 0 1 1 -3.7026 0 1.8513 2.7282 0 1 1 3.7026 0z" fill="#fff" fill-opacity=".7843"/>
  <path d="m386.84 480.8c0.0531 0.23675 0.0934 0.46554 0.15716 0.70205 2.3997 8.8902 11.819 14.095 21.003 11.616 8.6726-2.341 14.031-10.687 12.584-19.095l-33.743 6.7778z" fill="url(#w)"/>
  <path d="m377.02 484.36s2.2403 6.0563 4.94 6.3368 6.8896-0.64859 6.8896-0.64859-5.3129-0.98808-3.6346-2.2485 4.9462 0.45287 4.9462 0.45287 7.9869 7.331 16.309 5.0845c9.597-2.5904 11.661-8.3957 12.862-9.9308s5.7216-4.9758 6.8804-3.6738-1.272 2.7655-1.272 2.7655 5.1606 0.42365 6.5641-0.3589c4.2106-2.3477 4.497-7.2693 4.497-7.2693s1.4199 7.0775-1.9704 8.4039c-4.2247 1.6529-7.9319 0.52624-10.327 1.3746s-2.8023 5.8835-11.509 8.9602c-11.043 3.9023-21.822-1.578-21.822-1.578s-2.1485 0.88059-5.7196 1.1688c-5.3337 0.43047-7.634-8.8392-7.634-8.8392z" fill="#a05a2c"/>
  <path d="m407.97 557.68c8.4245 2.5556 29.637-0.39017 39.832-9.4623 8.1063-7.2139 11.878-18.919 17.921-24.977 3.0775-3.0849 1.7742-6.9313-4.3772-7.3006s-73.822 12.114-81.176 13.278-6.9511 2.6695-4.7121 6.508 5.6002 1.3239 10.676 5.2092 13.059 14.082 21.837 16.745z" fill="url(#z)"/>
  <path d="m378.8 526.36s12.877 22.917 25.777 26.18c9.8486 2.4911 29.284-1.3908 37.237-6.3461s16.78-33.75 16.78-33.75l-57.395 7.9143z" fill="url(#aa)"/>
  <path d="m376.26 524.42c-0.75293 0.20175-6.5414-1.0717-8.1616-1.8481s-2.3264-3.4116-3.1802-3.5863-0.44307 7.3816 0.38733 8.9749 3.1027 1.7913 2.7496 0.47372-2.2021-4.4537 0.12066-4.0673 8.0841 0.0531 8.0841 0.0531z" fill="#a05a2c"/>
  <path transform="matrix(.95399 -.55921 .91765 1.3919 -367.8 92.787)" d="m435.44 468.66a5.5118 5.5118 0 1 1 -11.024 0 5.5118 5.5118 0 1 1 11.024 0z" fill="url(#a)"/>
  <path d="m460.24 511.8 6.3225-3.5098c-0.2943-2.2412 0.36519-8.5096 1.4752-5.0355 0.87238 2.7304 3.8737 6.7619 5.29 9.5778 1.0482 2.084-1.8101 3.66-2.4521 1.7161-0.52091-1.5774-2.9768-3.418-3.3683-3.4854-1.3748-0.23686-7.2673 0.73677-7.2673 0.73677z" fill="#a05a2c"/>
  <path d="m389.14 517.13s3.627-5.7886 6.3756-7.829c1.7847-1.3248 5.1463-0.37018 7.4253 0.22963s8.1165 2.4327 8.1165 2.4327 2.6226-3.1215 3.6751-3.9783c2.4016-1.9549 5.6062-3.4581 7.3073-3.9755 1.4758-0.44886 5.1417 2.6246 5.1417 2.6246l-13.389 9.1357z" fill="#ffe6d5"/>
  <path d="m367.03 523.86s7.8392 5.1624 14.441 4.2005 8.6587-2.3201 11.395-2.6498 10.753 5.5832 22.048 3.978c12.421-1.7654 16.984-10.402 19.344-10.63s10.595 0.38901 14.635-1.0971 19.522-8.4589 19.522-8.4589-18.649 4.1899-23.771 3.1416-17.608-6.9834-20.922-7.3058-8.461 4.0604-13.526 5.2382c-5.6974 1.3249-9.6152-2.0239-13.244-0.48628-4.4812 1.8988-9.765 11.02-13.404 12.469-6.1982 2.4678-16.518 1.6014-16.518 1.6014z" fill="url(#ab)"/>
  <path d="m393.74 532.44s6.5591 3.8762 10.236 4.3185c8.2334 0.99048 24.561-3.9585 24.561-3.9585s-3.0721 2.8406-5.23 3.8224-14.112 3.7559-20.861 1.9581c-3.4317-0.91412-8.7065-6.1405-8.7065-6.1405z" fill="#f4d7d7" opacity=".8"/>
  <path transform="matrix(1.5371 -.19934 .53582 4.1317 -518.41 -1404.3)" d="m435.44 468.66a5.5118 5.5118 0 1 1 -11.024 0 5.5118 5.5118 0 1 1 11.024 0z" fill="url(#a)"/>
  <path d="m407.93 396.65c-2.783 3.1667 6.4454 10.59 11.413 8.0488 0 0 11.4-7.1545 20.13-16.666 9.1976-10.021 20.806-15.177 24.477-17.235 13.55-7.5966 50.355-0.93885 50.355-0.93885s-42.362-10.166-51.455-6.7554c-7.2435 2.7169-47.372 27.086-54.922 33.547z" fill="#28170b"/>
  <path d="m535.39 388.32-46.794 89.266s5.9961 1.987 22.433-3.6068c12.258-4.1714 22.808-15.795 26.666-22.478 2.3575-8.0952 4.5996-23.43 3.5763-39.296-0.32072-4.9731-2.5619-13.767-5.8824-23.885z" fill="url(#v)"/>
  <path transform="matrix(1.4972 -.40117 .40117 1.4972 -431.89 -49.005)" d="m435.44 468.66a5.5118 5.5118 0 1 1 -11.024 0 5.5118 5.5118 0 1 1 11.024 0z" fill="url(#a)"/>
  <path transform="matrix(1.05 .00988 -.01129 1.2 -63.427 -85.214)" d="m435.44 468.66a5.5118 5.5118 0 1 1 -11.024 0 5.5118 5.5118 0 1 1 11.024 0z" fill="url(#a)"/>
  <use id="o" transform="translate(-12.555 -3.1982)" width="744.09448" height="1052.3622" xlink:href="#p"/>
  <use id="p" transform="translate(-15.64 .19625)" width="744.09448" height="1052.3622" xlink:href="#e"/>
  <path id="e" transform="matrix(.96593 -.25882 .25882 .96593 -133.66 153.57)" d="m461.89 615.82a9.6457 9.6457 0 1 1 -19.291 0 9.6457 9.6457 0 1 1 19.291 0z" fill="url(#q)"/>
  <use id="m" transform="translate(16.452 -3.5524)" width="744.09448" height="1052.3622" xlink:href="#e"/>
  <use id="j" transform="translate(6.0969 -9.1904)" width="744.09448" height="1052.3622" xlink:href="#k"/>
  <use id="k" transform="translate(12.561 -9.2839)" width="744.09448" height="1052.3622" xlink:href="#l"/>
  <use id="l" transform="translate(16.395 -6.9608)" width="744.09448" height="1052.3622" xlink:href="#m"/>
  <path d="m536.76 398.54s3.1119-21.599 6.6642-22.18 10.503 4.6018 11.665 11.706-3.6766-6.8018-7.4143-6.9126c-1.8689-0.0554-1.3127 2.0203 1.7932 9.1141 1.9001 4.3398-8.7852 9.0748-8.7852 9.0748s9.9966 5.4791 11.134 11.107-7.4125 13.852-7.4125 13.852 5.6148-12.258 0.16543-15.989-7.81-9.7731-7.81-9.7731z" fill="#a05a2c"/>
  <path d="m473.33 294.46c-3.8175 5.5311-9.4648 8.0453-13.648 10.16 4.3833-0.24751 11.953-6.5475 13.961-5.9732s1.1394 5.6177-1.4429 7.0512-4.1696 3.1492-10.431 5.3832c5.9741-1.23 8.5565-2.6635 10.379-2.7811s5.4434 5.5596 1.0306 7.8866c-7.1477 3.7692-16.733 8.1942-16.733 8.1942s15.898-5.738 14.286-3.452-16.636 11.545-25.895 15.46c-2.6384 1.1155-8.3009 2.2242-8.3009 2.2242l7.719-5.0323 6.5224-5.4483c-7.8245 4.0742-16.075 8.2626-24.822 12.584 0 0 9.7667-3.7194 3.589 0.90234s-24.365 13.077-32.794 13.242c-16.759 0.32838-31.794-6.8787-37.04-8.959 5.2388 3.9838 15.913 10.564 30.771 11.846l7.8629 0.12546c3.142-0.13822 6.4124-0.49174 9.8421-1.1813 32.124-6.4589 84.839-47.773 84.839-47.773z" fill-opacity=".3137"/>
  <path d="m545.11 452.98c-1.4052 0-2.7505 1.1037-4 3.0938 4.5306 7.2342 7.7812 26.371 7.7812 48.844s-3.2507 41.61-7.7812 48.844c1.2495 1.9901 2.5948 3.0938 4 3.0938 6.5055 0 11.781-23.255 11.781-51.938s-5.2758-51.938-11.781-51.938z" fill="#ffd42a"/>
  <path d="m545.14 452.98c-6.5055 0-11.781 23.255-11.781 51.938s5.2758 51.938 11.781 51.938c1.4085 0 2.748-1.0946 4-3.0938-4.5353-7.2233-7.7812-26.357-7.7812-48.844s3.246-41.62 7.7812-48.844c-1.252-1.9992-2.5915-3.0938-4-3.0938z" fill="#fea"/>
 </g>
 <g transform="translate(-135.18 -179.87)">
  <path d="m514.22 680.25 45.188 220.25h58.25c-2.5162-22.629-7.7428-114.34-9.7044-121.66-2.2248-8.3032-2.8956-34.499-9.9639-41.505s-83.769-57.089-83.769-57.089z" fill="#e9c6af"/>
  <path d="m460.5 781.43s-13.961 17.09-15.987 20.599-1.6056 7.8463 0.70524 10.935c1.3978 1.8684 12.343 16.818 23.305 31.599l2.2372 2.1564c4.079 7.5607 13.928 19.447 13.928 19.447s17.977-15.941 16.123-22.86-17.722-41.231-17.722-41.231z" fill="#e9c6af"/>
  <path d="m478.88 717.18s-5.7572 8.9587-21.807 15.484-28.419 4.6484-31.792 0.36105-9.0581-11.663-9.0581-11.663l56.069-34.306z" fill="#e9c6af"/>
  <path transform="matrix(.99089 -.26551 .26551 .99089 -136.48 133.69)" d="m608 461.9c0 99.661-71.718 180.45-160.19 180.45s-160.19-80.791-160.19-180.45 71.718-180.45 160.19-180.45 160.19 80.791 160.19 180.45z" fill="url(#r)"/>
  <path d="m524.2 684.27 5.2773 14.16s3.2645 28.79 5.7608 32.57 16.719 12.577 16.719 12.577 1.0627 1.1985-2.483 7.3398 3.3639 34.696 3.3639 34.696-23.625 0.39744-23.675-2.5557-20.186-94.708-20.186-94.708z" fill="#cd8e63"/>
  <path d="m429.38 243.44c-10.614-0.0146-17.39 10.316-23.844 18.156-1.8494-12.57-9.9051-19.306-32.938-13.156-0.74298 0.19838-1.5068 0.43093-2.2812 0.65625-24.782 7.213-28.032 16.789-23.5 28.219-11.27-4.2223-24.685-11.215-34.625 0.375-6.9678 8.1239-3.567 18.572 7.1875 20.531-14.211-0.67192-31.26-1.1311-35.969 9-9.2799 19.965 8.2158 14.61 15.938 20.344-12.881-1.3905-18.898 2.9535-22.969 12.188-3.5603 8.0767-1.9752 18.458-12.281 23.469-4.963 2.4131-24.009-4.4166-25.031 18.031-0.70352 15.441 14.844 16.156 14.844 16.156-13.558 16.088-6.1712 29.122-3.0625 42.781-4.5097-8.6699-13.431-21.656-20.781-11.375-15.383 21.517 1.7453 45.482 13.156 52.188-14.678-5.1683-19.713 4.7655-19.281 12.406 0.8535 15.11 10.482 16.981 17.844 14.281-15.468 10.266-13.345 30.348-3.3125 39.938 15.573 14.885 17.039-4.0824 19.625-14.125 4.4853 13.728-11.249 24.724 1.4688 49.25 4.7569 9.1741 25.5 15.344 25.5 15.344s-8.6647 1.943-9.3438 5.7188c-1.6415 9.1278 4.948 23.088 13.312 27.094 14.811 7.0926 20.758-7.5157 19.281-15.281 3.7462 14.439 22.673 26.606 34.156 21.969-12.121 4.4582-9.0608 10.846-0.4375 13.406 6.4372 1.9113 22.001 0.56016 23.688 0.40625-4.0865 1.2028-7.8434 22.396 14.906 29.219 9.5389 2.8609 33.26-6.8997 25.844-15 6.6089 5.0886 22.375 5.3125 22.375 5.3125s-2.4029 7.1297 8.375 13.094c7.5458 4.1755 15.625-5 15.625-5s-9.2663 12.253-1.875 23.094c8.9682 13.153 17.594 2.5625 17.594 2.5625l43.75 195.81h66.625l-65.188-207.94s12.81 4.8441 14-11.031c0.98077-13.084-13.188-19.031-13.188-19.031s11.584 3.889 16.031-3.5c6.3519-10.554 0.6875-15.5 0.6875-15.5s13.54-8.07 16.719-15.781c-2.3722 10.723 23.045 7.2783 29.875 0.0312 16.29-17.284 2.4529-33.72-1.6875-32.719 1.523-0.70321 15.722-7.342 20.344-12.219 6.1877-6.529 5.601-13.606-7.125-11.406 12.263-1.7256 22.6-21.717 18.625-36.094 2.6035 7.4637 15.064 17.141 24.344 3.5938 5.2411-7.6513 3.9542-23.041-2.0312-30.125-2.4759-2.9304-10.969-0.25-10.969-0.25s14.874-15.739 14.406-26.062c-1.2496-27.599-20.333-29.244-23.312-43.375 7.2612 7.4039 18.018 23.084 24.062 2.4062 3.8938-13.322-4.2838-31.781-22.812-32.938 7.7146-1.3538 15.089-7.7855 8.2812-21.281-3.4466-6.8329-12.779-12.909-22.906-1.0938 6.5293-11.513 9.4246-40.839-14.656-51.781-11.506-5.2286-12.773 10.487-12.344 20.25-4.1376-13.384-4.2455-28.346-24.031-35.5 0 0 13.049-8.4165 4.7188-21.438-12.11-18.929-25.183-3.4854-30.688-3.0938-11.431 0.81336-15.222-8.9418-22.344-14.156-8.1421-5.9616-15.509-6.7384-25.969 0.90625 3.8203-8.8265 21.644-12.943 3.625-25.594-9.1439-6.4195-23.717 2.5001-35.688 10.188 8.334-7.074 6.065-17.823-4.0312-21.375-2.2506-0.79169-4.3469-1.1536-6.3125-1.1562zm-9.875 49.594c73.407-0.53919 143.15 55.022 165.31 137.75 25.794 96.265-22.578 192.85-108.03 215.75s-175.64-36.547-201.44-132.81 22.578-192.88 108.03-215.78c12.017-3.2199 24.113-4.818 36.125-4.9062z" fill="#782121"/>
  <path d="m498.34 305.17c41.435 24.71 74.723 67.331 89.046 120.79 27.04 100.92-23.677 202.17-113.26 226.18-40.49 10.849-81.976 4.0597-117.8-15.961 36.909 22.198 80.354 30.136 122.7 18.789 89.581-24.003 140.3-125.26 113.26-226.18-14.884-55.55-50.241-99.408-93.945-123.62z" opacity=".4"/>
  <path d="m426.28 245.53c-1.0295 0.0352-2.0042 0.21593-2.9375 0.5-1.9358 0.5892-3.701 1.672-5.5312 3.0938-2.2573 1.7535-4.4269 4.1192-6.5625 6.6562 1.901 2.5267 3.0088 5.7677 3.5625 9.5312 5.5731-6.7698 11.4-15.379 19.719-17.594-0.72738-0.44109-1.5623-0.82638-2.5-1.1562-2.1508-0.75662-4.0341-1.0899-5.75-1.0312zm-41.562 2.7812c-3.6051 0.0315-8.1051 0.67406-13.656 2.1562-0.69676 0.18603-1.4509 0.40165-2.2188 0.625-12.023 3.4995-18.254 7.5682-20.812 11.188s-2.3759 7.1877-0.34375 12.312a3.5748 3.5748 0 0 1 -0.25 3.125c2.96 1.059 5.8721 2.2694 8.6562 3.3125-4.5323-11.43-1.2822-21.006 23.5-28.219 0.77447-0.22533 1.5383-0.45789 2.2812-0.65625 4.362-1.1647 8.1844-1.8673 11.531-2.1562-0.13646-0.0728-0.29559-0.11871-0.4375-0.1875-1.947-0.94396-4.6449-1.5315-8.25-1.5zm80.844 7.4062c-1.234-4e-3 -2.5921 0.16167-4.0312 0.5-1.2792 0.30074-2.6192 0.73115-4.0625 1.2812-1.1046 0.421-2.2572 0.92776-3.4062 1.4688 0.27426 3.6644-1.3301 7.5507-5.0625 10.719 7.285-4.6782 15.541-9.7952 22.938-11.656-0.33621-0.25263-0.68659-0.48609-1.0625-0.75-1.5017-1.0543-3.2559-1.5551-5.3125-1.5625zm-143.22 17.75c-1.1938 0.0361-2.3596 0.21555-3.4688 0.5625-2.2183 0.69387-4.2951 2.1011-6.4062 4.5625-2.8042 3.2695-3.2558 6.5462-2.375 9.125s3.1594 4.803 7.5 5.5938a3.5748 3.5748 0 0 1 0.6875 0.21875c-1.1039-3.7762-0.16029-8.2217 3.1875-12.125 3.3189-3.8695 7.0238-5.6657 10.906-6.1875-2.173-0.70254-4.2734-1.2235-6.2812-1.5-1.3119-0.18067-2.5562-0.28607-3.75-0.25zm164.19 4.9688c-2.1903 2.0398-4.3896 4.1631-5.4688 6.6562 3.447-2.5192 6.5248-4.1315 9.4375-4.9375-1.381-0.80075-2.6838-1.3607-3.9688-1.7188zm48.188 12.031c-1.0537-2e-3 -2.1393 0.18689-3.25 0.5-2.2214 0.62619-4.5121 1.801-6.6875 3-1.5136 0.83423-2.8474 1.7595-4.5 2.3125 2.4809 1.4506 5.3786 2.3268 9.0938 2.0625 2.5397-0.1807 6.7001-3.5478 11.625-5.2812-1.1076-0.95034-2.1532-1.5792-3.125-1.9688-1.0819-0.43365-2.1025-0.62334-3.1562-0.625zm-214.34 6.9688a3.5748 3.5748 0 0 1 -3.625 2.9375c-7.0765-0.3346-14.713-0.57485-20.812 0.40625-1.525 0.24528-2.9293 0.55831-4.1875 0.9375-3.7747 1.1376-6.3252 2.9004-7.5625 5.5625-2.1645 4.6568-2.4744 7.453-2.25 8.625s0.56039 1.4841 2.0625 2.1562c1.3773 0.61634 3.597 1.0834 6.0312 1.6562 0.0967-2.2031 0.88502-5.0378 2.625-8.7812 4.709-10.131 21.789-9.6719 36-9-3.6555-0.66596-6.4441-2.2977-8.2812-4.5zm-20.438 30.688a3.5748 3.5748 0 0 1 -3.4062 1.5938c-4.4888-0.48456-7.7967-0.22122-10.344 0.625-0.84904 0.28206-1.6174 0.63399-2.3125 1.0312-2.7804 1.589-4.7994 4.2252-6.6562 8.4375-1.474 3.3437-1.9809 7.8027-3.4688 12.5s-4.4425 9.727-10.531 12.688c-2.6456 1.2864-4.8603 0.98186-7.3438 1.0312s-5.0756 0.15035-7.3125 0.71875-4.0598 1.4795-5.5 3.3125-2.6426 4.8376-2.875 9.9375c-0.29714 6.5218 2.3717 8.9405 5.3438 10.594 1.3727 0.76359 2.7534 1.1706 3.875 1.4375-0.75858-1.9214-1.1907-4.2493-1.0625-7.0625 1.0227-22.448 20.068-15.618 25.031-18.031 10.306-5.011 8.7209-15.361 12.281-23.438 4.0704-9.234 10.088-13.609 22.969-12.219-2.346-1.742-5.5586-2.4405-8.6875-3.1562zm226.75 3.1562c27.302 24.336 48.53 57.764 59.094 97.188 26.238 97.922-22.976 196.63-110.53 220.09-17.146 4.5942-34.478 5.9571-51.438 4.4375 20.359 3.5256 41.455 2.8531 62.25-2.7188 85.454-22.897 133.83-119.48 108.03-215.75-11.575-43.197-36.145-78.984-67.406-103.25zm49.125 4.1875c-0.19685 1e-3 -0.3791 0.0262-0.53125 0.0625-0.20293 0.0482-0.37725 0.13939-0.53125 0.21875-0.50981 0.26277-1.1072 0.95692-1.6875 2.1875 3.1489 6.398 4.206 13.624 6.3125 20.438-0.28504-6.4807 0.1697-15.576 3.875-19.438-1.4421-0.98446-2.988-1.8868-4.75-2.6875-1.26-0.57256-2.0969-0.78465-2.6875-0.78125zm33.5 46.906c-0.79633 2.9252-1.7907 5.5091-2.9375 7.5312 2.078-2.4243 4.095-4.0914 6.0625-5.1562-0.91754-1.0053-1.9871-1.8263-3.125-2.375zm-354.97 15.75a3.5748 3.5748 0 0 1 -0.15625 0.1875c-6.2664 7.4358-7.4227 13.455-6.9375 19.719 0.31048 4.0081 1.4777 8.1183 2.6875 12.438 4.0603 2.8653 7.7591 8.8002 10.188 13.469-3.1087-13.66-10.496-26.693 3.0625-42.781 0 0-4.7178-0.23834-8.8438-3.0312zm-20.844 29.062c-0.17305 8e-3 -0.36262 0.0342-0.5625 0.0937-0.59966 0.17859-1.3643 0.68636-2.4375 2.1875-6.9612 9.7368-6.4944 19.553-3.0312 28.25s10.348 15.974 15.125 18.781a3.5748 3.5748 0 0 1 -3.0312 6.4688c-6.5407-2.3031-9.6901-1.1793-11.688 0.65625s-2.9792 5.2054-2.8125 8.1562c0.38458 6.8085 2.4588 9.627 4.6875 10.938 1.2943 0.76106 2.8968 1.0566 4.5938 0.96875-0.59248-1.8399-0.98061-3.9757-1.125-6.5312-0.43159-7.6408 4.6034-17.606 19.281-12.438-11.411-6.7057-28.571-30.639-13.188-52.156 0.15273-0.21363 0.3147-0.43121 0.46875-0.625-1.0086-1.268-2.0259-2.39-3-3.1875-1.4653-1.1997-2.589-1.5955-3.2812-1.5625zm386.25 15.625c0.16118 0.76457 0.37502 1.4899 0.625 2.1875 0.63347 0.50454 1.2373 0.96656 1.7812 1.25 0.58087 0.30267 0.95913 0.47502 1.2812 0.5625-1.295-1.4145-2.5349-2.8247-3.6875-4zm-380.44 67.906c-5.3226 4.3556-7.5106 10.029-7.625 15.844-0.12767 6.4905 2.6056 13.073 6.8125 17.094 2.9568 2.8263 5.1211 3.9806 6.3438 4.3438-7.3843-10.356-7.6164-27.412 6.2188-36.594-3.8227 1.4018-8.2533 1.5883-11.75-0.6875zm28.062 26.5c-2.0181 7.8358-3.3594 21.117-11.25 19.5-1.0971 6.2363-0.90633 13.114 4.1875 22.938 1.1825 2.2805 4.7963 5.1083 8.9062 7.4688-0.13773-0.22464-0.25657-0.42785-0.375-0.65625-12.717-24.526 3.0165-35.522-1.4688-49.25zm349.94 1.8125c0.14047 0.50877 0.26957 1.0408 0.375 1.5625 0.11041 0.0268 0.23336 0.0399 0.34375 0.0625-0.28041-0.54429-0.53353-1.094-0.71875-1.625zm-331.69 59.531a3.5748 3.5748 0 0 1 -2.2188 1.5938s-1.9137 0.44569-3.8125 1.25c-0.94941 0.40218-1.8845 0.90409-2.4062 1.3125-0.26087 0.20421-0.36341 0.37404-0.40625 0.4375 7e-3 -0.0403-7e-3 -0.0852 0-0.125-0.014 0.0778-0.0258 0.13811-0.0312 0.15625-0.56957 3.4328 0.42143 8.5772 2.625 13.125 2.2318 4.606 5.6666 8.5072 8.7188 9.9688 0.78781 0.37728 1.5023 0.69325 2.1875 0.9375-4.0305-5.9357-6.3362-13.821-5.2812-19.688 0.67901-3.7758 9.3438-5.7188 9.3438-5.7188s-3.9021-1.1781-8.7188-3.25zm31.969 20.781c0.35343 1.858 0.23608 4.092-0.28125 6.3438 1.4544 1.3476 3.0145 2.6007 4.6562 3.6562 0.51433 0.33068 1.0412 0.64442 1.5625 0.9375-2.7885-3.2861-4.924-7.0312-5.9375-10.938zm20.781 21.469c-1.0522 0.56299-1.8281 1.0837-2.25 1.5-0.73599 0.72616-0.56356 0.80442-0.5625 0.8125s0.13843 0.44068 0.96875 1.0938 2.241 1.4279 4.0625 1.9688c0.79672 0.23656 2.0315 0.4257 3.4688 0.5625 0.82732-1.8803 3.2219-3.795 7.6875-5.4375-3.8944 1.5727-8.6498 1.2261-13.375-0.5zm36.625 14.344c-0.89591 0.0817-5.7195 0.47512-11 0.5625-0.29521 1.6304-0.339 3.7948 0.15625 6.0312 0.98333 4.4404 3.7434 9.336 11.062 12.594-5.5949-8.455-2.9773-18.376-0.21875-19.188zm55.469 18.875c0.75048 1.5034 2.3408 3.4266 6.0312 5.4688 0.73488 0.40666 1.4498 0.5805 2.1875 0.625-1.3488-3.1203-0.5625-5.4688-0.5625-5.4688s-3.3851-0.077-7.6562-0.625zm31.656 8.7188s-6.1254 6.957-12.688 6c-0.55838 3.1376-0.2728 6.5582 2.0312 9.9375 1.9658 2.8832 3.6703 4.132 4.9375 4.6562 0.98838 0.40886 1.7759 0.45266 2.5625 0.3125-4.9271-10.234 3.1562-20.906 3.1562-20.906zm15.719 25.656s-2.4322 2.9822-6.0625 3.8125l42.062 188.28h6.9062l-42.906-192.09z" fill="#fff" opacity=".3"/>
  <path d="m458.62 801.91 0.23928 5.6164 28.92 37.107c4.3871 12.459-2.5036 21.018-2.5036 21.018 2.763-2.5189 17.207-16.075 15.528-22.343-0.92701-3.4597-5.3565-13.782-9.5553-23.225-5e-3 -0.0105-3e-3 -0.0196-8e-3 -0.0301l-10.231-17.414z" fill="#cd8e63"/>
  <path d="m472.18 720.81s-20.901 28.972-28.042 38.301-7.7336 15.421-4.1746 20.4 20.682 27.621 24.859 31.13l1.8085 1.1405c4.2615 6.779 18.703 22.823 20.464 21.845 2.5823-1.4335 13.925-8.9224 13.454-16.212s-8.8133-38.427-13.25-43.913-5.5555-9.8792-5.5555-9.8792l-9.5642-42.813z" fill="#e9c6af"/>
  <path d="m425.84 247.41c-0.69172 0.03-1.3502 0.1555-1.9688 0.34375-1.6371 0.49829-3.2314 1.4629-4.9688 2.8125-1.83 1.4216-3.6528 3.3613-5.5 5.5 0.97963 1.5944 1.7495 3.3692 2.2812 5.2812 3.9368-4.9722 8.2392-10.401 13.938-13.5-1.3797-0.32362-2.6284-0.48758-3.7812-0.4375zm-44.469 3c-2.8225 0.26783-5.9699 0.77815-9.8438 1.8125-0.67173 0.17935-1.4224 0.40249-2.1875 0.625-11.826 3.4419-17.714 7.4564-19.844 10.469-1.1056 1.5637-1.5501 2.9237-1.5625 4.5625s0.46659 3.5828 1.4375 6.0312c0.41515 1.5984 1.7027 3.7137 3.9375 4.1562-1.1914-4.7966-0.88779-9.533 2.0938-13.75 3.7362-5.2844 11.111-9.5896 23.688-13.25 0.76765-0.2234 1.5245-0.45391 2.2812-0.65625zm83.406 7.1562c-0.85416 0.0209-1.7936 0.12811-2.8438 0.375-1.1776 0.27682-2.4557 0.72104-3.8438 1.25-0.74263 0.28306-1.53 0.64861-2.3125 1-0.0425 1.2565-0.26782 2.5095-0.6875 3.75 3.9741-2.3858 7.9606-4.6332 12.031-6.1875-0.72248-0.1372-1.4896-0.20843-2.3438-0.1875zm-142.41 17.688c-1.0658 0.0293-2.0377 0.1775-2.9688 0.46875-1.8621 0.58248-3.6421 1.7558-5.5938 4.0312-2.4817 2.8935-2.7008 5.4147-2.0312 7.375 0.55696 1.6307 1.8126 3.0496 4.3438 3.9062-0.15935-3.6156 1.1335-7.4391 4-10.781 1.7845-2.0806 3.694-3.6424 5.7188-4.75-1.2449-0.17143-2.4029-0.27934-3.4688-0.25zm212.31 17c-0.84396 5e-3 -1.7178 0.15535-2.7188 0.4375-1.9567 0.55152-4.1625 1.69-6.3125 2.875-0.32832 0.18094-0.78873 0.36466-1.125 0.5625 1.3854 0.37259 2.9175 0.56567 4.7188 0.4375 0.55053-0.0392 2.2275-0.76943 4.1875-1.8438 1.1001-0.60299 2.5734-1.2251 3.9062-1.875-0.0384-0.0163-0.0872-0.0786-0.125-0.0937-0.87713-0.35158-1.6873-0.50533-2.5312-0.5zm-234.03 10c-1.482 0.1056-3.1108 0.0991-4.4375 0.3125-1.4666 0.23588-2.7793 0.4947-3.9375 0.84375-3.4913 1.0522-5.4998 2.5717-6.4688 4.6562-2.0762 4.4668-2.1925 7.1784-2.125 7.5312 0.0865 0.45136 0.10644 0.32519 0.0937 0.3125s0.2289 0.18291 0.9375 0.5 2.3902 0.72107 3.9062 1.0938c0.38342-2.1057 1.0672-4.4315 2.4062-7.3125 1.856-3.9932 5.3982-6.4076 9.625-7.9375zm-8.875 29.125c-2.0196 0.0233-3.7342 0.2253-5.0312 0.65625-0.72137 0.23967-1.361 0.55888-1.9688 0.90625-2.3698 1.3544-4.1654 3.5736-5.9375 7.5938-1.2973 2.9429-1.8551 7.4465-3.4062 12.344-1.4846 4.687-4.5272 9.7889-10.344 13.062 0.81565-0.0347 1.6662-0.079 2.4062-0.0937 2.5073-0.0498 4.5596-0.24026 5.0938-0.5 4.6824-2.2767 6.4865-5.5422 7.75-9.5312s1.7534-8.6436 3.6875-13.031c2.125-4.8206 4.8907-8.6247 8.9375-10.938 0.28925-0.1653 0.60551-0.28812 0.90625-0.4375-0.73838-0.0295-1.4205-0.039-2.0938-0.0312zm284.06 5.9062c-0.0762 2e-3 -0.13767 0.0268-0.15625 0.0312 4e-3 -9.2e-4 9e-3 -0.022-0.0937 0.0312 0.0811-0.0418-0.29196 0.46836-0.53125 0.78125 1.3207 2.8823 2.2836 5.8365 3.0938 8.8125 0.44688-2.722 1.1393-5.3346 2.4375-7.4375-0.92635-0.55854-1.8204-1.1458-2.875-1.625-1.1253-0.51136-1.6465-0.59934-1.875-0.59375zm-319.94 30.562c-2.4544 0.0488-4.9359 0.18683-6.9062 0.6875-2.016 0.51232-3.3636 1.1702-4.5312 2.6562-1.1527 1.467-2.2478 4.0243-2.4688 8.875-0.13706 3.0082 0.37914 4.8292 1.1562 6.0938s1.8887 2.1177 3.25 2.875c0.13658 0.076 0.23726 0.0563 0.375 0.125-0.21154-1.3182-0.28909-2.706-0.21875-4.25 0.26742-5.8695 1.7396-10.083 4.0312-13 1.5727-2.0016 3.5299-3.1661 5.5625-4.0625h-0.25zm309.38 7.5625c9.535 15.93 17.147 33.55 22.25 52.594 26.462 98.757-23.202 198.57-111.81 222.31-2.4995 0.66973-5.026 1.0902-7.5312 1.625 5.8056-0.79891 11.622-1.8875 17.406-3.4375 84.397-22.614 132.32-118.07 106.75-213.5-5.8962-22.005-15.222-42.037-27.062-59.594zm-310.41 25.031c-5.297 6.6567-6.252 11.795-5.8125 17.469 0.28046 3.6205 1.34 7.48 2.5 11.625 1.4046 1.0859 2.689 2.4323 3.9062 3.9062-0.84038-3.1893-1.5811-6.4845-1.8438-9.875-0.51141-6.6021 1.0636-13.659 6.4688-21.094-1.4915-0.33585-3.3031-1.0022-5.2188-2.0312zm-21.281 28.531c-0.11461 5e-3 -0.12682 0.0317-0.125 0.0312-0.0734 0.0217-0.51025 0.15934-1.4688 1.5-6.6072 9.2416-6.1862 18.247-2.875 26.562 1.5701 3.9429 3.9815 7.605 6.5 10.656-0.46532-0.96361-1.0359-1.8665-1.4375-2.875-3.8842-9.7544-4.3104-21.616 3.3125-32.719-0.63925-0.73252-1.2945-1.5191-1.8438-1.9688-1.265-1.0357-2.1677-1.1825-2.0625-1.1875zm8.3125 48.688c-0.47752 0.29171 0.32141 1.0691 0.46875 1.125 0.0714 0.2153 0.1396 0.54196 0.1875 0.84375 0.12201 0.0647-0.16546 0.63532-0.40625 1.0938 0.0601 9e-3 0.0494 0.0601-0.0312 0.125-0.0115 0.0208-0.0209 0.0124-0.0312 0.0312-0.21862 0.4034-0.30386 0.49747-0.0312 0-0.29431 0.21358-0.93663 0.52345-1.3438 0.71875 0.18521 0.16101 0.33142 0.34115 0.4375 0.5625 1.3886-0.37519 2.9137-0.51836 4.5938-0.46875-1.3082-1.2249-2.5939-2.5289-3.8438-4.0312zm-1.1875 3.9375c0.13222-0.0707 0.1292-0.0952 0.5-0.28125-0.8111 0.0797-0.1276 0.11034-0.875 0 0.14306 0.069 0.25516 0.17707 0.375 0.28125zm-7.5312 1.9062c-0.34465-8e-3 -0.65682-3e-3 -0.9375 0.0312-0.74266 0.0908-1.3418 0.25617-1.8438 0.5s-0.91836 0.54404-1.3125 0.90625c-1.4071 1.2931-2.3896 4.2788-2.25 6.75 0.36541 6.4691 2.1605 8.5102 3.8438 9.5 0.4367 0.25678 0.95581 0.43845 1.5312 0.5625-0.31046-1.4357-0.68359-2.7714-0.78125-4.5-0.24049-4.2577 0.99645-9.1604 4.5625-12.438 0.30274-0.27821 0.69628-0.44004 1.0312-0.6875-1.5036-0.39253-2.8098-0.59988-3.8438-0.625zm6.5312 29.344c-4.3055 3.9029-6.1502 8.709-6.25 13.781-0.1173 5.9634 2.4684 12.104 6.25 15.719 0.13776 0.13164 0.20989 0.15757 0.34375 0.28125-1.6252-4.2451-2.364-8.8942-1.8438-13.562 0.5867-5.2611 2.7415-10.478 6.75-14.812-1.8034-0.0624-3.5659-0.59433-5.25-1.4062zm24.281 41.625c-0.53645 0.85942-1.1372 1.6494-1.875 2.3125-1.151 1.0344-2.7125 1.5096-4.375 1.625-0.78998 5.5872-0.41256 11.626 4.1562 20.438 0.40881 0.78842 1.6434 2.0095 3.25 3.3125-3.9137-10.069-3.4384-18.172-1.875-24.781 0.2564-1.0839 0.44791-1.8942 0.71875-2.9062zm19.938 43.344-0.0625 0.0625c-0.0893 0.11012-0.26752 0.27214-0.40625 0.375-0.27075 0.11665-0.65909 0.23674-0.46875 0.1875l0.40625 1.7188 0.40625 1.75s-1.8128 0.42833-3.5312 1.1562c-0.73683 0.31213-1.3871 0.71981-1.75 0.96875-0.31848 2.8752 0.47784 7.4556 2.4375 11.5 1.1959 2.4682 2.8202 4.527 4.4375 6.2188-2.0105-4.8485-2.996-10.036-2.1875-14.531 0.28327-1.5752 1.3004-2.6968 2.4062-3.5625 1.0369-0.8117 2.2264-1.4066 3.375-1.9062-1.5728-0.56-1.8447-0.56381-4.0938-1.5312-0.87592-0.38449-1.3129-1.5404-0.90625-2.4062-7e-3 9e-3 -0.0243-8e-3 -0.0312 0s-0.0242-8e-3 -0.0312 0zm54.75 44.969c-0.20925 0.12978-0.34509 0.20403-0.5 0.3125 0.66292 0.43524 1.5706 0.96913 2.9375 1.375 0.38492 0.11429 1.2846 0.233 2.0938 0.34375 0.21058-0.29912 0.3941-0.62363 0.65625-0.90625-1.72-0.19517-3.4579-0.55448-5.1875-1.125zm32.594 14.344c-1.6419 0.12035-3.0213 0.2568-5.625 0.34375-0.0785 1.1831-0.0618 2.4982 0.25 3.9062 0.63237 2.8556 2.0594 5.7912 5.25 8.375-0.87595-2.8346-1.1671-5.5819-0.96875-8 0.1453-1.7716 0.55563-3.299 1.0938-4.625zm63.656 19.062c0.37565 0.29488 0.79629 0.62303 1.2812 0.9375-0.0143-0.27491-0.036-0.59928-0.0312-0.84375-0.2461-0.0102-0.87029-0.0729-1.25-0.0937zm22.031 12.594c-1.7254 0.91542-3.6041 1.6569-5.7812 1.75-0.17973 2.3303 0.0818 4.6784 1.75 7.125 1.3627 1.9986 2.4273 2.8846 3.2812 3.4375-1.155-4.5176-0.46508-8.8859 0.75-12.312zm19.812 22.969c-0.79392 0.58861-1.7732 1.1009-2.9062 1.5625l41.781 187.19h3.25l-42.125-188.75z" fill="#fff" opacity=".6"/>
  <path d="m381.11 289.51c-89.581 24.003-140.26 125.28-113.22 226.2 8.8726 33.113 25.014 62.069 45.861 85.189-19.422-22.545-34.444-50.307-42.894-81.843-27.04-100.92 23.638-202.2 113.22-226.2 59.985-16.073 122.2 6.6065 164.87 53.624-42.728-49.291-106.44-73.421-167.84-56.97z" fill="#fff" opacity=".4"/>
  <path d="m476.79 741.49-15.252 18.904c4.3768 0.77132 1.7106 1.65-0.86539 3.5318 0 0 25.847 26.096 27.779 31.347s2.1014 29.329 0.31058 32.431c-1.0543 1.8261-2.2537 4.1413-3.2116 6.0046 0.53024 0.20044 1.0332 0.18927 1.5298-0.0864 2.5823-1.4335 13.956-8.9084 13.486-16.199s-8.8174-38.424-13.254-43.91c-2.1972-2.717-3.5759-5.153-4.4147-6.9375l-0.0162-0.0604z" fill="#cd8e63"/>
  <path d="m438.81 245.97a2.3248 2.3248 0 0 0 -0.90625 0.1875 2.3248 2.3248 0 0 0 -1.25 3.1875c1.857 3.6628 1.1838 8.1882-3.3438 12.031a2.3248 2.3248 0 0 0 2.7812 3.7188c2.5036-1.6077 5.1186-3.2322 7.75-4.7812a2.3248 2.3248 0 0 0 1.0625 -1.4688c0.42254-1.6876 0.43998-3.3695 0.125-4.9688-0.56089-2.8477-2.2561-5.4972-4.9062-7.4375a2.3248 2.3248 0 0 0 -1.3125 -0.46875zm-40.844 2.5938a2.3248 2.3248 0 0 0 -0.6875 0.15625 2.3248 2.3248 0 0 0 -1.1875 3.3125c1.0803 1.9153 1.8088 4.2764 2.2188 7.0625a2.3248 2.3248 0 0 0 4.0938 1.1562c0.55777-0.67754 1.159-1.4175 1.75-2.1562a2.3248 2.3248 0 0 0 0.375 -2.2812c-1.0602-2.7392-2.7174-5.0768-5.0312-6.7812a2.3248 2.3248 0 0 0 -1.5312 -0.46875zm79.375 8.9688a2.3248 2.3248 0 0 0 -0.6875 0.15625 2.3248 2.3248 0 0 0 -1.1562 3.25c0.77806 1.4335 0.71577 2.2568 0.34375 3.2812s-1.2864 2.2707-2.5938 3.5938c-2.6147 2.646-6.6154 5.4582-8.5 9.8125a2.3248 2.3248 0 0 0 3.5 2.7812c2.8954-2.1161 5.4501-3.4654 7.7812-4.25a2.3248 2.3248 0 0 0 0.84375 -0.53125c1.8968-1.7914 3.8637-3.4237 5.25-5.3438 0.65444-0.90638 1.2249-1.8549 1.5-3s0.15193-2.4104-0.25-3.5625c-0.63632-1.8242-2.0134-3.5659-4.3125-5.5938a2.3248 2.3248 0 0 0 -1.7188 -0.59375zm-62.031 30.375c-12.443 0.0285-24.987 1.6327-37.438 4.9688-86.821 23.264-135.74 121.25-109.66 218.59 8.2517 30.796 23.002 57.901 42.094 79.812a2.3388 2.3388 0 0 0 3.5625 -3.0312c-17.174-20.86-30.483-46.137-38.125-74.656-25.741-96.065 22.516-192.45 107.72-215.28 19.97-5.351 40.16-6.1779 59.75-3.0938a2.3325 2.3325 0 1 0 0.8125 -4.5938c-9.4415-1.828-19.041-2.741-28.719-2.7188zm129.59 3.375a2.3248 2.3248 0 0 0 -0.6875 0.125 2.3248 2.3248 0 0 0 -1.0938 3.5312c0.27246 0.38801 0.5373 0.78856 0.8125 1.2188 3.7452 5.8543 2.6291 9.9257 0.71875 13.125s-4.7812 5.0625-4.7812 5.0625a2.3248 2.3248 0 0 0 0.46875 4.1562c1.2023 0.43469 2.3257 0.91565 3.375 1.4062l1-2.125-1.625-1.6562c0.31295-0.29979 4.8e-4 -0.048 0.34375-0.3125s0.0366-0.0238 0.40625-0.25l1.1875 1.9688 1.2812 1.9688s3.3392-2.1406 5.625-5.9688c2.2311-3.7365 3.4278-9.4832-0.78125-16.062-1.4991-2.3433-3.0006-4.1816-4.5312-5.5938a2.3248 2.3248 0 0 0 -1.7188 -0.59375zm11.281 33.844a2.3248 2.3248 0 0 0 -0.4375 0.125 2.3248 2.3248 0 0 0 -1.125 3.5c4.6451 6.6586 5.7346 15.24 8.375 23.781a2.3248 2.3248 0 0 0 4.5312 -0.8125c-0.10042-2.2831-0.1083-4.8985 0.0937-7.4375a2.3248 2.3248 0 0 0 -0.0937 -0.78125c-0.83988-3.103-1.783-6.1897-3.1875-9.125-1.483-3.0994-3.4458-6.0247-6.2188-8.625a2.3248 2.3248 0 0 0 -1.9375 -0.625zm34.25 14.656a2.3248 2.3248 0 0 0 -0.6875 0.125 2.3248 2.3248 0 0 0 -1.1562 3.5625c4.3851 6.2072 6.016 13.803 5.875 20.969s-2.0931 13.868-4.3125 17.781a2.3248 2.3248 0 0 0 3.7812 2.6562c1.8937-2.2092 3.7026-3.6875 5.3438-4.5938a2.3248 2.3248 0 0 0 1.125 -1.4062c1.4866-5.4565 2.2212-12.141 1.25-18.844-1.0188-7.0314-3.8503-14.079-9.5312-19.594a2.3248 2.3248 0 0 0 -1.6875 -0.65625zm24.031 41.438a2.3248 2.3248 0 0 0 -0.65625 0.125 2.3248 2.3248 0 0 0 -1.2812 3.375c0.2204 0.37288 0.39227 0.62962 0.46875 0.78125 3.185 6.3143 2.8846 10.328 1.375 13s-4.5726 4.347-7.9375 4.9375a2.3248 2.3248 0 0 0 0.21875 4.625c1.6932 0.10569 3.2927 0.35397 4.7812 0.75a2.3248 2.3248 0 0 0 1.0938 0.0312c3.6738-0.80251 7.2012-2.7506 9.125-6.1562 2.0181-3.5726 2.1865-8.781-1.25-15.594-1.0235-2.0292-2.5493-3.9422-4.4062-5.4062a2.3248 2.3248 0 0 0 -1.5312 -0.46875zm11.062 32.938a2.3248 2.3248 0 0 0 -0.4375 0.125 2.3248 2.3248 0 0 0 -1.1562 3.4688c4.0838 6.0222 5.2892 13.946 3.4375 20.281-1.7396 5.9514-3.7492 8.0263-5.0625 8.4688a2.3248 2.3248 0 0 0 -0.53125 4.1562c0.2354 0.15014 0.55179 0.34523 0.96875 0.5625 1.0592 0.55193 2.0789 0.97082 3.2812 1.0312s2.4664-0.34897 3.4375-1c2.2316-1.4961 3.9382-4.3886 5.4688-9.625 1.9885-6.8031 0.87601-14.838-3.0625-21.375-1.2124-2.0122-2.7065-3.8369-4.4375-5.4688a2.3248 2.3248 0 0 0 -1.9062 -0.625zm-384.22 13.375a2.3248 2.3248 0 0 0 -0.6875 0.125 2.3248 2.3248 0 0 0 -1.125 3.5625c1.679 2.3225 3.1819 4.9251 4.375 7.2188a2.3248 2.3248 0 0 0 4.3438 -1.5625c-0.21787-0.95721-0.46717-1.9498-0.71875-2.9062a2.3248 2.3248 0 0 0 -0.3125 -0.71875c-1.289-1.8552-2.6983-3.6125-4.1875-5.0625a2.3248 2.3248 0 0 0 -1.6875 -0.65625zm364.25 6.375a2.3248 2.3248 0 0 0 -0.90625 0.21875 2.3248 2.3248 0 0 0 -1.3438 2.625c1.0372 4.9192 3.8397 8.4831 6.9062 11.688a2.3248 2.3248 0 0 0 3.5625 -2.9688c-1.3415-1.9092-2.343-3.9237-2.875-6.4062a2.3248 2.3248 0 0 0 -0.5625 -1.0625c-1.0572-1.1597-2.0754-2.3366-3.0938-3.375a2.3248 2.3248 0 0 0 -1.6875 -0.71875zm15.656 20.781a2.3248 2.3248 0 0 0 -0.6875 0.1875 2.3248 2.3248 0 0 0 -1 3.5625c3.6313 4.8343 6.566 11.038 7.0312 21.312 0.18091 3.9956-3.0755 10.372-6.625 15.438s-7.1562 8.9062-7.1562 8.9062a2.3248 2.3248 0 0 0 2.375 3.8125s2.7288-0.81834 5.25-0.96875a2.3248 2.3248 0 0 0 1.625 -0.8125c1.3846-1.626 3.2596-3.8823 5.0938-6.5 3.71-5.2951 7.3442-11.656 7.0938-17.188-0.6284-13.879-5.7835-21.356-11.094-27a2.3248 2.3248 0 0 0 -1.9062 -0.75zm-384.53 47.844a2.3248 2.3248 0 0 0 -0.625 0.15625c-1.3633 0.49994-2.8234 0.78204-4.25 0.84375a2.3248 2.3248 0 0 0 -0.65625 0.15625 2.3248 2.3248 0 0 0 -0.25 4.2812c1.01 0.49547 2.0802 0.81862 3.1875 1a2.3248 2.3248 0 0 0 1.875 -0.5c0.70983-0.59173 1.4226-1.1486 2.1875-1.6562a2.3248 2.3248 0 0 0 -1.4688 -4.2812zm390.78 4.5938a2.3248 2.3248 0 0 0 -0.65625 0.15625 2.3248 2.3248 0 0 0 -1.2188 3.1875c1.7733 3.4989 2.8289 8.2555 2.8438 12.781s-1.0208 8.8243-2.875 11.531c-2.866 4.184-5.6701 5.5635-8.2812 5.75a2.3248 2.3248 0 0 0 -0.8125 4.4375c0.37845 0.17679 0.76955 0.30929 1.125 0.4375 2.304 0.83109 4.9796 1.1647 7.6562 0.21875s5.1359-3.0631 7.4688-6.4688c2.7351-3.9929 3.7005-9.7824 3.2812-15.562s-2.2356-11.415-5.3438-15.094c-0.77801-0.92079-1.4667-1.1206-2.4688-1.3438a2.3248 2.3248 0 0 0 -0.71875 -0.0312zm-374.62 21.25a2.3248 2.3248 0 0 0 -0.4375 0.125 2.3248 2.3248 0 0 0 -1.4688 1.5938c-0.91927 3.5693-1.6719 7.9506-2.8125 11.5s-2.6216 5.8129-4.0625 6.25a2.3248 2.3248 0 0 0 -0.5 4.25c1.4939 0.8507 2.7965 1.3468 4.1562 1.4375 1.1236 0.0749 2.3254-0.14367 3.3125-0.75s1.6906-1.4394 2.3125-2.375a2.3248 2.3248 0 0 0 0.3125 -0.6875c1.7036-6.4551 4.0512-12.707 1.75-19.75a2.3248 2.3248 0 0 0 -2.5625 -1.5938zm350.12 1.7812a2.3248 2.3248 0 0 0 -0.6875 0.15625 2.3248 2.3248 0 0 0 -1.375 2.8125c1.7761 6.424 0.32423 14.521-3.0625 21.094s-8.6629 11.36-13.656 12.062l0.34375 2.3125 0.375 2.2812c3.166-0.54717 5.3574-0.38186 6.5938 0a2.3248 2.3248 0 0 0 1.625 -0.0937c4.8581-2.147 9.116-6.7507 12.062-12.469 3.2721-6.35 4.865-13.936 3.75-20.719a2.3248 2.3248 0 0 0 -0.625 -1.1875c-1.4348-1.5138-2.5017-3.2278-3-4.6562a2.3248 2.3248 0 0 0 -2.3438 -1.5938zm-7.625 40.562a2.3248 2.3248 0 0 0 -0.71875 0.15625 2.3248 2.3248 0 0 0 -1.5 1.9688c-0.0998 1.1948-1.1285 3.3899-3.1875 5.5625-1.8566 1.959-6.5149 4.9062-10.75 7.2188s-8.1449 4.1316-8.875 4.4688a2.3248 2.3248 0 0 0 1.5312 4.3438c-0.56606 0.13695 0.3701 0.0841 1.4375 1l1.5-1.75-1.5938-1.6875c0.30556-0.28848 0.2996-0.30902 0.65625-0.53125s0.35639-0.19658 0.75-0.34375l0.8125 2.1562 1 2.0938c0.77908-0.35973 4.6771-2.1708 9-4.5312 4.3462-2.3732 8.951-5.1593 11.406-7.75 1.5806-1.6678 2.752-3.3343 3.4062-4.9688 0.63967-1.5981 0.83176-3.066 0.25-4.4688-0.22682-0.54687-0.70169-1.2069-1.3438-1.6875s-1.3586-0.80696-2.2188-1.0312c-0.40439-0.10545-0.75878-0.13795-1.0938-0.1875a2.3248 2.3248 0 0 0 -0.46875 -0.0312zm-17.531 24.562a2.3248 2.3248 0 0 0 -0.65625 0.125 2.3248 2.3248 0 0 0 -1.2188 3.375c3.1781 5.3525 4.9455 14.408-4.625 24.562-1.454 1.5427-4.6364 3.2474-8.2812 4.375s-7.7721 1.742-11.125 1.625a2.3248 2.3248 0 0 0 -1.0312 4.4688c2.2833 1.0088 5.2848 1.2995 8.6562 1.0938 3.5396-0.21602 7.3-1.0529 10.625-2.25s6.1674-2.6474 8.0312-4.625c8.2162-8.7174 8.8734-17.391 6.9062-23.625-0.9925-3.1452-2.5932-5.6691-4.2812-7.4062-0.53121-0.54667-1.0583-0.97669-1.4688-1.2812a2.3248 2.3248 0 0 0 -1.5312 -0.4375zm-274.59 15.188a2.3248 2.3248 0 0 0 -0.6875 0.15625 2.3248 2.3248 0 0 0 -1.4062 2.625c0.47033 2.4726-0.069 6.3597-1.7188 9.3438s-4.0566 5.0476-7.8125 5.0938a2.3248 2.3248 0 0 0 -0.8125 4.4688c3.2052 1.218 6.0832 1.4573 8.5312 0.8125s4.3134-2.1416 5.75-3.8438c2.2034-2.6106 3.3403-5.9598 3.7188-9.0625a2.3248 2.3248 0 0 0 -0.34375 -1.5c-1.2718-2.0595-2.2238-4.1953-2.7812-6.3438a2.3248 2.3248 0 0 0 -2.4375 -1.75zm239.84 12.094a2.3248 2.3248 0 0 0 -0.65625 0.125 2.3248 2.3248 0 0 0 -1.4375 1.3125c-1.2546 3.0431-5.1862 6.9655-8.8438 9.8438s-6.9375 4.8125-6.9375 4.8125a2.3248 2.3248 0 0 0 -0.34375 3.75s0.8419 0.68262 1.3125 2.625 0.46688 5.0598-2.4688 9.9375c-1.8122 3.0111-5.1689 3.5596-8.375 3.375a2.3248 2.3248 0 0 0 -0.78125 0.125v-0.21875c-2.3793-0.23251-4.125-0.78125-4.125-0.78125a2.3248 2.3248 0 0 0 -1.625 4.3438s1.1763 0.47627 2.875 1.5625l1.25-1.9688-1.9375-1.2812c0.10636-0.15692 0.48695-0.58885 0.625-0.71875s0.55566-0.46589 0.71875-0.5625 0.69474-0.31633 0.875-0.375 0.71753-0.16961 0.90625-0.1875l0.0312 0.34375a2.3248 2.3248 0 0 0 0.3125 4.25s2.9319 1.0396 6.4688 1.0938c3.4848 0.0533 7.7478-0.90413 10.062-4.75 3.2092-5.3322 3.3873-9.4006 2.75-12.031-0.31211-1.2883-0.74766-2.2733-1.1875-2.9375-0.2599-0.39249-0.42108-0.48085-0.625-0.6875 0.33169-0.20219 3.1801-1.9162 6.7812-4.75 2.8099-2.2112 5.7795-4.9466 7.8438-7.75a2.3248 2.3248 0 0 0 -0.4062 -3.1875c-0.80546-0.64459-1.0745-1.0334-0.75-2.5a2.3248 2.3248 0 0 0 -2.3125 -2.8125zm-206.34 10.031c-1.5815 0.63866-3.4418 0.88565-5.4688 0.78125a2.3248 2.3248 0 0 0 -0.90625 0.15625 2.3248 2.3248 0 0 0 0.125 4.4062c1.0204 0.30808 2.0668 0.57301 3.0938 0.75a2.3248 2.3248 0 0 0 1.5 -0.28125c0.88174-0.48946 1.9799-0.97859 3.3125-1.4688l-0.8125-2.1875-0.84375-2.1562zm192.41 7.25 1.1875 2.0312 0.53125 0.875a2.3248 2.3248 0 0 0 -2.6562 3.5625c-6e-3 -6e-3 -0.029 2e-3 -0.0312 0-0.0262-0.0292-0.28988-0.34288-0.3125-0.375s-0.2313-0.40295-0.25-0.4375-0.20424-0.40099-0.21875-0.4375-0.17737-0.43079-0.1875-0.46875-0.0882-0.46112-0.0937-0.5-0.0303-0.42948-0.0312-0.46875 0.0276-0.46088 0.0312-0.5 0.0543-0.46157 0.0625-0.5 0.11237-0.4628 0.125-0.5 0.20183-0.40204 0.21875-0.4375 0.19779-0.43552 0.21875-0.46875l0.28125-0.375c0.0247-0.0305 0.31562-0.31632 0.34375-0.34375s0.37509-0.31981 0.40625-0.34375 0.34125-0.29239 0.375-0.3125zm-168.5 6.4375c-1.298 0.11844-11.564 0.97508-18.531 0.375a2.3248 2.3248 0 0 0 -0.90625 0.125 2.3248 2.3248 0 0 0 -0.0312 4.4062c0.26905 0.0905 0.51322 0.14845 0.75 0.21875 3.4122 1.0132 8.7674 1.1176 13.719 1 1.3276-0.0315 2.6119-0.0657 3.8125-0.125a2.3248 2.3248 0 0 0 1.875 -1.0938c0.21957-0.35115 0.4194-0.4595 0.34375-0.4375a2.3248 2.3248 0 0 0 -1.0313 -4.4688zm40.625 14.219a2.3248 2.3248 0 0 0 -0.4375 0.125 2.3248 2.3248 0 0 0 -0.9375 3.75c1.1285 1.2326 1.074 1.7073 0.5 2.8438s-2.2122 2.6692-4.4688 4.0312c-4.513 2.7242-11.454 4.7456-16.25 4.7188a2.3248 2.3248 0 0 0 -0.78125 4.5312c0.51661 0.17968 1.0544 0.32885 1.625 0.5 2.603 0.78069 5.772 0.62578 9.25 0s7.2016-1.7922 10.375-3.375c3.1638-1.578 5.672-3.3696 7.125-5.5625 0.6915-1.0436 1.141-2.221 1.0938-3.375-0.044-1.0753-0.62958-2.3248-1.5625-3.3438l-1.7188 1.5625-1.7188 1.5625c-0.0605-0.066-0.32568-0.42526-0.375-0.5s-0.30684-0.51216-0.34375-0.59375-0.19517-0.53861-0.21875-0.625-0.14659-0.56722-0.15625-0.65625-5e-3 -0.56681 0-0.65625 0.0752-0.56864 0.0937-0.65625 0.15536-0.57266 0.1875-0.65625 0.26758-0.54753 0.3125-0.625l2 1.1875 0.90625-2.125c-1.0787-0.47292-2.007-1.0217-2.75-1.5938a2.3248 2.3248 0 0 0 -1.75 -0.46875zm14.625 4.5625a2.3248 2.3248 0 0 0 -0.9375 0.1875 2.3248 2.3248 0 0 0 0.3125 4.4062c1.6193 0.38617 3.2606 0.70937 4.8438 0.9375 1.2567 0.18109 2.4492 0.33117 3.5312 0.4375a2.3248 2.3248 0 0 0 2.5 -1.9375c0.0481-0.27867 0.0937-0.4375 0.0937-0.4375a2.3248 2.3248 0 0 0 -2.1875 -2.875s-3.5632-0.0935-7.9375-0.6875a2.3248 2.3248 0 0 0 -0.2187 -0.0312zm104.12 1.0625a2.3248 2.3248 0 0 0 -0.6875 0.125 2.3248 2.3248 0 0 0 -1.0938 3.4375c1.5716 2.4148 2.5812 5.2585 2.3125 8.8438-0.27362 3.6501-1.1957 5.8577-2.2188 7.1875s-2.1482 1.8972-3.4062 2.1875c-2.5161 0.58051-5.2188-0.3125-5.2188-0.3125a2.3248 2.3248 0 0 0 -3.0312 2.8438l65.844 210.06h6.8438l-64.969-207.31c0.85955 0.27374 3.0904 0.89007 6 0.21875 1.6935-0.39074 3.6193-1.3522 5.0312-3.1875 1.4282-1.8565 2.479-4.5931 2.7812-8.625 0.50121-6.6862-2.8851-11.651-6.3438-14.812-0.0899-0.0824-0.15161-0.0866-0.125-0.0625a2.3248 2.3248 0 0 0 -1.7188 -0.59375zm-72.188 7.75a2.3248 2.3248 0 0 0 -0.75 0.15625 2.3248 2.3248 0 0 0 -0.875 0.625s-4.4181 4.6539-8.6562 5.25a2.3248 2.3248 0 0 0 -0.8125 4.3125c0.0507 0.0288 0.13035 0.10399 0.28125 0.1875 2.8473 1.5756 5.9522 1.2975 8.4375 0.34375a2.3248 2.3248 0 0 0 1.3438 -1.3438c1.273-3.4827 3.0312-5.7812 3.0312-5.7812a2.3248 2.3248 0 0 0 -2 -3.75zm66.125 14.375c2e-3 -0.0537 0.0467-3e-3 1.2812 0.40625l-0.8125 2.1562-0.625 1.75-1.8438 0.59375-2.2188 0.6875c-0.0109-0.0344-0.15026-0.52689-0.15625-0.5625s-0.0303-0.55765-0.0312-0.59375 0.0272-0.55787 0.0312-0.59375 0.0847-0.52754 0.0937-0.5625c9e-3 -0.035 0.17367-0.52914 0.1875-0.5625l0.28125-0.53125c0.0183-0.0311 0.29-0.44051 0.3125-0.46875s0.38003-0.41267 0.40625-0.4375l0.4375-0.375c0.0294-0.0209 0.49919-0.32713 0.53125-0.34375s0.49719-0.17551 0.53125-0.1875l0.5625-0.1875c1.0794 0.0237 1.0289-0.13384 1.0312-0.1875zm-50.406 11.281a2.3248 2.3248 0 0 0 -0.65625 0.125 2.3248 2.3248 0 0 0 -1.0312 0.75s-2.2771 2.5787-5.0938 3.0625a2.3248 2.3248 0 0 0 -0.78125 4.2812c0.4672 0.27978 0.91573 0.52876 1.375 0.71875 2.1272 0.87998 4.2482 0.75733 5.9062 0.25 0.97191-0.29742 1.7801-0.7376 2.4688-1.1562a2.3248 2.3248 0 0 0 1.0625 -2.4688l-0.84375-3.75a2.3248 2.3248 0 0 0 -2.4062 -1.8125z" opacity=".2"/>
  <path d="m438.75 248.31c2.3436 4.6226 1.2705 10.45-3.9062 14.844 2.5166-1.616 5.142-3.2716 7.8125-4.8438 0.33807-1.3503 0.34605-2.7191 0.0937-4-0.44442-2.2564-1.769-4.3666-4-6zm-40.625 2.5625c1.2602 2.2342 2.06 4.8843 2.5 7.875 0.56394-0.68503 1.1475-1.3796 1.7188-2.0938-0.9354-2.4169-2.2887-4.3595-4.2188-5.7812zm79.406 8.9688c4.1547 7.6545-7.6318 11.7-10.656 18.688 3.0391-2.2211 5.7953-3.715 8.4062-4.5938 1.9352-1.8277 3.85-3.4818 4.9688-5.0312 1.1392-1.5777 1.5236-2.7575 0.9375-4.4375-0.41216-1.1816-1.5314-2.7508-3.6562-4.625zm-62.219 30.375c-12.243 0.0228-24.59 1.5918-36.844 4.875-85.454 22.897-133.83 119.52-108.03 215.78 8.1601 30.454 22.797 57.199 41.656 78.844-17.385-21.116-30.866-46.66-38.594-75.5-26.03-97.144 22.806-194.93 109.38-218.12 20.29-5.4366 40.821-6.2888 60.719-3.1562-9.2986-1.8004-18.759-2.7365-28.281-2.7188zm129.72 3.375c0.29223 0.41617 0.58377 0.82601 0.875 1.2812 8.33 13.021-4.75 21.438-4.75 21.438 1.2678 0.45838 2.45 0.94857 3.5625 1.4688a1.8961 1.8961 0 0 1 0.3125 -0.25s2.9376-1.8905 4.9062-5.1875 3.0726-7.6497-0.75-13.625c-1.4132-2.209-2.8028-3.8763-4.1562-5.125zm11.5 33.844c5.067 7.2633 6.1014 16.142 8.6562 24.406-0.10353-2.3536-0.11863-5.0807 0.0937-7.75-0.82496-3.0479-1.7248-5.9885-3.0312-8.7188-1.3856-2.8959-3.1793-5.5561-5.7188-7.9375zm33.969 14.656c9.4948 13.44 6.6517 32.528 1.6875 41.281 2.0385-2.3782 4.0359-4.0577 5.9688-5.125 1.4088-5.171 2.1028-11.589 1.1875-17.906-0.96382-6.652-3.5934-13.154-8.8438-18.25zm24.062 41.438c0.18255 0.30885 0.37304 0.62385 0.53125 0.9375 6.8075 13.496-0.56666 19.927-8.2812 21.281 1.8429 0.11503 3.5825 0.37718 5.2188 0.8125 3.2061-0.70035 6.1326-2.3581 7.625-5 1.5918-2.818 1.8816-7.0432-1.3438-13.438-0.86355-1.712-2.1801-3.356-3.75-4.5938zm11.312 32.938c4.4845 6.6131 5.8186 15.142 3.75 22.219-1.8306 6.2628-4.0982 9.1697-6.5625 10 0.26622 0.1698 0.49228 0.33446 0.75 0.46875 1.8255 0.95122 2.9941 1.061 4.3438 0.15625s3.0808-3.3814 4.5312-8.3438c1.7806-6.0918 0.81296-13.535-2.7812-19.5-1.1065-1.8365-2.4576-3.5165-4.0312-5zm-384.5 13.406c1.7718 2.4508 3.3616 5.1312 4.5938 7.5-0.2126-0.93407-0.44302-1.8518-0.6875-2.7812-1.23-1.7702-2.572-3.4196-3.9062-4.7188zm364.22 6.375c0.91284 4.3295 3.3222 7.5016 6.2812 10.594-1.4815-2.1085-2.6458-4.462-3.25-7.2812-1.0665-1.1698-2.0679-2.3303-3.0312-3.3125zm15.812 20.781c3.8586 5.1369 6.985 11.941 7.4688 22.625 0.46743 10.323-14.406 26.031-14.406 26.031s2.9081-0.88922 5.8125-1.0625c1.3554-1.5917 3.1633-3.8115 4.9375-6.3438 3.5698-5.0949 6.8782-11.508 6.6875-15.719-0.60518-13.366-5.3496-20.058-10.5-25.531zm-384.53 47.844c-1.5808 0.57971-3.2576 0.92734-4.9375 1 0.79869 0.3918 1.6378 0.66614 2.5312 0.8125 0.75139-0.62638 1.5482-1.243 2.4062-1.8125zm390.81 4.5625c3.9655 7.8243 4.2814 20.087-0.21875 26.656-3.1495 4.5978-6.657 6.509-10.031 6.75 0.29986 0.14008 0.60039 0.26468 0.90625 0.375 3.9344 1.4192 8.1715 0.89836 12.469-5.375 2.2449-3.2773 3.2652-8.6828 2.875-14.062s-2.1825-10.705-4.7812-13.781c-0.15592-0.18454-0.55703-0.41517-1.2188-0.5625zm-374.5 21.25c-1.7554 6.816-2.9811 17.71-8.4688 19.375 1.3068 0.74417 2.3644 1.1034 3.1562 1.1562 1.5569 0.10382 2.4799-0.51196 3.5312-2.0938 1.7366-6.58 3.807-12.237 1.7812-18.438zm349.94 1.8125c3.975 14.377-6.3304 34.368-18.594 36.094 3.3939-0.58657 5.8902-0.51423 7.6562 0.0312 4.1601-1.8385 8.1833-6.0302 10.938-11.375 3.0613-5.9408 4.5099-13.138 3.5-19.281-1.6317-1.7215-2.8618-3.6393-3.5-5.4688zm-7.6875 40.531c-0.17233 2.0636-1.5279 4.5581-3.8125 6.9688-4.6219 4.8768-18.79 11.484-20.312 12.188 0.86011-0.20811 2.1287 0.35016 3.4688 1.5a1.8961 1.8961 0 0 1 0.625 -0.40625c0.73592-0.3398 4.626-2.1486 8.875-4.4688s8.9034-5.2651 10.844-7.3125c1.4197-1.498 2.4074-3.0037 2.9062-4.25s0.50762-2.1417 0.28125-2.6875-0.64975-1.0229-2-1.375c-0.24911-0.065-0.56904-0.11099-0.875-0.15625zm-17.469 24.562c3.6222 6.1003 5.1983 16.557-4.9688 27.344-3.889 4.1262-13.808 7.0076-21.188 6.75 1.675 0.74 4.4581 1.0957 7.5625 0.90625 6.5157-0.39765 14.413-3.2784 17.125-6.1562 7.7553-8.2283 8.1315-15.777 6.375-21.344-0.87824-2.7831-2.3483-5.0575-3.75-6.5-0.40983-0.42176-0.79022-0.72839-1.1562-1zm-274.56 15.188c1.1959 6.2869-2.4783 17.104-11.781 17.219 5.7584 2.1882 9.2364 0.52915 11.688-2.375 1.7882-2.1188 2.8236-5.1165 3.1562-7.8438-1.3717-2.2212-2.4355-4.5835-3.0625-7zm239.72 12.094c-3.1792 7.7113-16.75 15.781-16.75 15.781s5.6644 4.9773-0.6875 15.531c-2.4219 4.024-6.9655 4.6892-10.594 4.4688a1.9036 1.9036 0 0 1 0.0937 0.0312s2.6426 0.88997 5.75 0.9375 6.2585-0.6482 8.0312-3.5938c2.9799-4.9513 2.9982-8.2248 2.5-10.281s-1.4375-2.8438-1.4375-2.8438a1.8961 1.8961 0 0 1 0.28125 -3.0312s3.2873-1.978 6.9688-4.875c2.6861-2.1138 5.5163-4.7883 7.375-7.3125-1.3682-1.0949-2.0041-2.675-1.5312-4.8125zm-205.56 9.875c-1.9651 0.79355-4.1495 1.0866-6.4375 0.96875 0.94273 0.28463 1.8958 0.49826 2.8125 0.65625 1.0175-0.56481 2.2084-1.104 3.625-1.625zm23.25 13.844c-1.3504 0.12322-11.569 1.0069-18.906 0.375 0.22231 0.0748 0.42328 0.14958 0.65625 0.21875 2.7024 0.80239 8.1929 1.0211 13.031 0.90625 1.3133-0.0312 2.576-0.067 3.75-0.125 0.45488-0.72745 0.94942-1.2222 1.4688-1.375zm148.84 11.062s1.3874 0.55894 3.25 1.75a1.9036 1.9036 0 0 1 1.4062 -0.8125c-2.6493-0.2589-4.6562-0.9375-4.6562-0.9375zm-108.09 3.1562c6.5353 7.1384-11.094 15.529-21.906 15.469 0.49684 0.17281 1.0029 0.34151 1.5312 0.5 3.788 1.1361 12.033-0.33653 17.875-3.25 2.9208-1.4567 5.238-3.254 6.25-4.7812 0.50597-0.76362 0.71008-1.3858 0.6875-1.9375s-0.24439-1.1492-0.9375-1.9062a1.8961 1.8961 0 0 1 -0.21875 -2.2188c-1.2198-0.53475-2.3536-1.1608-3.2812-1.875zm14.219 4.5938c1.5532 0.37041 3.1501 0.68921 4.6562 0.90625 1.2188 0.17563 2.3556 0.30301 3.4062 0.40625 0.0621-0.35992 0.125-0.625 0.125-0.625s-3.6725-0.0744-8.1875-0.6875zm104.38 1.0312c1.7882 2.7476 2.9971 6.1506 2.6875 10.281-1.19 15.875-14 11.031-14 11.031l66.094 210.75h2l-65-207.34a1.8961 1.8961 0 0 1 2.4688 -2.3438s2.7988 0.95976 5.4688 0.34375c1.335-0.30801 2.6009-0.93128 3.6875-2.3438s2.0345-3.6974 2.3125-7.4062c0.4379-5.8417-2.4642-10.017-5.625-12.906-0.0287-0.0263-0.0651-0.0366-0.0937-0.0625zm-72.219 7.75s-4.5691 5.2274-10.062 6c0.0936 0.0532 0.15387 0.10305 0.25 0.15625 2.1826 1.2077 4.3955 1.0456 6.4688 0.25 1.3956-3.818 3.3438-6.4062 3.3438-6.4062zm15.75 25.656s-2.647 3.2391-6.5312 3.9062c0.37365 0.22376 0.7473 0.41919 1.0938 0.5625 1.6447 0.68036 3.0069 0.58698 4.3125 0.1875 0.71241-0.21801 1.3813-0.54914 1.9688-0.90625l-0.84375-3.75z" opacity=".2"/>
  <path d="m508.22 672.91c-4.1558 0.0772-9.4719 1.3516-14.219 3.875-8.4389 4.486-5.8118 25.299-5.1562 33.281s7.2537 18.813 9.75 22.594 6.4422 32.373 8.5312 42.938-7.8909 56.264-4.1562 92.344c1.5354 14.833 7.0363 25.331 13 32.562h62.75c6.2907-16.407 11.919-46.36 10.031-55.531-2.4599-11.948-11.95-39.1-21.75-53.531s-23.695-24.773-26.562-29.938-10.705-37.181-11.781-49.5-11.345-34.036-13.656-37.125c-1.011-1.3514-3.549-2.0288-6.7812-1.9688z" fill="#e9c6af"/>
  <path d="m492.75 685.06s1.963 18.09 4.2174 20.632 22.314-2.8327 23.127-5.6724-4.6412-20.257-4.6412-20.257 7.022 19.357 6.4367 21.087-21.868 7.4328-25.066 7.2409-4.0735-23.031-4.0735-23.031z" fill="#cd8e63"/>
  <path d="m493.28 684.13s0.53457-4.7526 2.4545-7.4748c2.2801-3.2329 13.682-4.7148 15.674-3.1511s4.0851 5.4604 4.0851 5.4604-3.0298-2.836-5.5833-3.2235c-4.373-0.66366-10.799 0.796-13.813 4.2256-1.6719 1.9024-2.8174 4.1635-2.8174 4.1635z" fill="#f4e3d7"/>
 </g>
</svg>
