<?xml version="1.0" encoding="UTF-8"?>
<svg enable-background="new 0 0 820.698 1026.117" viewBox="0 0 820.698 1026.117" xmlns="http://www.w3.org/2000/svg">
 <defs>
  <linearGradient id="f" x2="0" y1="928.94" y2="21.139" gradientUnits="userSpaceOnUse">
   <stop stop-color="#bcdeec" offset="0"/>
   <stop stop-color="#58c0d9" offset="1"/>
  </linearGradient>
  <linearGradient id="e" x2="0" y1="966.65" y2="607.42" gradientUnits="userSpaceOnUse">
   <stop stop-color="#bcdeec" offset=".1067"/>
   <stop stop-color="#fffff5" offset="1"/>
  </linearGradient>
  <linearGradient id="d" x2="0" y1="897.98" y2="741.91" gradientUnits="userSpaceOnUse">
   <stop stop-color="#bcdeec" offset=".1067"/>
   <stop stop-color="#fffff5" offset="1"/>
  </linearGradient>
  <radialGradient id="c" cx="420.44" cy="812.13" r="341.99" gradientUnits="userSpaceOnUse">
   <stop stop-color="#4fa12b" offset="0"/>
   <stop stop-color="#2e812b" offset="1"/>
  </radialGradient>
  <radialGradient id="b" cx="690.17" cy="364.31" r="176.9" gradientUnits="userSpaceOnUse">
   <stop stop-color="#ffb300" offset="0"/>
   <stop stop-color="#f90" offset="1"/>
  </radialGradient>
  <radialGradient id="a" cx="671.75" cy="444.28" r="58.814" gradientUnits="userSpaceOnUse">
   <stop stop-color="#ffb300" offset="0"/>
   <stop stop-color="#ff9100" offset="1"/>
  </radialGradient>
 </defs>
 <path d="m0 0h819.75v1026.1h-819.75z" fill="url(#f)"/>
 <path d="m0,1005.105h819.749v-250.844c-10.228-32.576-40.004-56.153-75.16-56.153-28.314,0-53.135,15.297-67.07,38.266-10.66-14.723-27.734-24.266-46.984-24.266-11.914,0-22.988,3.663-32.23,9.938-6.092-38.521-38.654-67.938-77.926-67.938-19.234,0-36.857,7.063-50.555,18.79-11.068-17.928-30.56-29.841-52.775-29.841-6.22,0-12.223.946-17.891,2.682-7.383-26.931-31.483-46.682-60.096-46.682-34.484,0-62.438,28.677-62.438,64.051 0,2.009.102,3.993.278,5.955-.077,0-.152-.006-.229-.006-30.19,0-55.375,21.98-61.179,51.191-11.334-6.453-24.372-10.14-38.253-10.14-43.608,0-78.961,36.266-78.961,81 0,1.911.088,3.8.215,5.678-5.95-2.992-12.637-4.678-19.711-4.678-11.193,0-21.419,4.217-29.276,11.172-7.015-16.014-22.688-27.172-40.912-27.172-2.941,0-5.812.299-8.596.854v228.143z" fill="url(#e)"/>
 <path d="m0 1024.1h819.75v-176.06c-11.333-6.638-24.516-10.46-38.598-10.46-15.043 0-29.059 4.359-40.889 11.857-3.484-31.973-30.563-56.858-63.464-56.858-14.299 0-27.499 4.702-38.143 12.642-9.392-33.259-39.941-57.642-76.205-57.642-31.515 0-58.727 18.409-71.479 45.059-0.771-0.033-1.543-0.059-2.321-0.059-12.36 0-23.743 4.162-32.844 11.148-11.513-27.682-38.807-47.148-70.655-47.148-32.741 0-60.665 20.575-71.582 49.496-14.657-8.576-31.713-13.496-49.92-13.496-26.556 0-50.669 10.458-68.448 27.478-8.689-5.974-19.209-9.478-30.551-9.478-25.513 0-46.879 17.699-52.526 41.485-3.343-0.884-6.853-1.36-10.474-1.36-7.941 0-15.349 2.272-21.621 6.191-9.906-11.806-24.763-19.316-41.379-19.316-15.155 0-28.844 6.252-38.651 16.307v170.22z" fill="url(#d)"/>
 <path d="m820.7 1024.1v-118s-209.36-76-410.35-76-410.35 76-410.35 76v118h820.7z" fill="url(#c)"/>
 <path d="m676.76 389.37 14.854-39.835 1.782 42.461 26.469-33.309-11.464 40.932 35.497-23.522-23.59 35.396 41.049-11.434-33.402 26.397 42.582 1.776-39.95 14.81 39.95 14.81-42.582 1.776 33.402 26.394-41.049-11.432 23.59 35.395-35.497-23.523 11.464 40.931-26.469-33.306-1.782 42.461-14.854-39.834-14.852 39.834-1.782-42.461-26.47 33.306 11.467-40.931-35.496 23.523 23.587-35.395-41.052 11.432 33.408-26.394-42.585-1.776 39.948-14.81-39.948-14.81 42.585-1.776-33.408-26.397 41.052 11.434-23.587-35.396 35.496 23.522-11.467-40.932 26.47 33.309 1.782-42.461z" fill="url(#b)"/>
 <path d="m735.57 443.04c0 32.383-26.328 58.638-58.808 58.638s-58.808-26.255-58.808-58.638c0-32.388 26.326-58.641 58.808-58.641s58.808 26.253 58.808 58.641z" fill="url(#a)"/>
 <path d="m462.659,57.002c-.013-.539-.028-1.082-.041-1.635 0,.001.003.582.041,1.635zm71.317,155.713c49.449-40.19 25.609-80.435-9.15-97.814-11.868-5.934-31.748-8.934-46.854-4.369-13.205-18.457-15.055-46.52-15.312-53.529 .729,27.531 2.5,35.758 10.093,55.083l.144.361c-10.786,4.994-17.753,14.928-14.812,32.01 2.669,15.507 27.448,20.392 36.48,11.626 8.984-8.713 6.323-20.775-1.193-29.942 18.949,1.617 23.354,28.116 4.715,43.649-19.214,16.011-29.024,13.706-75.471,50.299-33.426,26.337-39.173,35.639-48.538,98.378-1.873,58.058-29.018,83.3-36.495,96.711-20.602,36.949-17.855,76.776-17.855,76.776 5.495,53.563 36.919,98.221 32.8,172.385-1.846,33.166-17.624,76.547-36.918,111.628-30.213,54.938-30.214,110.907-30.214,110.907l207.381,1.711c0,0-20.602-35.707-20.602-94.763 0-64.548 31.587-112.617 8.239-163.432-26.771-58.269-49.439-68.394-49.439-152.171 0-54.296 3.972-60.494 26.445-99.824 5.028-15.922 7.81-28.16 12.657-48.693 6.239-26.43 1.787-30.724 8.88-60.867 7.49-31.836 30.901-36.519 55.019-56.12zm-56.298-71.82c-.284-2.269-3.969-8.487 2.74-12.258 3.423,6.343 5.624,9.52 5.648,13.005 .057,7.74-7.683,4.882-8.388-.747z" fill="#86b967" stroke="#235e20" stroke-linecap="round" stroke-linejoin="round" stroke-width="2"/>
 <path d="m296.38 866.61c-11.719 1.146-22.354 18.775-30.214 24.721-9.322 7.049-16.636 8.307-26.096 10.986-15.479 4.387-19.17 15.752-30.214 24.723-10.433 8.475-19.227 15.107-26.095 23.348 9.614-2.746 21.976-15.107 28.842-13.734 5.465 1.092 11.991-8.961 16.479-12.359 4.666-3.537 9.348 1.822 15.108 0 10.815-3.43 19.688-1.412 28.767-7.107 14.19-8.906 43.513-28.153 72.353-30.899" fill="#86b967" stroke="#235e20" stroke-width="2"/>
 <path d="m345.823,880.348c-18.546,3.572-29.561,21.719-45.323,30.215-7.011,3.781-21.049,9.188-27.468,13.734-7.582,5.371-12.927,12.975-21.974,16.479-18.09,7.008-27.768-13.26-45.321-2.746-13.32,7.979-16.481,10.986-32.963,27.467 10.987-9.613 24.584-13.127 32.961-16.48 6.868-2.746 8.541-6.297 20.602,2.746 5.494,4.121 17.854,2.201 24.722,9.068 8.009,8.008 15.271.355 23.347-9.068 8.241-9.611 34.597-19.434 43.948-24.719 9.995-5.65 25.748-8.977 34.008-16.48 7.678-6.977 6.03-8.789 17.856-8.242 6.399.297 7.278-3.568 13.734-4.119 5.396-.459 8.261-7.275 13.142-8.279 8.782-1.807 16.021,19.268 25.639,26.135-.483-.934-6.463-8.67-6.869-26.096l35.708,2.748c9.616,5.492 46.696,24.721 53.562,28.838 8.971,5.383 21.826-4.76 32.961-2.746 11.283,2.041 28.232,16.477 38.454,21.975-10.752-7.373-19.354-31.963-35.708-35.707-11.203-2.564-32.961,6.867-39.827-13.734-8.88-2.893-12.276-11.902-19.228-17.854" fill="#86b967" stroke="#235e20" stroke-width="2"/>
 <path d="m388.3 808.14c-10.078 0-17.251 10.99-17.251 20.15 0 22.904 8.357 27.482 8.357 27.482h8.894v-47.632z" fill="#9a120b" stroke="#231f20" stroke-linecap="round" stroke-linejoin="round" stroke-width="2"/>
 <path d="m388.3 808.14c10.075 0 17.249 10.99 17.249 20.15 0 22.904-8.356 27.482-8.356 27.482h-8.893v-47.632z" fill="#9a120b" stroke="#231f20" stroke-linecap="round" stroke-linejoin="round" stroke-width="2"/>
 <path d="m399.261,838.448c-3.22.572-3.609-7.492-.603-8.824 3.161-1.4.985,2.258.912,3.613-.107,1.943 1.141,3.662-.309,5.211z" fill="#ff0" stroke="#231f20" stroke-linecap="round" stroke-linejoin="round" stroke-width="2"/>
 <path d="m555.802,147.106c1.467-1.501 7.952-6.512 9.956-7.359 6.508-2.757 15.043-3.532 21.1.413 3.719,2.423 3.986,10.599-1.201,13.338-5.961,3.146-15.003-1.932-9.811-8.404 1.664-2.073 5.895-2.11 7.667-.301 1.64,1.674.9,5.11-1.909,5.356-2.394.211-3.55-3.515-1.294-4.434 .548-.223 1.529.115 1.461,1.487-.047.995-.87.771-.603.066 .304-.703-.135-1.237-.701-.936-1.096.421-1.105,2.143.161,3.01 1.01.693 2.379-.158 2.766-1.137 1.141-2.867-1.778-4.384-4.081-4.073-2.955.4-4.704,3.372-4.035,5.916 .749,2.848 3.967,3.648 6.656,3.694 5.652.097 7.676-6.107 5.86-10.783-1.067-2.754-4.315-3.591-6.928-4.026-3.663-.61-6.214-.423-9.743.713-2.794.897-5.595,2.024-8.018,3.638-2.38,1.588-4.328,3.901-6.089,6.088" fill="#5ba455" stroke="#0f420d" stroke-linecap="round" stroke-linejoin="round"/>
 <path d="m472.532,112.152c1.115-.417 2.195-.954 3.311-1.247 .705-.186 1.424-.324 2.115-.532" fill="#86b967" stroke="#235e20" stroke-linecap="round" stroke-linejoin="round" stroke-width="2"/>
 <path d="m486.99 125.35s-0.596 0-0.893 0.199" fill="#86b967" stroke="#235e20" stroke-linecap="round" stroke-linejoin="round" stroke-width="2"/>
 <path d="m295 827.9c7.975-28.018 25.68-35.472 40.355-41.894 43.948-19.23 62.104-29.789 94.201-46.703 41.896-22.078 81.333-44.328 88.259-72.025 6.987-27.953-24.525-40.749-38.916-39.722 0 0 7.563 11.454 2.938 21.22-5.959 12.579-20.263 23.28-52.939 34.95-14.391 5.141-40.216 15.227-62.189 26.213-27.011 13.506-37.707 19.742-60.65 38.549-5.786 4.742-28.698 17.686-31.867 41.63-1.62 12.253 8.225 30.323 20.81 38.044" fill="#5ba455" stroke="#0f420d" stroke-linecap="round" stroke-linejoin="round" stroke-width="2"/>
 <path d="m431.47 569.11c-16.481 5.493-22.207 5.979-46.683 21.479-13.966 8.845-24.804 14.916-33.478 27.443-12.359 17.854-18.626 32.455-13.133 47.564 5.144 14.145 13.538 12.758 12.963 12.242 4.119-35.709 23.519-44.698 55.106-55.684 28.449-9.897 48.587-19.762 58.988-32.913 19.175-24.243 1.99-45.095-25.249-39.44 4.114 8.223 0.223 15.198-8.514 19.309z" fill="#5ba455" stroke="#0f420d" stroke-linecap="round" stroke-linejoin="round" stroke-width="2"/>
 <path d="m315.56,556.54c-19.705-10.151-18.915-42.915 23.581-56.858 16.333-5.359 50.306-14.642 66.039-21.393 6.868-2.945 15.306-5.767 20.572-10.955 6.807-6.706 5.08-10.56 6.181-17.917 16.156,1.724 37.404,20.292 2.748,39.962-9.89,5.611-25.895,17.955-35.523,23.571-12.465,7.271-50.756,45.381-63.295,45.979-10.139.483-20.303-2.389-20.303-2.389z" fill="#5ba455" stroke="#0f420d" stroke-linecap="round" stroke-linejoin="round" stroke-width="2"/>
 <path d="m323.85 449.1c-4.703 4.731-10.138 2.88-14.257-1.24-22.796-38.501 58.022-70.142 77.433-77.04 12.398-4.405 24.515-3.675 53.459-11.337 19.611-5.191 22.014-5.843 28.264-20.188 34.031 8.652 24.876 40.279-15.573 55.95-18.2 7.051-20.828 7.164-57.907 16.779-22.876 5.929-60.431 10.984-71.419 37.076" fill="#5ba455" stroke="#0f420d" stroke-linecap="round" stroke-linejoin="round" stroke-width="2"/>
 <path d="m462.2 196.53c-2.705-0.773-16.89-7.739-34.481-2.815-9.116 2.553-20.405 13.37-11.963 25.334 7.315 10.363 33.075-2.111 54.89 7.037 19.262 8.078 28.257 11.222 36.601 12.712 6.265 1.119 16.437 2.405 22.149-0.671 18.297-9.852 4.25-24.833 4.25-24.833s-8.054 6.711-17.003 4.027c-6.729-2.019-14.847-6.646-26.623-11.186-12.681-4.889-13.042-5.384-27.82-9.605z" fill="#5ba455" stroke="#0f420d" stroke-linecap="round" stroke-linejoin="round" stroke-width="2"/>
 <path d="m487.867,169.268c5.254-4.851 11.737-.988 16.978.404 15.964,4.244 20.224,5.119 31.931,6.468 10.146,1.169 16.605,1.609 19.201.868 6.338-1.811 6.036-9.356 6.036-9.356s7.848,2.415 6.338,10.564c-.672,3.627-6.941,8.752-15.393,9.96-8.812,1.259-16.816,1.936-42.253-1.729-21.993-3.169-28.232-12.2-22.838-17.179z" fill="#5ba455" stroke="#0f420d" stroke-linecap="round" stroke-linejoin="round" stroke-width="2"/>
 <path d="m512.815,152.862c-1.134.22-4.441.278-5.433.302-8.544.198-7.921,8.498-4.406,9.238 8.057,1.697 51.195-5.831 55.397-10.827 6.95-8.267-1.106-8.072-2.132-7.799-2.379.635-5.698,2.748-5.698,2.748-3.019,1.208-3.924,1.207-11.96,2.548-10.354,1.728-18.44,2.36-25.768,3.79z" fill="#5ba455" stroke="#0f420d" stroke-linecap="round" stroke-linejoin="round" stroke-width="2"/>
 <path d="m546.62,133.847c-2.252-.485-13.725-3.192-21.249-3.918-13.979-1.349-20.839-.124-22.037,0 0,0-1.488,1.079-1.686,1.805-.43,1.57.835,3.866 6.502,4.199 5.297.312 12.175,1.678 19.002,2.309 11.967,1.109 22.188,1.804 23.981,1.967 2.818.257 5.015-1.655 4.541-3.042-.659-1.933-2.504-2.488-4.527-3.018-.142-.036-4.032-.195-4.527-.302z" fill="#5ba455" stroke="#0f420d" stroke-linecap="round" stroke-linejoin="round" stroke-width="2"/>
 <path d="m460.127,124.623c0,0-1.933-.369-2.579,1.933-.389,1.392.554,2.578 2.21,3.682 2.619,1.746 5.82,3.224 12.15,3.959 5.266.611 6.084.514 6.537-.922 .552-1.749-.552-2.76-.552-2.76l-.689,1.544c0,0-5.629-2.459-9.146-3.865s-8.483-2.282-8.483-2.282l.552-1.289z" fill="#5ba455" stroke="#0f420d" stroke-linecap="round" stroke-linejoin="round" stroke-width="2"/>
 <path d="m495.63,127.704c1.312.787 2.109.652 3.63.483 2.182-.24 6.435-1.449 8.474-2.179 3.389-1.21 10.168-3.873 12.348-5.084 1.158-.644 3.427-2.279 6.293-3.873 2.179-1.21 1.696-3.39-.241-4.599-2.794-1.745-4.6-.97-7.505.483-1.388.693-5.567,3.147-7.264,4.6-1.694,1.453-3.389,3.147-8.957,5.811-1.762.842-9.2,2.904-6.778,4.358z" fill="#5ba455" stroke="#0f420d" stroke-linecap="round" stroke-linejoin="round" stroke-width="2"/>
 <path d="m463.956,141.908c.608-.351 5.927-2.397 7.539-3.123s4.788-4.38 6.251-3.598c.836.445 1.838,1.783-1.1,4.083s-15.482,10.131-16.572,10.354-2.49-.8-2.712-1.89 .8-2.491 6.594-5.826z" fill="#5ba455" stroke="#0f420d" stroke-linecap="round" stroke-linejoin="round" stroke-width="2"/>
 <path d="m488.5,133.09c.43-.049 3.933.088 5.019.07s3.77-1.31 4.408-.514c.364.456.604,1.456-1.614,2.041-2.222.586-11.213,1.958-11.882,1.818s-1.213-1.057-1.072-1.728 1.057-1.211 5.141-1.687z" fill="#5ba455" stroke="#0f420d" stroke-linecap="round" stroke-linejoin="round" stroke-width="2"/>
 <path d="m485.462,127.733c.432-.05 3.935.087 5.021.069s3.77-1.311 4.408-.514c.364.456.604,1.456-1.614,2.042-2.222.584-11.213,1.957-11.884,1.817s-1.211-1.058-1.073-1.728 1.059-1.211 5.142-1.686z" fill="#5ba455" stroke="#0f420d" stroke-linecap="round" stroke-linejoin="round" stroke-width="2"/>
 <path d="m472.061,106.767c.191-.04 1.757.067 2.241.055 .487-.016 1.686-1.033 1.972-.405 .161.358.27,1.146-.723,1.606s-5.009,1.542-5.309,1.432-.542-.832-.479-1.359 .472-.956 2.298-1.329z" fill="#5ba455" stroke="#0f420d" stroke-linecap="round" stroke-linejoin="round" stroke-width="2"/>
 <path d="m469.853,99.408c.196.008 1.688.496 2.162.603s1.886-.589 2.009.091c.068.387-.019,1.177-1.094,1.381s-5.234.268-5.498.087-.322-.939-.133-1.436 .694-.81 2.554-.726z" fill="#5ba455" stroke="#0f420d" stroke-linecap="round" stroke-linejoin="round" stroke-width="2"/>
 <path d="m470.006,153.224c.343-.615 3.854-5.103 4.865-6.553s2.855-5.617 4.515-5.7c.945-.046 1.578,1.386.236,4.869s-6.711,13.574-7.531,14.324-2.969,1.42-3.721.599-1.621-1.701 1.636-7.539z" fill="#5ba455" stroke="#0f420d" stroke-linecap="round" stroke-linejoin="round" stroke-width="2"/>
 <path d="m493.515,149.431c-.458-.357-3.679-3.784-4.734-4.791s-4.223-3.035-4.082-4.396c.079-.778 1.328-1.113 4.001.417s10.229,7.177 10.738,7.94c.508.765.787,2.601.021,3.11s-1.593,1.11-5.944-2.28z" fill="#5ba455" stroke="#0f420d" stroke-linecap="round" stroke-linejoin="round" stroke-width="2"/>
 <path d="m483.729,145.475c-3.12,2.706 1.06,15.791 5.689,14.978 .169-3.328-.619-6.052-2.43-8.766-.754-1.13-1.761-6.692-3.082-6.391l-.177.179z" fill="#5ba455" stroke="#0f420d" stroke-linecap="round" stroke-linejoin="round" stroke-width="2"/>
 <path d="m369.4 320.34s-24.744 9.266-27.531-18.252c-1.844-18.205 16.889-31.668 36.592-42.224 20.989-11.244 36.617-11.422 70.37-6.333 15.891 2.396 24.14 3.852 24.14 3.852s9.452 0.178 11.16-1.698c2.44-2.687 19.34-3.264 26.525 3.922 10 10 6.287 28.879-11.698 36.699-11.103 4.828-14.238 7.893-73.351 7.189-28.882-0.345-47.059 9.81-56.207 16.845z" fill="#5ba455" stroke="#0f420d" stroke-linecap="round" stroke-linejoin="round" stroke-width="2"/>
 <path d="m470.62,115.324c.887,1.249 8.514,11.907 10.31,13.164 1.841,1.29 3.338,1.314 3.96.737 1.288-1.197.551-2.485-.186-3.314-1.17-1.317-10.878-13.718-12.242-14.269-1.366-.551-3.975.674-1.842,3.682z" fill="#5ba455" stroke="#0f420d" stroke-linecap="round" stroke-linejoin="round" stroke-width="2"/>
 <path d="m492 125.52c0.603-1.407 7.505-14.768 7.261-16.946s-0.241-3.146-1.452-3.389-4.114 0.968-4.6 2.663c-0.483 1.694-5.326 17.43-5.083 18.883s2.42 2.179 3.874-1.211z" fill="#5ba455" stroke="#0f420d" stroke-linecap="round" stroke-linejoin="round" stroke-width="2"/>
 <path d="m459.948,146.552c-2.035.483-8.916.727-6.55,3.198 2.06,1.24 7.89,3.634 1.337,4.861-1.819.342-2.838-1.067-5.434-.461-2.656.621-3.884,3.009-5.061,5.071 .199-.863 1.863-2.296 3.125-2.968 .273-.146 2.066-.923 2.174-.958 1.158-.379 2.598.342 3.174.411 2.672.334 6.559-.864 6.196-2.739-2.024-2.711-2.437-3.288-4.548-3.625 1.225-1.699 2.08-.808 3.947-1.067 2.225-.31.812.003 2.887-1.019" fill="#5ba455" stroke="#0f420d" stroke-linecap="round" stroke-linejoin="round"/>
 <path d="m472.317,98.865c1.666-2.699 1.961-3.195 3.063-3.977 1.365-.452 2.308-.652 2.99-.285-1.479.269-.322.138-2.859.487-2.848,1.994-1.888,1.525-3.692,4.926l.498-1.151z" fill="#7db367" stroke="#235420" stroke-linecap="round" stroke-linejoin="round"/>
 <path d="m454.45,291.749c-2.458-34.32 34.209-22.334 45.614-2.653 17.185,29.66 14.082,57.534 12.79,90.172 .019.786.019.786 0,0 .574-33.094-40.198-26.018-60.162-40.195-11.411-8.103-12.701-6.49-21.337-18.639-11.182-15.741 11.081-36.04 22.101-28.899l.994.214z" fill="#1a7b45"/>
 <path d="m454.45,291.749c-2.458-34.32 34.209-22.334 45.614-2.653 17.185,29.66 14.082,57.534 12.79,90.172 .019.786.019.786 0,0 .574-33.094-40.198-26.018-60.162-40.195-11.411-8.103-12.701-6.49-21.337-18.639-11.182-15.741 11.081-36.04 22.101-28.899l.994.214z" fill="#1a7b45" stroke="#1a4012" stroke-width=".7164"/>
 <path d="m454.45,291.749c-2.458-34.32 34.209-22.334 45.614-2.653 17.185,29.66 14.082,57.534 12.79,90.172 .019.786.019.786 0,0 .574-33.094-40.198-26.018-60.162-40.195-11.411-8.103-12.701-6.49-21.337-18.639-11.182-15.741 11.081-36.04 22.101-28.899l.994.214z" fill="none" stroke="#1a4012" stroke-linecap="round" stroke-linejoin="round" stroke-width="2.1281"/>
 <path d="m454.45 291.75c17.604 4.244 57.478 37.586 58.404 87.519" fill="none" stroke="#1a4012" stroke-linecap="round" stroke-linejoin="round" stroke-width="2.1281"/>
 <path d="m353.42 646.5c19.932-67.976-59.075-59.875-90.616-25.253-47.529 52.175-53.449 109.61-65.104 175.84-0.382 1.568-0.382 1.568 0 0 13.289-66.836 92.235-34.796 138.59-54.602 26.494-11.319 28.389-7.513 51.064-28.187 29.377-26.783-6.555-77.346-31.848-67.791l-2.089-9e-3z" fill="#1a7b45" stroke="#1a4012" stroke-linecap="round" stroke-linejoin="round" stroke-width="2.2603"/>
 <path d="m353.42 646.5c-37.274 0.854-132.05 50.531-155.72 150.59" fill="none" stroke="#1a4012" stroke-linecap="round" stroke-linejoin="round" stroke-width="2.2603"/>
 <path d="m369.755,406.542c-3.406,2.725-6.166,8.08-8.348,12.219-2.861-12.38-14.934-3.646-18.201,3.925-4.232,9.807.637,21.304 2.857,30.432 1.371-12.019 8.083-16.005 15.682-19.646 14.234-6.823 6.034-20.475.212-13.562 4.35-9.179 6.068-11.959 7.798-13.368z" fill="#1a7b45" stroke="#1a4012" stroke-linecap="round" stroke-linejoin="round" stroke-width="2"/>
 <path d="m361.957,419.908c-3.129-.081-5.894,1.635-9.034,5.464-2.289,2.791-4.902,6.771-5.865,10.119-.932,3.23-.67,5.077-.842,8.703-.189,3.97-.551,4.985-.152,8.923" fill="none" stroke="#1a4012" stroke-linecap="round" stroke-linejoin="round" stroke-width="2"/>
 <path d="m423.36 599.89c-2.186-7.252 1.071-13.998 9.656-9.461 9.39 4.965 6.088 13.88 14.672 24.442-10.97-1.805-19.471 2.168-28.723 1.652-10.657-0.594-9.385-18.393 4.395-16.633" fill="#1a7b45" stroke="#1a4012" stroke-linecap="round" stroke-linejoin="round" stroke-width="2"/>
 <path d="m422.7 599.56c5.284 1.32 7.183 1.995 12.112 5.077 5.282 3.302 10.826 8.767 12.877 10.233" fill="none" stroke="#1a4012" stroke-linecap="round" stroke-linejoin="round" stroke-width="2"/>
 <path d="m437.88 465.21s10.42-4.798 23.039-4.798 15.166-0.421 26.522 4.626 11.356 11.357 11.356 11.357h-2.274s-4.764-12.446-30.971-12.446c-18.581 0-31.991 10.861-31.991 10.861" fill="#5ba455" stroke="#0f420d" stroke-linecap="round" stroke-linejoin="round"/>
 <path d="m471.47 458.63c-7.543-21.824 32.439-24.924 42.617 2.738 7.515 20.426-3.869 36.1-16.203 50.057 6.455-14.701-24.779-17.147-31.803-17.388-18.652-0.64-10.459-37.157 8.298-33.067l-2.909-2.34z" fill="#1a7b45" stroke="#1a4012" stroke-linecap="round" stroke-linejoin="round" stroke-width="1.7724"/>
 <path d="m498.57 510.05c5.421-11.731 10.682-25.61 3.224-36.652-6.089-9.014-16.319-15.453-27.418-12.425" fill="none" stroke="#1a4012" stroke-linecap="round" stroke-linejoin="round" stroke-width="1.7724"/>
 <path d="m464.855,569.42c-.92-1.721 4.078-5.979 5.458-7.395 2.885-2.952 6.934-5.279 10.868-6.946 12.801-5.421 29.581-6.947 41.487.811 7.316,4.766 7.837,20.84-2.361,26.226-11.717,6.188-29.5-3.799-19.286-16.522 3.272-4.08 11.588-4.152 15.073-.594 3.224,3.292 1.77,10.048-3.751,10.533-4.708.413-6.979-6.911-2.546-8.719 1.075-.438 3.007.227 2.872,2.926-.095,1.956-1.71,1.515-1.183.132 .591-1.382-.264-2.436-1.384-1.844-2.153.83-2.172,4.214.318,5.92 1.99,1.363 4.678-.312 5.439-2.235 2.24-5.637-3.499-8.62-8.024-8.008-5.808.786-9.253,6.628-7.936,11.63 1.475,5.601 7.801,7.176 13.091,7.266 11.108.189 15.092-12.008 11.523-21.202-2.101-5.417-8.487-7.062-13.622-7.916-7.204-1.201-12.221-.833-19.161,1.397-5.489,1.767-10.998,3.984-15.76,7.156-4.683,3.122-8.51,7.671-11.974,11.97" fill="#5ba455" stroke="#0f420d" stroke-linecap="round" stroke-linejoin="round"/>
 <path d="m314.284,534.911c-.105.115.222.343-.201.432-6.12-2.263-14.308-1.564-20.128-4.599 2.666-4.431-7.583-10.438-11.157-11.781-10.04-3.775-16.962-3.621-27.988.586-5.753,2.196-13.529,6.686-13.66,12.321-.105,4.557 3.991,10.31 8.074,12.674 3.924,2.272 9.246,5.131 13.9,4.561 3.473-.428 8.239-2.584 7.224-6.737-1.347-5.494-10.062-8.13-14.098-4.157-2.452,2.414-1.042,5.83 1.842,6.116 3.705.373 5.022-1.522 2.312-1.465-1.769.039-3.309.116-3.491-1.437-.296-2.54 4.156-2.997 5.574-2.785 5.819.872 9.275,6.759 2.855,8.309-5.172,1.247-10.729-1.125-14.398-2.956-3.19-1.59-9.286-8.146-8.532-12.45 .88-5.023 8.045-8.619 10.943-9.76 12.407-4.875 16.868-4.772 26.178-1.98 3.76,1.127 6.713,3.287 9.644,5.831 2.653,2.302 2.946,3.489.032,6.001 3.85,1.899 8.248,2.448 11.729,3.153 5.597,1.138 11.867,1.814 17.019,4.569" fill="#5ba455" stroke="#0f420d" stroke-linecap="round" stroke-linejoin="round"/>
 <path d="m488.41 169.29c-2.378-0.123-6.206 1.199-8.592 2.098 3.312-6.087-4.776-6.895-8.85-4.987-5.278 2.47-7.454 8.925-9.852 13.452 4.909-4.407 9.094-3.604 13.512-2.339 8.278 2.369 9.876-6.172 4.998-5.459 5.098-2.17 7.567-2.816 8.784-2.765z" fill="#1a7b45" stroke="#1a4012" stroke-linecap="round" stroke-linejoin="round" stroke-width="2"/>
 <path d="m481.628,171.055c-2.563-.519-3.771-.618-6.374-.293-1.818.227-4.554,1.302-6.375,2.537-1.792,1.215-3.356,2.349-4.618,4.098" fill="none" stroke="#1a4012" stroke-linecap="round" stroke-linejoin="round" stroke-width="2"/>
</svg>
